# Blender 5.1.2
# www.blender.org
mtllib bush.mtl
o Circle
v -0.225000 0.092500 0.225000
v 0.225000 0.092500 0.225000
v -0.225000 0.092500 -0.225000
v 0.225000 0.092500 -0.225000
v 0.337500 0.092500 0.112500
v 0.337500 0.092500 -0.112500
v -0.337500 0.092500 -0.112500
v -0.337500 0.092500 0.112500
v 0.075000 0.272500 -0.075000
v -0.075000 0.272500 -0.075000
v 0.075000 0.272500 0.075000
v -0.075000 0.272500 0.075000
v 0.112500 0.092500 -0.337500
v -0.112500 0.092500 -0.337500
v -0.112500 0.092500 0.337500
v 0.112500 0.092500 0.337500
v 0.125000 0.000000 0.375000
v -0.125000 0.000000 0.375000
v -0.125000 0.000000 -0.375000
v 0.125000 0.000000 -0.375000
v -0.083333 0.200000 0.083333
v 0.083333 0.200000 0.083333
v -0.083333 0.200000 -0.083333
v 0.083333 0.200000 -0.083333
v -0.375000 0.000000 0.125000
v -0.375000 0.000000 -0.125000
v 0.375000 0.000000 -0.125000
v 0.375000 0.000000 0.125000
v 0.250000 0.000000 -0.250000
v -0.250000 0.000000 -0.250000
v 0.250000 0.000000 0.250000
v -0.250000 0.000000 0.250000
v -0.200000 0.185000 0.200000
v 0.200000 0.185000 0.200000
v -0.200000 0.185000 -0.200000
v 0.200000 0.185000 -0.200000
v 0.300000 0.185000 0.100000
v 0.300000 0.185000 -0.100000
v -0.300000 0.185000 -0.100000
v -0.300000 0.185000 0.100000
v 0.066667 0.345000 -0.066667
v -0.066667 0.345000 -0.066667
v 0.066667 0.345000 0.066667
v -0.066667 0.345000 0.066667
v 0.100000 0.185000 -0.300000
v -0.100000 0.185000 -0.300000
v -0.100000 0.185000 0.300000
v 0.100000 0.185000 0.300000
v -0.225000 0.092500 0.225000
v 0.225000 0.092500 0.225000
v -0.225000 0.092500 -0.225000
v 0.225000 0.092500 -0.225000
v 0.337500 0.092500 0.112500
v 0.337500 0.092500 -0.112500
v -0.337500 0.092500 -0.112500
v -0.337500 0.092500 0.112500
v 0.075000 0.272500 -0.075000
v -0.075000 0.272500 -0.075000
v 0.075000 0.272500 0.075000
v -0.075000 0.272500 0.075000
v 0.112500 0.092500 -0.337500
v -0.112500 0.092500 -0.337500
v -0.112500 0.092500 0.337500
v 0.112500 0.092500 0.337500
v 0.125000 0.000000 0.375000
v -0.125000 0.000000 0.375000
v -0.125000 0.000000 -0.375000
v 0.125000 0.000000 -0.375000
v -0.083333 0.200000 0.083333
v 0.083333 0.200000 0.083333
v -0.083333 0.200000 -0.083333
v 0.083333 0.200000 -0.083333
v -0.375000 0.000000 0.125000
v -0.375000 0.000000 -0.125000
v 0.375000 0.000000 -0.125000
v 0.375000 0.000000 0.125000
v 0.250000 0.000000 -0.250000
v -0.250000 0.000000 -0.250000
v 0.250000 0.000000 0.250000
v -0.250000 0.000000 0.250000
v -0.200000 0.185000 0.200000
v 0.200000 0.185000 0.200000
v -0.200000 0.185000 -0.200000
v 0.200000 0.185000 -0.200000
v 0.300000 0.185000 0.100000
v 0.300000 0.185000 -0.100000
v -0.300000 0.185000 -0.100000
v -0.300000 0.185000 0.100000
v 0.066667 0.345000 -0.066667
v -0.066667 0.345000 -0.066667
v 0.066667 0.345000 0.066667
v -0.066667 0.345000 0.066667
v 0.100000 0.185000 -0.300000
v -0.100000 0.185000 -0.300000
v -0.100000 0.185000 0.300000
v 0.100000 0.185000 0.300000
vn 0.4575 0.7625 -0.4575
vn 0.4575 0.7625 0.4575
vn 0.5655 0.8247 -0.0000
vn -0.5655 0.8247 -0.0000
vn -0.0000 1.0000 -0.0000
vn -0.4575 0.7625 0.4575
vn -0.0000 0.8247 0.5655
vn -0.4575 0.7625 -0.4575
vn -0.0000 0.8247 -0.5655
vn -0.4575 -0.7625 0.4575
vn -0.4575 -0.7625 -0.4575
vn -0.5655 -0.8247 -0.0000
vn 0.5655 -0.8247 -0.0000
vn -0.0000 -1.0000 -0.0000
vn 0.4575 -0.7625 -0.4575
vn -0.0000 -0.8247 -0.5655
vn 0.4575 -0.7625 0.4575
vn -0.0000 -0.8247 0.5655
vt 0.611111 0.611111
vt 0.833333 0.833333
vt 0.666667 1.000000
vt 0.833333 0.166667
vt 0.611111 0.388889
vt 0.666667 0.000000
vt 1.000000 0.333333
vt 0.000000 0.333333
vt 0.388889 0.611111
vt 0.000000 0.666667
vt 0.388889 0.388889
vt 0.166667 0.166667
vt 0.333333 0.000000
vt 0.166667 0.833333
vt 0.333333 1.000000
vt 0.600000 0.600000
vt 0.800000 0.800000
vt 0.650000 0.950000
vt 0.800000 0.200000
vt 0.600000 0.400000
vt 0.650000 0.050000
vt 0.950000 0.350000
vt 0.400000 0.400000
vt 0.050000 0.650000
vt 0.050000 0.350000
vt 0.400000 0.600000
vt 0.200000 0.200000
vt 0.350000 0.050000
vt 0.200000 0.800000
vt 0.350000 0.950000
vt 0.588889 0.588889
vt 0.766667 0.766667
vt 0.633333 0.900000
vt 0.766667 0.233333
vt 0.588889 0.411111
vt 0.633333 0.100000
vt 0.900000 0.366667
vt 0.411111 0.411111
vt 0.100000 0.633333
vt 0.100000 0.366667
vt 0.411111 0.588889
vt 0.233333 0.233333
vt 0.366667 0.100000
vt 0.233333 0.766667
vt 0.366667 0.900000
vt 1.000000 0.666667
vt 0.950000 0.650000
vt 0.900000 0.633333
s 0
f 24/1/1 29/2/1 20/3/1
f 31/4/2 22/5/2 17/6/2
f 28/7/3 24/1/3 22/5/3
f 25/8/4 23/9/4 26/10/4
f 22/5/5 23/9/5 21/11/5
f 32/12/6 21/11/6 25/8/6
f 17/6/7 21/11/7 18/13/7
f 23/9/8 30/14/8 26/10/8
f 24/1/9 19/15/9 23/9/9
f 9/16/1 4/17/1 13/18/1
f 2/19/2 11/20/2 16/21/2
f 5/22/3 9/16/3 11/20/3
f 12/23/4 7/24/4 8/25/4
f 11/20/5 10/26/5 12/23/5
f 1/27/6 12/23/6 8/25/6
f 16/21/7 12/23/7 15/28/7
f 10/26/8 3/29/8 7/24/8
f 9/16/9 14/30/9 10/26/9
f 41/31/1 36/32/1 45/33/1
f 34/34/2 43/35/2 48/36/2
f 37/37/3 41/31/3 43/35/3
f 44/38/4 39/39/4 40/40/4
f 43/35/5 42/41/5 44/38/5
f 33/42/6 44/38/6 40/40/6
f 48/36/7 44/38/7 47/43/7
f 42/41/8 35/44/8 39/39/8
f 41/31/9 46/45/9 42/41/9
f 72/1/10 77/2/10 75/46/10
f 70/5/11 79/4/11 65/6/11
f 72/1/12 76/7/12 70/5/12
f 74/10/13 69/11/13 73/8/13
f 71/9/14 70/5/14 69/11/14
f 80/12/15 69/11/15 66/13/15
f 66/13/16 70/5/16 65/6/16
f 78/14/17 71/9/17 74/10/17
f 67/15/18 72/1/18 71/9/18
f 57/16/10 52/17/10 54/47/10
f 59/20/11 50/19/11 64/21/11
f 57/16/12 53/22/12 59/20/12
f 55/24/13 60/23/13 56/25/13
f 58/26/14 59/20/14 60/23/14
f 49/27/15 60/23/15 63/28/15
f 60/23/16 64/21/16 63/28/16
f 51/29/17 58/26/17 55/24/17
f 62/30/18 57/16/18 58/26/18
f 89/31/10 84/32/10 86/48/10
f 91/35/11 82/34/11 96/36/11
f 89/31/12 85/37/12 91/35/12
f 87/39/13 92/38/13 88/40/13
f 90/41/14 91/35/14 92/38/14
f 81/42/15 92/38/15 95/43/15
f 92/38/16 96/36/16 95/43/16
f 83/44/17 90/41/17 87/39/17
f 94/45/18 89/31/18 90/41/18
f 24/1/1 27/46/1 29/2/1
f 31/4/2 28/7/2 22/5/2
f 28/7/3 27/46/3 24/1/3
f 25/8/4 21/11/4 23/9/4
f 22/5/5 24/1/5 23/9/5
f 32/12/6 18/13/6 21/11/6
f 17/6/7 22/5/7 21/11/7
f 23/9/8 19/15/8 30/14/8
f 24/1/9 20/3/9 19/15/9
f 9/16/1 6/47/1 4/17/1
f 2/19/2 5/22/2 11/20/2
f 5/22/3 6/47/3 9/16/3
f 12/23/4 10/26/4 7/24/4
f 11/20/5 9/16/5 10/26/5
f 1/27/6 15/28/6 12/23/6
f 16/21/7 11/20/7 12/23/7
f 10/26/8 14/30/8 3/29/8
f 9/16/9 13/18/9 14/30/9
f 41/31/1 38/48/1 36/32/1
f 34/34/2 37/37/2 43/35/2
f 37/37/3 38/48/3 41/31/3
f 44/38/4 42/41/4 39/39/4
f 43/35/5 41/31/5 42/41/5
f 33/42/6 47/43/6 44/38/6
f 48/36/7 43/35/7 44/38/7
f 42/41/8 46/45/8 35/44/8
f 41/31/9 45/33/9 46/45/9
f 72/1/10 68/3/10 77/2/10
f 70/5/11 76/7/11 79/4/11
f 72/1/12 75/46/12 76/7/12
f 74/10/13 71/9/13 69/11/13
f 71/9/14 72/1/14 70/5/14
f 80/12/15 73/8/15 69/11/15
f 66/13/16 69/11/16 70/5/16
f 78/14/17 67/15/17 71/9/17
f 67/15/18 68/3/18 72/1/18
f 57/16/10 61/18/10 52/17/10
f 59/20/11 53/22/11 50/19/11
f 57/16/12 54/47/12 53/22/12
f 55/24/13 58/26/13 60/23/13
f 58/26/14 57/16/14 59/20/14
f 49/27/15 56/25/15 60/23/15
f 60/23/16 59/20/16 64/21/16
f 51/29/17 62/30/17 58/26/17
f 62/30/18 61/18/18 57/16/18
f 89/31/10 93/33/10 84/32/10
f 91/35/11 85/37/11 82/34/11
f 89/31/12 86/48/12 85/37/12
f 87/39/13 90/41/13 92/38/13
f 90/41/14 89/31/14 91/35/14
f 81/42/15 88/40/15 92/38/15
f 92/38/16 91/35/16 96/36/16
f 83/44/17 94/45/17 90/41/17
f 94/45/18 93/33/18 89/31/18
