# Blender 5.1.2
# www.blender.org
mtllib grass.mtl
o Plane
v 0.000000 1.000000 0.500000
v 0.000000 0.000000 0.500000
v 0.000000 1.000000 -0.500000
v 0.000000 0.000000 -0.500000
v -0.000000 1.000000 -0.500000
v -0.000000 0.000000 -0.500000
v 0.000000 1.000000 0.500000
v 0.000000 0.000000 0.500000
v 0.500000 1.000000 0.000000
v 0.500000 0.000000 0.000000
v -0.500000 1.000000 0.000000
v -0.500000 0.000000 0.000000
v -0.500000 1.000000 0.000000
v -0.500000 0.000000 0.000000
v 0.500000 1.000000 -0.000000
v 0.500000 0.000000 -0.000000
v 0.000000 1.000000 0.000000
v 0.000000 0.000000 0.000000
v -0.500000 0.500000 0.000000
v 0.500000 0.500000 -0.000000
v 0.000000 0.500000 0.000000
v -0.000000 0.500000 -0.500000
v 0.000000 0.500000 0.500000
vn 1.0000 -0.0000 -0.0000
vn -1.0000 -0.0000 -0.0000
vn -0.0000 -0.0000 -1.0000
vn -0.0000 -0.0000 1.0000
vt 1.000000 1.000000
vt 0.000000 0.000000
vt 1.000000 0.000000
vt 0.000000 0.500000
vt 1.000000 0.500000
vt 0.500000 1.000000
vt 0.500000 0.500000
vt 0.500000 0.000000
vt 0.000000 1.000000
s 0
f 2/1/1 3/2/1 1/3/1
f 6/1/2 23/4/2 22/5/2
f 10/1/3 11/2/3 9/3/3
f 18/6/4 20/4/4 21/7/4
f 14/1/4 21/7/4 19/5/4
f 19/5/4 17/8/4 13/3/4
f 21/7/4 15/2/4 17/8/4
f 22/5/2 7/2/2 5/3/2
f 2/1/1 4/9/1 3/2/1
f 6/1/2 8/9/2 23/4/2
f 10/1/3 12/9/3 11/2/3
f 18/6/4 16/9/4 20/4/4
f 14/1/4 18/6/4 21/7/4
f 19/5/4 21/7/4 17/8/4
f 21/7/4 20/4/4 15/2/4
f 22/5/2 23/4/2 7/2/2
