# Blender 5.1.2
# www.blender.org
mtllib tree.mtl
o Cylinder
v 0.000000 0.000000 -0.680000
v 0.000000 4.850000 -0.250000
v 0.353553 0.000000 -0.353553
v 0.176777 4.850000 -0.176777
v 0.320000 0.000000 0.000000
v 0.250000 4.850000 0.000000
v 0.353553 0.000000 0.353553
v 0.176777 4.850000 0.176777
v 0.000000 0.000000 0.680000
v 0.000000 4.850000 0.250000
v -0.273553 0.000000 0.353553
v -0.176777 4.850000 0.176777
v -0.500000 0.000000 0.000000
v -0.250000 4.850000 0.000000
v -0.103553 0.000000 -0.353553
v -0.176777 4.850000 -0.176777
v 0.000000 1.666667 -0.250000
v 0.000000 3.333333 -0.250000
v 0.176777 3.333333 -0.176777
v 0.176777 1.666667 -0.176777
v 0.250000 3.333333 0.000000
v 0.250000 1.666667 0.000000
v 0.176777 3.333333 0.176777
v 0.176777 1.666667 0.176777
v 0.000000 3.333333 0.250000
v 0.000000 1.666667 0.250000
v -0.176777 3.333333 0.176777
v -0.176777 1.666667 0.176777
v -0.250000 3.333333 0.000000
v -0.250000 1.666667 0.000000
v -0.176777 3.333333 -0.176777
v -0.176777 1.666667 -0.176777
v 0.176777 0.283333 -0.176777
v 0.250000 0.283333 0.000000
v 0.176777 0.283333 0.176777
v 0.000000 0.283333 0.250000
v -0.176777 0.283333 0.176777
v -0.250000 0.283333 0.000000
v -0.176777 0.283333 -0.176777
v 0.000000 0.283333 -0.250000
v 0.000000 2.222222 -0.250000
v 0.000000 2.777778 -0.250000
v 0.176777 2.777778 -0.176777
v 0.176777 2.222222 -0.176777
v 0.250000 2.777778 0.000000
v 0.250000 2.222222 0.000000
v 0.176777 2.777778 0.176777
v 0.176777 2.222222 0.176777
v 0.000000 2.777778 0.250000
v 0.000000 2.222222 0.250000
v -0.176777 2.777778 0.176777
v -0.176777 2.222222 0.176777
v -0.250000 2.777778 0.000000
v -0.250000 2.222222 0.000000
v -0.176777 2.777778 -0.176777
v -0.176777 2.222222 -0.176777
v 0.000000 3.888889 -0.250000
v 0.000000 4.444445 -0.250000
v 0.176777 4.444445 -0.176777
v 0.176777 3.888889 -0.176777
v 0.250000 4.444445 0.000000
v 0.250000 3.888889 0.000000
v 0.176777 4.444445 0.176777
v 0.176777 3.888889 0.176777
v 0.000000 4.444445 0.250000
v 0.000000 3.888889 0.250000
v -0.176777 4.444445 0.176777
v -0.176777 3.888889 0.176777
v -0.250000 4.444445 0.000000
v -0.250000 3.888889 0.000000
v -0.176777 4.444445 -0.176777
v -0.176777 3.888889 -0.176777
v -0.759460 5.000000 1.100656
v -0.182683 5.000000 1.173880
v -0.182683 4.844445 1.173880
v -0.759460 4.844445 1.100656
v -1.100656 5.000000 -0.759460
v -1.173880 5.000000 -0.182683
v -1.173880 4.844445 -0.182683
v -1.100656 4.844445 -0.759460
v 0.759460 5.000000 -1.100656
v 0.182683 5.000000 -1.173880
v 0.182683 4.844445 -1.173880
v 0.759460 4.844445 -1.100656
v 1.100656 5.000000 0.759460
v 1.173880 5.000000 0.182683
v 1.173880 4.844445 0.182683
v 1.100656 4.844445 0.759460
v 0.480970 4.844445 -0.104329
v 0.407747 4.844445 0.472448
v 0.407747 5.000000 0.472448
v 0.480970 5.000000 -0.104329
v 0.472448 4.844445 -0.407747
v 0.472448 5.000000 -0.407747
v -0.104329 4.844445 -0.480970
v -0.104329 5.000000 -0.480970
v -0.407747 4.844445 -0.472448
v -0.407747 5.000000 -0.472448
v -0.480970 5.000000 0.104329
v -0.480970 4.844445 0.104329
v -0.472448 5.000000 0.407747
v 0.104329 5.000000 0.480970
v 0.104329 4.844445 0.480970
v -0.472448 4.844445 0.407747
v 1.046473 4.600000 -1.793566
v 0.469696 4.600000 -1.866789
v 0.469696 4.444445 -1.866789
v 1.046473 4.444445 -1.793566
v -1.793566 4.600000 -1.046473
v -1.866789 4.600000 -0.469696
v -1.866789 4.444445 -0.469696
v -1.793566 4.444445 -1.046473
v -1.046473 4.600000 1.793566
v -0.469696 4.600000 1.866789
v -0.469696 4.444445 1.866789
v -1.046473 4.444445 1.793566
v 1.793566 4.600000 1.046473
v 1.866789 4.600000 0.469696
v 1.866789 4.444445 0.469696
v 1.793566 4.444445 1.046473
vn 0.9239 -0.0000 0.3827
vn 0.9239 -0.0000 -0.3827
vn -0.0000 -1.0000 -0.0000
vn 0.3827 -0.0000 0.9239
vn -0.0000 1.0000 -0.0000
vn -0.9239 -0.0000 0.3827
vn 0.3827 -0.0000 -0.9239
vn -0.3827 -0.0000 -0.9239
vn -0.9239 -0.0000 -0.3827
vn -0.3827 -0.0000 0.9239
vn 0.4529 0.7445 -0.4905
vn 0.8678 0.4900 0.0824
vn 0.8678 0.4900 -0.0824
vn 0.4529 0.7445 0.4905
vn -0.5489 0.6980 0.4599
vn -0.7144 0.5295 0.4575
vn -0.6386 0.2817 -0.7161
vn -0.8663 0.4171 -0.2748
vn 0.0609 -0.8752 -0.4800
vn -0.0609 -0.8752 0.4800
vn -0.4117 -0.0000 -0.9113
vn -0.7881 -0.0000 0.6156
vn -0.6043 0.7564 -0.2503
vn 0.8257 -0.5543 0.1048
vn -0.9113 -0.0000 0.4117
vn -0.2503 0.7564 0.6043
vn 0.1048 -0.5543 -0.8257
vn 0.6156 -0.0000 0.7881
vn 0.6043 0.7564 0.2503
vn -0.8257 -0.5543 -0.1048
vn 0.4117 -0.0000 0.9113
vn 0.7881 -0.0000 -0.6156
vn 0.9113 -0.0000 -0.4117
vn -0.6156 -0.0000 -0.7881
vn -0.1048 -0.5543 0.8257
vn 0.2503 0.7564 -0.6043
vn 0.1259 -0.0000 -0.9920
vn 0.0609 0.8752 -0.4800
vn -0.9920 -0.0000 -0.1259
vn -0.4800 0.8752 -0.0609
vn 0.4800 -0.8752 0.0609
vn -0.1259 -0.0000 0.9920
vn -0.0609 0.8752 0.4800
vn 0.9920 -0.0000 0.1259
vn 0.4800 0.8752 0.0609
vn -0.4800 -0.8752 -0.0609
vn 0.2966 0.6318 -0.7161
vn 0.9007 0.2225 -0.3731
vn 0.9007 0.2225 0.3731
vn 0.2966 0.6318 0.7161
vn -0.3125 0.5774 0.7543
vn -0.7161 0.6318 0.2966
vn -0.7161 0.6318 -0.2966
vn -0.3453 0.4309 -0.8337
vn -0.4868 0.8713 -0.0618
vn 0.8476 -0.3979 0.3511
vn -0.0618 0.8713 0.4868
vn 0.3511 -0.3979 -0.8476
vn 0.4868 0.8713 0.0618
vn -0.8476 -0.3979 -0.3511
vn -0.3511 -0.3979 0.8476
vn 0.0618 0.8713 -0.4868
vt 0.581549 1.468889
vt 0.720131 1.500000
vt 0.581549 1.500000
vt 0.535355 1.470000
vt 0.500000 1.388889
vt 0.535355 1.388889
vt 0.581549 0.405510
vt 0.734776 0.463463
vt 0.720131 0.348108
vt 0.405510 0.418451
vt 0.463463 0.265224
vt 0.520866 0.403806
vt 0.464645 1.470000
vt 0.464645 1.388889
vt 0.450000 0.500000
vt 0.500000 0.450000
vt 0.550000 0.500000
vt 0.418451 1.468889
vt 0.279869 1.500000
vt 0.418451 1.500000
vt 0.564000 0.500000
vt 0.445289 0.429289
vt 0.479289 0.570711
vt 0.464645 0.833333
vt 0.500000 0.556667
vt 0.464645 0.556667
vt 0.464645 1.166667
vt 0.500000 1.055556
vt 0.464645 1.055556
vt 0.500000 0.833333
vt 0.535355 0.556667
vt 0.500000 1.166667
vt 0.535355 1.055556
vt 0.535355 0.833333
vt 0.535355 1.166667
vt 0.500000 0.550000
vt 0.570711 0.570711
vt 0.500000 0.636000
vt 0.500000 0.500000
vt 0.570711 0.500000
vt 0.429289 0.500000
vt 0.570711 0.429289
vt 0.500000 0.364000
vt 0.550000 0.556667
vt 0.636000 0.500000
vt 0.500000 0.833333
vt 0.535355 0.944444
vt 0.500000 0.944444
vt 0.500000 0.944444
vt 0.464645 0.944444
vt 0.464645 1.277778
vt 0.500000 1.166667
vt 0.500000 1.277778
vt 0.535355 1.277778
vt 0.348108 0.279869
vt 0.406061 0.126642
vt 0.290705 0.141287
vt 0.403806 1.500000
vt 0.265224 1.468889
vt 0.403806 1.468889
vt 0.279869 1.468889
vt 0.141287 1.420000
vt 0.418451 0.594490
vt 0.265224 0.536537
vt 0.279869 0.651892
vt 0.403806 0.479134
vt 0.651892 0.720131
vt 0.593939 0.873358
vt 0.709295 0.858713
vt 0.594490 0.581549
vt 0.536537 0.734776
vt 0.479134 0.596194
vt 0.596194 1.500000
vt 0.734776 1.468889
vt 0.596194 1.468889
vt 0.873358 1.420000
vt 0.873358 1.388889
vt 0.596194 0.520866
vt 0.550000 1.470000
vt 0.550000 1.388889
vt 0.405510 1.468889
vt 0.405510 1.500000
vt 0.535355 0.464645
vt 0.520866 1.468889
vt 0.535355 0.535355
vt 0.479134 1.468889
vt 0.594490 1.468889
vt 0.594490 1.500000
vt 0.464645 0.535355
vt 0.450000 1.470000
vt 0.450000 1.388889
vt 0.464645 0.464645
vt 0.593939 1.420000
vt 0.709295 1.388889
vt 0.593939 1.388889
vt 0.720131 1.468889
vt 0.858713 1.420000
vt 0.126642 0.593939
vt 0.141287 0.709295
vt 0.126642 1.420000
vt 0.126642 1.388889
vt 0.406061 1.420000
vt 0.290705 1.388889
vt 0.406061 1.388889
vt 0.873358 0.406061
vt 0.858713 0.290705
vt 0.500000 1.470000
vt 0.400000 0.500000
vt 0.265224 1.500000
vt 0.141287 1.388889
vt 0.734776 1.500000
vt 0.709295 1.420000
vt 0.858713 1.388889
vt 0.290705 1.420000
s 0
usemtl Leaves
f 93/1/1 81/2/1 94/3/1
f 4/4/2 61/5/2 59/6/2
f 90/7/3 87/8/3 88/9/3
f 8/4/4 65/5/4 63/6/4
f 101/10/5 74/11/5 102/12/5
f 12/13/6 69/5/6 67/14/6
f 14/15/5 10/16/5 6/17/5
f 97/18/7 77/19/7 98/20/7
f 16/13/8 58/5/8 71/14/8
f 76/55/19 115/56/19 116/57/19
f 104/10/3 75/11/3 76/55/3
f 104/18/9 73/19/9 101/20/9
f 102/58/1 75/59/1 103/60/1
f 80/61/7 109/62/7 77/19/7
f 99/58/10 79/59/10 100/60/10
f 97/63/3 79/64/3 80/65/3
f 98/63/5 78/64/5 99/66/5
f 84/67/20 107/68/20 108/69/20
f 93/70/3 83/71/3 84/67/3
f 94/70/5 82/71/5 96/72/5
f 96/73/9 83/74/9 95/75/9
f 87/74/7 118/76/7 119/77/7
f 91/7/5 86/8/5 92/78/5
f 90/1/10 85/2/10 91/3/10
f 92/73/7 87/74/7 89/75/7
f 6/79/21 89/75/21 61/80/21
f 8/13/22 90/81/22 91/82/22
f 8/83/23 92/78/23 6/17/23
f 63/14/24 89/84/24 90/81/24
f 2/79/25 95/75/25 58/80/25
f 4/85/26 96/72/26 2/36/26
f 59/6/27 95/86/27 93/87/27
f 4/4/28 93/87/28 94/88/28
f 16/89/29 99/66/29 14/15/29
f 71/6/30 100/86/30 97/87/30
f 14/90/31 100/60/31 69/91/31
f 16/4/32 97/87/32 98/88/32
f 10/90/33 103/60/33 65/91/33
f 12/13/34 104/81/34 101/82/34
f 67/14/35 103/84/35 104/81/35
f 12/92/36 102/12/36 10/16/36
f 106/93/37 108/94/37 107/95/37
f 83/74/9 106/76/9 107/77/9
f 84/96/1 105/97/1 81/2/1
f 81/67/38 106/68/38 82/71/38
f 110/93/39 112/94/39 111/95/39
f 77/65/40 110/98/40 78/64/40
f 80/65/41 111/98/41 112/99/41
f 79/59/10 110/100/10 111/101/10
f 114/102/42 116/103/42 115/104/42
f 75/59/1 114/100/1 115/101/1
f 76/61/9 113/62/9 73/19/9
f 73/55/43 114/56/43 74/11/43
f 118/102/44 120/103/44 119/104/44
f 88/96/10 117/97/10 85/2/10
f 85/9/45 118/105/45 86/8/45
f 88/9/46 119/105/46 120/106/46
f 93/1/1 84/96/1 81/2/1
f 4/4/2 6/107/2 61/5/2
f 90/7/3 89/78/3 87/8/3
f 8/4/4 10/107/4 65/5/4
f 101/10/5 73/55/5 74/11/5
f 12/13/6 14/107/6 69/5/6
f 6/17/5 4/85/5 2/36/5
f 2/36/5 16/89/5 14/15/5
f 14/15/5 12/92/5 10/16/5
f 10/16/5 8/83/5 6/17/5
f 6/17/5 2/36/5 14/15/5
f 97/18/7 80/61/7 77/19/7
f 16/13/8 2/107/8 58/5/8
f 76/55/19 75/11/19 115/56/19
f 104/10/3 103/12/3 75/11/3
f 104/18/9 76/61/9 73/19/9
f 102/58/1 74/109/1 75/59/1
f 80/61/7 112/110/7 109/62/7
f 99/58/10 78/109/10 79/59/10
f 97/63/3 100/66/3 79/64/3
f 98/63/5 77/65/5 78/64/5
f 84/67/20 83/71/20 107/68/20
f 93/70/3 95/72/3 83/71/3
f 94/70/5 81/67/5 82/71/5
f 96/73/9 82/111/9 83/74/9
f 87/74/7 86/111/7 118/76/7
f 91/7/5 85/9/5 86/8/5
f 90/1/10 88/96/10 85/2/10
f 92/73/7 86/111/7 87/74/7
f 6/79/21 92/73/21 89/75/21
f 8/13/22 63/14/22 90/81/22
f 8/83/55 91/7/55 92/78/55
f 63/14/56 61/5/56 89/84/56
f 2/79/25 96/73/25 95/75/25
f 4/85/57 94/70/57 96/72/57
f 59/6/58 58/5/58 95/86/58
f 4/4/28 59/6/28 93/87/28
f 16/89/59 98/63/59 99/66/59
f 71/6/60 69/5/60 100/86/60
f 14/90/31 99/58/31 100/60/31
f 16/4/32 71/6/32 97/87/32
f 10/90/33 102/58/33 103/60/33
f 12/13/34 67/14/34 104/81/34
f 67/14/61 65/5/61 103/84/61
f 12/92/62 101/10/62 102/12/62
f 106/93/37 105/112/37 108/94/37
f 83/74/9 82/111/9 106/76/9
f 84/96/1 108/113/1 105/97/1
f 81/67/38 105/69/38 106/68/38
f 110/93/39 109/112/39 112/94/39
f 77/65/40 109/99/40 110/98/40
f 80/65/41 79/64/41 111/98/41
f 79/59/10 78/109/10 110/100/10
f 114/102/42 113/114/42 116/103/42
f 75/59/1 74/109/1 114/100/1
f 76/61/9 116/110/9 113/62/9
f 73/55/43 113/57/43 114/56/43
f 118/102/44 117/114/44 120/103/44
f 88/96/10 120/113/10 117/97/10
f 85/9/45 117/106/45 118/105/45
f 88/9/46 87/8/46 119/105/46
usemtl Wood
f 5/21/3 11/22/3 15/23/3
f 32/24/8 40/25/8 39/26/8
f 31/27/8 42/28/8 55/29/8
f 30/30/9 39/31/9 38/25/9
f 29/32/9 55/33/9 53/28/9
f 28/24/6 38/25/6 37/26/6
f 27/27/6 53/28/6 51/29/6
f 26/30/10 37/26/10 36/25/10
f 25/32/10 51/29/10 49/28/10
f 24/34/4 36/25/4 35/31/4
f 23/35/4 49/28/4 47/33/4
f 22/30/1 35/26/1 34/25/1
f 21/32/1 47/29/1 45/28/1
f 20/34/2 34/25/2 33/31/2
f 19/35/2 45/28/2 43/33/2
f 40/25/7 20/34/7 33/31/7
f 42/28/7 19/35/7 43/33/7
f 40/36/11 3/37/11 1/38/11
f 33/31/12 5/39/12 3/40/12
f 5/39/13 35/26/13 7/41/13
f 7/42/14 36/16/14 9/43/14
f 36/16/15 11/22/15 9/43/15
f 37/26/16 13/39/16 11/41/16
f 13/39/17 39/31/17 15/40/17
f 15/40/18 40/44/18 1/45/18
f 17/46/7 44/47/7 20/34/7
f 41/48/7 43/33/7 44/47/7
f 44/47/2 22/30/2 20/34/2
f 43/33/2 46/49/2 44/47/2
f 46/49/1 24/24/1 22/30/1
f 45/28/1 48/50/1 46/49/1
f 48/47/4 26/30/4 24/34/4
f 47/33/4 50/49/4 48/47/4
f 50/49/10 28/24/10 26/30/10
f 49/28/10 52/50/10 50/49/10
f 52/50/6 30/30/6 28/24/6
f 51/29/6 54/49/6 52/50/6
f 54/49/9 32/34/9 30/30/9
f 53/28/9 56/47/9 54/49/9
f 56/50/8 17/46/8 32/24/8
f 55/29/8 41/48/8 56/50/8
f 72/51/8 18/52/8 31/27/8
f 71/14/8 57/53/8 72/51/8
f 70/53/9 31/35/9 29/32/9
f 69/5/9 72/54/9 70/53/9
f 68/51/6 29/32/6 27/27/6
f 67/14/6 70/53/6 68/51/6
f 66/53/10 27/27/10 25/32/10
f 65/5/10 68/51/10 66/53/10
f 64/54/4 25/32/4 23/35/4
f 63/6/4 66/53/4 64/54/4
f 62/53/1 23/27/1 21/32/1
f 61/5/1 64/51/1 62/53/1
f 60/54/2 21/32/2 19/35/2
f 59/6/2 62/53/2 60/54/2
f 18/52/7 60/54/7 19/35/7
f 57/53/7 59/6/7 60/54/7
f 15/23/3 1/38/3 3/37/3
f 5/21/3 7/42/3 9/43/3
f 15/23/3 3/37/3 5/21/3
f 11/22/3 13/108/3 15/23/3
f 5/21/3 9/43/3 11/22/3
f 32/24/8 17/46/8 40/25/8
f 31/27/8 18/52/8 42/28/8
f 30/30/9 32/34/9 39/31/9
f 29/32/9 31/35/9 55/33/9
f 28/24/6 30/30/6 38/25/6
f 27/27/6 29/32/6 53/28/6
f 26/30/10 28/24/10 37/26/10
f 25/32/10 27/27/10 51/29/10
f 24/34/4 26/30/4 36/25/4
f 23/35/4 25/32/4 49/28/4
f 22/30/1 24/24/1 35/26/1
f 21/32/1 23/27/1 47/29/1
f 20/34/2 22/30/2 34/25/2
f 19/35/2 21/32/2 45/28/2
f 40/25/7 17/46/7 20/34/7
f 42/28/7 18/52/7 19/35/7
f 40/36/47 33/85/47 3/37/47
f 33/31/48 34/25/48 5/39/48
f 5/39/49 34/25/49 35/26/49
f 7/42/50 35/83/50 36/16/50
f 36/16/51 37/92/51 11/22/51
f 37/26/52 38/25/52 13/39/52
f 13/39/53 38/25/53 39/31/53
f 15/40/54 39/31/54 40/44/54
f 17/46/7 41/48/7 44/47/7
f 41/48/7 42/28/7 43/33/7
f 44/47/2 46/49/2 22/30/2
f 43/33/2 45/28/2 46/49/2
f 46/49/1 48/50/1 24/24/1
f 45/28/1 47/29/1 48/50/1
f 48/47/4 50/49/4 26/30/4
f 47/33/4 49/28/4 50/49/4
f 50/49/10 52/50/10 28/24/10
f 49/28/10 51/29/10 52/50/10
f 52/50/6 54/49/6 30/30/6
f 51/29/6 53/28/6 54/49/6
f 54/49/9 56/47/9 32/34/9
f 53/28/9 55/33/9 56/47/9
f 56/50/8 41/48/8 17/46/8
f 55/29/8 42/28/8 41/48/8
f 72/51/8 57/53/8 18/52/8
f 71/14/8 58/5/8 57/53/8
f 70/53/9 72/54/9 31/35/9
f 69/5/9 71/6/9 72/54/9
f 68/51/6 70/53/6 29/32/6
f 67/14/6 69/5/6 70/53/6
f 66/53/10 68/51/10 27/27/10
f 65/5/10 67/14/10 68/51/10
f 64/54/4 66/53/4 25/32/4
f 63/6/4 65/5/4 66/53/4
f 62/53/1 64/51/1 23/27/1
f 61/5/1 63/14/1 64/51/1
f 60/54/2 62/53/2 21/32/2
f 59/6/2 61/5/2 62/53/2
f 18/52/7 57/53/7 60/54/7
f 57/53/7 58/5/7 59/6/7
