# Blender 5.1.2
# www.blender.org
mtllib barrel.mtl
o Cylinder
v 0.000000 -0.450000 -0.318750
v 0.121980 -0.450000 -0.294487
v 0.225390 -0.450000 -0.225390
v 0.294487 -0.450000 -0.121980
v 0.318750 -0.450000 -0.000000
v 0.294487 -0.450000 0.121980
v 0.225390 -0.450000 0.225390
v 0.121980 -0.450000 0.294487
v 0.000000 -0.450000 0.318750
v -0.121980 -0.450000 0.294487
v -0.225390 -0.450000 0.225390
v -0.294487 -0.450000 0.121980
v -0.318750 -0.450000 -0.000000
v -0.294487 -0.450000 -0.121980
v -0.225390 -0.450000 -0.225390
v -0.121980 -0.450000 -0.294487
v 0.125445 0.450000 -0.295922
v 0.003465 0.450000 -0.320185
v 0.228855 0.450000 -0.226825
v 0.297951 0.450000 -0.123415
v 0.322215 0.450000 -0.001435
v 0.297951 0.450000 0.120545
v 0.228855 0.450000 0.223955
v 0.125445 0.450000 0.293052
v 0.003465 0.450000 0.317315
v -0.118516 0.450000 0.293052
v -0.221926 0.450000 0.223955
v -0.291022 0.450000 -0.123415
v -0.315285 0.450000 -0.001435
v -0.221926 0.450000 -0.226825
v -0.118516 0.450000 -0.295922
v 0.125445 0.480000 -0.295922
v 0.132121 0.500000 -0.314602
v 0.002193 0.500000 -0.340306
v 0.003465 0.480000 -0.320185
v 0.228855 0.480000 -0.226825
v 0.242343 0.500000 -0.241067
v 0.297951 0.480000 -0.123415
v 0.316000 0.500000 -0.130892
v 0.322215 0.480000 -0.001435
v 0.341823 0.500000 -0.000902
v 0.297951 0.480000 0.120545
v 0.315881 0.500000 0.129033
v 0.228855 0.480000 0.223955
v 0.242183 0.500000 0.239082
v 0.125445 0.480000 0.293052
v 0.132023 0.500000 0.312503
v 0.003465 0.480000 0.317315
v 0.002212 0.500000 0.338178
v -0.118516 0.480000 0.293052
v -0.127509 0.500000 0.312270
v -0.221926 0.480000 0.223955
v -0.237458 0.500000 0.238759
v -0.291022 0.480000 -0.123415
v -0.310971 0.500000 -0.130646
v -0.336736 0.500000 -0.000920
v -0.315285 0.480000 -0.001435
v -0.221926 0.480000 -0.226825
v -0.237564 0.500000 -0.240692
v -0.118516 0.480000 -0.295922
v -0.127618 0.500000 -0.314327
v 0.000000 0.480000 -0.375000
v 0.001272 0.500000 -0.354878
v 0.136830 0.500000 -0.327774
v 0.143506 0.480000 -0.346455
v 0.251676 0.500000 -0.250923
v 0.265165 0.480000 -0.265165
v 0.328405 0.500000 -0.136030
v 0.346455 0.480000 -0.143506
v 0.355391 0.500000 -0.000533
v 0.375000 0.480000 -0.000000
v 0.328524 0.500000 0.135018
v 0.346455 0.480000 0.143506
v 0.251836 0.500000 0.250037
v 0.265165 0.480000 0.265165
v 0.136927 0.500000 0.327003
v 0.143506 0.480000 0.346455
v 0.001253 0.500000 0.354135
v 0.000000 0.480000 0.375000
v -0.134512 0.500000 0.327234
v -0.143506 0.480000 0.346455
v -0.252111 0.500000 0.248702
v -0.265165 0.480000 0.265165
v -0.327615 0.500000 0.135703
v -0.346455 0.480000 0.143506
v -0.354129 0.500000 0.002410
v -0.375000 0.480000 -0.000000
v -0.326504 0.500000 -0.136275
v -0.346455 0.480000 -0.143506
v -0.249526 0.500000 -0.251298
v -0.265165 0.480000 -0.265165
v -0.134404 0.500000 -0.328048
v -0.143506 0.480000 -0.346455
v 0.000000 -0.480000 -0.318750
v 0.000000 -0.500000 -0.339142
v 0.129784 -0.500000 -0.313326
v 0.121980 -0.480000 -0.294487
v 0.239809 -0.500000 -0.239809
v 0.225390 -0.480000 -0.225390
v 0.313326 -0.500000 -0.129784
v 0.294487 -0.480000 -0.121980
v 0.339142 -0.500000 -0.000000
v 0.318750 -0.480000 -0.000000
v 0.313326 -0.500000 0.129784
v 0.294487 -0.480000 0.121980
v 0.239809 -0.500000 0.239809
v 0.225390 -0.480000 0.225390
v 0.129784 -0.500000 0.313326
v 0.121980 -0.480000 0.294487
v 0.000000 -0.500000 0.339142
v 0.000000 -0.480000 0.318750
v -0.129784 -0.500000 0.313326
v -0.121980 -0.480000 0.294487
v -0.239809 -0.500000 0.239809
v -0.225390 -0.480000 0.225390
v -0.313326 -0.500000 0.129784
v -0.294487 -0.480000 0.121980
v -0.339142 -0.500000 -0.000000
v -0.318750 -0.480000 -0.000000
v -0.313326 -0.500000 -0.129784
v -0.294487 -0.480000 -0.121980
v -0.239809 -0.500000 -0.239809
v -0.225390 -0.480000 -0.225390
v -0.129784 -0.500000 -0.313326
v -0.121980 -0.480000 -0.294487
v 0.000000 -0.500000 -0.354608
v 0.000000 -0.480000 -0.375000
v 0.143506 -0.480000 -0.346455
v 0.135703 -0.500000 -0.327615
v 0.265165 -0.480000 -0.265165
v 0.250746 -0.500000 -0.250746
v 0.346455 -0.480000 -0.143506
v 0.327615 -0.500000 -0.135703
v 0.375000 -0.480000 -0.000000
v 0.354608 -0.500000 -0.000000
v 0.346455 -0.480000 0.143506
v 0.327615 -0.500000 0.135703
v 0.265165 -0.480000 0.265165
v 0.250746 -0.500000 0.250746
v 0.143506 -0.480000 0.346455
v 0.135703 -0.500000 0.327615
v 0.000000 -0.480000 0.375000
v 0.000000 -0.500000 0.354608
v -0.143506 -0.480000 0.346455
v -0.135703 -0.500000 0.327615
v -0.265165 -0.480000 0.265165
v -0.250746 -0.500000 0.250746
v -0.346455 -0.480000 0.143506
v -0.327615 -0.500000 0.135703
v -0.375000 -0.480000 -0.000000
v -0.354608 -0.500000 -0.000000
v -0.346455 -0.480000 -0.143506
v -0.327615 -0.500000 -0.135703
v -0.265165 -0.480000 -0.265165
v -0.250746 -0.500000 -0.250746
v -0.143506 -0.480000 -0.346455
v -0.135703 -0.500000 -0.327615
vn -0.0000 -1.0000 -0.0000
vn -0.0000 1.0000 -0.0000
vn -0.1391 0.6991 0.7013
vn -0.3997 0.6942 0.5986
vn -0.6006 0.6915 0.4014
vn -0.7085 0.6915 0.1408
vn -0.7059 0.6942 -0.1407
vn -0.5943 0.6991 -0.3976
vn -0.3934 0.7054 -0.5896
vn -0.1366 0.7122 -0.6886
vn 0.1360 0.7184 -0.6822
vn 0.3836 0.7234 -0.5740
vn 0.6771 0.7234 0.1346
vn 0.5785 0.7184 0.3862
vn 0.3903 0.7122 0.5835
vn 0.1387 0.7054 0.6951
vn 0.6530 0.7074 -0.2705
vn -0.1951 -0.0000 0.9808
vn -0.5556 -0.0000 0.8315
vn 0.1951 -0.0000 0.9808
vn -0.8315 -0.0000 0.5556
vn -0.9808 -0.0000 0.1951
vn -0.9808 -0.0000 -0.1951
vn -0.8315 -0.0000 -0.5556
vn -0.5556 -0.0000 -0.8315
vn -0.1951 -0.0000 -0.9808
vn 0.1951 -0.0000 -0.9808
vn 0.5556 -0.0000 -0.8315
vn 0.9239 -0.0000 -0.3827
vn 0.9808 -0.0000 0.1951
vn 0.8315 -0.0000 0.5556
vn 0.5556 -0.0000 0.8315
vn 0.1398 0.6991 -0.7012
vn 0.4001 0.6942 -0.5984
vn 0.6007 0.6915 -0.4013
vn 0.7085 0.6915 -0.1410
vn 0.7060 0.6942 0.1402
vn 0.5947 0.6991 0.3970
vn 0.3941 0.7054 0.5891
vn 0.1373 0.7122 0.6884
vn -0.1355 0.7184 0.6823
vn -0.3835 0.7235 0.5741
vn -0.5879 0.7071 0.3928
vn -0.6935 0.7071 0.1379
vn -0.6771 0.7235 -0.1348
vn -0.5782 0.7184 -0.3867
vn -0.3897 0.7122 -0.5839
vn -0.1379 0.7054 -0.6952
vn -0.1380 -0.7071 0.6935
vn -0.3928 -0.7071 0.5879
vn -0.5879 -0.7071 0.3928
vn -0.6935 -0.7071 0.1379
vn -0.6935 -0.7071 -0.1379
vn -0.5879 -0.7071 -0.3928
vn -0.3928 -0.7071 -0.5879
vn -0.1380 -0.7071 -0.6935
vn 0.1379 -0.7071 -0.6935
vn 0.3928 -0.7071 -0.5879
vn 0.5879 -0.7071 -0.3928
vn 0.6935 -0.7071 -0.1379
vn 0.6935 -0.7071 0.1379
vn 0.5879 -0.7071 0.3928
vn 0.3928 -0.7071 0.5879
vn 0.1379 -0.7071 0.6935
vn 0.8315 -0.0000 -0.5556
vn 0.9808 -0.0000 -0.1951
vn -0.1379 -0.7071 0.6935
vn -0.1379 -0.7071 -0.6935
vt 0.729458 0.451313
vt 0.583041 0.353481
vt 0.965646 0.097832
vt 0.548687 0.270543
vt 0.548687 0.180771
vt 0.583041 0.097833
vt 0.646519 0.034354
vt 0.729457 0.000000
vt 0.819229 -0.000000
vt 0.902168 0.034354
vt 1.000000 0.180771
vt 1.000000 0.270543
vt 0.965646 0.353481
vt 0.902168 0.416959
vt 0.819229 0.451313
vt 0.646519 0.416959
vt 0.134917 0.553976
vt 0.427132 0.129423
vt 0.853274 0.430374
vt 0.855056 0.577200
vt 0.799031 0.710772
vt 0.694457 0.811761
vt 0.557266 0.864444
vt 0.410157 0.862457
vt 0.279212 0.803092
vt 0.132724 0.410808
vt 0.187374 0.278913
vt 0.290489 0.179601
vt 0.572533 0.129561
vt 0.703578 0.187361
vt 0.801705 0.292854
vt 0.927443 0.591954
vt 0.859965 0.753308
vt 0.830660 0.731610
vt 0.892286 0.583936
vt 0.926460 0.416482
vt 0.890812 0.422802
vt 0.863562 0.253528
vt 0.833504 0.272378
vt 0.744792 0.127145
vt 0.724713 0.156472
vt 0.586079 0.057618
vt 0.579659 0.092803
vt 0.412021 0.056131
vt 0.419851 0.091819
vt 0.249117 0.118419
vt 0.269955 0.148296
vt 0.125137 0.239089
vt 0.156173 0.258471
vt 0.059343 0.398275
vt 0.095434 0.404382
vt 0.060203 0.572312
vt 0.097128 0.564985
vt 0.393193 0.936100
vt 0.231659 0.862505
vt 0.255029 0.832610
vt 0.402486 0.899749
vt 0.569698 0.939441
vt 0.564510 0.902240
vt 0.734095 0.875504
vt 0.715453 0.843556
vt 0.982688 0.605219
vt 0.906251 0.788443
vt 0.875301 0.765115
vt 0.945411 0.596335
vt 0.981587 0.407345
vt 0.944146 0.413563
vt 0.910544 0.223910
vt 0.878202 0.244308
vt 0.775729 0.080944
vt 0.754699 0.112387
vt 0.595643 0.002021
vt 0.589111 0.039515
vt 0.398907 -0.000000
vt 0.407504 0.037438
vt 0.214748 0.070642
vt 0.237273 0.102175
vt 0.073992 0.208098
vt 0.107216 0.228337
vt 0.000000 0.388702
vt 0.038073 0.394981
vt 0.000000 0.583339
vt 0.038648 0.580205
vt 0.063208 0.767114
vt 0.096554 0.747488
vt 0.193989 0.912632
vt 0.214379 0.878801
vt 0.377360 0.995792
vt 0.387409 0.957389
vt 0.577343 1.000000
vt 0.572248 0.960634
vt 0.763533 0.927356
vt 0.744018 0.893301
vt 0.200236 0.033653
vt 0.314219 0.037199
vt 0.308437 0.060595
vt 0.203432 0.055064
vt 0.415538 0.088573
vt 0.402241 0.106688
vt 0.478611 0.163711
vt 0.461972 0.175257
vt 0.514078 0.237658
vt 0.495166 0.240816
vt 0.515664 0.337280
vt 0.494942 0.333366
vt 0.475582 0.430311
vt 0.457941 0.418134
vt 0.401606 0.498236
vt 0.390551 0.480155
vt 0.308091 0.530622
vt 0.305138 0.509875
vt 0.210634 0.523492
vt 0.216004 0.503550
vt 0.124576 0.479753
vt 0.137367 0.463365
vt 0.063267 0.406745
vt 0.080979 0.396520
vt 0.030851 0.318131
vt 0.050531 0.314550
vt 0.030443 0.224979
vt 0.049961 0.227812
vt 0.058639 0.139969
vt 0.075617 0.149540
vt 0.117189 0.072285
vt 0.128728 0.087526
vt 0.505965 0.845965
vt 0.630965 0.845965
vt 0.630965 0.845965
vt 0.380965 0.845965
vt 0.755965 0.845965
vt 0.755965 0.845965
vt 0.880965 0.845965
vt 0.880965 0.845965
vt 1.005965 0.845965
vt 1.005965 0.845965
vt 0.005965 0.845965
vt 0.130965 0.845965
vt 0.130965 0.845965
vt 0.255965 0.845965
vt 0.255965 0.845965
vt 0.380965 0.845965
vt 0.505965 0.845965
vt 0.505965 0.845965
vt 0.880965 0.845965
vt 0.880965 0.845965
vt 0.005965 0.845965
vt 0.130965 0.845965
vt 0.130965 0.845965
vt 0.193708 -0.000000
vt 0.323042 0.000500
vt 0.317290 0.024768
vt 0.198507 0.022089
vt 0.437239 0.060782
vt 0.422923 0.078620
vt 0.504475 0.146664
vt 0.487777 0.157573
vt 0.544061 0.231468
vt 0.524512 0.235991
vt 0.548687 0.343226
vt 0.526903 0.339408
vt 0.503381 0.449966
vt 0.485388 0.437181
vt 0.418863 0.526894
vt 0.407459 0.508261
vt 0.312568 0.563117
vt 0.309491 0.541801
vt 0.202070 0.555124
vt 0.207614 0.534324
vt 0.104514 0.504958
vt 0.117548 0.488666
vt 0.035908 0.422795
vt 0.053635 0.412226
vt 0.000000 0.323841
vt 0.020127 0.319979
vt 0.000000 0.220321
vt 0.019910 0.223311
vt 0.032479 0.124979
vt 0.049389 0.134686
vt 0.098235 0.047956
vt 0.110733 0.063702
vt 0.380965 0.008745
vt 0.505965 0.828878
vt 0.380965 0.828878
vt 0.505965 0.008745
vt 0.630965 0.828878
vt 0.630965 0.008745
vt 0.755965 0.828878
vt 0.755965 0.008745
vt 0.880965 0.828878
vt 0.880965 0.008745
vt 1.005965 0.828878
vt 1.005965 0.008745
vt 0.005965 0.008745
vt 0.130965 0.828878
vt 0.005965 0.828878
vt 0.130965 0.008745
vt 0.255965 0.828878
vt 0.255965 0.008745
vt 0.380965 0.828878
vt 0.630965 0.008745
vt 0.755965 0.008745
vt 0.880965 0.008745
vt 0.005965 0.008745
vt 0.130965 0.828878
vt 0.005965 0.828878
vt 0.255965 0.008745
s 0
f 14/1/1 16/2/1 8/3/1
f 16/2/1 1/4/1 2/5/1
f 2/5/1 3/6/1 4/7/1
f 4/7/1 5/8/1 6/9/1
f 6/9/1 7/10/1 8/3/1
f 8/3/1 9/11/1 10/12/1
f 10/12/1 11/13/1 12/14/1
f 12/14/1 13/15/1 14/1/1
f 14/1/1 15/16/1 16/2/1
f 16/2/1 2/5/1 4/7/1
f 4/7/1 6/9/1 16/2/1
f 6/9/1 8/3/1 16/2/1
f 8/3/1 10/12/1 12/14/1
f 12/14/1 14/1/1 8/3/1
f 27/17/2 23/18/2 19/19/2
f 19/19/2 17/20/2 18/21/2
f 18/21/2 31/22/2 19/19/2
f 31/22/2 30/23/2 19/19/2
f 30/23/2 28/24/2 27/17/2
f 28/24/2 29/25/2 27/17/2
f 27/17/2 26/26/2 23/18/2
f 26/26/2 25/27/2 23/18/2
f 25/27/2 24/28/2 23/18/2
f 23/18/2 22/29/2 21/30/2
f 21/30/2 20/31/2 23/18/2
f 20/31/2 19/19/2 23/18/2
f 19/19/2 30/23/2 27/17/2
f 33/32/3 34/33/3 35/34/3 32/35/3
f 37/36/4 33/32/4 32/35/4 36/37/4
f 39/38/5 37/36/5 36/37/5 38/39/5
f 41/40/6 39/38/6 38/39/6 40/41/6
f 43/42/7 41/40/7 40/41/7 42/43/7
f 45/44/8 43/42/8 42/43/8 44/45/8
f 47/46/9 45/44/9 44/45/9 46/47/9
f 49/48/10 47/46/10 46/47/10 48/49/10
f 51/50/11 49/48/11 48/49/11 50/51/11
f 53/52/12 51/50/12 50/51/12 52/53/12
f 55/54/13 56/55/13 57/56/13 54/57/13
f 59/58/14 55/54/14 54/57/14 58/59/14
f 61/60/15 59/58/15 58/59/15 60/61/15
f 34/33/16 61/60/16 60/61/16 35/34/16
f 56/55/17 53/52/17 52/53/17 57/56/17
f 32/35/18 35/34/18 18/21/18 17/20/18
f 36/37/19 32/35/19 17/20/19 19/19/19
f 35/34/20 60/61/20 31/22/20 18/21/20
f 38/39/21 36/37/21 19/19/21 20/31/21
f 40/41/22 38/39/22 20/31/22 21/30/22
f 42/43/23 40/41/23 21/30/23 22/29/23
f 44/45/24 42/43/24 22/29/24 23/18/24
f 46/47/25 44/45/25 23/18/25 24/28/25
f 48/49/26 46/47/26 24/28/26 25/27/26
f 50/51/27 48/49/27 25/27/27 26/26/27
f 52/53/28 50/51/28 26/26/28 27/17/28
f 57/56/29 52/53/29 27/17/29 29/25/29
f 54/57/30 57/56/30 29/25/30 28/24/30
f 58/59/31 54/57/31 28/24/31 30/23/31
f 60/61/32 58/59/32 30/23/32 31/22/32
f 65/62/33 62/63/33 63/64/33 64/65/33
f 67/66/34 65/62/34 64/65/34 66/67/34
f 69/68/35 67/66/35 66/67/35 68/69/35
f 71/70/36 69/68/36 68/69/36 70/71/36
f 73/72/37 71/70/37 70/71/37 72/73/37
f 75/74/38 73/72/38 72/73/38 74/75/38
f 77/76/39 75/74/39 74/75/39 76/77/39
f 79/78/40 77/76/40 76/77/40 78/79/40
f 81/80/41 79/78/41 78/79/41 80/81/41
f 83/82/42 81/80/42 80/81/42 82/83/42
f 85/84/43 83/82/43 82/83/43 84/85/43
f 87/86/44 85/84/44 84/85/44 86/87/44
f 89/88/45 87/86/45 86/87/45 88/89/45
f 91/90/46 89/88/46 88/89/46 90/91/46
f 93/92/47 91/90/47 90/91/47 92/93/47
f 62/63/48 93/92/48 92/93/48 63/64/48
f 64/65/2 63/64/2 34/33/2 33/32/2
f 63/64/2 92/93/2 61/60/2 34/33/2
f 66/67/2 64/65/2 33/32/2 37/36/2
f 68/69/2 66/67/2 37/36/2 39/38/2
f 70/71/2 68/69/2 39/38/2 41/40/2
f 72/73/2 70/71/2 41/40/2 43/42/2
f 74/75/2 72/73/2 43/42/2 45/44/2
f 76/77/2 74/75/2 45/44/2 47/46/2
f 78/79/2 76/77/2 47/46/2 49/48/2
f 80/81/2 78/79/2 49/48/2 51/50/2
f 82/83/2 80/81/2 51/50/2 53/52/2
f 86/87/2 84/85/2 82/83/2
f 86/87/2 82/83/2 53/52/2 56/55/2
f 88/89/2 86/87/2 56/55/2 55/54/2
f 90/91/2 88/89/2 55/54/2 59/58/2
f 92/93/2 90/91/2 59/58/2 61/60/2
f 95/94/49 96/95/49 97/96/49 94/97/49
f 96/95/50 98/98/50 99/99/50 97/96/50
f 98/98/51 100/100/51 101/101/51 99/99/51
f 100/100/52 102/102/52 103/103/52 101/101/52
f 102/102/53 104/104/53 105/105/53 103/103/53
f 104/104/54 106/106/54 107/107/54 105/105/54
f 106/106/55 108/108/55 109/109/55 107/107/55
f 108/108/56 110/110/56 111/111/56 109/109/56
f 110/110/57 112/112/57 113/113/57 111/111/57
f 112/112/58 114/114/58 115/115/58 113/113/58
f 114/114/59 116/116/59 117/117/59 115/115/59
f 116/116/60 118/118/60 119/119/60 117/117/60
f 118/118/61 120/120/61 121/121/61 119/119/61
f 120/120/62 122/122/62 123/123/62 121/121/62
f 122/122/63 124/124/63 125/125/63 123/123/63
f 124/124/64 95/94/64 94/97/64 125/125/64
f 94/126/18 97/127/18 2/128/18 1/126/18
f 125/129/20 94/126/20 1/126/20 16/129/20
f 97/127/19 99/130/19 3/131/19 2/128/19
f 99/130/21 101/132/21 4/133/21 3/131/21
f 101/132/22 103/134/22 5/135/22 4/133/22
f 103/136/23 105/137/23 6/138/23 5/136/23
f 105/137/24 107/139/24 7/140/24 6/138/24
f 107/139/25 109/141/25 8/129/25 7/140/25
f 109/141/26 111/142/26 9/143/26 8/129/26
f 111/142/27 113/127/27 10/128/27 9/143/27
f 113/127/28 115/131/28 11/131/28 10/128/28
f 115/131/65 117/144/65 12/145/65 11/131/65
f 117/144/66 119/134/66 13/135/66 12/145/66
f 119/146/30 121/147/30 14/148/30 13/146/30
f 121/147/31 123/140/31 15/140/31 14/148/31
f 123/140/32 125/129/32 16/129/32 15/140/32
f 127/149/57 128/150/57 129/151/57 126/152/57
f 128/150/58 130/153/58 131/154/58 129/151/58
f 130/153/59 132/155/59 133/156/59 131/154/59
f 132/155/60 134/157/60 135/158/60 133/156/60
f 134/157/61 136/159/61 137/160/61 135/158/61
f 136/159/62 138/161/62 139/162/62 137/160/62
f 138/161/63 140/163/63 141/164/63 139/162/63
f 140/163/64 142/165/64 143/166/64 141/164/64
f 142/165/67 144/167/67 145/168/67 143/166/67
f 144/167/50 146/169/50 147/170/50 145/168/50
f 146/169/51 148/171/51 149/172/51 147/170/51
f 148/171/52 150/173/52 151/174/52 149/172/52
f 150/173/53 152/175/53 153/176/53 151/174/53
f 152/175/54 154/177/54 155/178/54 153/176/54
f 154/177/55 156/179/55 157/180/55 155/178/55
f 156/179/68 127/149/68 126/152/68 157/180/68
f 126/152/1 129/151/1 96/95/1 95/94/1
f 93/181/26 127/182/26 156/183/26
f 93/181/26 62/184/26 127/182/26
f 62/184/27 128/185/27 127/182/27
f 157/180/1 126/152/1 95/94/1 124/124/1
f 129/151/1 131/154/1 98/98/1 96/95/1
f 62/184/27 65/186/27 128/185/27
f 65/186/28 130/187/28 128/185/28
f 131/154/1 133/156/1 100/100/1 98/98/1
f 65/186/28 67/188/28 130/187/28
f 67/188/65 132/189/65 130/187/65
f 133/156/1 135/158/1 102/102/1 100/100/1
f 67/188/65 69/190/65 132/189/65
f 69/190/66 134/191/66 132/189/66
f 135/158/1 137/160/1 104/104/1 102/102/1
f 69/190/66 71/192/66 134/191/66
f 71/193/30 136/194/30 134/195/30
f 137/160/1 139/162/1 106/106/1 104/104/1
f 71/193/30 73/196/30 136/194/30
f 73/196/31 138/197/31 136/194/31
f 139/162/1 141/164/1 108/108/1 106/106/1
f 73/196/31 75/198/31 138/197/31
f 75/198/32 140/199/32 138/197/32
f 141/164/1 143/166/1 110/110/1 108/108/1
f 75/198/32 77/181/32 140/199/32
f 77/181/20 142/182/20 140/199/20
f 143/166/1 145/168/1 112/112/1 110/110/1
f 77/181/20 79/184/20 142/182/20
f 79/184/18 144/185/18 142/182/18
f 145/168/1 147/170/1 114/114/1 112/112/1
f 79/184/18 81/200/18 144/185/18
f 81/200/19 146/187/19 144/185/19
f 147/170/1 149/172/1 116/116/1 114/114/1
f 81/200/19 83/201/19 146/187/19
f 83/201/21 148/189/21 146/187/21
f 149/172/1 151/174/1 118/118/1 116/116/1
f 83/201/21 85/202/21 148/189/21
f 85/202/22 150/191/22 148/189/22
f 151/174/1 153/176/1 120/120/1 118/118/1
f 85/202/22 87/192/22 150/191/22
f 87/203/23 152/204/23 150/205/23
f 153/176/1 155/178/1 122/122/1 120/120/1
f 87/203/23 89/196/23 152/204/23
f 89/196/24 154/197/24 152/204/24
f 155/178/1 157/180/1 124/124/1 122/122/1
f 89/196/24 91/206/24 154/197/24
f 91/206/25 156/183/25 154/197/25
f 91/206/25 93/181/25 156/183/25
