# Blender 5.1.2
# www.blender.org
mtllib barrel.mtl
o Cylinder
v 0.000000 -0.450000 -0.318750
v 0.121980 -0.450000 -0.294487
v 0.225390 -0.450000 -0.225390
v 0.294487 -0.450000 -0.121980
v 0.318750 -0.450000 -0.000000
v 0.294487 -0.450000 0.121980
v 0.225390 -0.450000 0.225390
v 0.121980 -0.450000 0.294487
v 0.000000 -0.450000 0.318750
v -0.121980 -0.450000 0.294487
v -0.225390 -0.450000 0.225390
v -0.294487 -0.450000 0.121980
v -0.318750 -0.450000 -0.000000
v -0.294487 -0.450000 -0.121980
v -0.225390 -0.450000 -0.225390
v -0.121980 -0.450000 -0.294487
v 0.125445 0.450000 -0.295922
v 0.003465 0.450000 -0.320185
v 0.228855 0.450000 -0.226825
v 0.297951 0.450000 -0.123415
v 0.322215 0.450000 -0.001435
v 0.297951 0.450000 0.120545
v 0.228855 0.450000 0.223955
v 0.125445 0.450000 0.293052
v 0.003465 0.450000 0.317315
v -0.118516 0.450000 0.293052
v -0.221926 0.450000 0.223955
v -0.291022 0.450000 -0.123415
v -0.315285 0.450000 -0.001435
v -0.221926 0.450000 -0.226825
v -0.118516 0.450000 -0.295922
v 0.125445 0.480000 -0.295922
v 0.132121 0.500000 -0.314602
v 0.002193 0.500000 -0.340306
v 0.003465 0.480000 -0.320185
v 0.228855 0.480000 -0.226825
v 0.242343 0.500000 -0.241067
v 0.297951 0.480000 -0.123415
v 0.316000 0.500000 -0.130892
v 0.322215 0.480000 -0.001435
v 0.341823 0.500000 -0.000902
v 0.297951 0.480000 0.120545
v 0.315881 0.500000 0.129033
v 0.228855 0.480000 0.223955
v 0.242183 0.500000 0.239082
v 0.125445 0.480000 0.293052
v 0.132023 0.500000 0.312503
v 0.003465 0.480000 0.317315
v 0.002212 0.500000 0.338178
v -0.118516 0.480000 0.293052
v -0.127509 0.500000 0.312270
v -0.221926 0.480000 0.223955
v -0.237458 0.500000 0.238759
v -0.291022 0.480000 -0.123415
v -0.310971 0.500000 -0.130646
v -0.336736 0.500000 -0.000920
v -0.315285 0.480000 -0.001435
v -0.221926 0.480000 -0.226825
v -0.237564 0.500000 -0.240692
v -0.118516 0.480000 -0.295922
v -0.127618 0.500000 -0.314327
v 0.000000 0.480000 -0.375000
v 0.001272 0.500000 -0.354878
v 0.136830 0.500000 -0.327774
v 0.143506 0.480000 -0.346455
v 0.251676 0.500000 -0.250923
v 0.265165 0.480000 -0.265165
v 0.328405 0.500000 -0.136030
v 0.346455 0.480000 -0.143506
v 0.355391 0.500000 -0.000533
v 0.375000 0.480000 -0.000000
v 0.328524 0.500000 0.135018
v 0.346455 0.480000 0.143506
v 0.251836 0.500000 0.250037
v 0.265165 0.480000 0.265165
v 0.136927 0.500000 0.327003
v 0.143506 0.480000 0.346455
v 0.001253 0.500000 0.354135
v 0.000000 0.480000 0.375000
v -0.134512 0.500000 0.327234
v -0.143506 0.480000 0.346455
v -0.252111 0.500000 0.248702
v -0.265165 0.480000 0.265165
v -0.327615 0.500000 0.135703
v -0.346455 0.480000 0.143506
v -0.354129 0.500000 0.002410
v -0.375000 0.480000 -0.000000
v -0.326504 0.500000 -0.136275
v -0.346455 0.480000 -0.143506
v -0.249526 0.500000 -0.251298
v -0.265165 0.480000 -0.265165
v -0.134404 0.500000 -0.328048
v -0.143506 0.480000 -0.346455
v 0.000000 -0.480000 -0.318750
v 0.000000 -0.500000 -0.339142
v 0.129784 -0.500000 -0.313326
v 0.121980 -0.480000 -0.294487
v 0.239809 -0.500000 -0.239809
v 0.225390 -0.480000 -0.225390
v 0.313326 -0.500000 -0.129784
v 0.294487 -0.480000 -0.121980
v 0.339142 -0.500000 -0.000000
v 0.318750 -0.480000 -0.000000
v 0.313326 -0.500000 0.129784
v 0.294487 -0.480000 0.121980
v 0.239809 -0.500000 0.239809
v 0.225390 -0.480000 0.225390
v 0.129784 -0.500000 0.313326
v 0.121980 -0.480000 0.294487
v 0.000000 -0.500000 0.339142
v 0.000000 -0.480000 0.318750
v -0.129784 -0.500000 0.313326
v -0.121980 -0.480000 0.294487
v -0.239809 -0.500000 0.239809
v -0.225390 -0.480000 0.225390
v -0.313326 -0.500000 0.129784
v -0.294487 -0.480000 0.121980
v -0.339142 -0.500000 -0.000000
v -0.318750 -0.480000 -0.000000
v -0.313326 -0.500000 -0.129784
v -0.294487 -0.480000 -0.121980
v -0.239809 -0.500000 -0.239809
v -0.225390 -0.480000 -0.225390
v -0.129784 -0.500000 -0.313326
v -0.121980 -0.480000 -0.294487
v 0.000000 -0.500000 -0.354608
v 0.000000 -0.480000 -0.375000
v 0.143506 -0.480000 -0.346455
v 0.135703 -0.500000 -0.327615
v 0.265165 -0.480000 -0.265165
v 0.250746 -0.500000 -0.250746
v 0.346455 -0.480000 -0.143506
v 0.327615 -0.500000 -0.135703
v 0.375000 -0.480000 -0.000000
v 0.354608 -0.500000 -0.000000
v 0.346455 -0.480000 0.143506
v 0.327615 -0.500000 0.135703
v 0.265165 -0.480000 0.265165
v 0.250746 -0.500000 0.250746
v 0.143506 -0.480000 0.346455
v 0.135703 -0.500000 0.327615
v 0.000000 -0.480000 0.375000
v 0.000000 -0.500000 0.354608
v -0.143506 -0.480000 0.346455
v -0.135703 -0.500000 0.327615
v -0.265165 -0.480000 0.265165
v -0.250746 -0.500000 0.250746
v -0.346455 -0.480000 0.143506
v -0.327615 -0.500000 0.135703
v -0.375000 -0.480000 -0.000000
v -0.354608 -0.500000 -0.000000
v -0.346455 -0.480000 -0.143506
v -0.327615 -0.500000 -0.135703
v -0.265165 -0.480000 -0.265165
v -0.250746 -0.500000 -0.250746
v -0.143506 -0.480000 -0.346455
v -0.135703 -0.500000 -0.327615
vn -0.0000 -0.6657 0.7462
vn -0.2856 -0.6657 0.6894
vn -0.5276 -0.6657 0.5276
vn -0.6894 -0.6657 0.2856
vn -0.7462 -0.6657 -0.0000
vn -0.6894 -0.6657 -0.2856
vn -0.5276 -0.6657 -0.5276
vn -0.2856 -0.6657 -0.6894
vn -0.0000 -0.6657 -0.7462
vn 0.2856 -0.6657 -0.6894
vn 0.5276 -0.6657 -0.5276
vn 0.6894 -0.6657 -0.2856
vn 0.7462 -0.6657 -0.0000
vn 0.6894 -0.6657 0.2856
vn 0.5276 -0.6657 0.5276
vn 0.2856 -0.6657 0.6894
vn -0.2856 0.6657 0.6894
vn -0.0000 0.6657 0.7462
vn -0.5276 0.6657 0.5276
vn -0.6894 0.6657 0.2856
vn -0.7462 0.6657 -0.0000
vn -0.6894 0.6657 -0.2856
vn -0.5277 0.6657 -0.5277
vn -0.2856 0.6657 -0.6894
vn -0.0000 0.6657 -0.7462
vn 0.2856 0.6657 -0.6894
vn 0.5893 0.6472 -0.4836
vn 0.6894 0.6657 0.2856
vn 0.7586 0.6472 -0.0747
vn 0.5276 0.6657 0.5276
vn 0.2856 0.6657 0.6894
vn -0.3527 0.3982 0.8467
vn -0.1297 0.9395 0.3170
vn 0.0019 0.9407 0.3392
vn -0.0023 0.4021 0.9156
vn -0.6502 0.3956 0.6487
vn -0.2432 0.9387 0.2443
vn -0.8489 0.3947 0.3516
vn -0.3191 0.9385 0.1322
vn -0.9184 0.3956 0.0010
vn -0.3447 0.9387 -0.0008
vn -0.8482 0.3983 -0.3493
vn -0.3158 0.9395 -0.1324
vn -0.6491 0.4021 -0.6458
vn -0.2385 0.9407 -0.2412
vn -0.3519 0.4067 -0.8431
vn -0.1265 0.9421 -0.3106
vn -0.0022 0.4112 -0.9115
vn 0.0018 0.9435 -0.3315
vn 0.3466 0.4152 -0.8411
vn 0.1268 0.9446 -0.3027
vn 0.7019 0.4277 -0.5695
vn 0.2339 0.9525 -0.1952
vn 0.8398 0.4152 0.3497
vn 0.3036 0.9446 0.1244
vn 0.3034 0.9525 -0.0274
vn 0.8991 0.4277 -0.0936
vn 0.6430 0.4112 0.6461
vn 0.2357 0.9435 0.2332
vn 0.3473 0.4067 0.8450
vn 0.1301 0.9421 0.3091
vn -0.0016 0.3681 -0.9298
vn 0.0030 0.9073 -0.4205
vn 0.1645 0.9055 -0.3910
vn 0.3552 0.3648 -0.8607
vn 0.3027 0.9044 -0.3008
vn 0.6585 0.3625 -0.6595
vn 0.3951 0.9039 -0.1637
vn 0.8613 0.3618 -0.3568
vn 0.4268 0.9044 -0.0013
vn 0.9320 0.3625 0.0007
vn 0.3928 0.9055 0.1602
vn 0.8597 0.3648 0.3575
vn 0.2994 0.9073 0.2952
vn 0.6563 0.3681 0.6586
vn 0.1621 0.9093 0.3832
vn 0.3536 0.3719 0.8583
vn 0.0027 0.9114 0.4116
vn -0.0016 0.3758 0.9267
vn -0.1542 0.9131 0.3774
vn -0.3553 0.3793 0.8544
vn -0.2947 0.9112 0.2878
vn -0.6528 0.3762 0.6575
vn -0.3855 0.9088 0.1597
vn -0.8580 0.3710 0.3554
vn -0.4119 0.9112 0.0048
vn -0.9265 0.3762 -0.0033
vn -0.3759 0.9131 -0.1578
vn -0.8553 0.3793 -0.3529
vn -0.2891 0.9114 -0.2930
vn -0.6564 0.3758 -0.6541
vn -0.1564 0.9093 -0.3856
vn -0.3568 0.3719 -0.8569
vn -0.0000 -0.4055 0.9141
vn -0.0000 -0.9418 0.3363
vn -0.1287 -0.9417 0.3107
vn -0.3498 -0.4055 0.8445
vn -0.2378 -0.9417 0.2378
vn -0.6464 -0.4055 0.6464
vn -0.3107 -0.9417 0.1287
vn -0.8445 -0.4055 0.3498
vn -0.3363 -0.9417 -0.0000
vn -0.9141 -0.4055 -0.0000
vn -0.3107 -0.9418 -0.1287
vn -0.8445 -0.4055 -0.3498
vn -0.2378 -0.9417 -0.2378
vn -0.6464 -0.4055 -0.6464
vn -0.1287 -0.9417 -0.3107
vn -0.3498 -0.4055 -0.8445
vn -0.0000 -0.9417 -0.3363
vn -0.0000 -0.4055 -0.9141
vn 0.1287 -0.9417 -0.3107
vn 0.3498 -0.4055 -0.8445
vn 0.2378 -0.9417 -0.2378
vn 0.6464 -0.4055 -0.6464
vn 0.3107 -0.9417 -0.1287
vn 0.8445 -0.4055 -0.3498
vn 0.3363 -0.9417 -0.0000
vn 0.9141 -0.4055 -0.0000
vn 0.3107 -0.9418 0.1287
vn 0.8445 -0.4055 0.3498
vn 0.2378 -0.9417 0.2378
vn 0.6464 -0.4055 0.6464
vn 0.1287 -0.9417 0.3107
vn 0.3498 -0.4055 0.8445
vn -0.0000 -0.9088 -0.4172
vn -0.0000 -0.3710 -0.9286
vn 0.3554 -0.3710 -0.8580
vn 0.1597 -0.9088 -0.3855
vn 0.6566 -0.3710 -0.6567
vn 0.2950 -0.9088 -0.2950
vn 0.8580 -0.3710 -0.3554
vn 0.3855 -0.9088 -0.1597
vn 0.9286 -0.3710 -0.0000
vn 0.4172 -0.9088 -0.0000
vn 0.8580 -0.3710 0.3554
vn 0.3855 -0.9088 0.1597
vn 0.6567 -0.3710 0.6566
vn 0.2950 -0.9088 0.2950
vn 0.3554 -0.3710 0.8580
vn 0.1597 -0.9088 0.3855
vn -0.0000 -0.3710 0.9286
vn -0.0000 -0.9088 0.4172
vn -0.3554 -0.3710 0.8580
vn -0.1597 -0.9088 0.3855
vn -0.6566 -0.3710 0.6567
vn -0.2950 -0.9088 0.2950
vn -0.8580 -0.3710 0.3554
vn -0.3855 -0.9088 0.1597
vn -0.9286 -0.3710 -0.0000
vn -0.4172 -0.9088 -0.0000
vn -0.8580 -0.3710 -0.3554
vn -0.3855 -0.9088 -0.1597
vn -0.6567 -0.3710 -0.6566
vn -0.2950 -0.9088 -0.2950
vn -0.3554 -0.3710 -0.8580
vn -0.1597 -0.9088 -0.3855
vt 0.729458 0.451313
vt 0.583041 0.353481
vt 0.965646 0.097832
vt 0.548687 0.270543
vt 0.548687 0.180771
vt 0.583041 0.097833
vt 0.646519 0.034354
vt 0.729457 0.000000
vt 0.819229 -0.000000
vt 0.902168 0.034354
vt 1.000000 0.180771
vt 1.000000 0.270543
vt 0.965646 0.353481
vt 0.902168 0.416959
vt 0.819229 0.451313
vt 0.646519 0.416959
vt 0.134917 0.553976
vt 0.427132 0.129423
vt 0.853274 0.430374
vt 0.855056 0.577200
vt 0.799031 0.710772
vt 0.694457 0.811761
vt 0.557266 0.864444
vt 0.410157 0.862457
vt 0.279212 0.803092
vt 0.132724 0.410808
vt 0.187374 0.278913
vt 0.290489 0.179601
vt 0.572533 0.129561
vt 0.703578 0.187361
vt 0.801705 0.292854
vt 0.927443 0.591954
vt 0.830660 0.731610
vt 0.892286 0.583936
vt 0.926460 0.416482
vt 0.890812 0.422802
vt 0.863562 0.253528
vt 0.833504 0.272378
vt 0.724713 0.156472
vt 0.744792 0.127145
vt 0.579659 0.092803
vt 0.586079 0.057618
vt 0.419851 0.091819
vt 0.412021 0.056131
vt 0.269955 0.148296
vt 0.249117 0.118419
vt 0.156173 0.258471
vt 0.125137 0.239089
vt 0.095434 0.404382
vt 0.059343 0.398275
vt 0.097128 0.564985
vt 0.060203 0.572312
vt 0.393193 0.936100
vt 0.255029 0.832610
vt 0.402486 0.899749
vt 0.569698 0.939441
vt 0.564510 0.902240
vt 0.734095 0.875504
vt 0.715453 0.843556
vt 0.859965 0.753308
vt 0.231659 0.862505
vt 0.982688 0.605219
vt 0.875301 0.765115
vt 0.945411 0.596335
vt 0.981587 0.407345
vt 0.944146 0.413563
vt 0.910544 0.223910
vt 0.878202 0.244308
vt 0.754699 0.112387
vt 0.775729 0.080944
vt 0.589111 0.039515
vt 0.595643 0.002021
vt 0.407504 0.037438
vt 0.398907 -0.000000
vt 0.237273 0.102175
vt 0.214748 0.070642
vt 0.107216 0.228337
vt 0.073992 0.208098
vt 0.038073 0.394981
vt 0.000000 0.388702
vt 0.000000 0.583339
vt 0.038648 0.580205
vt 0.063208 0.767114
vt 0.096554 0.747488
vt 0.214379 0.878801
vt 0.193989 0.912632
vt 0.387409 0.957389
vt 0.377360 0.995792
vt 0.577343 1.000000
vt 0.572248 0.960634
vt 0.763533 0.927356
vt 0.744018 0.893301
vt 0.906251 0.788443
vt 0.200236 0.033653
vt 0.308437 0.060595
vt 0.203432 0.055064
vt 0.415538 0.088573
vt 0.314219 0.037199
vt 0.478611 0.163711
vt 0.402241 0.106688
vt 0.514078 0.237658
vt 0.461972 0.175257
vt 0.515664 0.337280
vt 0.495166 0.240816
vt 0.457941 0.418134
vt 0.494942 0.333366
vt 0.401606 0.498236
vt 0.475582 0.430311
vt 0.308091 0.530622
vt 0.390551 0.480155
vt 0.210634 0.523492
vt 0.305138 0.509875
vt 0.124576 0.479753
vt 0.216004 0.503550
vt 0.063267 0.406745
vt 0.137367 0.463365
vt 0.030851 0.318131
vt 0.080979 0.396520
vt 0.030443 0.224979
vt 0.050531 0.314550
vt 0.075617 0.149540
vt 0.049961 0.227812
vt 0.117189 0.072285
vt 0.058639 0.139969
vt 0.128728 0.087526
vt 0.630965 0.845965
vt 0.505965 0.845965
vt 0.380965 0.845965
vt 0.755965 0.845965
vt 0.630965 0.845965
vt 0.880965 0.845965
vt 0.755965 0.845965
vt 1.005965 0.845965
vt 0.880965 0.845965
vt 0.130965 0.845965
vt 0.005965 0.845965
vt 0.255965 0.845965
vt 0.130965 0.845965
vt 0.380965 0.845965
vt 0.255965 0.845965
vt 0.505965 0.845965
vt 0.505965 0.845965
vt 0.880965 0.845965
vt 0.880965 0.845965
vt 0.130965 0.845965
vt 0.005965 0.845965
vt 0.130965 0.845965
vt 0.323042 0.000500
vt 0.198507 0.022089
vt 0.193708 -0.000000
vt 0.422923 0.078620
vt 0.317290 0.024768
vt 0.437239 0.060782
vt 0.487777 0.157573
vt 0.544061 0.231468
vt 0.504475 0.146664
vt 0.548687 0.343226
vt 0.524512 0.235991
vt 0.485388 0.437181
vt 0.526903 0.339408
vt 0.503381 0.449966
vt 0.407459 0.508261
vt 0.312568 0.563117
vt 0.418863 0.526894
vt 0.202070 0.555124
vt 0.309491 0.541801
vt 0.117548 0.488666
vt 0.207614 0.534324
vt 0.104514 0.504958
vt 0.053635 0.412226
vt 0.000000 0.323841
vt 0.035908 0.422795
vt 0.000000 0.220321
vt 0.020127 0.319979
vt 0.049389 0.134686
vt 0.019910 0.223311
vt 0.032479 0.124979
vt 0.110733 0.063702
vt 0.098235 0.047956
vt 0.380965 0.008745
vt 0.505965 0.828878
vt 0.380965 0.828878
vt 0.505965 0.008745
vt 0.630965 0.828878
vt 0.630965 0.008745
vt 0.755965 0.828878
vt 0.755965 0.008745
vt 0.880965 0.828878
vt 0.880965 0.008745
vt 1.005965 0.828878
vt 1.005965 0.008745
vt 0.005965 0.008745
vt 0.130965 0.828878
vt 0.005965 0.828878
vt 0.130965 0.008745
vt 0.255965 0.828878
vt 0.255965 0.008745
vt 0.380965 0.828878
vt 0.630965 0.008745
vt 0.755965 0.008745
vt 0.880965 0.008745
vt 0.005965 0.008745
vt 0.130965 0.828878
vt 0.005965 0.828878
vt 0.255965 0.008745
vt 1.005965 0.845965
s 1
usemtl Material
f 6/9/6 7/10/7 8/3/8
f 33/32/33 35/33/35 32/34/32
f 37/35/37 32/34/32 36/36/36
f 39/37/39 36/36/36 38/38/38
f 39/37/39 40/39/40 41/40/41
f 41/40/41 42/41/42 43/42/43
f 43/42/43 44/43/44 45/44/45
f 45/44/45 46/45/46 47/46/47
f 47/46/47 48/47/48 49/48/49
f 49/48/49 50/49/50 51/50/51
f 51/50/51 52/51/52 53/52/53
f 55/53/55 57/54/57 54/55/54
f 59/56/59 54/55/54 58/57/58
f 61/58/61 58/57/58 60/59/60
f 34/60/34 60/59/60 35/33/35
f 53/52/53 57/54/57 56/61/56
f 35/33/35 17/20/17 32/34/32
f 32/34/32 19/19/19 36/36/36
f 60/59/60 18/21/18 35/33/35
f 36/36/36 20/31/20 38/38/38
f 38/38/38 21/30/21 40/39/40
f 40/39/40 22/29/22 42/41/42
f 42/41/42 23/18/23 44/43/44
f 44/43/44 24/28/24 46/45/46
f 46/45/46 25/27/25 48/47/48
f 48/47/48 26/26/26 50/49/50
f 50/49/50 27/17/27 52/51/52
f 52/51/52 29/25/29 57/54/57
f 57/54/57 28/24/28 54/55/54
f 54/55/54 30/23/30 58/57/58
f 58/57/58 31/22/31 60/59/60
f 65/62/65 63/63/63 64/64/64
f 67/65/67 64/64/64 66/66/66
f 69/67/69 66/66/66 68/68/68
f 69/67/69 70/69/70 71/70/71
f 71/70/71 72/71/72 73/72/73
f 73/72/73 74/73/74 75/74/75
f 75/74/75 76/75/76 77/76/77
f 77/76/77 78/77/78 79/78/79
f 79/78/79 80/79/80 81/80/81
f 83/81/83 80/79/80 82/82/82
f 85/83/85 82/82/82 84/84/84
f 85/83/85 86/85/86 87/86/87
f 87/86/87 88/87/88 89/88/89
f 91/89/91 88/87/88 90/90/90
f 93/91/93 90/90/90 92/92/92
f 62/93/62 92/92/92 63/63/63
f 64/64/64 34/60/34 33/32/33
f 63/63/63 61/58/61 34/60/34
f 66/66/66 33/32/33 37/35/37
f 68/68/68 37/35/37 39/37/39
f 68/68/68 41/40/41 70/69/70
f 70/69/70 43/42/43 72/71/72
f 72/71/72 45/44/45 74/73/74
f 74/73/74 47/46/47 76/75/76
f 76/75/76 49/48/49 78/77/78
f 78/77/78 51/50/51 80/79/80
f 80/79/80 53/52/53 82/82/82
f 86/85/86 84/84/84 82/82/82
f 86/85/86 53/52/53 56/61/56
f 88/87/88 56/61/56 55/53/55
f 90/90/90 55/53/55 59/56/59
f 92/92/92 59/56/59 61/58/61
f 95/94/95 97/95/97 94/96/94
f 98/97/98 97/95/97 96/98/96
f 100/99/100 99/100/99 98/97/98
f 102/101/102 101/102/101 100/99/100
f 104/103/104 103/104/103 102/101/102
f 104/103/104 107/105/107 105/106/105
f 108/107/108 107/105/107 106/108/106
f 110/109/110 109/110/109 108/107/108
f 112/111/112 111/112/111 110/109/110
f 114/113/114 113/114/113 112/111/112
f 116/115/116 115/116/115 114/113/114
f 118/117/118 117/118/117 116/115/116
f 120/119/120 119/120/119 118/117/118
f 120/119/120 123/121/123 121/122/121
f 124/123/124 123/121/123 122/124/122
f 95/94/95 125/125/125 124/123/124
f 97/126/97 1/127/1 94/127/94
f 94/127/94 16/128/16 125/128/125
f 99/129/99 2/130/2 97/126/97
f 101/131/101 3/132/3 99/129/99
f 103/133/103 4/134/4 101/131/101
f 105/135/105 5/136/5 103/136/103
f 107/137/107 6/138/6 105/135/105
f 109/139/109 7/140/7 107/137/107
f 111/141/111 8/128/8 109/139/109
f 113/126/113 9/142/9 111/141/111
f 115/132/115 10/130/10 113/126/113
f 117/143/117 11/132/11 115/132/115
f 119/133/119 12/144/12 117/143/117
f 121/145/121 13/146/13 119/146/119
f 123/140/123 14/147/14 121/145/121
f 125/128/125 15/140/15 123/140/123
f 128/148/128 126/149/126 127/150/127
f 128/148/128 131/151/131 129/152/129
f 130/153/130 133/154/133 131/151/131
f 134/155/134 133/154/133 132/156/132
f 136/157/136 135/158/135 134/155/134
f 136/157/136 139/159/139 137/160/137
f 138/161/138 141/162/141 139/159/139
f 142/163/142 141/162/141 140/164/140
f 144/165/144 143/166/143 142/163/142
f 144/165/144 147/167/147 145/168/145
f 146/169/146 149/170/149 147/167/147
f 150/171/150 149/170/149 148/172/148
f 152/173/152 151/174/151 150/171/150
f 152/173/152 155/175/155 153/176/153
f 154/177/154 157/178/157 155/175/155
f 127/150/127 157/178/157 156/179/156
f 126/149/126 96/98/96 95/94/95
f 93/180/93 127/181/127 156/182/156
f 93/180/93 62/183/62 127/181/127
f 62/183/62 128/184/128 127/181/127
f 126/149/126 124/123/124 157/178/157
f 129/152/129 98/97/98 96/98/96
f 62/183/62 65/185/65 128/184/128
f 65/185/65 130/186/130 128/184/128
f 133/154/133 98/97/98 131/151/131
f 65/185/65 67/187/67 130/186/130
f 67/187/67 132/188/132 130/186/130
f 135/158/135 100/99/100 133/154/133
f 67/187/67 69/189/69 132/188/132
f 69/189/69 134/190/134 132/188/132
f 135/158/135 104/103/104 102/101/102
f 69/189/69 71/191/71 134/190/134
f 71/192/71 136/193/136 134/194/134
f 137/160/137 106/108/106 104/103/104
f 71/192/71 73/195/73 136/193/136
f 73/195/73 138/196/138 136/193/136
f 141/162/141 106/108/106 139/159/139
f 73/195/73 75/197/75 138/196/138
f 75/197/75 140/198/140 138/196/138
f 143/166/143 108/107/108 141/162/141
f 75/197/75 77/180/77 140/198/140
f 77/180/77 142/181/142 140/198/140
f 143/166/143 112/111/112 110/109/110
f 77/180/77 79/183/79 142/181/142
f 79/183/79 144/184/144 142/181/142
f 145/168/145 114/113/114 112/111/112
f 79/183/79 81/199/81 144/184/144
f 81/199/81 146/186/146 144/184/144
f 149/170/149 114/113/114 147/167/147
f 81/199/81 83/200/83 146/186/146
f 83/200/83 148/188/148 146/186/146
f 151/174/151 116/115/116 149/170/149
f 83/200/83 85/201/85 148/188/148
f 85/201/85 150/190/150 148/188/148
f 151/174/151 120/119/120 118/117/118
f 85/201/85 87/191/87 150/190/150
f 87/202/87 152/203/152 150/204/150
f 153/176/153 122/124/122 120/119/120
f 87/202/87 89/195/89 152/203/152
f 89/195/89 154/196/154 152/203/152
f 157/178/157 122/124/122 155/175/155
f 89/195/89 91/205/91 154/196/154
f 91/205/91 156/182/156 154/196/154
f 91/205/91 93/180/93 156/182/156
f 33/32/33 34/60/34 35/33/35
f 37/35/37 33/32/33 32/34/32
f 39/37/39 37/35/37 36/36/36
f 39/37/39 38/38/38 40/39/40
f 41/40/41 40/39/40 42/41/42
f 43/42/43 42/41/42 44/43/44
f 45/44/45 44/43/44 46/45/46
f 47/46/47 46/45/46 48/47/48
f 49/48/49 48/47/48 50/49/50
f 51/50/51 50/49/50 52/51/52
f 55/53/55 56/61/56 57/54/57
f 59/56/59 55/53/55 54/55/54
f 61/58/61 59/56/59 58/57/58
f 34/60/34 61/58/61 60/59/60
f 53/52/53 52/51/52 57/54/57
f 35/33/35 18/21/18 17/20/17
f 32/34/32 17/20/17 19/19/19
f 60/59/60 31/22/31 18/21/18
f 36/36/36 19/19/19 20/31/20
f 38/38/38 20/31/20 21/30/21
f 40/39/40 21/30/21 22/29/22
f 42/41/42 22/29/22 23/18/23
f 44/43/44 23/18/23 24/28/24
f 46/45/46 24/28/24 25/27/25
f 48/47/48 25/27/25 26/26/26
f 50/49/50 26/26/26 27/17/27
f 52/51/52 27/17/27 29/25/29
f 57/54/57 29/25/29 28/24/28
f 54/55/54 28/24/28 30/23/30
f 58/57/58 30/23/30 31/22/31
f 65/62/65 62/93/62 63/63/63
f 67/65/67 65/62/65 64/64/64
f 69/67/69 67/65/67 66/66/66
f 69/67/69 68/68/68 70/69/70
f 71/70/71 70/69/70 72/71/72
f 73/72/73 72/71/72 74/73/74
f 75/74/75 74/73/74 76/75/76
f 77/76/77 76/75/76 78/77/78
f 79/78/79 78/77/78 80/79/80
f 83/81/83 81/80/81 80/79/80
f 85/83/85 83/81/83 82/82/82
f 85/83/85 84/84/84 86/85/86
f 87/86/87 86/85/86 88/87/88
f 91/89/91 89/88/89 88/87/88
f 93/91/93 91/89/91 90/90/90
f 62/93/62 93/91/93 92/92/92
f 64/64/64 63/63/63 34/60/34
f 63/63/63 92/92/92 61/58/61
f 66/66/66 64/64/64 33/32/33
f 68/68/68 66/66/66 37/35/37
f 68/68/68 39/37/39 41/40/41
f 70/69/70 41/40/41 43/42/43
f 72/71/72 43/42/43 45/44/45
f 74/73/74 45/44/45 47/46/47
f 76/75/76 47/46/47 49/48/49
f 78/77/78 49/48/49 51/50/51
f 80/79/80 51/50/51 53/52/53
f 86/85/86 82/82/82 53/52/53
f 88/87/88 86/85/86 56/61/56
f 90/90/90 88/87/88 55/53/55
f 92/92/92 90/90/90 59/56/59
f 95/94/95 96/98/96 97/95/97
f 98/97/98 99/100/99 97/95/97
f 100/99/100 101/102/101 99/100/99
f 102/101/102 103/104/103 101/102/101
f 104/103/104 105/106/105 103/104/103
f 104/103/104 106/108/106 107/105/107
f 108/107/108 109/110/109 107/105/107
f 110/109/110 111/112/111 109/110/109
f 112/111/112 113/114/113 111/112/111
f 114/113/114 115/116/115 113/114/113
f 116/115/116 117/118/117 115/116/115
f 118/117/118 119/120/119 117/118/117
f 120/119/120 121/122/121 119/120/119
f 120/119/120 122/124/122 123/121/123
f 124/123/124 125/125/125 123/121/123
f 95/94/95 94/96/94 125/125/125
f 97/126/97 2/130/2 1/127/1
f 94/127/94 1/127/1 16/128/16
f 99/129/99 3/132/3 2/130/2
f 101/131/101 4/134/4 3/132/3
f 103/133/103 5/206/5 4/134/4
f 105/135/105 6/138/6 5/136/5
f 107/137/107 7/140/7 6/138/6
f 109/139/109 8/128/8 7/140/7
f 111/141/111 9/142/9 8/128/8
f 113/126/113 10/130/10 9/142/9
f 115/132/115 11/132/11 10/130/10
f 117/143/117 12/144/12 11/132/11
f 119/133/119 13/206/13 12/144/12
f 121/145/121 14/147/14 13/146/13
f 123/140/123 15/140/15 14/147/14
f 125/128/125 16/128/16 15/140/15
f 128/148/128 129/152/129 126/149/126
f 128/148/128 130/153/130 131/151/131
f 130/153/130 132/156/132 133/154/133
f 134/155/134 135/158/135 133/154/133
f 136/157/136 137/160/137 135/158/135
f 136/157/136 138/161/138 139/159/139
f 138/161/138 140/164/140 141/162/141
f 142/163/142 143/166/143 141/162/141
f 144/165/144 145/168/145 143/166/143
f 144/165/144 146/169/146 147/167/147
f 146/169/146 148/172/148 149/170/149
f 150/171/150 151/174/151 149/170/149
f 152/173/152 153/176/153 151/174/151
f 152/173/152 154/177/154 155/175/155
f 154/177/154 156/179/156 157/178/157
f 127/150/127 126/149/126 157/178/157
f 126/149/126 129/152/129 96/98/96
f 126/149/126 95/94/95 124/123/124
f 129/152/129 131/151/131 98/97/98
f 133/154/133 100/99/100 98/97/98
f 135/158/135 102/101/102 100/99/100
f 135/158/135 137/160/137 104/103/104
f 137/160/137 139/159/139 106/108/106
f 141/162/141 108/107/108 106/108/106
f 143/166/143 110/109/110 108/107/108
f 143/166/143 145/168/145 112/111/112
f 145/168/145 147/167/147 114/113/114
f 149/170/149 116/115/116 114/113/114
f 151/174/151 118/117/118 116/115/116
f 151/174/151 153/176/153 120/119/120
f 153/176/153 155/175/155 122/124/122
f 157/178/157 124/123/124 122/124/122
usemtl Material.001
f 14/1/14 16/2/16 8/3/8
f 16/2/16 1/4/1 2/5/2
f 2/5/2 3/6/3 4/7/4
f 4/7/4 5/8/5 6/9/6
f 8/3/8 9/11/9 10/12/10
f 10/12/10 11/13/11 12/14/12
f 12/14/12 13/15/13 14/1/14
f 14/1/14 15/16/15 16/2/16
f 16/2/16 2/5/2 4/7/4
f 4/7/4 6/9/6 16/2/16
f 6/9/6 8/3/8 16/2/16
f 8/3/8 10/12/10 12/14/12
f 12/14/12 14/1/14 8/3/8
f 27/17/27 23/18/23 19/19/19
f 19/19/19 17/20/17 18/21/18
f 18/21/18 31/22/31 19/19/19
f 31/22/31 30/23/30 19/19/19
f 30/23/30 28/24/28 27/17/27
f 28/24/28 29/25/29 27/17/27
f 27/17/27 26/26/26 23/18/23
f 26/26/26 25/27/25 23/18/23
f 25/27/25 24/28/24 23/18/23
f 23/18/23 22/29/22 21/30/21
f 21/30/21 20/31/20 23/18/23
f 20/31/20 19/19/19 23/18/23
f 19/19/19 30/23/30 27/17/27
