# Blender 5.1.2
# www.blender.org
mtllib bed.mtl
o Cube
v -0.800000 0.280000 1.600000
v -0.800000 0.280000 -1.600000
v 0.800000 0.280000 1.600000
v 0.800000 0.280000 -1.600000
v -0.640000 0.800000 1.440000
v -0.800000 0.640000 1.600000
v -0.640000 0.800000 -1.440000
v -0.800000 0.640000 -1.600000
v 0.640000 0.800000 1.440000
v 0.800000 0.640000 1.600000
v 0.640000 0.800000 -1.440000
v 0.800000 0.640000 -1.600000
v -0.720000 -0.080000 -1.360000
v -0.720000 0.280000 -1.360000
v -0.720000 -0.080000 -1.520000
v -0.720000 0.280000 -1.520000
v -0.560000 -0.080000 -1.360000
v -0.560000 0.280000 -1.360000
v -0.560000 -0.080000 -1.520000
v -0.560000 0.280000 -1.520000
v -0.720000 -0.080000 1.520000
v -0.720000 0.280000 1.520000
v -0.720000 -0.080000 1.360000
v -0.720000 0.280000 1.360000
v -0.560000 -0.080000 1.520000
v -0.560000 0.280000 1.520000
v -0.560000 -0.080000 1.360000
v -0.560000 0.280000 1.360000
v 0.560000 -0.080000 -1.360000
v 0.560000 0.280000 -1.360000
v 0.560000 -0.080000 -1.520000
v 0.560000 0.280000 -1.520000
v 0.720000 -0.080000 -1.360000
v 0.720000 0.280000 -1.360000
v 0.720000 -0.080000 -1.520000
v 0.720000 0.280000 -1.520000
v 0.560000 -0.080000 1.520000
v 0.560000 0.280000 1.520000
v 0.560000 -0.080000 1.360000
v 0.560000 0.280000 1.360000
v 0.720000 -0.080000 1.520000
v 0.720000 0.280000 1.520000
v 0.720000 -0.080000 1.360000
v 0.720000 0.280000 1.360000
v -0.480000 0.800000 -0.880000
v -0.480000 0.800000 -1.360000
v 0.480000 0.800000 -0.880000
v 0.480000 0.800000 -1.360000
v -0.440000 0.960000 -0.920000
v -0.480000 0.920000 -0.880000
v -0.440000 0.960000 -1.320000
v -0.480000 0.920000 -1.360000
v 0.440000 0.960000 -0.920000
v 0.480000 0.920000 -0.880000
v 0.440000 0.960000 -1.320000
v 0.480000 0.920000 -1.360000
vn -0.0000 -1.0000 -0.0000
vn -0.7071 0.7071 -0.0000
vn -0.0000 0.7071 -0.7071
vn 0.7071 0.7071 -0.0000
vn -0.0000 0.7071 0.7071
vn -0.0000 -0.0000 1.0000
vn -1.0000 -0.0000 -0.0000
vn -0.0000 1.0000 -0.0000
vn -0.0000 -0.0000 -1.0000
vn 1.0000 -0.0000 -0.0000
vt 1.000000 1.500000
vt 0.000000 -0.500000
vt 0.000000 1.500000
vt 0.100000 1.400000
vt 0.100000 -0.400000
vt 0.900000 1.400000
vt 0.900000 -0.400000
vt 1.000000 -0.500000
vt 1.000000 0.900000
vt 0.000000 0.675000
vt 1.000000 0.675000
vt -0.500000 0.900000
vt 1.500000 0.675000
vt -0.500000 0.675000
vt 0.000000 0.900000
vt 1.500000 0.900000
vt 1.350000 0.675000
vt 1.450000 0.450000
vt 1.350000 0.450000
vt 0.050000 0.675000
vt 0.150000 0.450000
vt 0.050000 0.450000
vt 1.450000 0.675000
vt 0.150000 0.675000
vt 0.150000 1.450000
vt 0.050000 1.350000
vt 0.050000 1.450000
vt -0.450000 0.675000
vt -0.350000 0.450000
vt -0.450000 0.450000
vt -0.350000 0.675000
vt 0.150000 -0.350000
vt 0.050000 -0.450000
vt 0.050000 -0.350000
vt 0.850000 0.675000
vt 0.950000 0.450000
vt 0.850000 0.450000
vt 0.950000 0.675000
vt 0.950000 1.450000
vt 0.850000 1.350000
vt 0.850000 1.450000
vt 0.950000 -0.350000
vt 0.850000 -0.450000
vt 0.850000 -0.350000
vt 0.225000 1.325000
vt 0.200000 1.050000
vt 0.225000 1.075000
vt 0.775000 1.325000
vt 0.200000 1.350000
vt 0.775000 1.075000
vt 0.800000 1.350000
vt 0.800000 1.050000
vt 0.800000 1.075000
vt 0.200000 1.000000
vt 0.800000 1.000000
vt 1.050000 1.075000
vt 1.350000 1.000000
vt 1.050000 1.000000
vt 0.200000 1.075000
vt 1.350000 1.075000
vt 0.150000 1.350000
vt 0.150000 -0.450000
vt 0.950000 1.350000
vt 0.950000 -0.450000
s 0
usemtl Wood
f 14/17/7 15/18/7 13/19/7
f 16/20/9 19/21/9 15/22/9
f 20/23/10 17/19/10 19/18/10
f 18/24/6 13/22/6 17/21/6
f 19/25/1 13/26/1 15/27/1
f 22/28/7 23/29/7 21/30/7
f 24/20/9 27/21/9 23/22/9
f 26/24/6 21/22/6 25/21/6
f 27/32/1 21/33/1 23/34/1
f 30/17/7 31/18/7 29/19/7
f 32/35/9 35/36/9 31/37/9
f 36/23/10 33/19/10 35/18/10
f 34/38/6 29/37/6 33/36/6
f 35/39/1 29/40/1 31/41/1
f 38/28/7 39/29/7 37/30/7
f 40/35/9 43/36/9 39/37/9
f 44/31/10 41/30/10 43/29/10
f 42/38/6 37/37/6 41/36/6
f 43/42/1 37/43/1 39/44/1
f 14/17/7 16/23/7 15/18/7
f 16/20/9 20/24/9 19/21/9
f 20/23/10 18/17/10 17/19/10
f 18/24/6 14/20/6 13/22/6
f 19/25/1 17/61/1 13/26/1
f 22/28/7 24/31/7 23/29/7
f 24/20/9 28/24/9 27/21/9
f 26/24/6 22/20/6 21/22/6
f 27/32/1 25/62/1 21/33/1
f 30/17/7 32/23/7 31/18/7
f 32/35/9 36/38/9 35/36/9
f 36/23/10 34/17/10 33/19/10
f 34/38/6 30/35/6 29/37/6
f 35/39/1 33/63/1 29/40/1
f 38/28/7 40/31/7 39/29/7
f 40/35/9 44/38/9 43/36/9
f 44/31/10 42/28/10 41/30/10
f 42/38/6 38/35/6 37/37/6
f 43/42/1 41/64/1 37/43/1
usemtl Fabric
f 4/1/1 1/2/1 2/3/1
f 7/4/2 6/2/2 5/5/2
f 11/6/3 8/3/3 7/4/3
f 9/7/4 12/1/4 11/6/4
f 5/5/5 10/8/5 9/7/5
f 10/9/6 1/10/6 3/11/6
f 6/12/7 2/13/7 1/14/7
f 7/4/8 9/7/8 11/6/8
f 8/15/9 4/11/9 2/10/9
f 12/16/10 3/14/10 4/13/10
f 28/31/10 25/30/10 27/29/10
f 51/45/2 50/46/2 49/47/2
f 55/48/3 52/49/3 51/45/3
f 53/50/4 56/51/4 55/48/4
f 49/47/5 54/52/5 53/50/5
f 54/53/6 45/54/6 47/55/6
f 50/56/7 46/57/7 45/58/7
f 51/45/8 53/50/8 55/48/8
f 52/59/9 48/55/9 46/54/9
f 56/60/10 47/58/10 48/57/10
f 4/1/1 3/8/1 1/2/1
f 7/4/2 8/3/2 6/2/2
f 11/6/3 12/1/3 8/3/3
f 9/7/4 10/8/4 12/1/4
f 5/5/5 6/2/5 10/8/5
f 10/9/6 6/15/6 1/10/6
f 6/12/7 8/16/7 2/13/7
f 7/4/8 5/5/8 9/7/8
f 8/15/9 12/9/9 4/11/9
f 12/16/10 10/12/10 3/14/10
f 28/31/10 26/28/10 25/30/10
f 51/45/2 52/49/2 50/46/2
f 55/48/3 56/51/3 52/49/3
f 53/50/4 54/52/4 56/51/4
f 49/47/5 50/46/5 54/52/5
f 54/53/6 50/59/6 45/54/6
f 50/56/7 52/60/7 46/57/7
f 51/45/8 49/47/8 53/50/8
f 52/59/9 56/53/9 48/55/9
f 56/60/10 54/56/10 47/58/10
