# Blender 5.1.2
# www.blender.org
mtllib bridge.mtl
o Cube
v 1.000000 0.000000 3.000000
v 1.000000 2.000000 3.000000
v -1.000000 0.000000 3.000000
v -1.000000 2.000000 3.000000
v 1.000000 0.000000 2.000000
v 1.300000 2.000000 0.850000
v -1.000000 0.000000 2.000000
v -1.300000 2.000000 0.850000
v 1.000000 0.000000 -2.000000
v 1.300000 2.000000 -0.850000
v -1.000000 0.000000 -2.000000
v -1.300000 2.000000 -0.850000
v 1.000000 0.000000 -3.000000
v 1.000000 2.000000 -3.000000
v -1.000000 0.000000 -3.000000
v -1.000000 2.000000 -3.000000
v 1.300000 2.500000 -2.000000
v -1.300000 2.500000 -2.000000
v -1.000000 2.500000 -3.000000
v 1.000000 2.500000 -3.000000
v 1.000000 2.500000 3.000000
v -1.000000 2.500000 3.000000
v -1.300000 2.500000 2.000000
v 1.300000 2.500000 2.000000
v 1.500000 0.000000 3.000000
v 1.500000 2.000000 3.000000
v 1.500000 2.000000 2.000000
v 1.500000 0.000000 2.000000
v 1.500000 0.000000 -2.000000
v 1.500000 2.000000 -2.000000
v 1.500000 2.000000 -3.000000
v 1.500000 0.000000 -3.000000
v 1.500000 2.500000 -3.000000
v 1.500000 2.500000 -2.000000
v 1.500000 2.500000 2.000000
v 1.500000 2.500000 3.000000
v -1.500000 2.000000 3.000000
v -1.500000 0.000000 3.000000
v -1.500000 0.000000 2.000000
v -1.500000 2.000000 2.000000
v -1.500000 2.000000 -2.000000
v -1.500000 0.000000 -2.000000
v -1.500000 0.000000 -3.000000
v -1.500000 2.000000 -3.000000
v -1.500000 2.500000 -2.000000
v -1.500000 2.500000 -3.000000
v -1.500000 2.500000 3.000000
v -1.500000 2.500000 2.000000
v -1.800000 3.500000 2.000000
v -1.300000 3.500000 2.000000
v -1.300000 3.500000 -2.000000
v -1.300000 3.500000 -3.000000
v 1.300000 3.500000 -3.000000
v 1.300000 3.500000 -2.000000
v -1.300000 3.500000 3.000000
v 1.300000 3.500000 2.000000
v 1.300000 3.500000 3.000000
v 1.800000 3.500000 -3.000000
v 1.800000 3.500000 -2.000000
v 1.800000 3.500000 2.000000
v 1.800000 3.500000 3.000000
v -1.800000 3.500000 -2.000000
v -1.800000 3.500000 -3.000000
v -1.800000 3.500000 3.000000
v -1.800000 3.000000 3.000000
v -1.800000 3.000000 2.000000
v -1.300000 3.000000 2.000000
v -1.300000 3.000000 3.000000
v 1.300000 3.000000 3.000000
v 1.300000 3.000000 2.000000
v 1.800000 3.000000 3.000000
v 1.800000 3.000000 2.000000
v 1.300000 3.000000 -2.000000
v 1.300000 3.000000 -3.000000
v 1.800000 3.000000 -2.000000
v 1.800000 3.000000 -3.000000
v -1.300000 3.000000 -2.000000
v -1.800000 3.000000 -2.000000
v -1.800000 3.000000 -3.000000
v -1.300000 3.000000 -3.000000
vn -0.0000 -0.0000 1.0000
vn -0.9566 -0.2392 -0.1664
vn -0.0000 -0.4985 -0.8669
vn -0.0000 -0.0000 -1.0000
vn -0.0000 -1.0000 -0.0000
vn 0.9166 0.3666 -0.1594
vn -0.0000 -0.4985 0.8669
vn -0.0000 1.0000 -0.0000
vn -0.0000 0.9171 0.3987
vn -0.0000 0.9171 -0.3987
vn 1.0000 -0.0000 -0.0000
vn -1.0000 -0.0000 -0.0000
vn 0.9566 -0.2392 0.1664
vn -0.9166 0.3666 0.1594
vn 0.8305 0.4983 -0.2491
vn -0.8575 -0.5145 -0.0000
vn 0.8575 -0.5145 -0.0000
vn -0.8305 0.4983 0.2491
vn 0.9566 -0.2392 -0.1664
vn -0.9166 0.3666 -0.1594
vn 0.9166 0.3666 0.1594
vn -0.9566 -0.2392 0.1664
vn -0.8305 0.4983 -0.2491
vn 0.8305 0.4983 0.2491
vt 0.666667 0.450758
vt 0.333333 0.117424
vt 0.666667 0.117424
vt 0.166667 0.117424
vt 0.166667 0.450758
vt 0.358333 0.450758
vt 0.283333 0.450758
vt 0.333333 0.166667
vt 0.666667 0.000000
vt 0.333333 0.000000
vt 0.166667 0.534091
vt 0.716667 0.450758
vt 0.333333 0.833333
vt 0.250000 1.000000
vt 0.333333 1.000000
vt 0.333333 0.450758
vt 0.666667 0.534091
vt 0.750000 0.450758
vt 0.666667 0.833333
vt 0.283333 0.833333
vt 0.666667 1.000000
vt 0.716667 0.641667
vt 0.283333 0.641667
vt 0.750000 0.833333
vt 0.200000 0.617424
vt 0.283333 0.700758
vt 0.283333 0.617424
vt 0.716667 0.166667
vt 0.283333 0.166667
vt 0.283333 0.358333
vt 0.716667 0.358333
vt 0.333333 0.534091
vt 0.641667 0.450758
vt 0.833333 0.534091
vt 0.716667 0.833333
vt 0.000000 0.117424
vt 0.000000 0.534091
vt 0.000000 0.450758
vt 1.000000 0.450758
vt 0.833333 0.117424
vt 1.000000 0.117424
vt 0.833333 0.450758
vt 0.750000 0.534091
vt 0.666667 0.166667
vt 0.750000 0.000000
vt 0.000000 0.617424
vt 0.166667 0.700758
vt 0.166667 0.617424
vt 0.750000 0.117424
vt 0.800000 0.617424
vt 0.716667 0.700758
vt 0.716667 0.617424
vt 1.000000 0.534091
vt 0.250000 0.117424
vt 0.250000 0.450758
vt 0.250000 0.166667
vt 0.250000 0.534091
vt 0.833333 0.617424
vt 1.000000 0.700758
vt 1.000000 0.617424
vt 0.200000 0.000000
vt 0.283333 0.000000
vt 0.800000 1.000000
vt 0.716667 1.000000
vt 0.716667 0.000000
vt 0.800000 0.166667
vt 0.283333 1.000000
vt 0.200000 0.833333
vt 0.800000 0.700758
vt 0.200000 0.700758
vt 0.833333 0.700758
vt 0.000000 0.700758
vt 0.283333 0.534091
vt 0.716667 0.534091
vt 0.200000 0.166667
vt 0.800000 0.833333
vt 0.250000 0.833333
vt 0.750000 1.000000
vt 0.750000 0.166667
vt 0.250000 0.000000
vt 0.800000 0.000000
vt 0.200000 1.000000
s 0
f 2/1/1 3/2/1 1/3/1
f 7/4/2 40/5/2 8/6/2
f 8/7/3 5/3/3 7/2/3
f 5/4/4 27/5/4 28/4/4
f 7/8/5 1/9/5 3/10/5
f 24/11/6 27/5/6 6/6/6
f 10/12/7 11/2/7 9/3/7
f 11/13/5 43/14/5 15/15/5
f 16/16/4 13/3/4 15/2/4
f 20/17/4 31/18/4 14/1/4
f 15/15/5 9/19/5 11/13/5
f 16/16/4 20/17/4 14/1/4
f 18/20/8 20/21/8 19/15/8
f 10/22/9 18/20/9 12/23/9
f 13/21/5 29/24/5 9/19/5
f 66/25/4 50/26/4 67/27/4
f 22/10/8 24/28/8 23/29/8
f 23/11/4 40/5/4 48/11/4
f 8/30/10 24/28/10 6/31/10
f 2/1/1 22/32/1 4/16/1
f 6/31/8 12/23/8 8/30/8
f 23/11/11 12/33/11 18/34/11
f 10/33/12 24/11/12 17/34/12
f 24/28/5 18/20/5 17/35/5
f 27/5/11 25/36/11 28/4/11
f 27/5/11 36/37/11 26/38/11
f 31/39/11 29/40/11 32/41/11
f 31/39/11 34/34/11 30/42/11
f 17/34/1 30/42/1 34/34/1
f 9/40/13 30/42/13 10/33/13
f 2/1/1 36/43/1 21/17/1
f 5/44/5 25/45/5 1/9/5
f 65/46/12 49/47/12 66/48/12
f 14/1/4 32/49/4 13/3/4
f 75/50/1 54/51/1 73/52/1
f 1/3/1 26/18/1 2/1/1
f 37/38/12 39/4/12 38/36/12
f 41/42/12 43/41/12 42/40/12
f 41/42/12 46/53/12 44/39/12
f 37/38/12 48/11/12 40/5/12
f 4/16/1 38/54/1 3/2/1
f 18/34/14 41/42/14 12/33/14
f 22/32/1 37/55/1 4/16/1
f 3/10/5 39/56/5 7/8/5
f 16/16/4 46/57/4 19/32/4
f 15/2/4 44/55/4 16/16/4
f 73/58/12 53/59/12 74/60/12
f 11/40/1 41/42/1 42/40/1
f 50/29/8 64/61/8 55/62/8
f 54/35/8 58/63/8 53/64/8
f 57/65/8 60/66/8 56/28/8
f 52/67/8 62/68/8 51/20/8
f 69/46/12 56/47/12 70/48/12
f 74/52/4 58/69/4 76/50/4
f 77/27/1 62/70/1 78/25/1
f 71/50/1 57/51/1 69/52/1
f 76/60/11 59/71/11 75/58/11
f 68/27/1 64/70/1 65/25/1
f 70/52/4 60/69/4 72/50/4
f 78/58/12 63/59/12 79/60/12
f 79/25/4 52/26/4 80/27/4
f 80/60/11 51/71/11 77/58/11
f 72/48/11 61/72/11 71/46/11
f 67/48/11 55/72/11 68/46/11
f 23/11/15 68/46/15 22/37/15
f 47/57/1 68/27/1 65/25/1
f 47/37/16 66/48/16 48/11/16
f 48/57/4 67/27/4 23/73/4
f 35/11/17 71/46/17 36/37/17
f 35/43/4 70/52/4 72/50/4
f 36/43/1 69/52/1 21/17/1
f 24/11/12 69/46/12 70/48/12
f 33/53/17 75/58/17 34/34/17
f 33/43/4 74/52/4 76/50/4
f 17/34/18 74/60/18 20/53/18
f 34/43/1 73/52/1 17/74/1
f 18/34/11 80/60/11 77/58/11
f 46/57/4 80/27/4 19/32/4
f 45/34/16 79/60/16 46/53/16
f 45/57/1 77/27/1 78/25/1
f 66/75/5 77/20/5 67/29/5
f 62/71/12 66/48/12 49/47/12
f 67/48/12 51/71/12 77/58/12
f 62/68/5 50/29/5 49/75/5
f 70/28/5 75/76/5 72/66/5
f 72/48/12 59/71/12 75/58/12
f 70/48/12 54/71/12 73/58/12
f 56/28/8 59/76/8 54/35/8
f 2/1/1 4/16/1 3/2/1
f 7/4/4 39/4/4 40/5/4
f 8/7/3 6/12/3 5/3/3
f 5/4/19 6/6/19 27/5/19
f 7/8/5 5/44/5 1/9/5
f 24/11/4 35/11/4 27/5/4
f 10/12/7 12/7/7 11/2/7
f 11/13/5 42/77/5 43/14/5
f 16/16/4 14/1/4 13/3/4
f 20/17/4 33/43/4 31/18/4
f 15/15/5 13/21/5 9/19/5
f 16/16/4 19/32/4 20/17/4
f 18/20/8 17/35/8 20/21/8
f 10/22/9 17/35/9 18/20/9
f 13/21/5 32/78/5 29/24/5
f 66/25/4 49/70/4 50/26/4
f 22/10/8 21/9/8 24/28/8
f 23/11/20 8/6/20 40/5/20
f 8/30/10 23/29/10 24/28/10
f 2/1/1 21/17/1 22/32/1
f 6/31/8 10/22/8 12/23/8
f 23/11/11 8/6/11 12/33/11
f 10/33/12 6/6/12 24/11/12
f 24/28/5 23/29/5 18/20/5
f 27/5/11 26/38/11 25/36/11
f 27/5/11 35/11/11 36/37/11
f 31/39/11 30/42/11 29/40/11
f 31/39/11 33/53/11 34/34/11
f 17/34/21 10/33/21 30/42/21
f 9/40/1 29/40/1 30/42/1
f 2/1/1 26/18/1 36/43/1
f 5/44/5 28/79/5 25/45/5
f 65/46/12 64/72/12 49/47/12
f 14/1/4 31/18/4 32/49/4
f 75/50/1 59/69/1 54/51/1
f 1/3/1 25/49/1 26/18/1
f 37/38/12 40/5/12 39/4/12
f 41/42/12 44/39/12 43/41/12
f 41/42/12 45/34/12 46/53/12
f 37/38/12 47/37/12 48/11/12
f 4/16/1 37/55/1 38/54/1
f 18/34/1 45/34/1 41/42/1
f 22/32/1 47/57/1 37/55/1
f 3/10/5 38/80/5 39/56/5
f 16/16/4 44/55/4 46/57/4
f 15/2/4 43/54/4 44/55/4
f 73/58/12 54/71/12 53/59/12
f 11/40/22 12/33/22 41/42/22
f 50/29/8 49/75/8 64/61/8
f 54/35/8 59/76/8 58/63/8
f 57/65/8 61/81/8 60/66/8
f 52/67/8 63/82/8 62/68/8
f 69/46/12 57/72/12 56/47/12
f 74/52/4 53/51/4 58/69/4
f 77/27/1 51/26/1 62/70/1
f 71/50/1 61/69/1 57/51/1
f 76/60/11 58/59/11 59/71/11
f 68/27/1 55/26/1 64/70/1
f 70/52/4 56/51/4 60/69/4
f 78/58/12 62/71/12 63/59/12
f 79/25/4 63/70/4 52/26/4
f 80/60/11 52/59/11 51/71/11
f 72/48/11 60/47/11 61/72/11
f 67/48/11 50/47/11 55/72/11
f 23/11/11 67/48/11 68/46/11
f 47/57/1 22/32/1 68/27/1
f 47/37/16 65/46/16 66/48/16
f 48/57/4 66/25/4 67/27/4
f 35/11/17 72/48/17 71/46/17
f 35/43/4 24/74/4 70/52/4
f 36/43/1 71/50/1 69/52/1
f 24/11/23 21/37/23 69/46/23
f 33/53/17 76/60/17 75/58/17
f 33/43/4 20/17/4 74/52/4
f 17/34/12 73/58/12 74/60/12
f 34/43/1 75/50/1 73/52/1
f 18/34/24 19/53/24 80/60/24
f 46/57/4 79/25/4 80/27/4
f 45/34/16 78/58/16 79/60/16
f 45/57/1 18/73/1 77/27/1
f 66/75/5 78/68/5 77/20/5
f 62/71/12 78/58/12 66/48/12
f 67/48/12 50/47/12 51/71/12
f 62/68/5 51/20/5 50/29/5
f 70/28/5 73/35/5 75/76/5
f 72/48/12 60/47/12 59/71/12
f 70/48/12 56/47/12 54/71/12
f 56/28/8 60/66/8 59/76/8
