# Blender 5.1.2
# www.blender.org
mtllib chainlink_fence.mtl
o Plane
v -0.900000 0.000000 0.000000
v 0.900000 0.000000 0.000000
v -0.900000 2.000000 0.000000
v 0.900000 2.000000 0.000000
v -1.000000 0.000000 0.000000
v -1.000000 2.000000 0.000000
v 1.000000 0.000000 0.000000
v 1.000000 2.000000 0.000000
v -0.900000 2.000000 0.100000
v -0.900000 0.000000 0.100000
v 0.900000 0.000000 0.100000
v 0.900000 2.000000 0.100000
v -1.000000 2.000000 0.100000
v -1.000000 0.000000 0.100000
v 1.000000 0.000000 0.100000
v 1.000000 2.000000 0.100000
v 0.900000 0.000000 0.000000
v 0.900000 2.000000 0.000000
v -0.900000 2.000000 0.000000
v -0.900000 0.000000 0.000000
v -0.900000 0.000000 0.000000
v -0.900000 2.000000 0.000000
v 0.900000 2.000000 -0.000000
v 0.900000 0.000000 -0.000000
v -0.900000 0.000000 0.010000
v -0.900000 2.000000 0.010000
v 0.900000 2.000000 0.010000
v 0.900000 0.000000 0.010000
vn -0.0000 1.0000 -0.0000
vn 1.0000 -0.0000 -0.0000
vn -0.0000 -1.0000 -0.0000
vn -0.0000 -0.0000 1.0000
vn -1.0000 -0.0000 -0.0000
vn -0.0000 -0.0000 -1.0000
vt 0.949924 0.000095
vt 0.949924 0.999905
vt 0.050020 0.999978
vt 0.000022 0.000022
vt 0.050020 0.000022
vt 0.151573 0.000078
vt 0.056572 0.107470
vt 0.000078 0.024027
vt 0.050020 0.999978
vt 0.000022 0.000022
vt 0.050020 0.000022
vt 0.000022 0.000022
vt 0.000022 0.999978
vt 0.303225 0.000078
vt 0.208223 0.107470
vt 0.151729 0.024027
vt 0.000078 0.999922
vt 0.095080 0.892530
vt 0.151573 0.975974
vt 0.151729 0.999922
vt 0.246731 0.892530
vt 0.303225 0.975974
vt 0.000022 0.000022
vt 0.000022 0.999978
vt 0.050095 0.999905
vt 0.050095 0.000095
vt 0.000024 0.999927
vt 0.001022 0.000023
vt 0.051018 0.000073
vt 0.000023 0.999977
vt 0.050018 0.000073
vt 0.050018 0.999977
vt 0.107586 0.111711
vt 0.000022 0.999978
vt 0.259237 0.111711
vt 0.044066 0.888289
vt 0.195717 0.888289
vt 0.050020 0.000022
vt 0.050019 0.999977
vt 0.000024 0.999977
vt 0.000023 0.000023
vt 0.000023 0.000073
vt 0.050018 0.000023
vt 0.051018 0.999977
s 0
usemtl Material
f 17/1/4 19/25/4 20/26/4
f 21/1/6 23/25/6 24/26/6
f 25/1/6 27/25/6 28/26/6
f 17/1/4 18/2/4 19/25/4
f 21/1/6 22/2/6 23/25/6
f 25/1/6 26/2/6 27/25/6
usemtl Material.002
f 17/1/1 4/2/1 18/2/1
f 8/3/2 15/4/2 7/5/2
f 7/6/3 11/7/3 2/8/3
f 9/9/4 14/10/4 10/11/4
f 11/12/4 16/3/4 12/13/4
f 1/14/3 14/15/3 5/16/3
f 4/17/1 16/18/1 8/19/1
f 6/20/1 9/21/1 3/22/1
f 5/23/5 13/3/5 6/24/5
f 2/23/5 12/3/5 4/24/5
f 3/3/2 10/4/2 1/5/2
f 1/26/1 19/25/1 3/25/1
f 22/27/6 1/28/6 5/29/6
f 8/30/6 24/31/6 4/32/6
f 17/1/1 2/1/1 4/2/1
f 8/3/2 16/24/2 15/4/2
f 7/6/3 15/33/3 11/7/3
f 9/9/4 13/34/4 14/10/4
f 11/12/4 15/5/4 16/3/4
f 1/14/3 10/35/3 14/15/3
f 4/17/1 12/36/1 16/18/1
f 6/20/1 13/37/1 9/21/1
f 5/23/5 14/38/5 13/3/5
f 2/23/5 11/38/5 12/3/5
f 3/3/2 9/24/2 10/4/2
f 1/26/1 20/26/1 19/25/1
f 6/39/3 3/40/3 22/27/3
f 5/29/6 6/39/6 22/27/6
f 22/27/2 21/41/2 1/28/2
f 7/42/3 2/43/3 24/31/3
f 8/30/6 7/42/6 24/31/6
f 24/31/2 23/44/2 4/32/2
