# Blender 5.1.2
# www.blender.org
mtllib chainlink_fence.mtl
o Plane
v -0.900000 0.000000 0.000000
v 0.900000 0.000000 0.000000
v -0.900000 2.000000 0.000000
v 0.900000 2.000000 0.000000
v -1.000000 0.000000 0.000000
v -1.000000 2.000000 0.000000
v 1.000000 0.000000 0.000000
v 1.000000 2.000000 0.000000
v -0.900000 2.000000 0.100000
v -0.900000 0.000000 0.100000
v 0.900000 0.000000 0.100000
v 0.900000 2.000000 0.100000
v -1.000000 2.000000 0.100000
v -1.000000 0.000000 0.100000
v 1.000000 0.000000 0.100000
v 1.000000 2.000000 0.100000
v 0.900000 0.000000 0.000000
v 0.900000 2.000000 0.000000
v -0.900000 2.000000 0.000000
v -0.900000 0.000000 0.000000
vn -0.0000 1.0000 -0.0000
vn 1.0000 -0.0000 -0.0000
vn -0.0000 -1.0000 -0.0000
vn -0.0000 -0.0000 1.0000
vn -1.0000 -0.0000 -0.0000
vt 0.949924 0.000095
vt 0.949924 0.999905
vt 0.151573 0.000078
vt 0.151573 0.975974
vt 0.095080 0.892530
vt 0.107586 0.111711
vt 0.000078 0.024027
vt 0.056572 0.107470
vt 0.259237 0.111711
vt 0.246731 0.892530
vt 0.195717 0.888289
vt 0.208223 0.107470
vt 0.044066 0.888289
vt 0.151729 0.024027
vt 0.303225 0.000078
vt 0.000078 0.999922
vt 0.303225 0.975974
vt 0.151729 0.999922
vt 0.050095 0.000095
vt 0.050095 0.999905
s 0
usemtl Material
f 20/19/4 17/1/4 18/2/4 19/20/4
usemtl Material.002
f 17/1/1 2/1/1 4/2/1 18/2/1
f 7/3/2 8/4/2 16/5/2 15/6/2
f 2/7/3 7/3/3 15/6/3 11/8/3
f 10/9/4 9/10/4 13/11/4 14/12/4
f 12/13/4 11/8/4 15/6/4 16/5/4
f 5/14/3 1/15/3 10/9/3 14/12/3
f 8/4/1 4/16/1 12/13/1 16/5/1
f 3/17/1 6/18/1 13/11/1 9/10/1
f 6/18/5 5/14/5 14/12/5 13/11/5
f 4/16/5 2/7/5 11/8/5 12/13/5
f 1/15/2 3/17/2 9/10/2 10/9/2
f 1/19/1 20/19/1 19/20/1 3/20/1
