# Blender 5.1.2
# www.blender.org
mtllib container.mtl
o Cube
v -1.260000 0.000000 3.192000
v -1.260000 0.144000 3.360000
v -1.400000 0.144000 3.192000
v -1.260000 2.736000 3.360000
v -1.260000 2.880000 3.192000
v -1.400000 2.736000 3.192000
v -1.260000 0.000000 -3.192000
v -1.400000 0.144000 -3.192000
v -1.260000 0.144000 -3.360000
v -1.260000 2.880000 -3.192000
v -1.260000 2.736000 -3.360000
v -1.400000 2.736000 -3.192000
v 1.260000 0.000000 3.192000
v 1.400000 0.144000 3.192000
v 1.260000 0.144000 3.360000
v 1.260000 2.880000 3.192000
v 1.260000 2.736000 3.360000
v 1.400000 2.736000 3.192000
v 1.260000 0.000000 -3.192000
v 1.260000 0.144000 -3.360000
v 1.400000 0.144000 -3.192000
v 1.260000 2.880000 -3.192000
v 1.400000 2.736000 -3.192000
v 1.260000 2.736000 -3.360000
vn -0.6155 -0.5984 0.5129
vn -0.6155 0.5984 0.5129
vn -0.6155 -0.5984 -0.5129
vn -0.6155 0.5984 -0.5129
vn 0.6155 -0.5984 0.5129
vn 0.6155 0.5984 0.5129
vn 0.6155 -0.5984 -0.5129
vn 0.6155 0.5984 -0.5129
vn -0.7170 -0.6971 -0.0000
vn -0.7682 -0.0000 0.6402
vn -0.7170 0.6971 -0.0000
vn -0.7682 -0.0000 -0.6402
vn -0.0000 -0.7593 -0.6508
vn -0.0000 0.7593 -0.6508
vn 0.7682 -0.0000 -0.6402
vn 0.7170 -0.6971 -0.0000
vn 0.7170 0.6971 -0.0000
vn 0.7682 -0.0000 0.6402
vn -0.0000 -0.7593 0.6508
vn -0.0000 0.7593 0.6508
vn -0.0000 -1.0000 -0.0000
vn -1.0000 -0.0000 -0.0000
vn -0.0000 1.0000 -0.0000
vn 1.0000 -0.0000 -0.0000
vt -0.449880 -0.449836
vt 0.012561 0.031352
vt -0.466525 -0.466483
vt -0.499873 0.450037
vt -0.449880 0.450037
vt -0.449880 0.500029
vt 1.449851 -0.449836
vt 1.449851 -0.499829
vt 1.499844 -0.449836
vt 1.449851 0.450037
vt 1.499844 0.450037
vt 1.449851 0.500030
vt -0.499873 -0.449836
vt -0.449880 -0.499829
vt 1.449851 0.450036
vt 1.499844 0.450037
vt 1.449851 0.500029
vt 1.449851 -0.449836
vt 1.449851 -0.499829
vt 0.999915 0.025097
vt 0.037570 0.943684
vt 0.066749 0.941598
vt -0.499815 -0.399791
vt 0.066749 0.041778
vt 1.449851 -0.449836
vt -0.449880 -0.449836
vt 1.449851 0.450036
vt -0.449880 0.450036
vt -0.494822 0.784926
vt 1.504888 -0.264922
vt 1.504889 0.784926
vt 1.504886 -0.264920
vt -0.494820 0.814922
vt -0.494820 -0.264920
vt -0.449880 -0.449836
vt 1.504888 -0.264922
vt -0.494822 0.784926
vt -0.494822 -0.264922
vt -0.494820 0.814922
vt 1.504887 0.814922
vt -0.499815 1.399849
vt -0.499814 1.399849
vt 1.499844 -0.449836
vt 1.449851 -0.449836
vt -0.494822 -0.264922
vt 1.504886 0.814922
vt 1.504889 0.784926
vt -0.494820 -0.264919
s 0
f 1/1/1 2/2/1 3/3/1
f 4/4/2 5/5/2 6/6/2
f 7/7/3 8/8/3 9/9/3
f 10/10/4 11/11/4 12/12/4
f 13/5/5 14/6/5 15/4/5
f 16/1/6 17/13/6 18/14/6
f 19/15/7 20/16/7 21/17/7
f 22/18/8 23/19/8 24/20/8
f 1/1/9 8/8/9 7/7/9
f 4/21/10 3/3/10 2/2/10
f 10/10/11 6/6/11 5/5/11
f 9/22/12 12/23/12 11/24/12
f 7/7/13 20/16/13 19/15/13
f 22/18/14 11/11/14 10/10/14
f 21/25/15 24/11/15 23/10/15
f 19/15/16 14/6/16 13/5/16
f 16/1/17 23/19/17 22/18/17
f 15/13/18 18/5/18 17/4/18
f 13/5/19 2/2/19 1/1/19
f 5/5/20 17/13/20 16/1/20
f 19/15/21 1/1/21 7/7/21
f 6/26/22 8/27/22 3/28/22
f 2/29/23 20/30/23 9/31/23
f 10/10/23 16/1/23 22/18/23
f 9/32/24 4/33/24 2/34/24
f 23/10/24 14/35/24 21/25/24
f 17/36/21 11/37/21 24/38/21
f 15/39/22 24/32/22 20/40/22
f 1/1/9 3/3/9 8/8/9
f 4/21/10 6/41/10 3/3/10
f 10/10/11 12/12/11 6/6/11
f 9/22/12 8/42/12 12/23/12
f 7/7/13 9/9/13 20/16/13
f 22/18/14 24/20/14 11/11/14
f 21/25/15 20/43/15 24/11/15
f 19/15/16 21/17/16 14/6/16
f 16/1/17 18/14/17 23/19/17
f 15/13/18 14/35/18 18/5/18
f 13/5/19 15/4/19 2/2/19
f 5/5/20 4/4/20 17/13/20
f 19/15/21 13/5/21 1/1/21
f 6/26/22 12/44/22 8/27/22
f 2/29/23 15/45/23 20/30/23
f 10/10/23 5/5/23 16/1/23
f 9/32/24 11/46/24 4/33/24
f 23/10/24 18/5/24 14/35/24
f 17/36/21 4/47/21 11/37/21
f 15/39/22 17/48/22 24/32/22
