# Blender 5.1.2
# www.blender.org
mtllib crate4.mtl
o Cube
v -1.000000 0.000000 0.500000
v -1.000000 2.600000 0.500000
v -1.000000 0.000000 -0.500000
v -1.000000 2.600000 -0.500000
v 1.000000 0.000000 0.500000
v 1.000000 2.600000 0.500000
v 1.000000 0.000000 -0.500000
v 1.000000 2.600000 -0.500000
v -0.900000 0.100750 0.500000
v -0.900000 2.499250 0.500000
v 0.900000 2.499250 0.500000
v 0.900000 0.100750 0.500000
v -0.900000 2.499250 -0.500000
v -0.900000 0.100750 -0.500000
v 0.900000 0.100750 -0.500000
v 0.900000 2.499250 -0.500000
v -1.000000 0.100750 -0.382500
v -1.000000 0.100750 0.382500
v -1.000000 2.499250 0.382500
v -1.000000 2.499250 -0.382500
v 1.000000 2.499250 -0.382500
v 1.000000 0.100750 -0.382500
v 1.000000 0.100750 0.382500
v 1.000000 2.499250 0.382500
v -0.900000 0.100750 0.450000
v -0.900000 2.499250 0.450000
v 0.900000 2.499250 0.450000
v 0.900000 0.100750 0.450000
v -0.900000 2.499250 -0.450000
v -0.900000 0.100750 -0.450000
v 0.900000 0.100750 -0.450000
v 0.900000 2.499250 -0.450000
v -0.950000 0.100750 -0.382500
v -0.950000 0.100750 0.382500
v -0.950000 2.499250 0.382500
v -0.950000 2.499250 -0.382500
v 0.950000 2.499250 -0.382500
v 0.950000 0.100750 -0.382500
v 0.950000 0.100750 0.382500
v 0.950000 2.499250 0.382500
vn -1.0000 -0.0000 -0.0000
vn -0.0000 -0.0000 -1.0000
vn 1.0000 -0.0000 -0.0000
vn -0.0000 -0.0000 1.0000
vn -0.0000 -1.0000 -0.0000
vn -0.0000 1.0000 -0.0000
vt 0.000062 0.000062
vt 0.045249 0.961193
vt 0.000062 0.999938
vt 0.000088 0.999912
vt 0.730729 0.961169
vt 0.769183 0.999912
vt 0.000062 0.000062
vt 0.045249 0.961193
vt 0.000062 0.999938
vt 0.769183 0.999912
vt 0.730729 0.038831
vt 0.769183 0.000088
vt 0.000071 0.000071
vt 0.500000 0.999929
vt 0.000071 0.999929
vt 0.500000 0.999929
vt 0.500000 0.000071
vt 0.055577 0.999976
vt 0.000024 0.000024
vt 0.055576 0.000024
vt 0.000088 0.000088
vt 0.038542 0.961169
vt 0.000088 0.999912
vt 0.038542 0.038831
vt 0.730729 0.961169
vt 0.020860 0.999986
vt 0.000014 0.000014
vt 0.020860 0.000014
vt 0.730729 0.038831
vt 0.769183 0.000088
vt 0.000088 0.000088
vt 0.038542 0.961169
vt 0.038543 0.038831
vt 0.020860 0.999986
vt 0.000014 0.000014
vt 0.020860 0.000014
vt 0.384630 0.999938
vt 0.339443 0.038807
vt 0.384630 0.000062
vt 0.339443 0.961193
vt 0.045249 0.038807
vt 0.000014 0.999986
vt 0.384630 0.000062
vt 0.045249 0.038807
vt 0.339443 0.961193
vt 0.384630 0.999938
vt 0.339443 0.038807
vt 0.999900 0.000100
vt 0.000100 0.999900
vt 0.000100 0.000100
vt 0.000100 0.999900
vt 0.999900 0.000100
vt 0.999900 0.999900
vt 0.318970 0.999943
vt 0.000057 0.000057
vt 0.318970 0.000056
vt 0.318970 0.999944
vt 0.000056 0.000057
vt 0.318970 0.000056
vt 0.027794 0.999983
vt 0.000017 0.000017
vt 0.027794 0.000017
vt 0.000017 0.000017
vt 0.027794 0.999983
vt 0.000017 0.999983
vt 0.020860 0.999986
vt 0.000014 0.000014
vt 0.020860 0.000014
vt 0.000017 0.000017
vt 0.027794 0.999983
vt 0.000017 0.999983
vt 0.000024 0.000024
vt 0.055577 0.999976
vt 0.000024 0.999976
vt 0.027794 0.999983
vt 0.000017 0.000017
vt 0.027794 0.000017
vt 0.000024 0.000024
vt 0.000014 0.000014
vt 0.020860 0.999986
vt 0.000014 0.999986
vt 0.000014 0.000014
vt 0.000014 0.999986
vt 0.020860 0.999986
vt 0.000014 0.999986
vt 0.500000 0.000071
vt 0.000071 0.999929
vt 0.000024 0.999976
vt 0.999900 0.999900
vt 0.000100 0.000100
vt 0.000057 0.999944
vt 0.000057 0.999944
vt 0.000017 0.999983
vt 0.027794 0.000017
vt 0.000014 0.999986
vt 0.055576 0.000024
vt 0.055577 0.000024
vt 0.020860 0.000014
vt 0.020860 0.000014
s 0
f 3/1/1 20/2/1 4/3/1
f 8/4/2 13/5/2 4/6/2
f 5/7/3 24/8/3 6/9/3
f 6/10/4 12/11/4 5/12/4
f 7/13/5 1/14/5 3/15/5
f 4/16/6 6/13/6 8/17/6
f 18/18/6 33/19/6 17/20/6
f 1/21/4 10/22/4 2/23/4
f 5/12/4 9/24/4 1/21/4
f 2/23/4 11/25/4 6/10/4
f 11/26/1 28/27/1 12/28/1
f 4/6/2 14/29/2 3/30/2
f 7/31/2 16/32/2 8/4/2
f 3/30/2 15/33/2 7/31/2
f 13/34/3 30/35/3 14/36/3
f 2/37/1 18/38/1 1/39/1
f 4/3/1 19/40/1 2/37/1
f 1/39/1 17/41/1 3/1/1
f 9/35/3 26/34/3 10/42/3
f 7/43/3 23/44/3 5/7/3
f 6/9/3 21/45/3 8/46/3
f 8/46/3 22/47/3 7/43/3
f 27/48/4 25/49/4 28/50/4
f 29/51/2 31/52/2 30/53/2
f 35/54/1 33/55/1 34/56/1
f 37/57/3 39/58/3 38/59/3
f 14/60/6 31/61/6 15/62/6
f 21/34/4 38/35/4 22/36/4
f 12/63/6 25/64/6 9/65/6
f 19/66/2 34/67/2 18/68/2
f 16/69/5 29/70/5 13/71/5
f 22/72/6 39/73/6 23/74/6
f 10/75/5 27/76/5 11/77/5
f 20/78/5 35/73/5 19/74/5
f 15/79/1 32/80/1 16/81/1
f 24/18/5 37/19/5 21/20/5
f 17/82/4 36/26/4 20/83/4
f 23/79/2 40/84/2 24/85/2
f 3/1/1 17/41/1 20/2/1
f 8/4/2 16/32/2 13/5/2
f 5/7/3 23/44/3 24/8/3
f 6/10/4 11/25/4 12/11/4
f 7/13/5 5/86/5 1/14/5
f 4/16/6 2/87/6 6/13/6
f 18/18/6 34/88/6 33/19/6
f 1/21/4 9/24/4 10/22/4
f 5/12/4 12/11/4 9/24/4
f 2/23/4 10/22/4 11/25/4
f 11/26/1 27/83/1 28/27/1
f 4/6/2 13/5/2 14/29/2
f 7/31/2 15/33/2 16/32/2
f 3/30/2 14/29/2 15/33/2
f 13/34/3 29/42/3 30/35/3
f 2/37/1 19/40/1 18/38/1
f 4/3/1 20/2/1 19/40/1
f 1/39/1 18/38/1 17/41/1
f 9/35/3 25/36/3 26/34/3
f 7/43/3 22/47/3 23/44/3
f 6/9/3 24/8/3 21/45/3
f 8/46/3 21/45/3 22/47/3
f 27/48/4 26/89/4 25/49/4
f 29/51/2 32/90/2 31/52/2
f 35/54/1 36/91/1 33/55/1
f 37/57/3 40/92/3 39/58/3
f 14/60/6 30/93/6 31/61/6
f 21/34/4 37/42/4 38/35/4
f 12/63/6 28/94/6 25/64/6
f 19/66/2 35/95/2 34/67/2
f 16/69/5 32/77/5 29/70/5
f 22/72/6 38/96/6 39/73/6
f 10/75/5 26/71/5 27/76/5
f 20/78/5 36/97/5 35/73/5
f 15/79/1 31/98/1 32/80/1
f 24/18/5 40/88/5 37/19/5
f 17/82/4 33/99/4 36/26/4
f 23/79/2 39/98/2 40/84/2
