# Blender 5.1.2
# www.blender.org
mtllib dock.mtl
o Cube
v 1.999695 0.000000 0.017452
v 1.999695 1.000000 0.017452
v -1.999695 0.000000 -0.017452
v -1.999695 1.000000 -0.017452
v 2.348743 0.000000 -12.981025
v 2.348743 1.000000 -12.981025
v -1.650648 0.000000 -13.015929
v -1.650648 1.000000 -13.015929
v -1.737910 0.000000 -9.766310
v -1.737910 1.000000 -9.766310
v 2.261481 0.000000 -9.731405
v 2.261481 1.000000 -9.731405
v 12.346943 1.000000 -12.846807
v 12.346943 0.000000 -12.846807
v 12.259680 0.000000 -9.597188
v 12.259680 1.000000 -9.597188
v -11.736109 1.000000 -9.900526
v -11.648847 1.000000 -13.150146
v -11.648847 0.000000 -13.150146
v -11.736109 0.000000 -9.900526
vn -0.0087 -0.0000 1.0000
vn -0.0134 -0.0000 0.9999
vn 0.0087 -0.0000 -1.0000
vn 0.9996 -0.0000 0.0268
vn -0.0000 -1.0000 -0.0000
vn -0.0000 1.0000 -0.0000
vn -0.9996 -0.0000 -0.0268
vn 0.0134 -0.0000 -0.9999
vt 0.958764 -1.076396
vt -0.369769 -1.408580
vt 0.958764 -1.408580
vt -0.282808 -1.076396
vt -3.604048 -1.408580
vt -0.282808 -1.408580
vt -0.253821 -1.076396
vt 1.074712 -1.408580
vt -0.253821 -1.408580
vt 3.527113 -1.076396
vt 0.288700 -1.408580
vt 3.527113 -1.408580
vt -0.253821 2.915101
vt 1.045725 1.824036
vt -0.282808 1.835631
vt 0.958764 -1.414377
vt 1.074712 2.903507
vt -0.369769 -1.402782
vt 4.366965 1.779451
vt 4.395952 2.858922
vt 0.300295 -1.076396
vt 3.538708 -1.408580
vt 0.300295 -1.408580
vt 4.561999 -1.076396
vt 3.482528 -1.408580
vt 4.561999 -1.408580
vt 1.074712 -1.076396
vt 4.395952 -1.408580
vt 1.045725 -1.408580
vt 4.366965 -1.076396
vt 1.045725 -1.076396
vt 3.583292 -1.076396
vt 4.662763 -1.408580
vt 3.583292 -1.408580
vt -3.575061 -1.076396
vt -3.575061 2.959686
vt -3.604048 1.880215
vt -0.369769 -1.076396
vt -3.604048 -1.076396
vt 0.288700 -1.076396
vt 3.538708 -1.076396
vt 3.482528 -1.076396
vt 4.395952 -1.076396
vt 4.366965 -1.408580
vt 4.662763 -1.076396
vt -3.575061 -1.408580
s 0
f 2/1/1 3/2/1 1/3/1
f 10/4/2 20/5/2 9/6/2
f 8/7/3 5/8/3 7/9/3
f 12/10/4 1/11/4 11/12/4
f 7/13/5 11/14/5 9/15/5
f 10/15/6 2/16/6 12/14/6
f 8/13/6 12/14/6 6/17/6
f 9/15/5 1/16/5 3/18/5
f 6/17/6 16/19/6 13/20/6
f 4/21/7 9/22/7 3/23/7
f 13/24/4 15/25/4 14/26/4
f 6/27/8 14/28/8 5/8/8
f 11/29/2 16/30/2 12/31/2
f 5/17/5 15/19/5 11/14/5
f 17/32/7 19/33/7 20/34/7
f 7/9/8 18/35/8 8/7/8
f 10/15/6 18/36/6 17/37/6
f 9/15/5 19/36/5 7/13/5
f 2/1/1 4/38/1 3/2/1
f 10/4/2 17/39/2 20/5/2
f 8/7/3 6/27/3 5/8/3
f 12/10/4 2/40/4 1/11/4
f 7/13/5 5/17/5 11/14/5
f 10/15/6 4/18/6 2/16/6
f 8/13/6 10/15/6 12/14/6
f 9/15/5 11/14/5 1/16/5
f 6/17/6 12/14/6 16/19/6
f 4/21/7 10/41/7 9/22/7
f 13/24/4 16/42/4 15/25/4
f 6/27/8 13/43/8 14/28/8
f 11/29/2 15/44/2 16/30/2
f 5/17/5 14/20/5 15/19/5
f 17/32/7 18/45/7 19/33/7
f 7/9/8 19/46/8 18/35/8
f 10/15/6 8/13/6 18/36/6
f 9/15/5 20/37/5 19/36/5
