# Blender 5.1.2
# www.blender.org
mtllib floor.mtl
o Plane
v -4.000000 0.000000 4.000000
v 4.000000 0.000000 4.000000
v -4.000000 0.000000 -4.000000
v 4.000000 0.000000 -4.000000
v -4.000000 -0.500000 4.000000
v 4.000000 -0.500000 4.000000
v -4.000000 -0.500000 -4.000000
v 4.000000 -0.500000 -4.000000
v -2.666667 0.000000 4.000000
v -1.333333 0.000000 4.000000
v 0.000000 0.000000 4.000000
v 1.333333 0.000000 4.000000
v 2.666667 0.000000 4.000000
v 2.666667 0.000000 -4.000000
v 1.333333 0.000000 -4.000000
v -0.000000 0.000000 -4.000000
v -1.333333 0.000000 -4.000000
v -2.666667 0.000000 -4.000000
v -2.666667 -0.500000 4.000000
v -1.333333 -0.500000 4.000000
v 0.000000 -0.500000 4.000000
v 1.333333 -0.500000 4.000000
v 2.666667 -0.500000 4.000000
v 2.666667 -0.500000 -4.000000
v 1.333333 -0.500000 -4.000000
v -0.000000 -0.500000 -4.000000
v -1.333333 -0.500000 -4.000000
v -2.666667 -0.500000 -4.000000
v -4.000000 0.000000 -2.666667
v -4.000000 0.000000 -1.333333
v -4.000000 0.000000 0.000000
v -4.000000 0.000000 1.333333
v -4.000000 0.000000 2.666667
v 4.000000 0.000000 2.666667
v 4.000000 0.000000 1.333333
v 4.000000 0.000000 -0.000000
v 4.000000 0.000000 -1.333333
v 4.000000 0.000000 -2.666667
v -4.000000 -0.500000 -2.666667
v -4.000000 -0.500000 -1.333333
v -4.000000 -0.500000 0.000000
v -4.000000 -0.500000 1.333333
v -4.000000 -0.500000 2.666667
v 4.000000 -0.500000 2.666667
v 4.000000 -0.500000 1.333333
v 4.000000 -0.500000 -0.000000
v 4.000000 -0.500000 -1.333333
v 4.000000 -0.500000 -2.666667
v -2.666667 -0.500000 -2.666667
v -2.666667 -0.500000 -1.333333
v -2.666667 -0.500000 0.000000
v -2.666667 -0.500000 1.333333
v -2.666667 -0.500000 2.666667
v -1.333333 -0.500000 -2.666667
v -1.333333 -0.500000 -1.333333
v -1.333333 -0.500000 0.000000
v -1.333333 -0.500000 1.333333
v -1.333333 -0.500000 2.666667
v -0.000000 -0.500000 -2.666667
v -0.000000 -0.500000 -1.333333
v 0.000000 -0.500000 0.000000
v 0.000000 -0.500000 1.333333
v 0.000000 -0.500000 2.666667
v 1.333333 -0.500000 -2.666667
v 1.333333 -0.500000 -1.333333
v 1.333333 -0.500000 0.000000
v 1.333333 -0.500000 1.333333
v 1.333333 -0.500000 2.666667
v 2.666667 -0.500000 -2.666667
v 2.666667 -0.500000 -1.333333
v 2.666667 -0.500000 0.000000
v 2.666667 -0.500000 1.333333
v 2.666667 -0.500000 2.666667
v -2.666667 0.000000 2.666667
v -2.666667 0.000000 1.333333
v -2.666667 0.000000 -0.000000
v -2.666667 0.000000 -1.333333
v -2.666667 0.000000 -2.666667
v -1.333333 0.000000 2.666667
v -1.333333 0.000000 1.333333
v -1.333333 0.000000 -0.000000
v -1.333333 0.000000 -1.333333
v -1.333333 0.000000 -2.666667
v 0.000000 0.000000 2.666667
v 0.000000 0.000000 1.333333
v -0.000000 0.000000 -0.000000
v -0.000000 0.000000 -1.333333
v -0.000000 0.000000 -2.666667
v 1.333333 0.000000 2.666667
v 1.333333 0.000000 1.333333
v 1.333333 0.000000 -0.000000
v 1.333333 0.000000 -1.333333
v 1.333333 0.000000 -2.666667
v 2.666667 0.000000 2.666667
v 2.666667 0.000000 1.333333
v 2.666667 0.000000 -0.000000
v 2.666667 0.000000 -1.333333
v 2.666667 0.000000 -2.666667
vn -0.0000 1.0000 -0.0000
vn -0.0000 -1.0000 -0.0000
vn -0.0000 -0.0000 1.0000
vn 1.0000 -0.0000 -0.0000
vn -1.0000 -0.0000 -0.0000
vn -0.0000 -0.0000 -1.0000
vt -1.499600 1.833066
vt -0.833067 2.499599
vt -0.833067 1.833066
vt 1.833066 2.499599
vt 2.499599 1.833066
vt 1.833066 1.833066
vt 1.844540 0.375006
vt 2.511173 0.624994
vt 1.844540 0.624994
vt -0.821993 0.624994
vt -1.488627 0.375006
vt -0.821993 0.375006
vt 1.844540 0.375006
vt 2.511173 0.375006
vt 1.844540 0.624994
vt 1.177907 0.375006
vt 1.177907 0.624994
vt 0.511273 0.375006
vt 0.511273 0.624994
vt -0.155360 0.375006
vt -0.155360 0.624994
vt -0.821993 0.624994
vt -1.488626 0.624994
vt -0.155360 0.624994
vt -0.155360 0.375006
vt 0.511274 0.624994
vt -1.499600 2.499600
vt -0.833066 1.833067
vt -1.499600 1.833067
vt -0.833066 2.499600
vt -0.166533 1.833067
vt -0.166533 2.499600
vt 0.500000 1.833067
vt 0.500000 2.499600
vt 1.166533 1.833067
vt 1.166533 2.499600
vt 1.833066 1.833067
vt 2.499599 2.499600
vt 2.499599 1.833067
vt 1.166533 1.833067
vt 1.833066 2.499600
vt 0.500000 1.833067
vt 1.166533 2.499600
vt -0.166533 1.833067
vt 0.500000 2.499600
vt -0.166533 2.499600
vt -0.833067 -1.499600
vt -0.166533 -0.833067
vt -0.166533 -1.499600
vt -0.833067 -0.166534
vt -0.166533 -0.166533
vt -0.833067 0.500000
vt -0.166533 0.500000
vt -0.166533 1.166533
vt 0.500000 -0.833067
vt 0.500000 -1.499600
vt 0.500000 -0.166533
vt 0.500000 0.500000
vt 0.500000 1.166533
vt 1.166533 -0.833066
vt 1.166533 -1.499600
vt 1.166533 -0.166533
vt 1.166533 0.500000
vt 1.166533 1.166533
vt 1.833067 -0.833066
vt 1.833066 -1.499600
vt 1.833067 -0.166533
vt 1.833067 0.500000
vt 1.833066 1.166533
vt 2.499599 -0.833066
vt 2.499600 -1.499600
vt 2.499599 -0.166533
vt 2.499599 0.500000
vt 2.499599 1.166533
vt 1.166533 -0.833067
vt 1.833066 -1.499600
vt 1.166533 -1.499600
vt 1.166533 -0.166533
vt 1.833066 -0.833067
vt 1.166533 0.500000
vt 1.833067 -0.166533
vt 1.166533 1.166533
vt 1.833066 0.500000
vt 1.833067 1.166533
vt 0.500000 -0.833067
vt 0.500000 -1.499600
vt 0.500000 -0.166533
vt 0.500000 1.166533
vt 0.500000 0.500000
vt -0.166533 -0.833066
vt -0.166533 -1.499600
vt -0.166533 -0.166533
vt -0.166533 0.500000
vt -0.166533 1.166533
vt -0.833067 -0.833066
vt -0.833067 -1.499600
vt -0.833067 0.500000
vt -0.833067 -0.166533
vt -0.833067 1.166533
vt -1.499600 -0.833066
vt -1.499600 -1.499600
vt -1.499600 0.500000
vt -1.499600 -0.166533
vt -1.499600 1.166534
vt 2.499600 -1.499600
vt 2.499599 -0.833067
vt 2.499599 -0.166534
vt 2.499599 0.500000
vt 2.499599 1.166533
vt -1.499600 -1.499600
vt -0.833067 -0.833067
vt -1.499600 -0.833067
vt -1.499600 -0.166534
vt -1.499600 0.500000
vt -0.833067 1.166533
vt -1.499600 2.499599
vt 2.499600 2.499599
vt -1.499600 1.166533
s 0
f 38/1/1 14/2/1 98/3/1
f 24/4/2 48/5/2 69/6/2
f 23/7/3 2/8/3 13/9/3
f 48/7/4 4/8/4 38/9/4
f 43/10/5 1/11/5 33/12/5
f 28/10/6 3/11/6 18/12/6
f 8/8/6 14/13/6 4/14/6
f 24/15/6 15/16/6 14/13/6
f 25/17/6 16/18/6 15/16/6
f 26/19/6 17/20/6 16/18/6
f 27/21/6 18/12/6 17/20/6
f 5/11/3 9/22/3 1/23/3
f 19/12/3 10/24/3 9/22/3
f 20/25/3 11/26/3 10/24/3
f 21/18/3 12/17/3 11/26/3
f 22/16/3 13/9/3 12/17/3
f 7/27/2 49/28/2 39/29/2
f 28/30/2 54/31/2 49/28/2
f 27/32/2 59/33/2 54/31/2
f 26/34/2 64/35/2 59/33/2
f 25/36/2 69/6/2 64/35/2
f 78/37/1 3/38/1 29/39/1
f 83/40/1 18/41/1 78/37/1
f 88/42/1 17/43/1 83/40/1
f 93/44/1 16/45/1 88/42/1
f 98/3/1 15/46/1 93/44/1
f 13/47/1 89/48/1 12/49/1
f 89/48/1 95/50/1 90/51/1
f 90/51/1 96/52/1 91/53/1
f 96/52/1 92/54/1 91/53/1
f 92/54/1 98/3/1 93/44/1
f 12/49/1 84/55/1 11/56/1
f 84/55/1 90/51/1 85/57/1
f 90/51/1 86/58/1 85/57/1
f 91/53/1 87/59/1 86/58/1
f 92/54/1 88/42/1 87/59/1
f 11/56/1 79/60/1 10/61/1
f 79/60/1 85/57/1 80/62/1
f 85/57/1 81/63/1 80/62/1
f 81/63/1 87/59/1 82/64/1
f 82/64/1 88/42/1 83/40/1
f 10/61/1 74/65/1 9/66/1
f 79/60/1 75/67/1 74/65/1
f 80/62/1 76/68/1 75/67/1
f 81/63/1 77/69/1 76/68/1
f 82/64/1 78/37/1 77/69/1
f 9/66/1 33/70/1 1/71/1
f 74/65/1 32/72/1 33/70/1
f 75/67/1 31/73/1 32/72/1
f 76/68/1 30/74/1 31/73/1
f 77/69/1 29/39/1 30/74/1
f 68/75/2 23/76/2 22/77/2
f 67/78/2 73/79/2 68/75/2
f 66/80/2 72/81/2 67/78/2
f 65/82/2 71/83/2 66/80/2
f 64/35/2 70/84/2 65/82/2
f 63/85/2 22/77/2 21/86/2
f 63/85/2 67/78/2 68/75/2
f 62/87/2 66/80/2 67/78/2
f 60/88/2 66/80/2 61/89/2
f 59/33/2 65/82/2 60/88/2
f 58/90/2 21/86/2 20/91/2
f 57/92/2 63/85/2 58/90/2
f 56/93/2 62/87/2 57/92/2
f 55/94/2 61/89/2 56/93/2
f 55/94/2 59/33/2 60/88/2
f 53/95/2 20/91/2 19/96/2
f 53/95/2 57/92/2 58/90/2
f 51/97/2 57/92/2 52/98/2
f 51/97/2 55/94/2 56/93/2
f 50/99/2 54/31/2 55/94/2
f 43/100/2 19/96/2 5/101/2
f 43/100/2 52/98/2 53/95/2
f 41/102/2 52/98/2 42/103/2
f 40/104/2 51/97/2 41/102/2
f 39/29/2 50/99/2 40/104/2
f 7/8/5 29/13/5 3/14/5
f 39/15/5 30/16/5 29/13/5
f 40/17/5 31/18/5 30/16/5
f 41/19/5 32/20/5 31/18/5
f 42/21/5 33/12/5 32/20/5
f 6/11/4 34/22/4 2/23/4
f 44/12/4 35/24/4 34/22/4
f 45/25/4 36/26/4 35/24/4
f 46/18/4 37/17/4 36/26/4
f 47/16/4 38/9/4 37/17/4
f 73/79/2 6/105/2 23/76/2
f 72/81/2 44/106/2 73/79/2
f 71/83/2 45/107/2 72/81/2
f 70/84/2 46/108/2 71/83/2
f 69/6/2 47/109/2 70/84/2
f 2/110/1 94/111/1 13/47/1
f 34/112/1 95/50/1 94/111/1
f 35/113/1 96/52/1 95/50/1
f 36/114/1 97/115/1 96/52/1
f 97/115/1 38/1/1 98/3/1
f 38/1/1 4/116/1 14/2/1
f 24/4/2 8/117/2 48/5/2
f 23/7/3 6/14/3 2/8/3
f 48/7/4 8/14/4 4/8/4
f 43/10/5 5/23/5 1/11/5
f 28/10/6 7/23/6 3/11/6
f 8/8/6 24/15/6 14/13/6
f 24/15/6 25/17/6 15/16/6
f 25/17/6 26/19/6 16/18/6
f 26/19/6 27/21/6 17/20/6
f 27/21/6 28/10/6 18/12/6
f 5/11/3 19/12/3 9/22/3
f 19/12/3 20/25/3 10/24/3
f 20/25/3 21/18/3 11/26/3
f 21/18/3 22/16/3 12/17/3
f 22/16/3 23/7/3 13/9/3
f 7/27/2 28/30/2 49/28/2
f 28/30/2 27/32/2 54/31/2
f 27/32/2 26/34/2 59/33/2
f 26/34/2 25/36/2 64/35/2
f 25/36/2 24/4/2 69/6/2
f 78/37/1 18/41/1 3/38/1
f 83/40/1 17/43/1 18/41/1
f 88/42/1 16/45/1 17/43/1
f 93/44/1 15/46/1 16/45/1
f 98/3/1 14/2/1 15/46/1
f 13/47/1 94/111/1 89/48/1
f 89/48/1 94/111/1 95/50/1
f 90/51/1 95/50/1 96/52/1
f 96/52/1 97/115/1 92/54/1
f 92/54/1 97/115/1 98/3/1
f 12/49/1 89/48/1 84/55/1
f 84/55/1 89/48/1 90/51/1
f 90/51/1 91/53/1 86/58/1
f 91/53/1 92/54/1 87/59/1
f 92/54/1 93/44/1 88/42/1
f 11/56/1 84/55/1 79/60/1
f 79/60/1 84/55/1 85/57/1
f 85/57/1 86/58/1 81/63/1
f 81/63/1 86/58/1 87/59/1
f 82/64/1 87/59/1 88/42/1
f 10/61/1 79/60/1 74/65/1
f 79/60/1 80/62/1 75/67/1
f 80/62/1 81/63/1 76/68/1
f 81/63/1 82/64/1 77/69/1
f 82/64/1 83/40/1 78/37/1
f 9/66/1 74/65/1 33/70/1
f 74/65/1 75/67/1 32/72/1
f 75/67/1 76/68/1 31/73/1
f 76/68/1 77/69/1 30/74/1
f 77/69/1 78/37/1 29/39/1
f 68/75/2 73/79/2 23/76/2
f 67/78/2 72/81/2 73/79/2
f 66/80/2 71/83/2 72/81/2
f 65/82/2 70/84/2 71/83/2
f 64/35/2 69/6/2 70/84/2
f 63/85/2 68/75/2 22/77/2
f 63/85/2 62/87/2 67/78/2
f 62/87/2 61/89/2 66/80/2
f 60/88/2 65/82/2 66/80/2
f 59/33/2 64/35/2 65/82/2
f 58/90/2 63/85/2 21/86/2
f 57/92/2 62/87/2 63/85/2
f 56/93/2 61/89/2 62/87/2
f 55/94/2 60/88/2 61/89/2
f 55/94/2 54/31/2 59/33/2
f 53/95/2 58/90/2 20/91/2
f 53/95/2 52/98/2 57/92/2
f 51/97/2 56/93/2 57/92/2
f 51/97/2 50/99/2 55/94/2
f 50/99/2 49/28/2 54/31/2
f 43/100/2 53/95/2 19/96/2
f 43/100/2 42/103/2 52/98/2
f 41/102/2 51/97/2 52/98/2
f 40/104/2 50/99/2 51/97/2
f 39/29/2 49/28/2 50/99/2
f 7/8/5 39/15/5 29/13/5
f 39/15/5 40/17/5 30/16/5
f 40/17/5 41/19/5 31/18/5
f 41/19/5 42/21/5 32/20/5
f 42/21/5 43/10/5 33/12/5
f 6/11/4 44/12/4 34/22/4
f 44/12/4 45/25/4 35/24/4
f 45/25/4 46/18/4 36/26/4
f 46/18/4 47/16/4 37/17/4
f 47/16/4 48/7/4 38/9/4
f 73/79/2 44/106/2 6/105/2
f 72/81/2 45/107/2 44/106/2
f 71/83/2 46/108/2 45/107/2
f 70/84/2 47/109/2 46/108/2
f 69/6/2 48/5/2 47/109/2
f 2/110/1 34/112/1 94/111/1
f 34/112/1 35/113/1 95/50/1
f 35/113/1 36/114/1 96/52/1
f 36/114/1 37/118/1 97/115/1
f 97/115/1 37/118/1 38/1/1
