# Blender 5.1.2
# www.blender.org
mtllib floor.mtl
o Plane
v -4.000000 0.000000 4.000000
v 4.000000 0.000000 4.000000
v -4.000000 0.000000 -4.000000
v 4.000000 0.000000 -4.000000
v -4.000000 -0.500000 4.000000
v 4.000000 -0.500000 4.000000
v -4.000000 -0.500000 -4.000000
v 4.000000 -0.500000 -4.000000
vn -0.0000 1.0000 -0.0000
vn -0.0000 -1.0000 -0.0000
vn -0.0000 -0.0000 1.0000
vn 1.0000 -0.0000 -0.0000
vn -1.0000 -0.0000 -0.0000
vn -0.0000 -0.0000 -1.0000
vt 2.499600 -1.499600
vt -1.499600 2.499600
vt -1.499600 -1.499600
vt -1.488627 0.375006
vt 2.511173 0.624994
vt -1.488626 0.624994
vt 2.511173 0.375006
vt 2.499600 2.499599
s 0
f 2/1/1 3/2/1 1/3/1
f 7/2/2 6/1/2 5/3/2
f 5/4/3 2/5/3 1/6/3
f 6/4/4 4/5/4 2/6/4
f 7/5/5 1/4/5 3/7/5
f 8/5/6 3/4/6 4/7/6
f 2/1/1 4/8/1 3/2/1
f 7/2/2 8/8/2 6/1/2
f 5/4/3 6/7/3 2/5/3
f 6/4/4 8/7/4 4/5/4
f 7/5/5 5/6/5 1/4/5
f 8/5/6 7/6/6 3/4/6
