# Blender 5.1.2
# www.blender.org
mtllib pipe.mtl
o Cylinder
v 0.000000 1.000000 -2.000000
v 0.000000 1.000000 2.000000
v 0.707107 0.707107 -2.000000
v 0.707107 0.707107 2.000000
v 1.000000 0.000000 -2.000000
v 1.000000 0.000000 2.000000
v 0.707107 -0.707107 -2.000000
v 0.707107 -0.707107 2.000000
v 0.000000 -1.000000 -2.000000
v 0.000000 -1.000000 2.000000
v -0.707107 -0.707107 -2.000000
v -0.707107 -0.707107 2.000000
v -1.000000 0.000000 -2.000000
v -1.000000 0.000000 2.000000
v -0.707107 0.707107 -2.000000
v -0.707107 0.707107 2.000000
vn 0.3827 0.9239 -0.0000
vn 0.9239 0.3827 -0.0000
vn 0.9239 -0.3827 -0.0000
vn 0.3827 -0.9239 -0.0000
vn -0.3827 -0.9239 -0.0000
vn -0.9239 -0.3827 -0.0000
vn -0.0000 -0.0000 1.0000
vn -0.9239 0.3827 -0.0000
vn -0.3827 0.9239 -0.0000
vn -0.0000 -0.0000 -1.0000
vt 0.500000 0.000000
vt 0.676777 1.000000
vt 0.500000 1.000000
vt 0.000000 0.676777
vt 1.000000 0.500000
vt 1.000000 0.676777
vt 0.000000 0.500000
vt 1.000000 0.323223
vt 0.676777 0.000000
vt 0.500000 0.000000
vt 0.323223 1.000000
vt 0.000000 0.323223
vt 0.250000 0.500000
vt 0.500000 0.250000
vt 0.750000 0.500000
vt 0.323223 0.000000
vt 0.676777 0.323223
vt 0.323223 0.323223
vt 0.323223 0.676777
vt 0.676777 0.000000
vt 0.323223 0.000000
vt 0.676777 0.676777
vt 0.500000 0.750000
vt 0.323223 0.676777
vt 0.323223 0.323223
vt 0.676777 0.323223
vt 0.676777 0.676777
s 0
f 2/1/1 3/2/1 1/3/1
f 4/4/2 5/5/2 3/6/2
f 6/7/3 7/8/3 5/5/3
f 8/9/4 9/3/4 7/2/4
f 10/10/5 11/11/5 9/3/5
f 12/12/6 13/5/6 11/8/6
f 14/13/7 10/14/7 6/15/7
f 14/7/8 15/6/8 13/5/8
f 16/16/9 1/3/9 15/11/9
f 7/17/10 11/18/10 15/19/10
f 2/1/1 4/20/1 3/2/1
f 4/4/2 6/7/2 5/5/2
f 6/7/3 8/12/3 7/8/3
f 8/9/4 10/10/4 9/3/4
f 10/10/5 12/21/5 11/11/5
f 12/12/6 14/7/6 13/5/6
f 6/15/7 4/22/7 2/23/7
f 2/23/7 16/24/7 14/13/7
f 14/13/7 12/25/7 10/14/7
f 10/14/7 8/26/7 6/15/7
f 6/15/7 2/23/7 14/13/7
f 14/7/8 16/4/8 15/6/8
f 16/16/9 2/1/9 1/3/9
f 15/19/10 1/23/10 3/27/10
f 3/27/10 5/15/10 7/17/10
f 7/17/10 9/14/10 11/18/10
f 11/18/10 13/13/10 15/19/10
f 15/19/10 3/27/10 7/17/10
