# Blender 5.1.2
# www.blender.org
mtllib pipe.mtl
o Cylinder
v 0.000000 1.000000 -2.000000
v 0.000000 1.000000 2.000000
v 0.707107 0.707107 -2.000000
v 0.707107 0.707107 2.000000
v 1.000000 0.000000 -2.000000
v 1.000000 0.000000 2.000000
v 0.707107 -0.707107 -2.000000
v 0.707107 -0.707107 2.000000
v 0.000000 -1.000000 -2.000000
v 0.000000 -1.000000 2.000000
v -0.707107 -0.707107 -2.000000
v -0.707107 -0.707107 2.000000
v -1.000000 0.000000 -2.000000
v -1.000000 0.000000 2.000000
v -0.707107 0.707107 -2.000000
v -0.707107 0.707107 2.000000
v 0.000000 1.000000 -1.333333
v 0.000000 1.000000 -0.666667
v 0.000000 1.000000 0.000000
v 0.000000 1.000000 0.666667
v 0.000000 1.000000 1.333333
v 0.707107 0.707107 1.333333
v 0.707107 0.707107 0.666667
v 0.707107 0.707107 0.000000
v 0.707107 0.707107 -0.666667
v 0.707107 0.707107 -1.333333
v 1.000000 0.000000 1.333333
v 1.000000 0.000000 0.666667
v 1.000000 0.000000 -0.000000
v 1.000000 0.000000 -0.666667
v 1.000000 0.000000 -1.333333
v 0.707107 -0.707107 1.333333
v 0.707107 -0.707107 0.666667
v 0.707107 -0.707107 -0.000000
v 0.707107 -0.707107 -0.666667
v 0.707107 -0.707107 -1.333333
v 0.000000 -1.000000 1.333333
v 0.000000 -1.000000 0.666667
v 0.000000 -1.000000 -0.000000
v 0.000000 -1.000000 -0.666667
v 0.000000 -1.000000 -1.333333
v -0.707107 -0.707107 1.333333
v -0.707107 -0.707107 0.666667
v -0.707107 -0.707107 -0.000000
v -0.707107 -0.707107 -0.666667
v -0.707107 -0.707107 -1.333333
v -1.000000 0.000000 1.333333
v -1.000000 0.000000 0.666667
v -1.000000 0.000000 -0.000000
v -1.000000 0.000000 -0.666667
v -1.000000 0.000000 -1.333333
v -0.707107 0.707107 1.333333
v -0.707107 0.707107 0.666667
v -0.707107 0.707107 0.000000
v -0.707107 0.707107 -0.666667
v -0.707107 0.707107 -1.333333
vn 0.3827 0.9239 -0.0000
vn 0.9239 0.3827 -0.0000
vn 0.9239 -0.3827 -0.0000
vn 0.3827 -0.9239 -0.0000
vn -0.3827 -0.9239 -0.0000
vn -0.9239 -0.3827 -0.0000
vn -0.0000 -0.0000 1.0000
vn -0.9239 0.3827 -0.0000
vn -0.3827 0.9239 -0.0000
vn -0.0000 -0.0000 -1.0000
vt 0.500000 0.166667
vt 0.676777 0.000000
vt 0.676777 0.166667
vt 0.000000 0.676777
vt 0.166667 0.500000
vt 0.166667 0.676777
vt 0.000000 0.323223
vt 0.166667 0.323223
vt 0.676777 0.000000
vt 0.500000 0.166667
vt 0.676777 0.166667
vt 0.500000 0.000000
vt 0.323223 0.166667
vt 0.166667 0.500000
vt 0.250000 0.500000
vt 0.500000 0.250000
vt 0.750000 0.500000
vt 0.000000 0.500000
vt 0.323223 0.000000
vt 0.323223 0.166667
vt 0.676777 0.323223
vt 0.323223 0.323223
vt 0.323223 0.676777
vt 0.323223 0.833333
vt 0.500000 1.000000
vt 0.323223 1.000000
vt 0.323223 0.666667
vt 0.500000 0.833333
vt 0.323223 0.500000
vt 0.500000 0.666667
vt 0.323223 0.333333
vt 0.500000 0.500000
vt 0.500000 0.333333
vt 0.833333 0.500000
vt 1.000000 0.676777
vt 1.000000 0.500000
vt 0.666667 0.500000
vt 0.833333 0.676777
vt 0.666667 0.676777
vt 0.333333 0.500000
vt 0.500000 0.676777
vt 0.333333 0.676777
vt 0.833333 0.323223
vt 1.000000 0.323223
vt 0.666667 0.323223
vt 0.333333 0.323223
vt 0.500000 0.323223
vt 0.500000 0.833333
vt 0.500000 0.666667
vt 0.323223 0.833333
vt 0.323223 0.500000
vt 0.500000 0.333333
vt 0.500000 0.500000
vt 0.323223 0.333333
vt 0.676777 0.833333
vt 0.676777 1.000000
vt 0.676777 0.666667
vt 0.676777 0.500000
vt 0.676777 0.333333
vt 0.833333 0.500000
vt 0.666667 0.500000
vt 0.333333 0.500000
vt 0.676777 0.833333
vt 0.676777 0.500000
vt 0.676777 0.333333
vt 0.500000 0.000000
vt 0.323223 0.000000
vt 0.676777 0.676777
vt 0.500000 0.750000
vt 0.323223 0.676777
vt 0.323223 0.323223
vt 0.676777 0.323223
vt 0.676777 0.676777
s 0
f 21/1/1 4/2/1 22/3/1
f 4/4/2 27/5/2 22/6/2
f 27/5/3 8/7/3 32/8/3
f 8/9/4 37/10/4 32/11/4
f 10/12/5 42/13/5 37/10/5
f 12/7/6 47/14/6 42/8/6
f 14/15/7 10/16/7 6/17/7
f 14/18/8 52/6/8 47/14/8
f 16/19/9 21/1/9 52/20/9
f 7/21/10 11/22/10 15/23/10
f 56/24/9 1/25/9 15/26/9
f 55/27/9 17/28/9 56/24/9
f 54/29/9 18/30/9 55/27/9
f 53/31/9 19/32/9 54/29/9
f 52/20/9 20/33/9 53/31/9
f 51/34/8 15/35/8 13/36/8
f 50/37/8 56/38/8 51/34/8
f 49/32/8 55/39/8 50/37/8
f 48/40/8 54/41/8 49/32/8
f 47/14/8 53/42/8 48/40/8
f 46/43/6 13/36/6 11/44/6
f 46/43/6 50/37/6 51/34/6
f 45/45/6 49/32/6 50/37/6
f 43/46/6 49/32/6 44/47/6
f 42/8/6 48/40/6 43/46/6
f 41/48/5 11/26/5 9/25/5
f 40/49/5 46/50/5 41/48/5
f 40/49/5 44/51/5 45/27/5
f 38/52/5 44/51/5 39/53/5
f 37/10/5 43/54/5 38/52/5
f 36/55/4 9/25/4 7/56/4
f 35/57/4 41/48/4 36/55/4
f 34/58/4 40/49/4 35/57/4
f 33/59/4 39/53/4 34/58/4
f 32/11/4 38/52/4 33/59/4
f 31/60/3 7/44/3 5/36/3
f 30/61/3 36/43/3 31/60/3
f 29/32/3 35/45/3 30/61/3
f 28/62/3 34/47/3 29/32/3
f 27/5/3 33/46/3 28/62/3
f 3/35/2 31/60/2 5/36/2
f 26/38/2 30/61/2 31/60/2
f 24/41/2 30/61/2 25/39/2
f 23/42/2 29/32/2 24/41/2
f 22/6/2 28/62/2 23/42/2
f 17/28/1 3/56/1 1/25/1
f 17/28/1 25/57/1 26/63/1
f 19/32/1 25/57/1 18/30/1
f 20/33/1 24/64/1 19/32/1
f 20/33/1 22/3/1 23/65/1
f 21/1/1 2/66/1 4/2/1
f 4/4/2 6/18/2 27/5/2
f 27/5/3 6/18/3 8/7/3
f 8/9/4 10/12/4 37/10/4
f 10/12/5 12/67/5 42/13/5
f 12/7/6 14/18/6 47/14/6
f 6/17/7 4/68/7 2/69/7
f 2/69/7 16/70/7 14/15/7
f 14/15/7 12/71/7 10/16/7
f 10/16/7 8/72/7 6/17/7
f 6/17/7 2/69/7 14/15/7
f 14/18/8 16/4/8 52/6/8
f 16/19/9 2/66/9 21/1/9
f 15/23/10 1/69/10 3/73/10
f 3/73/10 5/17/10 7/21/10
f 7/21/10 9/16/10 11/22/10
f 11/22/10 13/15/10 15/23/10
f 15/23/10 3/73/10 7/21/10
f 56/24/9 17/28/9 1/25/9
f 55/27/9 18/30/9 17/28/9
f 54/29/9 19/32/9 18/30/9
f 53/31/9 20/33/9 19/32/9
f 52/20/9 21/1/9 20/33/9
f 51/34/8 56/38/8 15/35/8
f 50/37/8 55/39/8 56/38/8
f 49/32/8 54/41/8 55/39/8
f 48/40/8 53/42/8 54/41/8
f 47/14/8 52/6/8 53/42/8
f 46/43/6 51/34/6 13/36/6
f 46/43/6 45/45/6 50/37/6
f 45/45/6 44/47/6 49/32/6
f 43/46/6 48/40/6 49/32/6
f 42/8/6 47/14/6 48/40/6
f 41/48/5 46/50/5 11/26/5
f 40/49/5 45/27/5 46/50/5
f 40/49/5 39/53/5 44/51/5
f 38/52/5 43/54/5 44/51/5
f 37/10/5 42/13/5 43/54/5
f 36/55/4 41/48/4 9/25/4
f 35/57/4 40/49/4 41/48/4
f 34/58/4 39/53/4 40/49/4
f 33/59/4 38/52/4 39/53/4
f 32/11/4 37/10/4 38/52/4
f 31/60/3 36/43/3 7/44/3
f 30/61/3 35/45/3 36/43/3
f 29/32/3 34/47/3 35/45/3
f 28/62/3 33/46/3 34/47/3
f 27/5/3 32/8/3 33/46/3
f 3/35/2 26/38/2 31/60/2
f 26/38/2 25/39/2 30/61/2
f 24/41/2 29/32/2 30/61/2
f 23/42/2 28/62/2 29/32/2
f 22/6/2 27/5/2 28/62/2
f 17/28/1 26/63/1 3/56/1
f 17/28/1 18/30/1 25/57/1
f 19/32/1 24/64/1 25/57/1
f 20/33/1 23/65/1 24/64/1
f 20/33/1 21/1/1 22/3/1
