# Blender 5.1.2
# www.blender.org
mtllib pipe_bend.mtl
o Cylinder
v 0.000000 -1.000000 2.000000
v -0.000000 1.000000 -2.000000
v -0.707106 -1.000000 1.707107
v -0.707107 0.707107 -2.000000
v -1.000000 -1.000000 1.000000
v -1.000000 0.000000 -2.000000
v -0.707107 -1.000000 0.292893
v -0.707107 -0.707107 -2.000000
v 0.000000 -1.000000 -0.000000
v -0.000000 -1.000000 -2.000000
v 0.707107 -1.000000 0.292893
v 0.707106 -0.707107 -2.000000
v 1.000000 -1.000000 1.000000
v 1.000000 0.000000 -2.000000
v 0.707107 -1.000000 1.707107
v 0.707106 0.707107 -2.000000
v 0.000000 1.000000 0.400000
v -0.000000 1.000000 -0.000000
v -0.000000 1.000000 -1.000000
v -0.707107 0.707107 -1.000000
v -0.707107 0.707107 0.000000
v -0.707107 0.707107 0.400000
v -1.000000 0.000000 -1.000000
v -1.000000 0.000000 0.000000
v -1.000000 0.000000 0.400000
v -0.707107 -0.707107 -1.000000
v -0.707107 -0.707107 0.000000
v -0.707107 -0.707107 0.400000
v -0.000000 -1.000000 -1.000000
v -0.000000 -1.000000 0.000000
v 0.000000 -1.000000 0.400000
v 0.707107 -0.707107 -1.000000
v 0.707107 -0.707107 0.000000
v 0.707107 -0.707107 0.400000
v 1.000000 0.000000 -1.000000
v 1.000000 0.000000 -0.000000
v 1.000000 0.000000 0.400000
v 0.707107 0.707107 -1.000000
v 0.707107 0.707107 -0.000000
v 0.707107 0.707107 0.400000
v -0.707107 0.203553 1.403553
v -1.000000 -0.150000 1.050000
v -0.707107 -0.503553 0.696447
v 0.000000 -0.650000 0.550000
v 0.707107 -0.503553 0.696447
v 1.000000 -0.150000 1.050000
v 0.707107 0.203553 1.403553
v 0.000000 0.350000 1.550000
v 0.000000 0.775000 1.075000
v -0.707107 0.555330 1.001777
v -1.000000 0.025000 0.825000
v -0.707107 -0.505330 0.648223
v 0.000000 -0.725000 0.575000
v 0.707107 -0.505330 0.648223
v 1.000000 0.025000 0.825000
v 0.707107 0.555330 1.001777
v -0.707106 -0.298223 1.655330
v -1.000000 -0.475000 1.125000
v -0.707107 -0.651777 0.594670
v 0.000000 -0.725000 0.375000
v 0.707107 -0.651777 0.594670
v 1.000000 -0.475000 1.125000
v 0.707107 -0.298223 1.655330
v 0.000000 -0.225000 1.875000
v -0.000000 1.000000 -0.500000
v -0.707107 0.707107 -0.500000
v -1.000000 0.000000 -0.500000
v -0.707107 -0.707107 -0.500000
v -0.000000 -1.000000 -0.500000
v 0.707107 -0.707107 -0.500000
v 1.000000 0.000000 -0.500000
v 0.707107 0.707107 -0.500000
v -0.000000 1.000000 -1.500000
v -0.707107 0.707107 -1.500000
v -1.000000 0.000000 -1.500000
v -0.707107 -0.707107 -1.500000
v -0.000000 -1.000000 -1.500000
v 0.707107 -0.707107 -1.500000
v 1.000000 0.000000 -1.500000
v 0.707107 0.707107 -1.500000
vn -0.3827 0.9239 -0.0000
vn -0.9239 0.3827 -0.0000
vn -0.9239 -0.3827 -0.0000
vn -0.3827 -0.9239 -0.0000
vn 0.3827 -0.9239 -0.0000
vn 0.9239 -0.3827 -0.0000
vn -0.0000 -0.0000 -1.0000
vn 0.9239 0.3827 -0.0000
vn 0.3827 0.9239 -0.0000
vn -0.0000 -1.0000 -0.0000
vn 0.3104 0.9217 0.2325
vn 0.8852 0.4510 0.1137
vn 0.8709 -0.4906 0.0289
vn 0.1731 -0.7643 0.6213
vn -0.1731 -0.7643 0.6213
vn -0.8709 -0.4906 0.0289
vn -0.8852 0.4510 0.1137
vn -0.3104 0.9217 0.2325
vn -0.3083 0.4266 0.8503
vn -0.8849 0.1047 0.4538
vn -0.7549 0.3712 -0.5407
vn -0.0272 0.9188 -0.3938
vn 0.0272 0.9188 -0.3938
vn 0.7549 0.3712 -0.5407
vn 0.8849 0.1047 0.4538
vn 0.3083 0.4266 0.8503
vn -0.2805 0.7222 0.6323
vn -0.8611 0.4013 0.3121
vn -0.8611 -0.4013 -0.3121
vn 0.2534 0.3059 0.9177
vn 0.1955 -0.9800 0.0361
vn 0.8611 -0.4013 -0.3121
vn 0.8611 0.4013 0.3121
vn 0.2805 0.7222 0.6323
vn 0.3818 0.0680 0.9217
vn 0.9201 -0.0907 0.3811
vn 0.8769 0.3148 -0.3632
vn 0.2379 0.7832 -0.5744
vn -0.2379 0.7832 -0.5744
vn -0.8769 0.3148 -0.3632
vn -0.9201 -0.0907 0.3811
vn -0.3818 0.0680 0.9217
vn 0.3657 0.8830 0.2943
vn 0.9236 0.3826 -0.0225
vn 0.8822 -0.3654 0.2970
vn 0.2171 -0.5241 0.8235
vn -0.2171 -0.5241 0.8235
vn -0.8822 -0.3654 0.2970
vn -0.9236 0.3826 -0.0225
vn -0.3657 0.8830 0.2943
vn -0.2716 0.4736 0.8378
vn -0.8510 0.2355 0.4694
vn -0.8228 -0.1278 -0.5538
vn -0.0534 0.5652 -0.8232
vn 0.0534 0.5652 -0.8232
vn 0.8228 -0.1278 -0.5538
vn 0.8510 0.2355 0.4694
vn 0.2716 0.4736 0.8378
vn -0.2878 0.7137 0.6386
vn -0.8694 0.3717 0.3254
vn -0.8727 -0.4880 0.0180
vn -0.2932 -0.9554 0.0352
vn -0.1928 0.3103 0.9309
vn 0.8727 -0.4880 0.0180
vn 0.8694 0.3717 0.3254
vn 0.2878 0.7137 0.6386
vn 0.3075 0.1515 0.9394
vn 0.8797 0.0350 0.4742
vn 0.8512 0.1216 -0.5106
vn 0.1647 0.6460 -0.7454
vn -0.1647 0.6460 -0.7454
vn -0.8512 0.1216 -0.5106
vn -0.8797 0.0350 0.4742
vn -0.3075 0.1515 0.9394
vt 0.500000 1.061207
vt 0.323223 0.936207
vt 0.500000 0.936207
vt 0.936207 0.719018
vt 1.061207 0.542241
vt 0.936207 0.542241
vt 1.061207 0.365465
vt 0.936207 0.365465
vt 0.323223 1.061207
vt 0.676777 0.936207
vt 0.936207 0.542241
vt 0.750000 0.542241
vt 0.500000 0.292241
vt 0.250000 0.542241
vt 0.676777 1.061207
vt 0.323223 0.487984
vt 0.676777 0.487984
vt 0.676777 0.134430
vt 0.676777 0.461207
vt 0.500000 0.292457
vt 0.676777 0.310763
vt 0.676777 0.561207
vt 0.500000 0.461207
vt 0.676777 0.811207
vt 0.500000 0.686207
vt 0.676777 0.686207
vt 0.354957 0.548491
vt 0.461207 0.719018
vt 0.310763 0.681074
vt 0.461207 0.542241
vt 0.561207 0.719018
vt 0.811207 0.542241
vt 0.686207 0.719018
vt 0.686207 0.542241
vt 0.399151 0.415909
vt 0.561207 0.365465
vt 0.461207 0.365465
vt 0.811207 0.365465
vt 0.686207 0.365465
vt 0.500000 0.360991
vt 0.676777 0.365465
vt 0.676777 0.415909
vt 0.676777 0.561207
vt 0.676777 0.461207
vt 0.500000 0.811207
vt 0.676777 0.686207
vt 0.500000 0.686207
vt 0.323223 0.365465
vt 0.323223 0.415909
vt 0.323223 0.561207
vt 0.323223 0.461207
vt 0.323223 0.811207
vt 0.323223 0.686207
vt 0.686207 0.542241
vt 0.461207 0.719018
vt 0.310763 0.681074
vt 0.561207 0.719018
vt 0.811207 0.719018
vt 0.686207 0.719018
vt 0.323223 0.310763
vt 0.323223 0.686207
vt 0.500000 0.485991
vt 0.323223 0.593130
vt 0.323223 0.467686
vt 0.147374 0.467686
vt 0.298707 0.504741
vt 0.279957 0.423491
vt 0.387095 0.416353
vt 0.412539 0.379297
vt 0.323223 0.412539
vt 0.500000 0.423707
vt 0.500000 0.467457
vt 0.676777 0.412539
vt 0.676777 0.593130
vt 0.676777 0.467686
vt 0.500000 0.173707
vt 0.323223 0.210319
vt 0.210319 0.593130
vt 0.323223 0.416353
vt 0.500000 0.379741
vt 0.676777 0.416353
vt 0.676777 0.210319
vt 0.500000 0.292241
vt 0.676777 0.292241
vt 0.134430 0.292241
vt 0.311207 0.292241
vt 0.487984 0.292241
vt 0.500000 0.561207
vt 0.323223 0.292241
vt 0.500000 0.561207
vt 0.561207 0.542241
vt 0.561207 0.542241
vt 1.061207 0.719018
vt 0.323223 0.719018
vt 0.500000 0.792241
vt 0.676777 0.719018
vt 0.676777 0.365465
vt 0.323223 0.365465
vt 0.500000 0.061207
vt 0.323223 0.134430
vt 0.250000 0.311207
vt 0.750000 0.311207
vt 0.500000 0.292241
vt 0.500000 0.629741
vt 0.323223 0.387095
vt 0.676777 0.387095
s 0
f 2/1/1 74/2/1 73/3/1
f 74/4/2 6/5/2 75/6/2
f 75/6/3 8/7/3 76/8/3
f 8/9/4 77/3/4 76/2/4
f 10/1/5 78/10/5 77/3/5
f 12/7/6 79/11/6 78/8/6
f 14/12/7 10/13/7 6/14/7
f 14/5/8 80/4/8 79/11/8
f 16/15/9 73/3/9 80/10/9
f 7/16/10 11/17/10 15/18/10
f 40/19/11 49/20/11 56/21/11
f 39/22/9 17/23/9 40/19/9
f 38/24/9 65/25/9 72/26/9
f 55/27/12 40/28/12 56/29/12
f 37/30/8 39/31/8 40/28/8
f 35/32/8 72/33/8 71/34/8
f 54/35/13 37/30/13 55/27/13
f 33/36/6 37/30/6 34/37/6
f 32/38/6 71/34/6 70/39/6
f 53/40/14 34/41/14 54/42/14
f 31/23/5 33/43/5 34/44/5
f 29/45/5 70/46/5 69/47/5
f 28/48/15 53/40/15 52/49/15
f 27/50/4 31/23/4 28/51/4
f 26/52/4 69/47/4 68/53/4
f 25/30/16 52/35/16 51/27/16
f 25/30/3 27/36/3 28/37/3
f 23/32/3 68/39/3 67/54/3
f 22/55/17 51/27/17 50/56/17
f 21/57/2 25/30/2 22/55/2
f 20/58/2 67/54/2 66/59/2
f 49/20/18 22/51/18 50/60/18
f 17/23/1 21/50/1 22/51/1
f 19/45/1 66/61/1 65/25/1
f 64/62/19 41/63/19 57/64/19
f 57/65/20 42/66/20 58/67/20
f 58/67/21 43/68/21 59/69/21
f 59/70/22 44/71/22 60/72/22
f 44/71/23 61/73/23 60/72/23
f 45/68/24 62/67/24 61/69/24
f 46/66/25 63/65/25 62/67/25
f 47/74/26 64/62/26 63/75/26
f 48/76/27 50/60/27 41/77/27
f 41/78/28 51/27/28 42/66/28
f 51/27/29 43/68/29 42/66/29
f 43/79/30 53/40/30 44/80/30
f 44/80/31 54/42/31 45/81/31
f 45/68/32 55/27/32 46/66/32
f 55/27/33 47/78/33 46/66/33
f 56/21/34 48/76/34 47/82/34
f 63/75/35 1/83/35 15/84/35
f 62/67/36 15/85/36 13/86/36
f 61/69/37 13/86/37 11/87/37
f 60/72/38 11/17/38 9/88/38
f 7/16/39 60/72/39 9/88/39
f 5/86/40 59/69/40 7/87/40
f 3/85/41 58/67/41 5/86/41
f 1/83/42 57/64/42 3/89/42
f 65/25/1 21/50/1 18/90/1
f 66/59/2 24/91/2 21/57/2
f 24/91/3 68/39/3 27/36/3
f 68/53/4 30/88/4 27/50/4
f 69/47/5 33/43/5 30/88/5
f 70/39/6 36/92/6 33/36/6
f 71/34/8 39/31/8 36/92/8
f 72/26/9 18/90/9 39/22/9
f 80/10/9 19/45/9 38/24/9
f 79/11/8 38/58/8 35/32/8
f 78/8/6 35/32/6 32/38/6
f 77/3/5 32/24/5 29/45/5
f 76/2/4 29/45/4 26/52/4
f 23/32/3 76/8/3 26/38/3
f 74/4/2 23/32/2 20/58/2
f 73/3/1 20/52/1 19/45/1
f 2/1/1 4/9/1 74/2/1
f 74/4/2 4/93/2 6/5/2
f 75/6/3 6/5/3 8/7/3
f 8/9/4 10/1/4 77/3/4
f 10/1/5 12/15/5 78/10/5
f 12/7/6 14/5/6 79/11/6
f 6/14/7 4/94/7 2/95/7
f 2/95/7 16/96/7 14/12/7
f 14/12/7 12/97/7 10/13/7
f 10/13/7 8/98/7 6/14/7
f 6/14/7 2/95/7 14/12/7
f 14/5/8 16/93/8 80/4/8
f 16/15/9 2/1/9 73/3/9
f 15/18/10 1/99/10 3/100/10
f 3/100/10 5/101/10 7/16/10
f 7/16/10 9/88/10 11/17/10
f 11/17/10 13/102/10 15/18/10
f 15/18/10 3/100/10 7/16/10
f 40/19/43 17/23/43 49/20/43
f 39/22/9 18/90/9 17/23/9
f 38/24/9 19/45/9 65/25/9
f 55/27/44 37/30/44 40/28/44
f 37/30/8 36/92/8 39/31/8
f 35/32/8 38/58/8 72/33/8
f 54/35/45 34/37/45 37/30/45
f 33/36/6 36/92/6 37/30/6
f 32/38/6 35/32/6 71/34/6
f 53/40/46 31/103/46 34/41/46
f 31/23/5 30/88/5 33/43/5
f 29/45/5 32/24/5 70/46/5
f 28/48/47 31/103/47 53/40/47
f 27/50/4 30/88/4 31/23/4
f 26/52/4 29/45/4 69/47/4
f 25/30/48 28/37/48 52/35/48
f 25/30/3 24/91/3 27/36/3
f 23/32/3 26/38/3 68/39/3
f 22/55/49 25/30/49 51/27/49
f 21/57/2 24/91/2 25/30/2
f 20/58/2 23/32/2 67/54/2
f 49/20/50 17/23/50 22/51/50
f 17/23/1 18/90/1 21/50/1
f 19/45/1 20/52/1 66/61/1
f 64/62/51 48/104/51 41/63/51
f 57/65/52 41/78/52 42/66/52
f 58/67/53 42/66/53 43/68/53
f 59/70/54 43/105/54 44/71/54
f 44/71/55 45/106/55 61/73/55
f 45/68/56 46/66/56 62/67/56
f 46/66/57 47/78/57 63/65/57
f 47/74/58 48/104/58 64/62/58
f 48/76/59 49/20/59 50/60/59
f 41/78/60 50/56/60 51/27/60
f 51/27/61 52/35/61 43/68/61
f 43/79/62 52/49/62 53/40/62
f 44/80/63 53/40/63 54/42/63
f 45/68/64 54/35/64 55/27/64
f 55/27/65 56/29/65 47/78/65
f 56/21/66 49/20/66 48/76/66
f 63/75/67 64/62/67 1/83/67
f 62/67/68 63/65/68 15/85/68
f 61/69/69 62/67/69 13/86/69
f 60/72/70 61/73/70 11/17/70
f 7/16/71 59/70/71 60/72/71
f 5/86/72 58/67/72 59/69/72
f 3/85/73 57/65/73 58/67/73
f 1/83/74 64/62/74 57/64/74
f 65/25/1 66/61/1 21/50/1
f 66/59/2 67/54/2 24/91/2
f 24/91/3 67/54/3 68/39/3
f 68/53/4 69/47/4 30/88/4
f 69/47/5 70/46/5 33/43/5
f 70/39/6 71/34/6 36/92/6
f 71/34/8 72/33/8 39/31/8
f 72/26/9 65/25/9 18/90/9
f 80/10/9 73/3/9 19/45/9
f 79/11/8 80/4/8 38/58/8
f 78/8/6 79/11/6 35/32/6
f 77/3/5 78/10/5 32/24/5
f 76/2/4 77/3/4 29/45/4
f 23/32/3 75/6/3 76/8/3
f 74/4/2 75/6/2 23/32/2
f 73/3/1 74/2/1 20/52/1
