# Blender 5.1.2
# www.blender.org
mtllib player.mtl
o Cube
v -0.075000 0.100000 0.250000
v -0.175000 1.300000 0.250000
v -0.075000 0.100000 -0.250000
v -0.175000 1.300000 -0.250000
v 0.075000 0.100000 0.250000
v 0.175000 1.300000 0.250000
v 0.075000 0.100000 -0.250000
v 0.175000 1.300000 -0.250000
v -0.075000 0.500000 0.250000
v -0.175000 1.062167 0.250000
v -0.175000 1.062167 -0.250000
v -0.075000 0.500000 -0.250000
v 0.175000 1.062167 -0.250000
v 0.075000 0.500000 -0.250000
v 0.175000 1.062167 0.250000
v 0.075000 0.500000 0.250000
v -0.075000 0.100000 -0.083333
v -0.075000 0.100000 0.083333
v -0.175000 1.300000 0.083333
v -0.175000 1.300000 -0.083333
v 0.075000 0.100000 0.083333
v 0.075000 0.100000 -0.083333
v 0.175000 1.300000 -0.083333
v 0.175000 1.300000 0.083333
v 0.075000 0.500000 -0.083333
v 0.075000 0.500000 0.083333
v 0.175000 1.062167 -0.083333
v 0.175000 1.062167 0.083333
v -0.075000 0.500000 0.083333
v -0.075000 0.500000 -0.083333
v -0.175000 1.062167 0.083333
v -0.175000 1.062167 -0.083333
v -0.050000 1.062167 0.550000
v -0.100000 1.200000 0.450000
v 0.100000 1.200000 0.450000
v 0.050000 1.062167 0.550000
v -0.100000 1.200000 -0.450000
v 0.100000 1.200000 -0.450000
v -0.050000 1.062167 -0.550000
v 0.050000 1.062167 -0.550000
v 0.100000 1.300000 -0.340000
v -0.100000 1.300000 -0.340000
v 0.050000 1.062167 -0.340000
v -0.050000 1.062167 -0.340000
v 0.050000 1.062167 0.340000
v -0.050000 1.062167 0.340000
v -0.100000 1.300000 0.340000
v 0.100000 1.300000 0.340000
v 0.050000 0.550000 0.520000
v -0.050000 0.550000 0.520000
v 0.050000 0.550000 0.352000
v -0.050000 0.550000 -0.520000
v 0.050000 0.550000 -0.520000
v 0.050000 0.550000 -0.352000
v -0.050000 0.550000 -0.352000
v -0.050000 0.550000 0.352000
v -0.175000 1.500000 0.083333
v -0.175000 1.500000 -0.083333
v 0.175000 1.500000 -0.083333
v 0.175000 1.500000 0.083333
v -0.175000 1.300000 0.116667
v 0.175000 1.300000 0.116667
v -0.175000 1.500000 0.116667
v 0.175000 1.500000 0.116667
v -0.175000 1.300000 -0.116667
v 0.175000 1.300000 -0.116667
v -0.175000 1.500000 -0.116667
v 0.175000 1.500000 -0.116667
v -0.125000 0.000000 0.083333
v -0.125000 0.000000 0.250000
v 0.125000 0.000000 -0.250000
v -0.125000 0.000000 -0.250000
v 0.125000 0.000000 -0.083333
v 0.125000 0.000000 0.250000
v -0.125000 0.000000 -0.083333
v 0.125000 0.000000 0.083333
v 0.325000 0.100000 -0.083333
v 0.325000 0.100000 -0.250000
v 0.325000 0.100000 0.250000
v 0.325000 0.100000 0.083333
v 0.325000 0.000000 -0.083333
v 0.325000 0.000000 -0.250000
v 0.325000 0.000000 0.250000
v 0.325000 0.000000 0.083333
v -0.175000 1.300000 -0.166667
v 0.125000 0.100000 -0.166667
v -0.125000 0.500000 -0.166667
v -0.175000 1.062167 -0.166667
v -0.125000 0.100000 -0.166667
v 0.175000 1.300000 -0.166667
v 0.125000 0.500000 -0.166667
v 0.175000 1.062167 -0.166667
v 0.125000 0.000000 -0.166667
v -0.125000 0.000000 -0.166667
v 0.325000 0.100000 -0.166667
v 0.325000 0.000000 -0.166667
v -0.125000 0.100000 0.166667
v 0.175000 1.300000 0.166667
v 0.125000 0.500000 0.166667
v 0.175000 1.062167 0.166667
v -0.175000 1.300000 0.166667
v 0.125000 0.100000 0.166667
v -0.125000 0.500000 0.166667
v -0.175000 1.062167 0.166667
v -0.125000 0.000000 0.166667
v 0.125000 0.000000 0.166667
v 0.325000 0.100000 0.166667
v 0.325000 0.000000 0.166667
v -0.175000 1.181084 0.250000
v -0.175000 1.181084 -0.250000
v 0.175000 1.181084 -0.250000
v 0.175000 1.181084 0.250000
v 0.175000 1.181084 -0.083333
v 0.175000 1.181084 0.083333
v -0.175000 1.181084 0.083333
v -0.175000 1.181084 -0.083333
v -0.100000 1.161084 0.500000
v 0.100000 1.161084 0.500000
v -0.100000 1.161084 -0.500000
v 0.100000 1.161084 -0.500000
v -0.100000 1.181084 -0.340000
v 0.100000 1.181084 -0.340000
v -0.100000 1.181084 0.340000
v 0.100000 1.181084 0.340000
v 0.175000 1.181084 -0.166667
v -0.175000 1.181084 -0.166667
v -0.175000 1.181084 0.166667
v 0.175000 1.181084 0.166667
v 0.100000 1.062167 0.445000
v -0.100000 1.250000 0.395000
v -0.100000 1.062167 0.445000
v 0.100000 1.250000 0.395000
v 0.100000 0.550000 0.436000
v -0.100000 0.550000 0.436000
v -0.100000 1.171084 0.420000
v 0.100000 1.171084 0.420000
v 0.100000 1.250000 -0.395000
v 0.100000 1.062167 -0.445000
v -0.100000 1.250000 -0.395000
v -0.100000 1.062167 -0.445000
v 0.100000 0.550000 -0.436000
v -0.100000 0.550000 -0.436000
v -0.100000 1.171084 -0.420000
v 0.100000 1.171084 -0.420000
vn -1.0000 -0.0000 -0.0000
vn -0.0000 0.7399 -0.6727
vn 1.0000 -0.0000 -0.0000
vn -0.0000 -0.0234 0.9997
vn -0.0000 -0.0000 1.0000
vn -0.0000 1.0000 -0.0000
vn 0.8575 -0.0000 0.5145
vn 0.8477 -0.1508 0.5086
vn -0.0000 -0.0000 -1.0000
vn -0.8575 -0.0000 -0.5145
vn -0.8477 -0.1508 -0.5086
vn -0.9845 -0.1751 -0.0000
vn 0.9845 -0.1751 -0.0000
vn -0.0000 -1.0000 -0.0000
vn -0.0000 0.7891 0.6142
vn -0.0000 0.7399 0.6727
vn -0.0000 0.7891 -0.6142
vn -0.0000 -0.0234 -0.9997
vn -0.7682 -0.0000 -0.6402
vn 0.7682 -0.0000 -0.6402
vn -0.7682 -0.0000 0.6402
vn 0.7682 -0.0000 0.6402
vn -0.8593 0.0090 -0.5115
vn -0.0000 -0.0585 0.9983
vn 0.8593 0.0090 0.5115
vn -0.8593 -0.0090 -0.5115
vn 0.8593 -0.0090 0.5115
vn -0.0000 -0.0585 -0.9983
vn -0.7881 0.3941 0.4729
vn 0.8575 -0.0000 -0.5145
vn 0.8477 -0.1508 -0.5086
vn -0.8477 -0.1508 0.5086
vn -0.8575 -0.0000 0.5145
vn 0.5674 -0.2386 0.7881
vn -0.5674 -0.2386 -0.7881
vn -0.8781 -0.2325 -0.4182
vn -0.0000 0.4511 -0.8925
vn 0.8781 -0.2325 0.4182
vn -0.0000 0.4511 0.8925
vn 0.8985 -0.0982 -0.4279
vn 0.9028 -0.0101 -0.4299
vn -0.9026 -0.0252 0.4298
vn -0.9207 -0.3871 -0.0484
vn -0.8985 -0.0982 0.4279
vn -0.9028 -0.0101 0.4299
vn 0.9026 -0.0252 -0.4298
vn 0.9207 -0.3871 0.0484
vn 0.9961 -0.0886 -0.0000
vn -0.9961 -0.0886 -0.0000
vn -0.8781 -0.2325 0.4182
vn 0.8781 -0.2325 -0.4182
vn 0.5674 -0.2386 -0.7881
vn -0.5674 -0.2386 0.7881
vn -0.9028 -0.0101 -0.4299
vn 0.9028 -0.0101 0.4299
vn -0.9026 -0.0252 -0.4298
vn 0.9026 -0.0252 0.4298
vn -0.7881 0.3941 -0.4729
vn 0.9207 -0.3871 -0.0484
vn 0.8593 0.0090 -0.5115
vn -0.8593 -0.0090 0.5115
vn -0.8985 -0.0982 -0.4279
vn -0.9207 -0.3871 0.0484
vn -0.8593 0.0090 0.5115
vn 0.8593 -0.0090 -0.5115
vn 0.8985 -0.0982 0.4279
vt 0.611111 1.366667
vt 0.666667 1.287389
vt 0.611111 1.287389
vt 0.566667 0.763333
vt 0.433333 0.800000
vt 0.433333 0.763333
vt 0.388889 1.366667
vt 0.333333 1.287389
vt 0.388889 1.287389
vt 0.466667 1.208112
vt 0.533333 0.866667
vt 0.533333 1.208112
vt 0.450000 0.566667
vt 0.583333 0.500000
vt 0.550000 0.566667
vt 0.383333 0.388889
vt 0.616667 0.333333
vt 0.616667 0.388889
vt 0.550000 0.833333
vt 0.616667 1.208112
vt 0.450000 0.833333
vt 0.388889 0.833333
vt 0.333333 0.566667
vt 0.388889 0.566667
vt 0.333333 1.208112
vt 0.333333 0.833333
vt 0.383333 1.208112
vt 0.611111 0.833333
vt 0.666667 0.566667
vt 0.611111 0.566667
vt 0.666667 1.208112
vt 0.666667 0.833333
vt 0.444444 1.208112
vt 0.444444 0.833333
vt 0.555556 0.833333
vt 0.444444 0.566667
vt 0.555556 1.208112
vt 0.555556 0.566667
vt 0.383333 0.611111
vt 0.616667 0.555556
vt 0.616667 0.611111
vt 0.383333 0.555556
vt 0.616667 0.577778
vt 0.583333 0.444444
vt 0.716667 0.388889
vt 0.583333 0.388889
vt 0.450000 0.555556
vt 0.550000 0.444444
vt 0.450000 0.444444
vt 0.555556 1.287389
vt 0.555556 1.366667
vt 0.444444 1.287389
vt 0.444444 1.366667
vt 0.566667 0.200000
vt 0.433333 0.166667
vt 0.566667 0.166667
vt 0.433333 0.236667
vt 0.566667 0.236667
vt 0.220000 1.280722
vt 0.200000 1.300000
vt 0.166667 1.274056
vt 0.203333 1.208112
vt 0.566667 0.833333
vt 0.433333 0.833333
vt 0.796667 1.208112
vt 0.833333 1.274056
vt 0.780000 1.280722
vt 0.800000 1.300000
vt 0.466667 0.866667
vt 0.383333 0.666667
vt 0.533333 0.726667
vt 0.616667 0.666667
vt 0.666667 1.366667
vt 0.726667 1.287389
vt 0.566667 1.287389
vt 0.616667 1.287389
vt 0.566667 0.726667
vt 0.433333 0.726667
vt 0.433333 1.287389
vt 0.383333 1.287389
vt 0.333333 1.366667
vt 0.273333 1.287389
vt 0.433333 0.273333
vt 0.566667 0.273333
vt 0.466667 0.273333
vt 0.383333 0.333333
vt 0.566667 0.209333
vt 0.466667 0.153333
vt 0.433333 0.209333
vt 0.433333 0.790667
vt 0.533333 0.846667
vt 0.566667 0.790667
vt 0.265333 0.866667
vt 0.209333 0.866667
vt 0.734667 0.866667
vt 0.790667 0.866667
vt 0.846667 0.866667
vt 0.153333 0.866667
vt 0.616667 0.444444
vt 0.444444 1.500000
vt 0.555556 1.500000
vt 0.383333 0.444444
vt 0.616667 0.422222
vt 0.616667 1.366667
vt 0.383333 1.500000
vt 0.383333 1.366667
vt 0.422222 1.366667
vt 0.383333 0.422222
vt 0.422222 1.500000
vt 0.616667 1.500000
vt 0.577778 1.366667
vt 0.383333 0.577778
vt 0.577778 1.500000
vt 0.416667 0.333333
vt 0.416667 0.388889
vt 0.583333 0.611111
vt 0.416667 0.555556
vt 0.416667 0.611111
vt 0.716667 0.555556
vt 0.716667 0.611111
vt 0.666667 0.500000
vt 0.611111 0.500000
vt 0.416667 0.500000
vt 0.444444 0.500000
vt 0.388889 0.500000
vt 0.716667 0.566667
vt 0.716667 0.500000
vt 0.716667 0.333333
vt 0.583333 0.666667
vt 0.583333 0.555556
vt 0.555556 0.500000
vt 0.716667 0.666667
vt 0.550000 0.666667
vt 0.416667 0.666667
vt 0.716667 0.444444
vt 0.333333 0.500000
vt 0.416667 0.444444
vt 0.583333 0.333333
vt 0.388889 1.208112
vt 0.611111 1.208112
vt 0.273333 1.366667
vt 0.726667 1.366667
vt 0.866667 1.208112
vt 0.763333 1.333333
vt 0.433333 1.274056
vt 0.236667 1.333333
vt 0.133333 1.208112
vt 0.566667 1.274056
vt 0.273333 1.208112
vt 0.533333 0.265333
vt 0.466667 0.265333
vt 0.726667 1.208112
vt 0.466667 0.734667
vt 0.533333 0.734667
vt 0.566667 0.800000
vt 0.550000 0.555556
vt 0.433333 0.200000
vt 0.466667 0.726667
vt 0.533333 0.273333
vt 0.533333 0.153333
vt 0.466667 0.846667
vt 0.550000 0.333333
s 0
f 85/1/1 110/2/1 126/3/1
f 137/4/2 37/5/2 139/6/2
f 98/7/3 112/8/3 128/9/3
f 44/10/4 54/11/4 43/12/4
f 17/13/5 73/14/5 22/15/5
f 101/16/6 6/17/6 98/18/6
f 16/19/5 1/13/5 5/15/5
f 15/20/5 9/21/5 16/19/5
f 99/22/7 5/23/7 102/24/7
f 99/22/8 15/25/8 16/26/8
f 12/21/9 7/15/9 3/13/9
f 11/27/9 14/19/9 12/21/9
f 87/28/10 3/29/10 89/30/10
f 87/28/11 11/31/11 12/32/11
f 103/22/11 31/33/11 29/34/11
f 31/33/12 30/35/12 29/34/12
f 103/22/10 18/36/10 97/24/10
f 26/19/9 18/13/9 29/21/9
f 91/28/8 27/37/8 25/35/8
f 27/37/13 26/34/13 25/35/13
f 91/28/7 22/38/7 86/30/7
f 17/13/5 25/19/5 30/21/5
f 85/39/6 23/40/6 90/41/6
f 20/42/14 66/43/14 23/40/14
f 76/44/14 108/45/14 106/46/14
f 30/47/14 26/48/14 29/49/14
f 90/1/3 113/50/3 125/3/3
f 23/51/3 114/52/3 113/50/3
f 101/7/1 115/52/1 127/9/1
f 19/53/1 116/50/1 115/52/1
f 35/54/15 117/55/15 118/56/15
f 130/57/16 35/54/16 132/58/16
f 136/59/3 35/60/3 118/61/3
f 131/62/1 117/61/1 135/59/1
f 37/5/17 120/63/17 119/64/17
f 138/65/3 120/66/3 144/67/3
f 143/67/1 37/68/1 119/66/1
f 45/12/18 56/69/18 46/10/18
f 11/70/14 43/71/14 13/72/14
f 4/73/19 121/74/19 110/2/19
f 13/20/20 122/75/20 111/76/20
f 4/70/6 41/77/6 42/78/6
f 10/27/21 123/79/21 109/80/21
f 6/81/22 124/82/22 112/8/22
f 6/17/6 47/83/6 48/84/6
f 15/17/14 46/85/14 10/86/14
f 133/87/14 50/88/14 134/89/14
f 142/90/14 53/91/14 141/92/14
f 131/62/23 56/93/23 134/94/23
f 33/10/24 49/11/24 36/12/24
f 138/65/25 54/95/25 141/96/25
f 140/65/26 52/97/26 142/96/26
f 129/62/27 49/98/27 133/94/27
f 40/12/28 52/69/28 39/10/28
f 58/42/6 60/99/6 59/40/6
f 23/51/3 60/100/3 24/53/3
f 19/53/1 58/101/1 20/51/1
f 57/102/6 64/103/6 60/99/6
f 62/104/5 63/105/5 61/106/5
f 60/100/3 62/107/3 24/53/3
f 24/99/14 61/108/14 19/102/14
f 19/53/1 63/109/1 57/100/1
f 65/106/9 68/110/9 66/104/9
f 58/101/1 65/111/1 20/51/1
f 59/40/6 67/112/6 58/42/6
f 23/51/3 68/113/3 59/101/3
f 106/46/14 70/114/14 105/115/14
f 93/116/14 75/117/14 94/118/14
f 86/116/6 77/119/6 95/120/6
f 1/13/5 74/14/5 5/15/5
f 89/30/1 72/121/1 94/122/1
f 7/15/9 72/123/9 3/13/9
f 21/15/9 69/123/9 18/13/9
f 97/24/1 69/124/1 105/125/1
f 77/38/3 96/122/3 95/30/3
f 79/23/3 108/125/3 107/24/3
f 76/14/9 80/126/9 84/127/9
f 102/46/6 79/128/6 107/45/6
f 73/14/5 77/126/5 22/15/5
f 71/129/14 96/120/14 93/116/14
f 74/14/5 79/126/5 5/15/5
f 71/14/9 78/126/9 82/127/9
f 93/116/14 81/119/14 73/130/14
f 95/30/3 82/121/3 78/29/3
f 89/30/29 75/131/29 17/38/29
f 86/116/6 78/132/6 7/133/6
f 71/129/14 94/118/14 72/134/14
f 8/73/3 125/3/3 111/2/3
f 4/70/6 90/41/6 8/72/6
f 14/32/30 86/30/30 7/29/30
f 13/31/31 91/28/31 14/32/31
f 32/37/32 87/28/32 30/35/32
f 30/35/33 89/30/33 17/38/33
f 20/51/1 126/3/1 116/50/1
f 102/46/6 80/135/6 21/48/6
f 107/24/3 84/124/3 80/36/3
f 97/24/29 70/136/29 1/23/29
f 76/44/14 105/115/14 69/137/14
f 2/81/1 127/9/1 109/8/1
f 106/46/14 83/128/14 74/138/14
f 9/26/33 97/24/33 1/23/33
f 10/25/32 103/22/32 9/26/32
f 28/33/31 99/22/31 26/34/31
f 26/34/30 102/24/30 21/36/30
f 19/102/6 98/18/6 24/99/6
f 24/53/3 128/9/3 114/52/3
f 114/52/3 100/139/3 28/33/3
f 109/8/1 104/139/1 10/25/1
f 116/50/1 88/140/1 32/37/1
f 111/2/3 92/140/3 13/31/3
f 15/20/34 124/75/34 45/12/34
f 109/8/21 47/141/21 2/81/21
f 111/2/20 41/142/20 8/73/20
f 11/27/35 121/79/35 44/10/35
f 140/65/36 119/66/36 39/143/36
f 144/67/3 38/68/3 137/144/3
f 119/145/37 40/12/37 39/10/37
f 135/59/1 34/60/1 130/146/1
f 129/62/38 118/61/38 36/147/38
f 118/148/39 33/10/39 36/12/39
f 115/52/1 32/37/1 31/33/1
f 127/9/1 31/33/1 104/139/1
f 113/50/3 28/33/3 27/37/3
f 125/3/3 27/37/3 92/140/3
f 128/9/3 15/25/3 100/139/3
f 126/3/1 11/31/1 88/140/1
f 45/149/40 136/59/40 129/62/40
f 123/82/1 130/146/1 47/141/1
f 129/62/41 51/93/41 45/149/41
f 131/62/42 50/98/42 33/147/42
f 51/150/14 134/89/14 56/151/14
f 46/149/43 135/59/43 123/82/43
f 124/82/3 132/146/3 136/59/3
f 47/83/16 132/58/16 48/84/16
f 122/74/3 137/144/3 41/142/3
f 44/152/44 143/67/44 140/65/44
f 140/65/45 55/95/45 44/152/45
f 138/65/46 53/97/46 40/143/46
f 55/153/14 141/92/14 54/154/14
f 121/74/1 139/144/1 143/67/1
f 43/152/47 144/67/47 122/74/47
f 41/77/2 139/6/2 42/78/2
f 85/1/1 4/73/1 110/2/1
f 137/4/2 38/155/2 37/5/2
f 98/7/3 6/81/3 112/8/3
f 44/10/4 55/69/4 54/11/4
f 17/13/5 75/123/5 73/14/5
f 101/16/6 2/86/6 6/17/6
f 16/19/5 9/21/5 1/13/5
f 15/20/5 10/27/5 9/21/5
f 99/22/7 16/26/7 5/23/7
f 99/22/48 100/139/48 15/25/48
f 12/21/9 14/19/9 7/15/9
f 11/27/9 13/20/9 14/19/9
f 87/28/10 12/32/10 3/29/10
f 87/28/49 88/140/49 11/31/49
f 103/22/49 104/139/49 31/33/49
f 31/33/12 32/37/12 30/35/12
f 103/22/10 29/34/10 18/36/10
f 26/19/9 21/15/9 18/13/9
f 91/28/48 92/140/48 27/37/48
f 27/37/13 28/33/13 26/34/13
f 91/28/7 25/35/7 22/38/7
f 17/13/5 22/15/5 25/19/5
f 85/39/6 20/42/6 23/40/6
f 20/42/14 65/112/14 66/43/14
f 76/44/14 84/135/14 108/45/14
f 30/47/14 25/156/14 26/48/14
f 90/1/3 23/51/3 113/50/3
f 23/51/3 24/53/3 114/52/3
f 101/7/1 19/53/1 115/52/1
f 19/53/1 20/51/1 116/50/1
f 35/54/15 34/157/15 117/55/15
f 130/57/16 34/157/16 35/54/16
f 136/59/3 132/146/3 35/60/3
f 131/62/50 33/147/50 117/61/50
f 37/5/17 38/155/17 120/63/17
f 138/65/51 40/143/51 120/66/51
f 143/67/1 139/144/1 37/68/1
f 45/12/18 51/11/18 56/69/18
f 11/70/14 44/158/14 43/71/14
f 4/73/19 42/142/19 121/74/19
f 13/20/52 43/12/52 122/75/52
f 4/70/6 8/72/6 41/77/6
f 10/27/53 46/10/53 123/79/53
f 6/81/22 48/141/22 124/82/22
f 6/17/6 2/86/6 47/83/6
f 15/17/14 45/159/14 46/85/14
f 133/87/14 49/160/14 50/88/14
f 142/90/14 52/161/14 53/91/14
f 131/62/54 46/149/54 56/93/54
f 33/10/24 50/69/24 49/11/24
f 138/65/55 43/152/55 54/95/55
f 140/65/56 39/143/56 52/97/56
f 129/62/57 36/147/57 49/98/57
f 40/12/28 53/11/28 52/69/28
f 58/42/6 57/102/6 60/99/6
f 23/51/3 59/101/3 60/100/3
f 19/53/1 57/100/1 58/101/1
f 57/102/6 63/108/6 64/103/6
f 62/104/5 64/110/5 63/105/5
f 60/100/3 64/109/3 62/107/3
f 24/99/14 62/103/14 61/108/14
f 19/53/1 61/107/1 63/109/1
f 65/106/9 67/105/9 68/110/9
f 58/101/1 67/113/1 65/111/1
f 59/40/6 68/43/6 67/112/6
f 23/51/3 66/111/3 68/113/3
f 106/46/14 74/138/14 70/114/14
f 93/116/14 73/130/14 75/117/14
f 86/116/6 22/156/6 77/119/6
f 1/13/5 70/123/5 74/14/5
f 89/30/58 3/29/58 72/121/58
f 7/15/9 71/14/9 72/123/9
f 21/15/9 76/14/9 69/123/9
f 97/24/58 18/36/58 69/124/58
f 77/38/3 81/131/3 96/122/3
f 79/23/3 83/136/3 108/125/3
f 76/14/9 21/15/9 80/126/9
f 102/46/6 5/162/6 79/128/6
f 73/14/5 81/127/5 77/126/5
f 71/129/14 82/132/14 96/120/14
f 74/14/5 83/127/5 79/126/5
f 71/14/9 7/15/9 78/126/9
f 93/116/14 96/120/14 81/119/14
f 95/30/3 96/122/3 82/121/3
f 89/30/1 94/122/1 75/131/1
f 86/116/6 95/120/6 78/132/6
f 71/129/14 93/116/14 94/118/14
f 8/73/3 90/1/3 125/3/3
f 4/70/6 85/39/6 90/41/6
f 14/32/30 91/28/30 86/30/30
f 13/31/48 92/140/48 91/28/48
f 32/37/49 88/140/49 87/28/49
f 30/35/33 87/28/33 89/30/33
f 20/51/1 85/1/1 126/3/1
f 102/46/6 107/45/6 80/135/6
f 107/24/3 108/125/3 84/124/3
f 97/24/1 105/125/1 70/136/1
f 76/44/14 106/46/14 105/115/14
f 2/81/1 101/7/1 127/9/1
f 106/46/14 108/45/14 83/128/14
f 9/26/33 103/22/33 97/24/33
f 10/25/49 104/139/49 103/22/49
f 28/33/48 100/139/48 99/22/48
f 26/34/30 99/22/30 102/24/30
f 19/102/6 101/16/6 98/18/6
f 24/53/3 98/7/3 128/9/3
f 114/52/3 128/9/3 100/139/3
f 109/8/1 127/9/1 104/139/1
f 116/50/1 126/3/1 88/140/1
f 111/2/3 125/3/3 92/140/3
f 15/20/22 112/76/22 124/75/22
f 109/8/21 123/82/21 47/141/21
f 111/2/20 122/74/20 41/142/20
f 11/27/19 110/80/19 121/79/19
f 140/65/1 143/67/1 119/66/1
f 144/67/3 120/66/3 38/68/3
f 119/145/37 120/148/37 40/12/37
f 135/59/1 117/61/1 34/60/1
f 129/62/3 136/59/3 118/61/3
f 118/148/39 117/145/39 33/10/39
f 115/52/1 116/50/1 32/37/1
f 127/9/1 115/52/1 31/33/1
f 113/50/3 114/52/3 28/33/3
f 125/3/3 113/50/3 27/37/3
f 128/9/3 112/8/3 15/25/3
f 126/3/1 110/2/1 11/31/1
f 45/149/59 124/82/59 136/59/59
f 123/82/1 135/59/1 130/146/1
f 129/62/60 133/94/60 51/93/60
f 131/62/61 134/94/61 50/98/61
f 51/150/14 133/87/14 134/89/14
f 46/149/62 131/62/62 135/59/62
f 124/82/3 48/141/3 132/146/3
f 47/83/16 130/57/16 132/58/16
f 122/74/3 144/67/3 137/144/3
f 44/152/63 121/74/63 143/67/63
f 140/65/64 142/96/64 55/95/64
f 138/65/65 141/96/65 53/97/65
f 55/153/14 142/90/14 141/92/14
f 121/74/1 42/142/1 139/144/1
f 43/152/66 138/65/66 144/67/66
f 41/77/2 137/4/2 139/6/2
