# Blender 5.1.2
# www.blender.org
mtllib rock.mtl
o Cube
v -0.828495 0.000000 1.260245
v -1.000000 1.000000 1.500000
v -1.184396 0.000000 -1.621508
v -1.000000 1.000000 -1.500000
v 1.000000 0.000000 1.000000
v 1.000000 1.000000 1.000000
v 1.500000 0.000000 -1.000000
v 1.364432 1.000000 -1.000000
v 0.750000 0.000000 -1.800000
v 0.000000 0.000000 -1.800000
v -0.750000 0.000000 -1.500000
v -0.750000 1.374605 -1.500000
v 0.000000 1.000000 -1.500000
v 0.750000 1.000000 -1.500000
v -0.750000 0.000000 1.500000
v 0.000000 0.000000 1.759342
v 0.750000 0.000000 1.500000
v 0.750000 0.571484 1.500000
v 0.000000 1.000000 1.500000
v -0.750000 0.792337 1.500000
v -1.684396 0.000000 -0.871508
v -1.500000 0.000000 0.000000
v -1.500000 0.000000 0.750000
v -1.500000 0.494231 0.750000
v -1.500000 0.494231 0.000000
v -1.500000 1.000000 -0.750000
v 1.500000 0.000000 0.750000
v 1.963555 0.000000 0.000000
v 1.500000 0.000000 -0.750000
v 1.500000 1.000000 -0.750000
v 1.500000 1.000000 0.000000
v 1.500000 1.000000 0.750000
v 0.750000 1.403517 -0.750000
v 0.625984 1.220885 0.079219
v 0.750000 1.000000 0.750000
v 0.000000 1.403517 -0.750000
v 0.000000 1.000000 0.000000
v 0.000000 1.167328 0.750000
v -0.936425 1.242973 -0.741146
v -0.750000 1.316170 0.000000
v -0.768074 1.287224 0.927000
v -0.750000 0.000000 -0.750000
v -0.750000 0.000000 0.000000
v -0.750000 0.000000 0.750000
v 0.000000 0.000000 -0.750000
v 0.000000 0.000000 0.000000
v 0.000000 0.000000 0.750000
v 0.750000 0.000000 -0.750000
v 0.750000 0.000000 0.000000
v 0.750000 0.000000 0.750000
v -0.828495 0.500000 1.260245
v -0.825349 0.500000 -1.414446
v 1.364432 0.500000 -1.000000
v 1.000000 0.500000 1.000000
v 0.750000 0.285742 1.500000
v 0.000000 0.500000 1.629671
v -0.750000 0.396168 1.500000
v -0.750000 0.687303 -1.500000
v 0.000000 0.500000 -1.721557
v 0.750000 0.500000 -1.721557
v 1.500000 0.500000 -0.750000
v 1.731778 0.500000 0.000000
v 1.500000 0.500000 0.750000
v -1.500000 0.247115 0.750000
v -1.500000 0.247115 0.000000
v -1.325349 0.500000 -0.664446
vn -0.7763 -0.3597 -0.5176
vn 0.7318 0.2761 -0.6231
vn 0.4472 -0.0000 0.8944
vn -0.9504 -0.0000 0.3111
vn -0.0000 -1.0000 -0.0000
vn 0.5372 0.6467 0.5416
vn -0.0000 1.0000 -0.0000
vn 0.4444 0.7778 0.4444
vn 0.1985 0.9566 0.2134
vn 0.8944 -0.0000 0.4472
vn 0.1704 -0.0000 0.9854
vn -0.1704 -0.0000 0.9854
vn -0.3418 -0.2732 -0.8992
vn -0.1665 0.3995 -0.9015
vn -0.0000 0.4051 -0.9143
vn 0.4026 0.8061 -0.4337
vn 0.3480 0.8256 0.4442
vn 0.3805 0.9026 -0.2014
vn -0.0000 0.8806 -0.4738
vn -0.0000 0.9766 0.2151
vn 0.2096 0.9396 0.2706
vn 0.4589 0.8529 -0.2488
vn 0.4738 0.8806 -0.0000
vn -0.8270 0.5519 -0.1074
vn -0.3960 0.9182 0.0089
vn -0.7356 0.6774 0.0068
vn 0.8791 -0.0000 -0.4767
vn 0.8736 0.4050 -0.2700
vn 0.8736 0.4050 0.2700
vn -0.6050 -0.0000 0.7962
vn -1.0000 -0.0000 -0.0000
vn -0.9671 -0.0000 -0.2542
vn -0.9783 -0.0000 0.2070
vn 0.7913 0.3668 0.4891
vn 0.7913 0.3668 -0.4891
vn 1.0000 -0.0000 -0.0000
vn -0.0000 0.1550 -0.9879
vn -0.3675 0.1441 -0.9188
vn 0.2639 0.2012 -0.9433
vn -0.3268 -0.0000 0.9451
vn 0.3268 -0.0000 0.9451
vn 0.7157 0.1940 -0.6709
vn -0.6411 0.6374 -0.4274
vn 0.6312 -0.0000 -0.7756
vn -0.4199 -0.5055 0.7538
vn -0.7386 0.6731 0.0385
vn -0.4444 0.7778 0.4444
vn 0.2128 0.9537 0.2128
vn -0.2042 0.7377 0.6435
vn 0.1420 0.2485 0.9582
vn -0.0693 0.2504 0.9656
vn -0.0000 -0.0000 -1.0000
vn -0.1664 0.9776 0.1287
vn -0.1692 0.9841 -0.0546
vn 0.1618 0.9862 0.0340
vn -0.3476 0.8257 0.4443
vn -0.3020 0.9304 -0.2076
vn 0.3597 0.8217 -0.4421
vn 0.2584 0.9346 0.2445
vn 0.2587 0.9307 0.2587
vn -0.3797 0.8898 -0.2531
vn -0.6725 0.6136 0.4138
vn -0.7387 0.6740 -0.0000
vn -0.5184 -0.5078 0.6880
vn -0.9028 -0.3565 -0.2404
vn -0.8137 0.5813 0.0073
vn 0.9554 -0.0000 0.2953
vn 0.9554 -0.0000 -0.2953
vn 0.8551 0.2319 -0.4637
vn -0.2833 -0.0000 -0.9590
vn -0.7504 -0.0000 -0.6609
vn -0.1981 0.2461 0.9488
vn 0.2325 0.2442 0.9414
vn 0.7575 0.1012 -0.6450
vt 0.682142 0.637063
vt 0.911190 0.774127
vt 0.887737 0.637063
vt 0.705595 0.774127
vt 0.874027 0.637063
vt 0.705595 0.637063
vt 0.774127 0.637063
vt 0.911190 0.637063
vt 0.088810 0.717201
vt 0.154533 0.637063
vt 0.088810 0.608600
vt 0.705595 0.294405
vt 0.774127 0.225874
vt 0.705595 0.088810
vt 0.289451 0.245885
vt 0.225874 0.088810
vt 0.294405 0.088810
vt 0.911190 0.294405
vt 0.500000 0.088810
vt 0.500000 0.294405
vt 0.294405 0.294405
vt 0.272888 0.154533
vt 0.088810 0.294405
vt 0.500000 0.017718
vt 0.225874 0.637063
vt 0.088810 0.656659
vt 0.088810 0.578329
vt 0.705595 0.656659
vt 0.500000 0.637063
vt 0.705595 0.578329
vt 0.294405 0.717201
vt 0.294405 0.608600
vt 0.225874 0.774127
vt 0.294405 0.688408
vt 0.273750 0.637063
vt 0.500000 0.774127
vt 0.705595 0.993428
vt 0.500000 0.705595
vt 0.500000 0.993428
vt 0.705595 0.705595
vt 0.500000 0.500000
vt 0.705595 0.500000
vt 0.294405 0.911190
vt 0.294405 0.705595
vt 0.294405 0.500000
vt 0.175326 0.944498
vt 0.038263 0.738903
vt 0.088810 0.500000
vt 0.500000 0.911190
vt 0.705595 0.911190
vt 0.671599 0.478284
vt 0.874027 0.774127
vt 0.911190 0.705595
vt 0.911190 0.500000
vt 0.225874 0.911190
vt 0.243301 0.703168
vt 0.088810 0.705595
vt 0.500000 0.860797
vt 0.294405 0.635482
vt 0.245885 0.852862
vt 0.774127 0.774127
vt 0.294405 0.637063
vt 0.272888 0.637063
vt 0.088810 0.635482
vt 0.088810 0.567741
vt 0.500000 0.567741
vt 0.294405 0.567741
vt 0.500000 0.635482
vt 0.738903 0.500000
vt 0.272888 0.500000
vt 0.774127 0.500000
vt 0.175326 0.500000
vt 0.225874 0.500000
vt 0.154533 0.500000
vt 0.993428 0.500000
vt 0.944498 0.500000
vt 0.088810 0.774127
vt 0.294405 0.876816
vt 1.038263 0.500000
vt 0.294405 0.774127
vt 0.971924 0.637063
s 0
f 66/1/1 4/2/1 52/3/1
f 14/4/2 53/5/2 60/6/2
f 32/2/3 54/7/3 63/8/3
f 20/9/4 51/10/4 57/11/4
f 50/12/5 5/13/5 17/14/5
f 41/15/6 2/16/6 20/17/6
f 35/12/7 6/13/7 32/18/7
f 35/12/8 19/19/8 18/14/8
f 41/15/9 19/19/9 38/20/9
f 44/21/5 1/22/5 23/23/5
f 47/20/5 15/17/5 44/21/5
f 47/20/5 17/14/5 16/24/5
f 54/25/10 18/26/10 55/27/10
f 18/28/11 56/29/11 55/30/11
f 56/29/12 20/31/12 57/32/12
f 4/33/13 58/34/13 52/35/13
f 58/34/14 13/36/14 59/29/14
f 13/36/15 60/6/15 59/29/15
f 9/37/5 45/38/5 10/39/5
f 48/40/5 46/41/5 45/38/5
f 49/42/5 47/20/5 46/41/5
f 11/43/5 45/38/5 42/44/5
f 45/38/5 43/45/5 42/44/5
f 46/41/5 44/21/5 43/45/5
f 3/46/5 42/44/5 21/47/5
f 42/44/5 22/48/5 21/47/5
f 43/45/5 23/23/5 22/48/5
f 12/43/16 36/38/16 13/49/16
f 36/38/17 40/45/17 37/41/17
f 40/45/18 38/20/18 37/41/18
f 13/49/19 33/40/19 14/50/19
f 36/38/20 34/51/20 33/40/20
f 34/51/21 38/20/21 35/12/21
f 8/52/22 33/40/22 30/53/22
f 33/40/23 31/54/23 30/53/23
f 31/54/7 35/12/7 32/18/7
f 4/55/24 39/56/24 12/43/24
f 26/57/25 40/45/25 39/56/25
f 40/58/26 24/59/26 41/60/26
f 7/2/5 48/40/5 9/37/5
f 29/53/5 49/42/5 48/40/5
f 49/42/5 27/18/5 50/12/5
f 8/61/27 61/6/27 53/7/27
f 61/6/28 31/36/28 62/29/28
f 31/36/29 63/62/29 62/29/29
f 51/63/30 24/64/30 64/65/30
f 24/59/31 65/66/31 64/67/31
f 25/68/32 66/1/32 65/66/32
f 65/66/33 21/69/33 22/41/33
f 64/67/31 22/41/31 23/45/31
f 1/70/30 64/65/30 23/48/30
f 62/29/34 27/45/34 28/41/34
f 29/42/35 62/29/35 28/41/35
f 7/71/36 61/6/36 29/42/36
f 59/29/37 9/42/37 10/41/37
f 11/45/38 59/29/38 10/41/38
f 52/35/39 11/45/39 3/72/39
f 16/41/40 57/32/40 15/45/40
f 55/30/41 16/41/41 17/42/41
f 5/73/10 55/27/10 17/48/10
f 57/11/4 1/74/4 15/48/4
f 63/8/3 5/71/3 27/54/3
f 9/75/42 53/7/42 7/71/42
f 66/1/43 3/76/43 21/69/43
f 66/1/1 26/4/1 4/2/1
f 14/4/44 8/52/44 53/5/44
f 32/2/3 6/61/3 54/7/3
f 20/9/45 2/77/45 51/10/45
f 50/12/5 27/18/5 5/13/5
f 41/15/46 24/23/46 2/16/46
f 35/12/47 18/14/47 6/13/47
f 35/12/48 38/20/48 19/19/48
f 41/15/49 20/17/49 19/19/49
f 44/21/5 15/17/5 1/22/5
f 47/20/5 16/24/5 15/17/5
f 47/20/5 50/12/5 17/14/5
f 54/25/10 6/33/10 18/26/10
f 18/28/50 19/36/50 56/29/50
f 56/29/51 19/36/51 20/31/51
f 4/33/52 12/78/52 58/34/52
f 58/34/52 12/78/52 13/36/52
f 13/36/15 14/4/15 60/6/15
f 9/37/5 48/40/5 45/38/5
f 48/40/5 49/42/5 46/41/5
f 49/42/5 50/12/5 47/20/5
f 11/43/5 10/39/5 45/38/5
f 45/38/5 46/41/5 43/45/5
f 46/41/5 47/20/5 44/21/5
f 3/46/5 11/43/5 42/44/5
f 42/44/5 43/45/5 22/48/5
f 43/45/5 44/21/5 23/23/5
f 12/43/53 39/56/53 36/38/53
f 36/38/54 39/56/54 40/45/54
f 40/45/55 41/15/55 38/20/55
f 13/49/19 36/38/19 33/40/19
f 36/38/56 37/41/56 34/51/56
f 34/51/57 37/41/57 38/20/57
f 8/52/58 14/50/58 33/40/58
f 33/40/59 34/51/59 31/54/59
f 31/54/60 34/51/60 35/12/60
f 4/55/61 26/57/61 39/56/61
f 26/57/62 25/48/62 40/45/62
f 40/58/63 25/68/63 24/59/63
f 7/2/5 29/53/5 48/40/5
f 29/53/5 28/79/5 49/42/5
f 49/42/5 28/79/5 27/18/5
f 8/61/27 30/4/27 61/6/27
f 61/6/36 30/4/36 31/36/36
f 31/36/36 32/80/36 63/62/36
f 51/63/64 2/33/64 24/64/64
f 24/59/31 25/68/31 65/66/31
f 25/68/65 26/4/65 66/1/65
f 65/66/66 66/1/66 21/69/66
f 64/67/31 65/66/31 22/41/31
f 1/70/30 51/63/30 64/65/30
f 62/29/67 63/62/67 27/45/67
f 29/42/68 61/6/68 62/29/68
f 7/71/69 53/7/69 61/6/69
f 59/29/37 60/6/37 9/42/37
f 11/45/70 58/34/70 59/29/70
f 52/35/71 58/34/71 11/45/71
f 16/41/72 56/29/72 57/32/72
f 55/30/73 56/29/73 16/41/73
f 5/73/10 54/25/10 55/27/10
f 57/11/4 51/10/4 1/74/4
f 63/8/3 54/7/3 5/71/3
f 9/75/74 60/81/74 53/7/74
f 66/1/43 52/3/43 3/76/43
