# Blender 5.1.2
# www.blender.org
mtllib stairs.mtl
o Cube
v -1.500000 2.500000 6.000000
v -1.500000 3.000000 6.000000
v 1.500000 2.500000 6.000000
v 1.500000 3.000000 6.000000
v -1.500000 3.000000 6.000000
v -1.500000 0.000000 0.600000
v -1.500000 2.700000 6.000000
v -1.500000 2.700000 5.400000
v -1.500000 2.400000 5.400000
v -1.500000 2.400000 4.800000
v -1.500000 2.100000 4.800000
v -1.500000 2.100000 4.200000
v -1.500000 1.800000 4.200000
v -1.500000 1.800000 3.600000
v -1.500000 1.500000 3.600000
v -1.500000 1.500000 3.000000
v -1.500000 1.200000 3.000000
v -1.500000 1.200000 2.400000
v -1.500000 0.900000 2.400000
v -1.500000 0.900000 1.800000
v -1.500000 0.600000 1.800000
v -1.500000 0.600000 1.200000
v -1.500000 0.300000 1.200000
v -1.500000 0.300000 0.600000
v -1.500000 0.000000 0.600000
v 1.500000 0.000000 0.600000
v 1.500000 3.000000 6.000000
v 1.500000 0.000000 0.600000
v 1.500000 0.300000 0.600000
v 1.500000 0.300000 1.200000
v 1.500000 0.600000 1.200000
v 1.500000 0.600000 1.800000
v 1.500000 0.900000 1.800000
v 1.500000 0.900000 2.400000
v 1.500000 1.200000 2.400000
v 1.500000 1.200000 3.000000
v 1.500000 1.500000 3.000000
v 1.500000 1.500000 3.600000
v 1.500000 1.800000 3.600000
v 1.500000 1.800000 4.200000
v 1.500000 2.100000 4.200000
v 1.500000 2.100000 4.800000
v 1.500000 2.400000 4.800000
v 1.500000 2.400000 5.400000
v 1.500000 2.700000 5.400000
v 1.500000 2.700000 6.000000
v -1.500000 2.500000 6.650000
v -1.500000 3.000000 6.650000
v 1.500000 3.000000 6.650000
v 1.500000 2.500000 6.650000
v -1.500000 2.700000 6.650000
v -1.500000 3.000000 6.650000
v 1.500000 3.000000 6.650000
v 1.500000 2.700000 6.650000
vn -0.0000 1.0000 -0.0000
vn -1.0000 -0.0000 -0.0000
vn -0.0000 -0.0000 -1.0000
vn 1.0000 -0.0000 -0.0000
vn -0.0000 -0.0000 1.0000
vn -0.0000 -1.0000 -0.0000
vn -0.0000 -0.9075 0.4201
vn -0.9701 -0.0000 0.2425
vn -0.7071 -0.0000 -0.7071
vn -0.8944 -0.0000 -0.4472
vn 0.9487 -0.0000 0.3162
vt 1.008314 0.252066
vt 1.115752 0.747934
vt 1.008314 0.747934
vt 0.638024 0.223190
vt 0.555380 0.115752
vt 0.555380 0.223190
vt 0.909140 0.252066
vt 0.604966 0.747934
vt 0.654553 0.252066
vt 0.604966 0.252066
vt 0.909140 0.747934
vt 0.809966 0.252066
vt 0.654553 0.747934
vt 0.704140 0.252066
vt 0.809966 0.747934
vt 0.710793 0.252066
vt 0.704140 0.747934
vt 0.753727 0.252066
vt 0.710793 0.747934
vt 0.611619 0.252066
vt 0.753727 0.747934
vt 0.803313 0.252066
vt 0.611619 0.747934
vt 0.512446 0.252066
vt 0.803313 0.747934
vt 0.852900 0.252066
vt 0.512446 0.747934
vt 0.413272 0.252066
vt 0.852900 0.747934
vt 0.902487 0.252066
vt 0.413272 0.747934
vt 0.314099 0.252066
vt 0.902487 0.747934
vt 0.952074 0.252066
vt 0.314099 0.747934
vt 0.214925 0.252066
vt 0.952074 0.747934
vt 1.001661 0.252066
vt 0.214925 0.747934
vt 0.115752 0.252066
vt 1.001661 0.747934
vt 1.051247 0.252066
vt 0.604966 0.223190
vt 1.051247 1.115751
vt 1.051247 1.115752
vt 0.555380 0.747934
vt 0.638024 0.252066
vt 0.638024 0.747934
vt 0.555380 0.252066
vt 1.115752 0.252066
vt 0.638024 0.115752
vt 0.604966 0.115752
vt 0.115752 0.252066
vt 0.115752 0.747934
vt 1.051247 0.747934
vt 0.604966 0.322363
vt 0.654553 0.322363
vt 0.654553 0.421537
vt 0.704140 0.421537
vt 0.704140 0.520710
vt 0.753727 0.520710
vt 0.753727 0.619884
vt 0.803313 0.619884
vt 0.803313 0.719057
vt 0.852900 0.719057
vt 0.852900 0.818231
vt 0.902487 0.818231
vt 0.902487 0.917404
vt 0.952074 0.917404
vt 0.952074 1.016578
vt 1.001660 1.016578
vt 1.001660 1.115751
vt 0.115752 0.747934
s 0
f 7/1/1 54/2/1 46/3/1
f 1/4/2 48/5/2 2/6/2
f 46/3/1 8/7/1 7/1/1
f 45/8/3 9/9/3 8/10/3
f 44/11/1 10/12/1 9/7/1
f 43/13/3 11/14/3 10/9/3
f 42/15/1 12/16/1 11/12/1
f 41/17/3 13/18/3 12/14/3
f 40/19/1 14/20/1 13/16/1
f 39/21/3 15/22/3 14/18/3
f 38/23/1 16/24/1 15/20/1
f 37/25/3 17/26/3 16/22/3
f 36/27/1 18/28/1 17/24/1
f 35/29/3 19/30/3 18/26/3
f 34/31/1 20/32/1 19/28/1
f 33/33/3 21/34/3 20/30/3
f 32/35/1 22/36/1 21/32/1
f 31/37/3 23/38/3 22/34/3
f 30/39/1 24/40/1 23/36/1
f 29/41/3 25/42/3 24/38/3
f 27/3/1 2/1/1 4/3/1
f 7/43/4 25/44/4 6/45/4
f 3/4/2 26/45/2 28/44/2
f 49/46/5 47/47/5 50/48/5
f 53/46/3 51/10/3 52/49/3
f 27/3/6 52/50/6 5/1/6
f 2/1/1 49/2/1 4/3/1
f 4/6/4 50/51/4 3/4/4
f 46/43/2 53/5/2 27/6/2
f 5/6/4 51/52/4 7/43/4
f 3/3/6 47/50/6 1/1/6
f 6/53/7 3/3/7 1/1/7
f 46/8/5 5/49/5 7/10/5
f 7/1/1 51/50/1 54/2/1
f 1/4/2 47/51/2 48/5/2
f 46/3/1 45/11/1 8/7/1
f 45/8/3 44/13/3 9/9/3
f 44/11/1 43/15/1 10/12/1
f 43/13/3 42/17/3 11/14/3
f 42/15/1 41/19/1 12/16/1
f 41/17/3 40/21/3 13/18/3
f 40/19/1 39/23/1 14/20/1
f 39/21/3 38/25/3 15/22/3
f 38/23/1 37/27/1 16/24/1
f 37/25/3 36/29/3 17/26/3
f 36/27/1 35/31/1 18/28/1
f 35/29/3 34/33/3 19/30/3
f 34/31/1 33/35/1 20/32/1
f 33/33/3 32/37/3 21/34/3
f 32/35/1 31/39/1 22/36/1
f 31/37/3 30/41/3 23/38/3
f 30/39/1 29/54/1 24/40/1
f 29/41/3 28/55/3 25/42/3
f 27/3/1 5/1/1 2/1/1
f 7/43/2 8/56/2 9/57/2
f 9/57/2 10/58/2 11/59/2
f 11/59/2 12/60/2 13/61/2
f 13/61/2 14/62/2 15/63/2
f 15/63/2 16/64/2 17/65/2
f 17/65/2 18/66/2 19/67/2
f 19/67/2 20/68/2 21/69/2
f 21/69/2 22/70/2 23/71/2
f 23/71/2 24/72/2 25/44/2
f 21/69/2 23/71/2 25/44/2
f 17/65/1 19/67/1 21/69/1
f 11/59/2 13/61/2 15/63/2
f 15/63/8 17/65/8 21/69/8
f 15/63/9 21/69/9 25/44/9
f 7/43/2 9/57/2 11/59/2
f 11/59/2 15/63/2 25/44/2
f 7/43/4 11/59/4 25/44/4
f 2/6/1 5/6/1 7/43/1
f 1/4/1 2/6/1 7/43/1
f 6/45/2 1/4/2 7/43/2
f 28/44/4 29/72/4 30/71/4
f 30/71/4 31/70/4 32/69/4
f 32/69/4 33/68/4 34/67/4
f 34/67/4 35/66/4 36/65/4
f 36/65/4 37/64/4 38/63/4
f 38/63/4 39/62/4 40/61/4
f 40/61/4 41/60/4 42/59/4
f 42/59/4 43/58/4 44/57/4
f 44/57/4 45/56/4 46/43/4
f 42/59/4 44/57/4 46/43/4
f 38/63/4 40/61/4 42/59/4
f 34/67/10 36/65/10 38/63/10
f 28/44/4 30/71/4 32/69/4
f 32/69/11 34/67/11 38/63/11
f 32/69/4 38/63/4 42/59/4
f 28/44/4 32/69/4 42/59/4
f 46/43/1 27/6/1 4/6/1
f 28/44/2 42/59/2 46/43/2
f 46/43/1 4/6/1 3/4/1
f 28/44/4 46/43/4 3/4/4
f 49/46/5 48/49/5 47/47/5
f 53/46/3 54/8/3 51/10/3
f 27/3/6 53/2/6 52/50/6
f 2/1/1 48/50/1 49/2/1
f 4/6/4 49/5/4 50/51/4
f 46/43/2 54/52/2 53/5/2
f 5/6/4 52/5/4 51/52/4
f 3/3/6 50/2/6 47/50/6
f 6/53/7 26/73/7 3/3/7
f 46/8/5 27/46/5 5/49/5
