# Blender 5.1.2
# www.blender.org
mtllib stone_wall.mtl
o Cube
v 0.520000 0.000000 0.740000
v 0.520000 2.000000 0.740000
v 0.000000 0.000000 0.740000
v 0.000000 2.000000 0.740000
v 0.520000 0.000000 -0.740000
v 0.520000 2.000000 -0.740000
v -0.000000 0.000000 -0.740000
v -0.000000 2.000000 -0.740000
v -0.000000 2.000000 -1.000000
v -0.000000 0.000000 -1.000000
v 0.520000 0.000000 -1.000000
v 0.520000 2.000000 -1.000000
v 0.000000 0.000000 1.000000
v 0.520000 0.000000 1.000000
v 0.520000 2.000000 1.000000
v 0.000000 2.000000 1.000000
v 0.400400 0.000000 0.740000
v 0.400400 2.000000 0.740000
v 0.400400 2.000000 -0.740000
v 0.400400 0.000000 -0.740000
v 0.119600 2.000000 0.740000
v 0.119600 0.000000 0.740000
v 0.119600 0.000000 -0.740000
v 0.119600 2.000000 -0.740000
v 0.520000 2.120000 0.740000
v 0.000000 2.120000 0.740000
v -0.000000 2.120000 -0.740000
v 0.520000 2.120000 -0.740000
v -0.000000 2.120000 -1.000000
v 0.520000 2.120000 -1.000000
v 0.520000 2.120000 1.000000
v 0.000000 2.120000 1.000000
vn -1.0000 -0.0000 -0.0000
vn 1.0000 -0.0000 -0.0000
vn -0.0000 -0.0000 -1.0000
vn -0.0000 1.0000 -0.0000
vn -0.0000 -1.0000 -0.0000
vn -0.0000 -0.0000 1.0000
vt 0.150943 0.500000
vt 0.028302 1.443396
vt 0.150943 1.443396
vt 0.971698 1.443396
vt 0.849057 1.500000
vt 0.849057 1.443396
vt 0.745283 0.500000
vt 0.688868 1.443396
vt 0.745283 1.443396
vt 0.500000 0.150943
vt 0.745283 0.028302
vt 0.745283 0.150943
vt 0.849057 0.500000
vt 0.500000 1.443396
vt 0.745283 0.500000
vt 0.500000 0.500000
vt 0.971698 0.500000
vt 0.500000 0.849057
vt 0.745283 0.971698
vt 0.745283 0.849057
vt 0.500000 0.500000
vt 0.028302 0.500000
vt 0.500000 1.500000
vt 0.500000 1.443396
vt 0.500000 0.028302
vt 0.500000 0.971698
vt 0.688868 0.150943
vt 0.556415 0.849057
vt 0.556415 0.150943
vt 0.745283 1.443396
vt 0.688868 0.500000
vt 0.556415 0.500000
vt 0.556415 1.443396
vt 0.150943 1.500000
vt 0.745283 1.500000
vt 0.500000 1.500000
vt 0.971698 1.500000
vt 0.028302 1.500000
vt 0.745283 1.500000
vt 0.688868 0.500000
vt 0.688868 0.849057
vt 0.688868 1.443396
vt 0.556415 1.443396
vt 0.556415 0.500000
s 0
f 3/1/1 16/2/1 4/3/1
f 12/4/2 28/5/2 6/6/2
f 1/7/3 18/8/3 2/9/3
f 26/10/4 31/11/4 25/12/4
f 19/6/2 17/1/2 20/13/2
f 9/14/3 11/15/3 10/16/3
f 8/6/1 10/17/1 7/13/1
f 5/13/2 12/4/2 6/6/2
f 7/18/5 11/19/5 5/20/5
f 15/9/6 13/21/6 14/7/6
f 2/3/2 14/22/2 1/1/2
f 15/9/6 32/23/6 16/24/6
f 1/12/5 13/25/5 3/10/5
f 28/20/4 29/26/4 27/18/4
f 18/27/4 24/28/4 21/29/4
f 6/30/6 20/31/6 5/15/6
f 21/3/1 23/13/1 22/1/1
f 4/24/3 22/32/3 3/21/3
f 7/16/6 24/33/6 8/14/6
f 16/2/1 26/34/1 4/3/1
f 9/14/3 30/35/3 12/30/3
f 6/30/6 27/36/6 8/14/6
f 8/6/1 29/37/1 9/4/1
f 2/3/2 31/38/2 15/2/2
f 4/24/3 25/39/3 2/9/3
f 3/1/1 13/22/1 16/2/1
f 12/4/2 30/37/2 28/5/2
f 1/7/3 17/40/3 18/8/3
f 26/10/4 32/25/4 31/11/4
f 19/6/2 18/3/2 17/1/2
f 9/14/3 12/30/3 11/15/3
f 8/6/1 9/4/1 10/17/1
f 5/13/2 11/17/2 12/4/2
f 7/18/5 10/26/5 11/19/5
f 15/9/6 16/24/6 13/21/6
f 2/3/2 15/2/2 14/22/2
f 15/9/6 31/39/6 32/23/6
f 1/12/5 14/11/5 13/25/5
f 28/20/4 30/19/4 29/26/4
f 18/27/4 19/41/4 24/28/4
f 6/30/6 19/42/6 20/31/6
f 21/3/1 24/6/1 23/13/1
f 4/24/3 21/43/3 22/32/3
f 7/16/6 23/44/6 24/33/6
f 16/2/1 32/38/1 26/34/1
f 9/14/3 29/36/3 30/35/3
f 6/30/6 28/35/6 27/36/6
f 8/6/1 27/5/1 29/37/1
f 2/3/2 25/34/2 31/38/2
f 4/24/3 26/23/3 25/39/3
