# Blender 5.1.2
# www.blender.org
mtllib table2.mtl
o Cube
v -1.500000 0.897000 0.750000
v -1.500000 0.996400 0.750000
v -1.500000 0.897000 -0.750000
v -1.500000 0.996400 -0.750000
v 1.500000 0.897000 0.750000
v 1.500000 0.996400 0.750000
v 1.500000 0.897000 -0.750000
v 1.500000 0.996400 -0.750000
v -1.437500 0.897000 -0.250000
v -1.437500 0.897000 0.250000
v -1.500000 0.996400 0.250000
v -1.500000 0.996400 -0.250000
v 1.437500 0.897000 0.250000
v 1.437500 0.897000 -0.250000
v 1.500000 0.996400 -0.250000
v 1.500000 0.996400 0.250000
v 1.250000 0.897000 -0.750000
v 0.000000 0.897000 -0.750000
v -1.250000 0.897000 -0.750000
v -1.250000 0.996400 -0.750000
v 0.000000 0.996400 -0.750000
v 1.250000 0.996400 -0.750000
v -1.250000 0.897000 0.750000
v 0.000000 0.897000 0.750000
v 1.250000 0.897000 0.750000
v 1.250000 0.996400 0.750000
v 0.000000 0.996400 0.750000
v -1.250000 0.996400 0.750000
v -1.250000 0.996400 -0.250000
v 0.000000 0.996400 -0.250000
v 1.250000 0.996400 -0.250000
v -1.250000 0.996400 0.250000
v 0.000000 0.996400 0.250000
v 1.250000 0.996400 0.250000
v 1.312500 0.897000 -0.250000
v 0.000000 0.897000 -0.250000
v -1.312500 0.897000 -0.250000
v 1.312500 0.897000 0.250000
v 0.000000 0.897000 0.250000
v -1.312500 0.897000 0.250000
v -1.437500 0.179400 -0.250000
v -1.437500 0.179400 0.250000
v 1.437500 0.179400 0.250000
v 1.437500 0.179400 -0.250000
v -1.312500 0.179400 -0.250000
v -1.312500 0.179400 0.250000
v 1.312500 0.179400 -0.250000
v 1.312500 0.179400 0.250000
v -1.500000 -0.000000 -0.399255
v -1.500000 -0.000000 0.399255
v 1.500000 -0.000000 0.399255
v 1.500000 -0.000000 -0.399255
v -1.250000 -0.000000 -0.399255
v -1.250000 -0.000000 0.399255
v 1.250000 -0.000000 -0.399255
v 1.250000 -0.000000 0.399255
v 1.700000 0.996400 -0.750000
v 1.700000 0.897000 -0.750000
v 1.700000 0.897000 -0.250000
v 1.700000 0.996400 0.250000
v 1.700000 0.996400 0.750000
v 1.700000 0.897000 0.750000
v 1.700000 0.897000 0.250000
v 1.700000 0.996400 -0.250000
v -1.700000 0.897000 0.250000
v -1.700000 0.897000 0.750000
v -1.700000 0.996400 0.750000
v -1.700000 0.996400 -0.250000
v -1.700000 0.996400 -0.750000
v -1.700000 0.897000 -0.750000
v -1.700000 0.897000 -0.250000
v -1.700000 0.996400 0.250000
v -1.312500 0.717600 -0.125000
v -1.312500 0.717600 0.125000
v -1.312500 0.358800 -0.125000
v -1.312500 0.358800 0.125000
v 1.312500 0.717600 -0.125000
v 1.312500 0.717600 0.125000
v 1.312500 0.358800 -0.125000
v 1.312500 0.358800 0.125000
vn -0.0000 1.0000 -0.0000
vn -0.0000 -0.0000 -1.0000
vn -0.0000 -1.0000 -0.0000
vn -0.0000 -0.0000 1.0000
vn -1.0000 -0.0000 -0.0000
vn -0.9443 0.3290 -0.0000
vn -0.0000 0.6396 -0.7687
vn 1.0000 -0.0000 -0.0000
vn -0.0000 0.6396 0.7687
vn 0.9443 0.3290 -0.0000
vt 0.058824 -0.382353
vt 0.352941 -0.500000
vt 0.352941 -0.382353
vt 0.360416 1.235294
vt 0.441592 1.382353
vt 0.441592 1.235294
vt 0.352941 1.345588
vt 0.647059 1.500000
vt 0.647059 1.345588
vt 0.360416 -0.235294
vt 0.441593 -0.382353
vt 0.441592 -0.235294
vt 0.941176 1.235294
vt 0.647059 1.272059
vt 0.647059 -0.382353
vt 0.941176 -0.235294
vt 0.647059 -0.235294
vt 0.352941 -0.235294
vt 0.058824 -0.235294
vt 0.058824 1.382353
vt 0.352941 1.272059
vt 0.058824 1.235294
vt 0.766298 0.647059
vt 0.522769 0.573529
vt 0.441592 0.647059
vt 0.941176 1.382353
vt 0.647059 1.382353
vt 0.352941 1.500000
vt 0.352941 1.382353
vt 0.647059 -0.345588
vt 0.352941 -0.345588
vt 0.647059 -0.500000
vt 0.441592 -0.345588
vt 0.766298 -0.272059
vt 0.441593 -0.272059
vt 0.352941 0.500000
vt 0.647059 -0.272059
vt 0.352941 -0.272059
vt 0.647059 0.500000
vt 0.058824 0.500000
vt 0.352941 1.235294
vt 0.647059 1.235294
vt 0.941176 0.500000
vt 0.941176 -0.382353
vt 0.360416 1.382353
vt 0.441592 0.500000
vt 0.360416 0.500000
vt 0.360416 -0.382353
vt 0.847475 0.265144
vt 0.766298 0.352941
vt 0.265144 -0.235294
vt 0.265144 -0.382353
vt 0.685122 0.573529
vt 0.441592 0.352941
vt 0.441592 1.345588
vt 0.766298 1.272059
vt 0.441592 1.272059
vt 0.766298 -0.345588
vt 0.766298 1.345588
vt 0.265144 1.382353
vt 0.734856 1.235294
vt 0.265144 1.235294
vt 0.734856 -0.382353
vt 0.734856 1.382353
vt 0.734856 -0.235294
vt 0.847475 0.734856
vt 0.360416 0.352941
vt 0.441592 0.058824
vt 0.360416 0.941176
vt 0.441592 0.941176
vt 0.360416 0.647059
vt 0.441592 1.500000
vt 0.360416 1.500000
vt 0.058824 1.500000
vt 0.941176 1.500000
vt 0.360416 0.058824
vt 0.941176 -0.500000
vt 0.360416 -0.500000
vt 0.058824 -0.500000
vt 0.441593 -0.500000
vt 0.522769 0.426471
vt 0.685122 0.426471
vt 0.426471 -0.272059
vt 0.573529 1.272059
vt 0.573529 -0.272059
vt 0.685122 -0.272059
vt 0.522769 1.272059
vt 0.522769 -0.272059
vt 0.426471 1.272059
vt 0.685122 1.272059
s 0
f 4/1/1 68/2/1 12/3/1
f 22/4/2 7/5/2 17/6/2
f 14/7/3 63/8/3 13/9/3
f 28/10/4 1/11/4 23/12/4
f 13/9/3 25/13/3 38/14/3
f 11/15/1 28/16/1 32/17/1
f 4/1/1 29/18/1 20/19/1
f 12/3/1 32/17/1 29/18/1
f 7/20/3 35/21/3 17/22/3
f 47/23/5 77/24/5 35/25/5
f 6/26/1 60/8/1 16/27/1
f 16/27/1 64/28/1 15/29/1
f 10/30/3 71/2/3 9/31/3
f 12/3/1 72/32/1 11/15/1
f 10/33/4 46/34/4 40/35/4
f 36/36/3 40/37/3 37/38/3
f 35/21/3 39/39/3 36/36/3
f 19/19/3 9/31/3 3/1/3
f 19/19/3 36/36/3 37/38/3
f 17/22/3 36/36/3 18/40/3
f 31/41/1 16/27/1 15/29/1
f 30/36/1 34/42/1 31/41/1
f 29/18/1 33/39/1 30/36/1
f 22/22/1 15/29/1 8/20/1
f 21/40/1 31/41/1 22/22/1
f 20/19/1 30/36/1 21/40/1
f 34/42/1 6/26/1 16/27/1
f 33/39/1 26/13/1 34/42/1
f 32/17/1 27/43/1 33/39/1
f 40/37/3 1/44/3 10/30/3
f 39/39/3 23/16/3 40/37/3
f 39/39/3 25/13/3 24/43/3
f 6/45/4 25/6/4 5/5/4
f 26/4/4 24/46/4 25/6/4
f 27/47/4 23/12/4 24/46/4
f 4/48/2 19/12/2 3/11/2
f 20/10/2 18/46/2 19/12/2
f 21/47/2 17/6/2 18/46/2
f 41/23/6 50/49/6 42/50/6
f 41/31/7 53/51/7 49/52/7
f 45/23/8 73/24/8 75/53/8
f 13/54/8 44/23/8 14/25/8
f 14/55/2 47/56/2 35/57/2
f 9/25/5 42/50/5 10/54/5
f 37/35/2 41/58/2 9/33/2
f 38/57/4 43/59/4 13/55/4
f 52/60/3 56/61/3 55/62/3
f 53/51/3 50/63/3 49/52/3
f 47/23/6 56/49/6 48/50/6
f 43/9/9 56/61/9 51/64/9
f 46/37/9 50/63/9 54/65/9
f 43/50/10 52/66/10 44/23/10
f 46/50/10 53/66/10 45/23/10
f 47/21/7 52/60/7 55/62/7
f 60/67/8 62/68/8 63/54/8
f 57/69/8 59/25/8 58/70/8
f 64/71/8 63/54/8 59/25/8
f 8/45/2 58/72/2 7/5/2
f 5/5/4 61/73/4 6/45/4
f 15/29/1 57/74/1 8/20/1
f 7/20/3 59/28/3 14/7/3
f 5/26/3 63/8/3 62/75/3
f 68/71/5 70/70/5 71/25/5
f 67/76/5 65/54/5 66/68/5
f 72/67/5 71/25/5 65/54/5
f 1/44/3 65/32/3 10/30/3
f 11/15/1 67/77/1 2/44/1
f 3/11/2 69/78/2 4/48/2
f 3/1/3 71/2/3 70/79/3
f 2/48/4 66/80/4 1/11/4
f 74/81/8 75/53/8 73/24/8
f 45/23/8 76/82/8 46/50/8
f 40/54/8 73/24/8 37/25/8
f 46/50/8 74/81/8 40/54/8
f 77/24/5 80/82/5 78/81/5
f 35/25/5 78/81/5 38/54/5
f 48/50/5 78/81/5 80/82/5
f 48/50/5 79/53/5 47/23/5
f 75/83/3 80/84/3 76/85/3
f 76/86/4 78/87/4 74/88/4
f 74/85/1 77/89/1 73/83/1
f 73/88/2 79/90/2 75/86/2
f 4/1/1 69/79/1 68/2/1
f 22/4/2 8/45/2 7/5/2
f 14/7/3 59/28/3 63/8/3
f 28/10/4 2/48/4 1/11/4
f 13/9/3 5/26/3 25/13/3
f 11/15/1 2/44/1 28/16/1
f 4/1/1 12/3/1 29/18/1
f 12/3/1 11/15/1 32/17/1
f 7/20/3 14/7/3 35/21/3
f 47/23/5 79/53/5 77/24/5
f 6/26/1 61/75/1 60/8/1
f 16/27/1 60/8/1 64/28/1
f 10/30/3 65/32/3 71/2/3
f 12/3/1 68/2/1 72/32/1
f 10/33/4 42/58/4 46/34/4
f 36/36/3 39/39/3 40/37/3
f 35/21/3 38/14/3 39/39/3
f 19/19/3 37/38/3 9/31/3
f 19/19/3 18/40/3 36/36/3
f 17/22/3 35/21/3 36/36/3
f 31/41/1 34/42/1 16/27/1
f 30/36/1 33/39/1 34/42/1
f 29/18/1 32/17/1 33/39/1
f 22/22/1 31/41/1 15/29/1
f 21/40/1 30/36/1 31/41/1
f 20/19/1 29/18/1 30/36/1
f 34/42/1 26/13/1 6/26/1
f 33/39/1 27/43/1 26/13/1
f 32/17/1 28/16/1 27/43/1
f 40/37/3 23/16/3 1/44/3
f 39/39/3 24/43/3 23/16/3
f 39/39/3 38/14/3 25/13/3
f 6/45/4 26/4/4 25/6/4
f 26/4/4 27/47/4 24/46/4
f 27/47/4 28/10/4 23/12/4
f 4/48/2 20/10/2 19/12/2
f 20/10/2 21/47/2 18/46/2
f 21/47/2 22/4/2 17/6/2
f 41/23/6 49/66/6 50/49/6
f 41/31/7 45/38/7 53/51/7
f 45/23/8 37/25/8 73/24/8
f 13/54/8 43/50/8 44/23/8
f 14/55/2 44/59/2 47/56/2
f 9/25/5 41/23/5 42/50/5
f 37/35/2 45/34/2 41/58/2
f 38/57/4 48/56/4 43/59/4
f 52/60/3 51/64/3 56/61/3
f 53/51/3 54/65/3 50/63/3
f 47/23/6 55/66/6 56/49/6
f 43/9/9 48/14/9 56/61/9
f 46/37/9 42/30/9 50/63/9
f 43/50/10 51/49/10 52/66/10
f 46/50/10 54/49/10 53/66/10
f 47/21/7 44/7/7 52/60/7
f 60/67/8 61/76/8 62/68/8
f 57/69/8 64/71/8 59/25/8
f 64/71/8 60/67/8 63/54/8
f 8/45/2 57/73/2 58/72/2
f 5/5/4 62/72/4 61/73/4
f 15/29/1 64/28/1 57/74/1
f 7/20/3 58/74/3 59/28/3
f 5/26/3 13/9/3 63/8/3
f 68/71/5 69/69/5 70/70/5
f 67/76/5 72/67/5 65/54/5
f 72/67/5 68/71/5 71/25/5
f 1/44/3 66/77/3 65/32/3
f 11/15/1 72/32/1 67/77/1
f 3/11/2 70/80/2 69/78/2
f 3/1/3 9/31/3 71/2/3
f 2/48/4 67/78/4 66/80/4
f 74/81/8 76/82/8 75/53/8
f 45/23/8 75/53/8 76/82/8
f 40/54/8 74/81/8 73/24/8
f 46/50/8 76/82/8 74/81/8
f 77/24/5 79/53/5 80/82/5
f 35/25/5 77/24/5 78/81/5
f 48/50/5 38/54/5 78/81/5
f 48/50/5 80/82/5 79/53/5
f 75/83/3 79/89/3 80/84/3
f 76/86/4 80/90/4 78/87/4
f 74/85/1 78/84/1 77/89/1
f 73/88/2 77/87/2 79/90/2
