# Blender 5.1.2
# www.blender.org
mtllib table.mtl
o Cube
v 1.481250 0.750000 0.731250
v 1.500000 0.768750 0.750000
v 1.481250 0.875000 0.731250
v 1.500000 0.856250 0.750000
v -1.481250 0.750000 0.731250
v -1.500000 0.768750 0.750000
v -1.481250 0.875000 0.731250
v -1.500000 0.856250 0.750000
v 1.481250 0.750000 -0.731250
v 1.500000 0.768750 -0.750000
v 1.481250 0.875000 -0.731250
v 1.500000 0.856250 -0.750000
v -1.481250 0.750000 -0.731250
v -1.500000 0.768750 -0.750000
v -1.481250 0.875000 -0.731250
v -1.500000 0.856250 -0.750000
v 1.227500 0.000000 -0.375000
v 1.187500 0.000000 -0.415000
v 1.187500 0.750000 -0.415000
v 1.227500 0.750000 -0.375000
v 1.187500 0.000000 -0.585000
v 1.227500 0.000000 -0.625000
v 1.227500 0.750000 -0.625000
v 1.187500 0.750000 -0.585000
v 1.312500 0.000000 -0.415000
v 1.272500 0.000000 -0.375000
v 1.272500 0.750000 -0.375000
v 1.312500 0.750000 -0.415000
v 1.272500 0.000000 -0.625000
v 1.312500 0.000000 -0.585000
v 1.312500 0.750000 -0.585000
v 1.272500 0.750000 -0.625000
v 1.227500 0.000000 0.625000
v 1.187500 0.000000 0.585000
v 1.187500 0.750000 0.585000
v 1.227500 0.750000 0.625000
v 1.187500 0.000000 0.415000
v 1.227500 0.000000 0.375000
v 1.227500 0.750000 0.375000
v 1.187500 0.750000 0.415000
v 1.312500 0.000000 0.585000
v 1.272500 0.000000 0.625000
v 1.272500 0.750000 0.625000
v 1.312500 0.750000 0.585000
v 1.272500 0.000000 0.375000
v 1.312500 0.000000 0.415000
v 1.312500 0.750000 0.415000
v 1.272500 0.750000 0.375000
v -1.272500 0.000000 0.625000
v -1.312500 0.000000 0.585000
v -1.312500 0.750000 0.585000
v -1.272500 0.750000 0.625000
v -1.312500 0.000000 0.415000
v -1.272500 0.000000 0.375000
v -1.272500 0.750000 0.375000
v -1.312500 0.750000 0.415000
v -1.187500 0.000000 0.585000
v -1.227500 0.000000 0.625000
v -1.227500 0.750000 0.625000
v -1.187500 0.750000 0.585000
v -1.227500 0.000000 0.375000
v -1.187500 0.000000 0.415000
v -1.187500 0.750000 0.415000
v -1.227500 0.750000 0.375000
v -1.272500 0.000000 -0.375000
v -1.312500 0.000000 -0.415000
v -1.312500 0.750000 -0.415000
v -1.272500 0.750000 -0.375000
v -1.312500 0.000000 -0.585000
v -1.272500 0.000000 -0.625000
v -1.272500 0.750000 -0.625000
v -1.312500 0.750000 -0.585000
v -1.187500 0.000000 -0.415000
v -1.227500 0.000000 -0.375000
v -1.227500 0.750000 -0.375000
v -1.187500 0.750000 -0.415000
v -1.227500 0.000000 -0.625000
v -1.187500 0.000000 -0.585000
v -1.187500 0.750000 -0.585000
v -1.227500 0.750000 -0.625000
vn -0.0000 -0.7071 0.7071
vn -0.0000 0.7071 0.7071
vn -0.7071 -0.7071 -0.0000
vn -0.7071 0.7071 -0.0000
vn -0.0000 -0.7071 -0.7071
vn -0.0000 0.7071 -0.7071
vn 0.7071 -0.7071 -0.0000
vn 0.7071 0.7071 -0.0000
vn -0.0000 -1.0000 -0.0000
vn -0.0000 -0.0000 1.0000
vn 1.0000 -0.0000 -0.0000
vn -0.0000 1.0000 -0.0000
vn -1.0000 -0.0000 -0.0000
vn -0.0000 -0.0000 -1.0000
vn -0.7071 -0.0000 0.7071
vn -0.7071 -0.0000 -0.7071
vn 0.7071 -0.0000 -0.7071
vn 0.7071 -0.0000 0.7071
vt 0.008408 0.004212
vt 0.999944 0.000056
vt 0.993695 0.006305
vt 0.993695 0.493736
vt 0.000085 0.499986
vt 0.006334 0.493736
vt 0.999944 0.499986
vt 0.993694 0.493736
vt 0.993695 0.006305
vt 0.999944 0.499986
vt 0.993736 0.000014
vt 0.000043 0.012514
vt 0.006293 0.000014
vt 0.006334 0.006305
vt 0.999954 0.008379
vt 0.987475 0.000026
vt 0.000065 0.016702
vt 0.000085 0.000056
vt 0.000043 0.012514
vt 0.999986 0.070844
vt 0.000043 0.070844
vt 0.999974 0.141681
vt 0.999974 0.025024
vt 0.000055 0.025024
vt 0.999974 0.141681
vt 0.000055 0.141681
vt 0.999986 0.070844
vt 0.999986 0.012514
vt 0.642857 0.785714
vt 0.658095 0.500000
vt 0.642857 0.500000
vt 0.738095 0.500000
vt 0.722857 0.785714
vt 0.738095 0.785714
vt 0.722857 0.500000
vt 0.658095 0.785714
vt 0.261905 0.785714
vt 0.277143 0.500000
vt 0.261905 0.500000
vt 0.357143 0.500000
vt 0.341905 0.785714
vt 0.357143 0.785714
vt 0.341905 0.500000
vt 0.277143 0.785714
vt 1.000000 0.722857
vt 0.984762 0.642857
vt 0.952381 0.658095
vt 0.984762 0.785714
vt 0.967619 0.500000
vt 0.984762 0.500000
vt 0.967619 0.785714
vt 1.000000 0.341905
vt 0.984762 0.261905
vt 0.952381 0.277143
vt 0.047619 0.341905
vt 0.032381 0.261905
vt 0.000000 0.277143
vt 0.032381 0.785714
vt 0.015238 0.500000
vt 0.032381 0.500000
vt 0.015238 0.785714
vt 0.047619 0.722857
vt 0.032381 0.642857
vt 0.000000 0.658095
vt 0.006334 0.493736
vt 0.999986 0.012514
vt 0.000055 0.141681
vt 0.000043 0.070844
vt 0.952381 0.722857
vt 0.967619 0.738095
vt 0.984762 0.738095
vt 1.000000 0.658095
vt 0.967619 0.642857
vt 0.952381 0.341905
vt 0.967619 0.357143
vt 0.984762 0.357143
vt 1.000000 0.277143
vt 0.967619 0.261905
vt 0.000000 0.341905
vt 0.015238 0.357143
vt 0.032381 0.357143
vt 0.047619 0.277143
vt 0.015238 0.261905
vt 0.000000 0.722857
vt 0.015238 0.738095
vt 0.032381 0.738095
vt 0.047619 0.658095
vt 0.015238 0.642857
s 0
usemtl Marble
f 1/1/1 6/2/1 5/3/1
f 7/4/2 4/5/2 3/6/2
f 5/3/3 14/7/3 13/8/3
f 15/9/4 8/10/4 7/4/4
f 13/11/5 10/12/5 9/13/5
f 11/14/6 16/15/6 15/9/6
f 9/16/7 2/17/7 1/1/7
f 3/6/8 12/18/8 11/14/8
f 13/8/9 1/1/9 5/3/9
f 4/19/10 6/20/10 2/21/10
f 12/22/11 2/17/11 10/23/11
f 7/4/12 11/14/12 15/9/12
f 8/24/13 14/25/13 6/26/13
f 16/27/14 10/12/14 14/28/14
f 1/1/1 2/17/1 6/2/1
f 7/4/2 8/10/2 4/5/2
f 5/3/3 6/2/3 14/7/3
f 15/9/4 16/15/4 8/10/4
f 13/11/5 14/28/5 10/12/5
f 11/14/6 12/18/6 16/15/6
f 9/16/7 10/23/7 2/17/7
f 3/6/8 4/5/8 12/18/8
f 13/8/9 9/65/9 1/1/9
f 4/19/10 8/66/10 6/20/10
f 12/22/11 4/67/11 2/17/11
f 7/4/12 3/6/12 11/14/12
f 8/24/13 16/15/13 14/25/13
f 16/27/14 12/68/14 10/12/14
usemtl Legs
f 20/29/15 18/30/15 17/31/15
f 22/32/16 24/33/16 23/34/16
f 30/35/17 32/34/17 31/33/17
f 26/31/18 28/36/18 27/29/18
f 36/37/15 34/38/15 33/39/15
f 38/40/16 40/41/16 39/42/16
f 46/43/17 48/42/17 47/41/17
f 42/39/18 44/44/18 43/37/18
f 52/37/15 50/38/15 49/39/15
f 54/40/16 56/41/16 55/42/16
f 62/43/17 64/42/17 63/41/17
f 58/39/18 60/44/18 59/37/18
f 68/29/15 66/30/15 65/31/15
f 70/32/16 72/33/16 71/34/16
f 78/35/17 80/34/17 79/33/17
f 74/31/18 76/36/18 75/29/18
f 30/45/9 26/46/9 18/47/9
f 19/36/13 21/35/13 18/30/13
f 27/48/10 17/49/10 26/50/10
f 23/51/14 29/50/14 22/49/14
f 31/33/11 25/30/11 30/35/11
f 46/52/9 42/53/9 34/54/9
f 35/44/13 37/43/13 34/38/13
f 43/48/10 33/49/10 42/50/10
f 39/51/14 45/50/14 38/49/14
f 47/41/11 41/38/11 46/43/11
f 62/55/9 58/56/9 50/57/9
f 51/44/13 53/43/13 50/38/13
f 59/58/10 49/59/10 58/60/10
f 55/61/14 61/60/14 54/59/14
f 63/41/11 57/38/11 62/43/11
f 78/62/9 74/63/9 66/64/9
f 67/36/13 69/35/13 66/30/13
f 75/58/10 65/59/10 74/60/10
f 71/61/14 77/60/14 70/59/14
f 79/33/11 73/30/11 78/35/11
f 20/29/15 19/36/15 18/30/15
f 22/32/16 21/35/16 24/33/16
f 30/35/17 29/32/17 32/34/17
f 26/31/18 25/30/18 28/36/18
f 36/37/15 35/44/15 34/38/15
f 38/40/16 37/43/16 40/41/16
f 46/43/17 45/40/17 48/42/17
f 42/39/18 41/38/18 44/44/18
f 52/37/15 51/44/15 50/38/15
f 54/40/16 53/43/16 56/41/16
f 62/43/17 61/40/17 64/42/17
f 58/39/18 57/38/18 60/44/18
f 68/29/15 67/36/15 66/30/15
f 70/32/16 69/35/16 72/33/16
f 78/35/17 77/32/17 80/34/17
f 74/31/18 73/30/18 76/36/18
f 18/47/9 21/69/9 22/70/9
f 22/70/9 29/71/9 30/45/9
f 30/45/9 25/72/9 26/46/9
f 26/46/9 17/73/9 18/47/9
f 18/47/9 22/70/9 30/45/9
f 19/36/13 24/33/13 21/35/13
f 27/48/10 20/51/10 17/49/10
f 23/51/14 32/48/14 29/50/14
f 31/33/11 28/36/11 25/30/11
f 34/54/9 37/74/9 38/75/9
f 38/75/9 45/76/9 46/52/9
f 46/52/9 41/77/9 42/53/9
f 42/53/9 33/78/9 34/54/9
f 34/54/9 38/75/9 46/52/9
f 35/44/13 40/41/13 37/43/13
f 43/48/10 36/51/10 33/49/10
f 39/51/14 48/48/14 45/50/14
f 47/41/11 44/44/11 41/38/11
f 50/57/9 53/79/9 54/80/9
f 54/80/9 61/81/9 62/55/9
f 62/55/9 57/82/9 58/56/9
f 58/56/9 49/83/9 50/57/9
f 50/57/9 54/80/9 62/55/9
f 51/44/13 56/41/13 53/43/13
f 59/58/10 52/61/10 49/59/10
f 55/61/14 64/58/14 61/60/14
f 63/41/11 60/44/11 57/38/11
f 66/64/9 69/84/9 70/85/9
f 70/85/9 77/86/9 78/62/9
f 78/62/9 73/87/9 74/63/9
f 74/63/9 65/88/9 66/64/9
f 66/64/9 70/85/9 78/62/9
f 67/36/13 72/33/13 69/35/13
f 75/58/10 68/61/10 65/59/10
f 71/61/14 80/58/14 77/60/14
f 79/33/11 76/36/11 73/30/11
