# Blender 5.1.2
# www.blender.org
mtllib underwater.mtl
o Plane
v -80.000000 -10.999996 -80.000000
v 80.000000 -10.999996 -80.000000
v -80.000000 -11.000004 80.000000
v 80.000000 -11.000004 80.000000
v -80.000000 -1.499997 -80.000000
v 80.000000 -1.499997 -80.000000
v -80.000000 -1.500003 80.000000
v 80.000000 -1.500003 80.000000
v -80.000000 -10.999997 -62.222221
v -80.000000 -10.999998 -44.444443
v -80.000000 -10.999999 -26.666664
v -80.000000 -11.000000 -8.888885
v -80.000000 -11.000000 8.888891
v -80.000000 -11.000001 26.666668
v -80.000000 -11.000002 44.444447
v -80.000000 -11.000003 62.222221
v 80.000000 -11.000003 62.222221
v 80.000000 -11.000002 44.444443
v 80.000000 -11.000001 26.666664
v 80.000000 -11.000000 8.888885
v 80.000000 -11.000000 -8.888891
v 80.000000 -10.999999 -26.666668
v 80.000000 -10.999998 -44.444447
v 80.000000 -10.999997 -62.222221
v -80.000000 -1.499997 -62.222221
v -80.000000 -1.499998 -44.444443
v -80.000000 -1.499999 -26.666664
v -80.000000 -1.500000 -8.888885
v -80.000000 -1.500000 8.888891
v -80.000000 -1.500001 26.666668
v -80.000000 -1.500002 44.444447
v -80.000000 -1.500003 62.222221
v 80.000000 -1.500003 62.222221
v 80.000000 -1.500002 44.444443
v 80.000000 -1.500001 26.666664
v 80.000000 -1.500000 8.888885
v 80.000000 -1.500000 -8.888891
v 80.000000 -1.499999 -26.666668
v 80.000000 -1.499998 -44.444447
v 80.000000 -1.499997 -62.222221
v 62.222221 -10.999996 -80.000000
v 44.444443 -10.999996 -80.000000
v 26.666664 -10.999996 -80.000000
v 8.888885 -10.999996 -80.000000
v -8.888891 -10.999996 -80.000000
v -26.666668 -10.999996 -80.000000
v -44.444447 -10.999996 -80.000000
v -62.222221 -10.999996 -80.000000
v -62.222221 -11.000004 80.000000
v -44.444443 -11.000004 80.000000
v -26.666664 -11.000004 80.000000
v -8.888885 -11.000004 80.000000
v 8.888891 -11.000004 80.000000
v 26.666668 -11.000004 80.000000
v 44.444447 -11.000004 80.000000
v 62.222221 -11.000004 80.000000
v 62.222221 -1.499997 -80.000000
v 44.444443 -1.499997 -80.000000
v 26.666664 -1.499997 -80.000000
v 8.888885 -1.499997 -80.000000
v -8.888891 -1.499997 -80.000000
v -26.666668 -1.499997 -80.000000
v -44.444447 -1.499997 -80.000000
v -62.222221 -1.499997 -80.000000
v -62.222221 -1.500003 80.000000
v -44.444443 -1.500003 80.000000
v -26.666664 -1.500003 80.000000
v -8.888885 -1.500003 80.000000
v 8.888891 -1.500003 80.000000
v 26.666668 -1.500003 80.000000
v 44.444447 -1.500003 80.000000
v 62.222221 -1.500003 80.000000
v 44.444443 -1.499998 -44.444447
v 26.666664 -1.499998 -44.444447
v 8.888885 -1.499998 -44.444447
v -8.888891 -1.499998 -44.444447
v -26.666668 -1.499998 -44.444447
v -44.444447 -1.499998 -44.444447
v 44.444443 -1.499999 -26.666668
v 26.666664 -1.499999 -26.666668
v 8.888885 -1.499999 -26.666668
v -8.888891 -1.499999 -26.666668
v -26.666668 -1.499999 -26.666668
v -44.444447 -1.499999 -26.666666
v 44.444443 -1.500000 -8.888889
v 26.666664 -1.500000 -8.888888
v 8.888885 -1.500000 -8.888887
v -8.888891 -1.500000 -8.888887
v -26.666668 -1.500000 -8.888887
v -44.444447 -1.500000 -8.888886
v 44.444443 -1.500000 8.888887
v 26.666664 -1.500000 8.888888
v 8.888885 -1.500000 8.888889
v -8.888891 -1.500000 8.888889
v -26.666668 -1.500000 8.888889
v -44.444447 -1.500000 8.888890
v 44.444443 -1.500001 26.666664
v 26.666664 -1.500001 26.666664
v 8.888885 -1.500001 26.666664
v -8.888891 -1.500001 26.666664
v -26.666668 -1.500001 26.666664
v -44.444447 -1.500001 26.666666
v 44.444443 -1.500002 44.444443
v 26.666664 -1.500002 44.444443
v 8.888885 -1.500002 44.444443
v -8.888891 -1.500002 44.444443
v -26.666668 -1.500002 44.444443
v -44.444447 -1.500002 44.444443
v 62.222221 -10.999997 -62.222221
v 44.444443 -10.999997 -62.222221
v 26.666664 -10.999997 -62.222221
v 8.888885 -10.999997 -62.222221
v -8.888891 -10.999997 -62.222221
v -26.666668 -10.999997 -62.222221
v -44.444447 -10.999997 -62.222221
v -62.222221 -10.999997 -62.222221
v 62.222221 -10.999998 -44.444447
v 44.444443 0.000002 -44.444447
v 26.666664 0.000002 -44.444447
v 8.888885 0.000002 -44.444447
v -8.888891 0.000002 -44.444447
v -26.666668 0.000002 -44.444447
v -44.444447 0.000002 -44.444447
v -62.222221 -10.999998 -44.444443
v 62.222221 -10.999999 -26.666668
v 44.444443 0.000001 -26.666668
v 26.666664 0.000001 -26.666668
v 8.888885 0.000001 -26.666668
v -8.888891 0.000001 -26.666668
v -26.666668 0.000001 -26.666668
v -44.444447 0.000001 -26.666666
v -62.222221 -10.999999 -26.666664
v 62.222221 -11.000000 -8.888890
v 44.444443 0.000000 -8.888889
v 26.666664 0.000000 -8.888888
v 8.888885 0.000000 -8.888887
v -8.888891 0.000000 -8.888887
v -26.666668 0.000000 -8.888887
v -44.444447 0.000000 -8.888886
v -62.222221 -11.000000 -8.888885
v 62.222221 -11.000000 8.888886
v 44.444443 -0.000000 8.888887
v 26.666664 -0.000000 8.888888
v 8.888885 -0.000000 8.888889
v -8.888891 -0.000000 8.888889
v -26.666668 -0.000000 8.888889
v -44.444447 -0.000000 8.888890
v -62.222221 -11.000000 8.888891
v 62.222221 -11.000001 26.666664
v 44.444443 -0.000001 26.666664
v 26.666664 -0.000001 26.666664
v 8.888885 -0.000001 26.666664
v -8.888891 -0.000001 26.666664
v -26.666668 -0.000001 26.666664
v -44.444447 -0.000001 26.666666
v -62.222221 -11.000001 26.666668
v 62.222221 -11.000002 44.444443
v 44.444443 -0.000002 44.444443
v 26.666664 -0.000002 44.444443
v 8.888885 -0.000002 44.444443
v -8.888891 -0.000002 44.444443
v -26.666668 -0.000002 44.444443
v -44.444447 -0.000002 44.444443
v -62.222221 -11.000002 44.444443
v 62.222221 -11.000003 62.222221
v 44.444443 -11.000003 62.222221
v 26.666664 -11.000003 62.222221
v 8.888885 -11.000003 62.222221
v -8.888891 -11.000003 62.222221
v -26.666668 -11.000003 62.222221
v -44.444447 -11.000003 62.222221
v -62.222221 -11.000003 62.222221
vn -0.0000 1.0000 -0.0000
vn -0.0000 -0.0000 -1.0000
vn -0.0000 -0.0000 1.0000
vn -1.0000 -0.0000 -0.0000
vn 1.0000 -0.0000 -0.0000
vn -0.4656 0.7526 0.4656
vn -0.0000 0.8504 0.5262
vn 0.4656 0.7526 0.4656
vn -0.5262 0.8504 -0.0000
vn 0.5262 0.8504 -0.0000
vn -0.0000 0.8504 -0.5262
vn -0.4656 0.7526 -0.4656
vn 0.4656 0.7526 -0.4656
vt -30.604887 -39.491997
vt -39.491997 -30.604881
vt -30.604885 -30.604883
vt -0.499973 1.499973
vt -0.462474 1.277756
vt -0.499973 1.277756
vt -0.462474 -0.499973
vt -0.499973 -0.277757
vt -0.462474 -0.277757
vt -0.499973 -0.277757
vt -0.499973 1.499973
vt -0.462474 1.277756
vt -0.499973 1.277756
vt -0.499973 -0.499973
vt -0.499973 -0.055540
vt -0.499973 0.166676
vt -0.462474 -0.055540
vt -0.499973 0.388892
vt -0.462474 0.166676
vt -0.499973 0.611108
vt -0.462474 0.388892
vt -0.499973 0.833324
vt -0.462474 0.611108
vt -0.499973 1.055540
vt -0.462474 0.833324
vt -0.462474 1.055540
vt -0.462474 1.499973
vt -0.462474 0.611108
vt -0.462474 0.388892
vt -0.499973 0.611108
vt -0.462474 0.166676
vt -0.499973 0.388892
vt -0.462474 -0.055540
vt -0.499973 0.166676
vt -0.499973 -0.055540
vt -30.604885 31.604891
vt -39.491997 40.492001
vt -30.604885 40.492001
vt -30.604885 22.717779
vt -39.491997 31.604891
vt -30.604885 13.830670
vt -39.491997 22.717781
vt -30.604889 4.943560
vt -39.491997 13.830671
vt -39.491997 -3.943549
vt -39.491997 4.943561
vt -30.604889 -3.943550
vt -39.491997 -12.830660
vt -30.604885 -21.717770
vt -30.604885 -12.830661
vt -39.491997 -21.717770
vt 40.491997 -21.717777
vt 31.604887 -30.604885
vt 31.604889 -21.717775
vt 22.717775 -30.604883
vt 22.717777 -21.717773
vt 13.830667 -21.717773
vt 13.830667 -30.604887
vt 4.943556 -21.717772
vt 4.943556 -30.604887
vt -3.943553 -21.717770
vt -3.943554 -30.604887
vt -12.830664 -21.717770
vt -12.830663 -30.604883
vt -21.717773 -21.717770
vt -21.717775 -30.604885
vt 40.491997 -12.830667
vt 31.604889 -12.830667
vt 22.717777 -12.830666
vt 13.830667 -12.830667
vt 4.943556 -12.830665
vt -3.943553 -12.830664
vt -12.830664 -12.830663
vt -21.717773 -12.830662
vt 31.604889 -3.943556
vt 40.491997 -3.943557
vt 22.717777 -3.943556
vt 13.830667 -3.943555
vt 4.943556 -3.943554
vt -3.943553 -3.943553
vt -12.830666 -3.943552
vt -21.717773 -3.943551
vt 31.604889 4.943554
vt 40.491997 4.943553
vt 22.717777 4.943555
vt 13.830667 4.943556
vt 4.943556 4.943557
vt -3.943553 4.943557
vt -12.830666 4.943559
vt -21.717773 4.943559
vt 31.604891 13.830666
vt 40.492001 13.830664
vt 22.717777 13.830665
vt 13.830670 13.830667
vt 4.943559 13.830667
vt -3.943552 13.830667
vt -12.830663 13.830668
vt -21.717773 13.830669
vt 31.604891 22.717775
vt 40.492001 22.717773
vt 22.717781 22.717775
vt 13.830669 22.717775
vt 4.943559 22.717775
vt -3.943552 22.717775
vt -12.830663 22.717777
vt -21.717773 22.717779
vt 31.604889 31.604885
vt 40.492001 31.604885
vt 22.717779 31.604887
vt 13.830669 31.604889
vt 4.943559 31.604889
vt -3.943552 31.604889
vt -12.830663 31.604891
vt -21.717773 31.604891
vt 31.604889 40.491997
vt 40.492001 40.491997
vt 22.717779 40.491997
vt 13.830669 40.491997
vt 4.943559 40.491997
vt -3.943552 40.491997
vt -12.830663 40.492001
vt -21.717773 40.492001
vt -0.462474 1.277756
vt -0.462474 1.499973
vt -0.462474 1.055540
vt -0.499973 1.055540
vt -0.499973 0.833324
vt -0.499973 0.611108
vt -0.499973 0.388892
vt -0.499973 0.166676
vt -0.499973 -0.055540
vt -0.499973 -0.499973
vt -0.462474 -0.055540
vt -0.499973 0.388892
vt -0.462474 0.166676
vt -0.499973 0.611108
vt -0.462474 0.388892
vt -0.499973 0.833324
vt -0.462474 0.611108
vt -0.499973 1.055540
vt -0.462474 0.833324
vt -0.462474 1.055540
vt 40.492001 -39.491997
vt 40.491997 -30.604887
vt 31.604889 -39.491997
vt 22.717777 -39.491997
vt 13.830667 -39.491997
vt 4.943556 -39.491997
vt -3.943555 -39.491997
vt -12.830666 -39.491997
vt -21.717777 -39.491997
vt -39.491997 -39.491993
s 0
f 56/1/1 17/2/1 165/3/1
f 3/4/2 65/5/2 49/6/2
f 2/7/3 57/8/3 41/9/3
f 4/7/4 33/10/4 17/9/4
f 1/11/5 25/12/5 9/13/5
f 16/10/5 7/7/5 3/14/5
f 15/15/5 32/9/5 16/10/5
f 14/16/5 31/17/5 15/15/5
f 13/18/5 30/19/5 14/16/5
f 12/20/5 29/21/5 13/18/5
f 11/22/5 28/23/5 12/20/5
f 10/24/5 27/25/5 11/22/5
f 9/13/5 26/26/5 10/24/5
f 24/12/4 6/11/4 2/27/4
f 24/12/4 39/24/4 40/13/4
f 22/25/4 39/24/4 23/26/4
f 21/28/4 38/22/4 22/25/4
f 20/29/4 37/30/4 21/28/4
f 19/31/4 36/32/4 20/29/4
f 18/33/4 35/34/4 19/31/4
f 17/9/4 34/35/4 18/33/4
f 109/36/1 2/37/1 41/38/1
f 117/39/1 24/40/1 109/36/1
f 125/41/1 23/42/1 117/39/1
f 133/43/1 22/44/1 125/41/1
f 133/43/1 20/45/1 21/46/1
f 141/47/1 19/48/1 20/45/1
f 157/49/1 19/48/1 149/50/1
f 165/3/1 18/51/1 157/49/1
f 15/52/1 172/53/1 164/54/1
f 164/54/6 171/55/6 163/56/6
f 171/55/7 162/57/7 163/56/7
f 170/58/7 161/59/7 162/57/7
f 169/60/7 160/61/7 161/59/7
f 168/62/7 159/63/7 160/61/7
f 167/64/7 158/65/7 159/63/7
f 166/66/8 157/49/8 158/65/8
f 14/67/1 164/54/1 156/68/1
f 156/68/9 163/56/9 155/69/9
f 163/56/1 154/70/1 155/69/1
f 162/57/1 153/71/1 154/70/1
f 161/59/1 152/72/1 153/71/1
f 160/61/1 151/73/1 152/72/1
f 159/63/1 150/74/1 151/73/1
f 158/65/10 149/50/10 150/74/10
f 14/67/1 148/75/1 13/76/1
f 156/68/9 147/77/9 148/75/9
f 155/69/1 146/78/1 147/77/1
f 154/70/1 145/79/1 146/78/1
f 153/71/1 144/80/1 145/79/1
f 152/72/1 143/81/1 144/80/1
f 151/73/1 142/82/1 143/81/1
f 142/82/10 149/50/10 141/47/10
f 13/76/1 140/83/1 12/84/1
f 148/75/9 139/85/9 140/83/9
f 139/85/1 146/78/1 138/86/1
f 146/78/1 137/87/1 138/86/1
f 145/79/1 136/88/1 137/87/1
f 136/88/1 143/81/1 135/89/1
f 135/89/1 142/82/1 134/90/1
f 134/90/10 141/47/10 133/43/10
f 12/84/1 132/91/1 11/92/1
f 140/83/9 131/93/9 132/91/9
f 139/85/1 130/94/1 131/93/1
f 138/86/1 129/95/1 130/94/1
f 137/87/1 128/96/1 129/95/1
f 128/96/1 135/89/1 127/97/1
f 135/89/1 126/98/1 127/97/1
f 134/90/10 125/41/10 126/98/10
f 11/92/1 124/99/1 10/100/1
f 124/99/9 131/93/9 123/101/9
f 123/101/1 130/94/1 122/102/1
f 130/94/1 121/103/1 122/102/1
f 129/95/1 120/104/1 121/103/1
f 128/96/1 119/105/1 120/104/1
f 127/97/1 118/106/1 119/105/1
f 126/98/10 117/39/10 118/106/10
f 10/100/1 116/107/1 9/108/1
f 124/99/1 115/109/1 116/107/1
f 123/101/11 114/110/11 115/109/11
f 122/102/11 113/111/11 114/110/11
f 121/103/11 112/112/11 113/111/11
f 120/104/11 111/113/11 112/112/11
f 119/105/11 110/114/11 111/113/11
f 110/114/1 117/39/1 109/36/1
f 9/108/1 48/115/1 1/116/1
f 116/107/1 47/117/1 48/115/1
f 115/109/1 46/118/1 47/117/1
f 114/110/1 45/119/1 46/118/1
f 113/111/1 44/120/1 45/119/1
f 112/112/1 43/121/1 44/120/1
f 111/113/1 42/122/1 43/121/1
f 110/114/1 41/38/1 42/122/1
f 108/56/1 101/70/1 102/69/1
f 107/57/1 100/71/1 101/70/1
f 106/59/1 99/72/1 100/71/1
f 105/61/1 98/73/1 99/72/1
f 104/63/1 97/74/1 98/73/1
f 102/69/1 95/78/1 96/77/1
f 101/70/1 94/79/1 95/78/1
f 100/71/1 93/80/1 94/79/1
f 99/72/1 92/81/1 93/80/1
f 98/73/1 91/82/1 92/81/1
f 90/85/1 95/78/1 89/86/1
f 95/78/1 88/87/1 89/86/1
f 94/79/1 87/88/1 88/87/1
f 87/88/1 92/81/1 86/89/1
f 86/89/1 91/82/1 85/90/1
f 90/85/1 83/94/1 84/93/1
f 89/86/1 82/95/1 83/94/1
f 88/87/1 81/96/1 82/95/1
f 81/96/1 86/89/1 80/97/1
f 86/89/1 79/98/1 80/97/1
f 78/101/1 83/94/1 77/102/1
f 83/94/1 76/103/1 77/102/1
f 82/95/1 75/104/1 76/103/1
f 81/96/1 74/105/1 75/104/1
f 80/97/1 73/106/1 74/105/1
f 48/123/3 5/4/3 1/124/3
f 47/125/3 64/6/3 48/123/3
f 46/25/3 63/126/3 47/125/3
f 45/28/3 62/127/3 46/25/3
f 44/29/3 61/128/3 45/28/3
f 43/31/3 60/129/3 44/29/3
f 42/33/3 59/130/3 43/31/3
f 41/9/3 58/131/3 42/33/3
f 56/8/2 8/7/2 4/132/2
f 55/15/2 72/9/2 56/8/2
f 54/16/2 71/133/2 55/15/2
f 53/134/2 70/135/2 54/16/2
f 52/136/2 69/137/2 53/134/2
f 51/138/2 68/139/2 52/136/2
f 50/140/2 67/141/2 51/138/2
f 49/6/2 66/142/2 50/140/2
f 3/143/1 172/53/1 16/144/1
f 49/145/1 171/55/1 172/53/1
f 50/146/1 170/58/1 171/55/1
f 51/147/1 169/60/1 170/58/1
f 52/148/1 168/62/1 169/60/1
f 53/149/1 167/64/1 168/62/1
f 54/150/1 166/66/1 167/64/1
f 55/151/1 165/3/1 166/66/1
f 56/1/1 4/152/1 17/2/1
f 3/4/2 7/124/2 65/5/2
f 2/7/3 6/132/3 57/8/3
f 4/7/4 8/14/4 33/10/4
f 1/11/5 5/27/5 25/12/5
f 16/10/5 32/9/5 7/7/5
f 15/15/5 31/17/5 32/9/5
f 14/16/5 30/19/5 31/17/5
f 13/18/5 29/21/5 30/19/5
f 12/20/5 28/23/5 29/21/5
f 11/22/5 27/25/5 28/23/5
f 10/24/5 26/26/5 27/25/5
f 9/13/5 25/12/5 26/26/5
f 24/12/4 40/13/4 6/11/4
f 24/12/4 23/26/4 39/24/4
f 22/25/4 38/22/4 39/24/4
f 21/28/4 37/30/4 38/22/4
f 20/29/4 36/32/4 37/30/4
f 19/31/4 35/34/4 36/32/4
f 18/33/4 34/35/4 35/34/4
f 17/9/4 33/10/4 34/35/4
f 109/36/1 24/40/1 2/37/1
f 117/39/1 23/42/1 24/40/1
f 125/41/1 22/44/1 23/42/1
f 133/43/1 21/46/1 22/44/1
f 133/43/1 141/47/1 20/45/1
f 141/47/1 149/50/1 19/48/1
f 157/49/1 18/51/1 19/48/1
f 165/3/1 17/2/1 18/51/1
f 15/52/1 16/144/1 172/53/1
f 164/54/1 172/53/1 171/55/1
f 171/55/7 170/58/7 162/57/7
f 170/58/7 169/60/7 161/59/7
f 169/60/7 168/62/7 160/61/7
f 168/62/7 167/64/7 159/63/7
f 167/64/7 166/66/7 158/65/7
f 166/66/1 165/3/1 157/49/1
f 14/67/1 15/52/1 164/54/1
f 156/68/9 164/54/9 163/56/9
f 163/56/1 162/57/1 154/70/1
f 162/57/1 161/59/1 153/71/1
f 161/59/1 160/61/1 152/72/1
f 160/61/1 159/63/1 151/73/1
f 159/63/1 158/65/1 150/74/1
f 158/65/10 157/49/10 149/50/10
f 14/67/1 156/68/1 148/75/1
f 156/68/9 155/69/9 147/77/9
f 155/69/1 154/70/1 146/78/1
f 154/70/1 153/71/1 145/79/1
f 153/71/1 152/72/1 144/80/1
f 152/72/1 151/73/1 143/81/1
f 151/73/1 150/74/1 142/82/1
f 142/82/10 150/74/10 149/50/10
f 13/76/1 148/75/1 140/83/1
f 148/75/9 147/77/9 139/85/9
f 139/85/1 147/77/1 146/78/1
f 146/78/1 145/79/1 137/87/1
f 145/79/1 144/80/1 136/88/1
f 136/88/1 144/80/1 143/81/1
f 135/89/1 143/81/1 142/82/1
f 134/90/10 142/82/10 141/47/10
f 12/84/1 140/83/1 132/91/1
f 140/83/9 139/85/9 131/93/9
f 139/85/1 138/86/1 130/94/1
f 138/86/1 137/87/1 129/95/1
f 137/87/1 136/88/1 128/96/1
f 128/96/1 136/88/1 135/89/1
f 135/89/1 134/90/1 126/98/1
f 134/90/10 133/43/10 125/41/10
f 11/92/1 132/91/1 124/99/1
f 124/99/9 132/91/9 131/93/9
f 123/101/1 131/93/1 130/94/1
f 130/94/1 129/95/1 121/103/1
f 129/95/1 128/96/1 120/104/1
f 128/96/1 127/97/1 119/105/1
f 127/97/1 126/98/1 118/106/1
f 126/98/10 125/41/10 117/39/10
f 10/100/1 124/99/1 116/107/1
f 124/99/12 123/101/12 115/109/12
f 123/101/11 122/102/11 114/110/11
f 122/102/11 121/103/11 113/111/11
f 121/103/11 120/104/11 112/112/11
f 120/104/11 119/105/11 111/113/11
f 119/105/11 118/106/11 110/114/11
f 110/114/13 118/106/13 117/39/13
f 9/108/1 116/107/1 48/115/1
f 116/107/1 115/109/1 47/117/1
f 115/109/1 114/110/1 46/118/1
f 114/110/1 113/111/1 45/119/1
f 113/111/1 112/112/1 44/120/1
f 112/112/1 111/113/1 43/121/1
f 111/113/1 110/114/1 42/122/1
f 110/114/1 109/36/1 41/38/1
f 108/56/1 107/57/1 101/70/1
f 107/57/1 106/59/1 100/71/1
f 106/59/1 105/61/1 99/72/1
f 105/61/1 104/63/1 98/73/1
f 104/63/1 103/65/1 97/74/1
f 102/69/1 101/70/1 95/78/1
f 101/70/1 100/71/1 94/79/1
f 100/71/1 99/72/1 93/80/1
f 99/72/1 98/73/1 92/81/1
f 98/73/1 97/74/1 91/82/1
f 90/85/1 96/77/1 95/78/1
f 95/78/1 94/79/1 88/87/1
f 94/79/1 93/80/1 87/88/1
f 87/88/1 93/80/1 92/81/1
f 86/89/1 92/81/1 91/82/1
f 90/85/1 89/86/1 83/94/1
f 89/86/1 88/87/1 82/95/1
f 88/87/1 87/88/1 81/96/1
f 81/96/1 87/88/1 86/89/1
f 86/89/1 85/90/1 79/98/1
f 78/101/1 84/93/1 83/94/1
f 83/94/1 82/95/1 76/103/1
f 82/95/1 81/96/1 75/104/1
f 81/96/1 80/97/1 74/105/1
f 80/97/1 79/98/1 73/106/1
f 48/123/3 64/6/3 5/4/3
f 47/125/3 63/126/3 64/6/3
f 46/25/3 62/127/3 63/126/3
f 45/28/3 61/128/3 62/127/3
f 44/29/3 60/129/3 61/128/3
f 43/31/3 59/130/3 60/129/3
f 42/33/3 58/131/3 59/130/3
f 41/9/3 57/8/3 58/131/3
f 56/8/2 72/9/2 8/7/2
f 55/15/2 71/133/2 72/9/2
f 54/16/2 70/135/2 71/133/2
f 53/134/2 69/137/2 70/135/2
f 52/136/2 68/139/2 69/137/2
f 51/138/2 67/141/2 68/139/2
f 50/140/2 66/142/2 67/141/2
f 49/6/2 65/5/2 66/142/2
f 3/143/1 49/145/1 172/53/1
f 49/145/1 50/146/1 171/55/1
f 50/146/1 51/147/1 170/58/1
f 51/147/1 52/148/1 169/60/1
f 52/148/1 53/149/1 168/62/1
f 53/149/1 54/150/1 167/64/1
f 54/150/1 55/151/1 166/66/1
f 55/151/1 56/1/1 165/3/1
