# Blender 5.1.2
# www.blender.org
mtllib wall.mtl
o Plane
v -4.000000 0.000000 0.000000
v 4.000000 0.000000 0.000000
v -4.000000 3.000000 0.000000
v 4.000000 3.000000 0.000000
v -4.000000 0.000000 0.000000
v 4.000000 0.000000 0.000000
v -4.000000 3.000000 0.000000
v 4.000000 3.000000 0.000000
v -4.000000 0.000000 0.000000
v 4.000000 0.000000 0.000000
v -4.000000 3.000000 0.000000
v 4.000000 3.000000 0.000000
v -4.000000 0.000000 0.000000
v 4.000000 0.000000 0.000000
v -4.000000 3.000000 0.000000
v 4.000000 3.000000 0.000000
v -4.000000 0.000000 0.000000
v 4.000000 0.000000 0.000000
v -4.000000 3.000000 0.000000
v 4.000000 3.000000 0.000000
v -4.000000 0.000000 0.000000
v 4.000000 0.000000 0.000000
v -4.000000 3.000000 0.000000
v 4.000000 3.000000 0.000000
v -4.000000 0.000000 0.000000
v 4.000000 0.000000 0.000000
v -4.000000 3.000000 0.000000
v 4.000000 3.000000 0.000000
v -4.000000 0.000000 0.000000
v 4.000000 0.000000 0.000000
v -4.000000 3.000000 0.000000
v 4.000000 3.000000 0.000000
v -4.000000 0.000000 0.000000
v 4.000000 0.000000 0.000000
v -4.000000 3.000000 0.000000
v 4.000000 3.000000 0.000000
v -4.000000 0.000000 0.000000
v 4.000000 0.000000 0.000000
v -4.000000 3.000000 0.000000
v 4.000000 3.000000 0.000000
v -4.000000 0.000000 0.000000
v 4.000000 0.000000 0.000000
v -4.000000 3.000000 0.000000
v 4.000000 3.000000 0.000000
v -4.000000 0.000000 0.000000
v 4.000000 0.000000 0.000000
v -4.000000 3.000000 0.000000
v 4.000000 3.000000 0.000000
v -4.000000 0.000000 0.000000
v 4.000000 0.000000 0.000000
v -4.000000 3.000000 0.000000
v 4.000000 3.000000 0.000000
v -4.000000 0.000000 0.000000
v 4.000000 0.000000 0.000000
v -4.000000 3.000000 0.000000
v 4.000000 3.000000 0.000000
v -4.000000 0.000000 0.000000
v 4.000000 0.000000 0.000000
v -4.000000 3.000000 0.000000
v 4.000000 3.000000 0.000000
v -4.000000 0.000000 0.000000
v 4.000000 0.000000 0.000000
v -4.000000 3.000000 0.000000
v 4.000000 3.000000 0.000000
v -4.000000 0.000000 0.000000
v 4.000000 0.000000 0.000000
v -4.000000 3.000000 0.000000
v 4.000000 3.000000 0.000000
v -4.000000 0.000000 0.000000
v 4.000000 0.000000 0.000000
v -4.000000 3.000000 0.000000
v 4.000000 3.000000 0.000000
v -4.000000 0.000000 0.000000
v 4.000000 0.000000 0.000000
v -4.000000 3.000000 0.000000
v 4.000000 3.000000 0.000000
v -4.000000 0.000000 0.000000
v 4.000000 0.000000 0.000000
v -4.000000 3.000000 0.000000
v 4.000000 3.000000 0.000000
v -4.000000 0.000000 0.000000
v 4.000000 0.000000 0.000000
v -4.000000 3.000000 0.000000
v 4.000000 3.000000 0.000000
v -4.000000 0.000000 0.000000
v 4.000000 0.000000 0.000000
v -4.000000 3.000000 0.000000
v 4.000000 3.000000 0.000000
v -4.000000 0.000000 0.000000
v 4.000000 0.000000 0.000000
v -4.000000 3.000000 0.000000
v 4.000000 3.000000 0.000000
v -4.000000 0.000000 0.000000
v 4.000000 0.000000 0.000000
v -4.000000 3.000000 0.000000
v 4.000000 3.000000 0.000000
v -4.000000 0.000000 0.000000
v 4.000000 0.000000 0.000000
v -4.000000 3.000000 0.000000
v 4.000000 3.000000 0.000000
v -4.000000 0.000000 0.000000
v 4.000000 0.000000 0.000000
v -4.000000 3.000000 0.000000
v 4.000000 3.000000 0.000000
v -4.000000 0.000000 0.000000
v 4.000000 0.000000 0.000000
v -4.000000 3.000000 0.000000
v 4.000000 3.000000 0.000000
v -4.000000 0.000000 0.000000
v 4.000000 0.000000 0.000000
v -4.000000 3.000000 0.000000
v 4.000000 3.000000 0.000000
v -4.000000 0.000000 0.000000
v 4.000000 0.000000 0.000000
v -4.000000 3.000000 0.000000
v 4.000000 3.000000 0.000000
v -4.000000 0.000000 0.000000
v 4.000000 0.000000 0.000000
v -4.000000 3.000000 0.000000
v 4.000000 3.000000 0.000000
v -4.000000 0.000000 0.000000
v 4.000000 0.000000 0.000000
v -4.000000 3.000000 0.000000
v 4.000000 3.000000 0.000000
v -4.000000 0.000000 0.000000
v 4.000000 0.000000 0.000000
v -4.000000 3.000000 0.000000
v 4.000000 3.000000 0.000000
v -4.000000 0.000000 0.000000
v 4.000000 0.000000 0.000000
v -4.000000 3.000000 0.000000
v 4.000000 3.000000 0.000000
v -4.000000 0.000000 0.000000
v 4.000000 0.000000 0.000000
v -4.000000 3.000000 0.000000
v 4.000000 3.000000 0.000000
v -4.000000 0.000000 0.000000
v 4.000000 0.000000 0.000000
v -4.000000 3.000000 0.000000
v 4.000000 3.000000 0.000000
v -4.000000 0.000000 0.000000
v 4.000000 0.000000 0.000000
v -4.000000 3.000000 0.000000
v 4.000000 3.000000 0.000000
v -4.000000 0.000000 0.000000
v 4.000000 0.000000 0.000000
v -4.000000 3.000000 0.000000
v 4.000000 3.000000 0.000000
v -4.000000 0.000000 0.000000
v 4.000000 0.000000 0.000000
v -4.000000 3.000000 0.000000
v 4.000000 3.000000 0.000000
v -4.000000 0.000000 0.000000
v 4.000000 0.000000 0.000000
v -4.000000 3.000000 0.000000
v 4.000000 3.000000 0.000000
v -4.000000 0.000000 0.000000
v 4.000000 0.000000 0.000000
v -4.000000 3.000000 0.000000
v 4.000000 3.000000 0.000000
v -4.000000 0.000000 0.000000
v 4.000000 0.000000 0.000000
v -4.000000 3.000000 0.000000
v 4.000000 3.000000 0.000000
v -4.000000 0.000000 0.000000
v 4.000000 0.000000 0.000000
v -4.000000 3.000000 0.000000
v 4.000000 3.000000 0.000000
v -4.000000 0.000000 0.000000
v 4.000000 0.000000 0.000000
v -4.000000 3.000000 0.000000
v 4.000000 3.000000 0.000000
v -4.000000 0.000000 0.000000
v 4.000000 0.000000 0.000000
v -4.000000 3.000000 0.000000
v 4.000000 3.000000 0.000000
v -4.000000 0.000000 0.000000
v 4.000000 0.000000 0.000000
v -4.000000 3.000000 0.000000
v 4.000000 3.000000 0.000000
v -4.000000 0.000000 0.000000
v 4.000000 0.000000 0.000000
v -4.000000 3.000000 0.000000
v 4.000000 3.000000 0.000000
v -4.000000 0.000000 0.000000
v 4.000000 0.000000 0.000000
v -4.000000 3.000000 0.000000
v 4.000000 3.000000 0.000000
v -4.000000 0.000000 0.000000
v 4.000000 0.000000 0.000000
v -4.000000 3.000000 0.000000
v 4.000000 3.000000 0.000000
v 4.000000 0.000000 -0.000000
v -4.000000 0.000000 0.000000
v 4.000000 3.000000 -0.000000
v -4.000000 3.000000 0.000000
vn -0.0000 -0.0000 1.0000
vn -0.0000 1.0000 -0.0000
vn -0.0000 -0.0000 -1.0000
vn -0.0000 -1.0000 -0.0000
vt 0.002600 0.377477
vt 1.002477 0.002523
vt 1.002477 0.377477
vt 0.002600 0.002523
s 0
f 2/1/1 3/2/1 1/3/1
f 6/1/2 12/4/2 10/1/2
f 1/3/2 6/1/2 5/3/2
f 2/1/2 8/4/2 6/1/2
f 3/2/2 5/3/2 7/2/2
f 4/4/2 7/2/2 8/4/2
f 11/2/2 13/3/2 15/2/2
f 7/2/2 9/3/2 11/2/2
f 8/4/2 11/2/2 12/4/2
f 5/3/2 10/1/2 9/3/2
f 16/4/2 19/2/2 20/4/2
f 12/4/2 15/2/2 16/4/2
f 9/3/2 14/1/2 13/3/2
f 10/1/2 16/4/2 14/1/2
f 18/1/2 24/4/2 22/1/2
f 13/3/2 18/1/2 17/3/2
f 14/1/2 20/4/2 18/1/2
f 15/2/2 17/3/2 19/2/2
f 24/4/2 27/2/2 28/4/2
f 19/2/2 21/3/2 23/2/2
f 20/4/2 23/2/2 24/4/2
f 17/3/2 22/1/2 21/3/2
f 25/3/2 30/1/2 29/3/2
f 21/3/2 26/1/2 25/3/2
f 22/1/2 28/4/2 26/1/2
f 23/2/2 25/3/2 27/2/2
f 30/1/2 36/4/2 34/1/2
f 26/1/2 32/4/2 30/1/2
f 27/2/2 29/3/2 31/2/2
f 28/4/2 31/2/2 32/4/2
f 36/4/2 39/2/2 40/4/2
f 31/2/2 33/3/2 35/2/2
f 32/4/2 35/2/2 36/4/2
f 29/3/2 34/1/2 33/3/2
f 38/1/2 44/4/2 42/1/2
f 33/3/2 38/1/2 37/3/2
f 34/1/2 40/4/2 38/1/2
f 35/2/2 37/3/2 39/2/2
f 42/1/2 48/4/2 46/1/2
f 39/2/2 41/3/2 43/2/2
f 40/4/2 43/2/2 44/4/2
f 37/3/2 42/1/2 41/3/2
f 48/4/2 51/2/2 52/4/2
f 43/2/2 45/3/2 47/2/2
f 44/4/2 47/2/2 48/4/2
f 41/3/2 46/1/2 45/3/2
f 50/1/2 56/4/2 54/1/2
f 45/3/2 50/1/2 49/3/2
f 46/1/2 52/4/2 50/1/2
f 47/2/2 49/3/2 51/2/2
f 55/2/2 57/3/2 59/2/2
f 51/2/2 53/3/2 55/2/2
f 52/4/2 55/2/2 56/4/2
f 49/3/2 54/1/2 53/3/2
f 60/4/2 63/2/2 64/4/2
f 56/4/2 59/2/2 60/4/2
f 53/3/2 58/1/2 57/3/2
f 54/1/2 60/4/2 58/1/2
f 62/1/2 68/4/2 66/1/2
f 57/3/2 62/1/2 61/3/2
f 58/1/2 64/4/2 62/1/2
f 59/2/2 61/3/2 63/2/2
f 68/4/2 71/2/2 72/4/2
f 63/2/2 65/3/2 67/2/2
f 64/4/2 67/2/2 68/4/2
f 61/3/2 66/1/2 65/3/2
f 69/3/2 74/1/2 73/3/2
f 65/3/2 70/1/2 69/3/2
f 66/1/2 72/4/2 70/1/2
f 67/2/2 69/3/2 71/2/2
f 74/1/2 80/4/2 78/1/2
f 70/1/2 76/4/2 74/1/2
f 71/2/2 73/3/2 75/2/2
f 72/4/2 75/2/2 76/4/2
f 80/4/2 83/2/2 84/4/2
f 75/2/2 77/3/2 79/2/2
f 76/4/2 79/2/2 80/4/2
f 73/3/2 78/1/2 77/3/2
f 82/1/2 88/4/2 86/1/2
f 77/3/2 82/1/2 81/3/2
f 78/1/2 84/4/2 82/1/2
f 79/2/2 81/3/2 83/2/2
f 86/1/2 92/4/2 90/1/2
f 83/2/2 85/3/2 87/2/2
f 84/4/2 87/2/2 88/4/2
f 81/3/2 86/1/2 85/3/2
f 92/4/2 95/2/2 96/4/2
f 87/2/2 89/3/2 91/2/2
f 88/4/2 91/2/2 92/4/2
f 85/3/2 90/1/2 89/3/2
f 94/1/2 100/4/2 98/1/2
f 89/3/2 94/1/2 93/3/2
f 90/1/2 96/4/2 94/1/2
f 91/2/2 93/3/2 95/2/2
f 99/2/2 101/3/2 103/2/2
f 95/2/2 97/3/2 99/2/2
f 96/4/2 99/2/2 100/4/2
f 93/3/2 98/1/2 97/3/2
f 104/4/2 107/2/2 108/4/2
f 100/4/2 103/2/2 104/4/2
f 97/3/2 102/1/2 101/3/2
f 98/1/2 104/4/2 102/1/2
f 106/1/2 112/4/2 110/1/2
f 101/3/2 106/1/2 105/3/2
f 102/1/2 108/4/2 106/1/2
f 103/2/2 105/3/2 107/2/2
f 112/4/2 115/2/2 116/4/2
f 107/2/2 109/3/2 111/2/2
f 108/4/2 111/2/2 112/4/2
f 105/3/2 110/1/2 109/3/2
f 113/3/2 118/1/2 117/3/2
f 109/3/2 114/1/2 113/3/2
f 110/1/2 116/4/2 114/1/2
f 111/2/2 113/3/2 115/2/2
f 118/1/2 124/4/2 122/1/2
f 114/1/2 120/4/2 118/1/2
f 115/2/2 117/3/2 119/2/2
f 116/4/2 119/2/2 120/4/2
f 124/4/2 127/2/2 128/4/2
f 119/2/2 121/3/2 123/2/2
f 120/4/2 123/2/2 124/4/2
f 117/3/2 122/1/2 121/3/2
f 126/1/2 132/4/2 130/1/2
f 121/3/2 126/1/2 125/3/2
f 122/1/2 128/4/2 126/1/2
f 123/2/2 125/3/2 127/2/2
f 130/1/2 136/4/2 134/1/2
f 127/2/2 129/3/2 131/2/2
f 128/4/2 131/2/2 132/4/2
f 125/3/2 130/1/2 129/3/2
f 136/4/2 139/2/2 140/4/2
f 131/2/2 133/3/2 135/2/2
f 132/4/2 135/2/2 136/4/2
f 129/3/2 134/1/2 133/3/2
f 138/1/2 144/4/2 142/1/2
f 133/3/2 138/1/2 137/3/2
f 134/1/2 140/4/2 138/1/2
f 135/2/2 137/3/2 139/2/2
f 143/2/2 145/3/2 147/2/2
f 139/2/2 141/3/2 143/2/2
f 140/4/2 143/2/2 144/4/2
f 137/3/2 142/1/2 141/3/2
f 148/4/2 151/2/2 152/4/2
f 144/4/2 147/2/2 148/4/2
f 141/3/2 146/1/2 145/3/2
f 142/1/2 148/4/2 146/1/2
f 150/1/2 156/4/2 154/1/2
f 145/3/2 150/1/2 149/3/2
f 146/1/2 152/4/2 150/1/2
f 147/2/2 149/3/2 151/2/2
f 156/4/2 159/2/2 160/4/2
f 151/2/2 153/3/2 155/2/2
f 152/4/2 155/2/2 156/4/2
f 149/3/2 154/1/2 153/3/2
f 157/3/2 162/1/2 161/3/2
f 153/3/2 158/1/2 157/3/2
f 154/1/2 160/4/2 158/1/2
f 155/2/2 157/3/2 159/2/2
f 162/1/2 168/4/2 166/1/2
f 158/1/2 164/4/2 162/1/2
f 159/2/2 161/3/2 163/2/2
f 160/4/2 163/2/2 164/4/2
f 168/4/2 171/2/2 172/4/2
f 163/2/2 165/3/2 167/2/2
f 164/4/2 167/2/2 168/4/2
f 161/3/2 166/1/2 165/3/2
f 170/1/2 176/4/2 174/1/2
f 165/3/2 170/1/2 169/3/2
f 166/1/2 172/4/2 170/1/2
f 167/2/2 169/3/2 171/2/2
f 174/1/2 180/4/2 178/1/2
f 171/2/2 173/3/2 175/2/2
f 172/4/2 175/2/2 176/4/2
f 169/3/2 174/1/2 173/3/2
f 180/4/2 183/2/2 184/4/2
f 175/2/2 177/3/2 179/2/2
f 176/4/2 179/2/2 180/4/2
f 173/3/2 178/1/2 177/3/2
f 182/1/2 188/4/2 186/1/2
f 177/3/2 182/1/2 181/3/2
f 178/1/2 184/4/2 182/1/2
f 179/2/2 181/3/2 183/2/2
f 187/2/2 189/3/2 191/2/2
f 183/2/2 185/3/2 187/2/2
f 184/4/2 187/2/2 188/4/2
f 181/3/2 186/1/2 185/3/2
f 192/4/2 195/2/2 196/4/2
f 188/4/2 191/2/2 192/4/2
f 185/3/2 190/1/2 189/3/2
f 186/1/2 192/4/2 190/1/2
f 194/1/3 195/2/3 193/3/3
f 189/3/2 194/1/2 193/3/2
f 192/4/1 194/1/1 190/1/1
f 189/3/1 195/2/1 191/2/1
f 2/1/1 4/4/1 3/2/1
f 6/1/2 8/4/2 12/4/2
f 1/3/2 2/1/2 6/1/2
f 2/1/2 4/4/2 8/4/2
f 3/2/2 1/3/2 5/3/2
f 4/4/2 3/2/2 7/2/2
f 11/2/2 9/3/2 13/3/2
f 7/2/2 5/3/2 9/3/2
f 8/4/2 7/2/2 11/2/2
f 5/3/2 6/1/2 10/1/2
f 16/4/2 15/2/2 19/2/2
f 12/4/2 11/2/2 15/2/2
f 9/3/2 10/1/2 14/1/2
f 10/1/2 12/4/2 16/4/2
f 18/1/2 20/4/2 24/4/2
f 13/3/2 14/1/2 18/1/2
f 14/1/2 16/4/2 20/4/2
f 15/2/2 13/3/2 17/3/2
f 24/4/2 23/2/2 27/2/2
f 19/2/2 17/3/2 21/3/2
f 20/4/2 19/2/2 23/2/2
f 17/3/2 18/1/2 22/1/2
f 25/3/2 26/1/2 30/1/2
f 21/3/2 22/1/2 26/1/2
f 22/1/2 24/4/2 28/4/2
f 23/2/2 21/3/2 25/3/2
f 30/1/2 32/4/2 36/4/2
f 26/1/2 28/4/2 32/4/2
f 27/2/2 25/3/2 29/3/2
f 28/4/2 27/2/2 31/2/2
f 36/4/2 35/2/2 39/2/2
f 31/2/2 29/3/2 33/3/2
f 32/4/2 31/2/2 35/2/2
f 29/3/2 30/1/2 34/1/2
f 38/1/2 40/4/2 44/4/2
f 33/3/2 34/1/2 38/1/2
f 34/1/2 36/4/2 40/4/2
f 35/2/2 33/3/2 37/3/2
f 42/1/2 44/4/2 48/4/2
f 39/2/2 37/3/2 41/3/2
f 40/4/2 39/2/2 43/2/2
f 37/3/2 38/1/2 42/1/2
f 48/4/2 47/2/2 51/2/2
f 43/2/2 41/3/2 45/3/2
f 44/4/2 43/2/2 47/2/2
f 41/3/2 42/1/2 46/1/2
f 50/1/2 52/4/2 56/4/2
f 45/3/2 46/1/2 50/1/2
f 46/1/2 48/4/2 52/4/2
f 47/2/2 45/3/2 49/3/2
f 55/2/2 53/3/2 57/3/2
f 51/2/2 49/3/2 53/3/2
f 52/4/2 51/2/2 55/2/2
f 49/3/2 50/1/2 54/1/2
f 60/4/2 59/2/2 63/2/2
f 56/4/2 55/2/2 59/2/2
f 53/3/2 54/1/2 58/1/2
f 54/1/2 56/4/2 60/4/2
f 62/1/2 64/4/2 68/4/2
f 57/3/2 58/1/2 62/1/2
f 58/1/2 60/4/2 64/4/2
f 59/2/2 57/3/2 61/3/2
f 68/4/2 67/2/2 71/2/2
f 63/2/2 61/3/2 65/3/2
f 64/4/2 63/2/2 67/2/2
f 61/3/2 62/1/2 66/1/2
f 69/3/2 70/1/2 74/1/2
f 65/3/2 66/1/2 70/1/2
f 66/1/2 68/4/2 72/4/2
f 67/2/2 65/3/2 69/3/2
f 74/1/2 76/4/2 80/4/2
f 70/1/2 72/4/2 76/4/2
f 71/2/2 69/3/2 73/3/2
f 72/4/2 71/2/2 75/2/2
f 80/4/2 79/2/2 83/2/2
f 75/2/2 73/3/2 77/3/2
f 76/4/2 75/2/2 79/2/2
f 73/3/2 74/1/2 78/1/2
f 82/1/2 84/4/2 88/4/2
f 77/3/2 78/1/2 82/1/2
f 78/1/2 80/4/2 84/4/2
f 79/2/2 77/3/2 81/3/2
f 86/1/2 88/4/2 92/4/2
f 83/2/2 81/3/2 85/3/2
f 84/4/2 83/2/2 87/2/2
f 81/3/2 82/1/2 86/1/2
f 92/4/2 91/2/2 95/2/2
f 87/2/2 85/3/2 89/3/2
f 88/4/2 87/2/2 91/2/2
f 85/3/2 86/1/2 90/1/2
f 94/1/2 96/4/2 100/4/2
f 89/3/2 90/1/2 94/1/2
f 90/1/2 92/4/2 96/4/2
f 91/2/2 89/3/2 93/3/2
f 99/2/2 97/3/2 101/3/2
f 95/2/2 93/3/2 97/3/2
f 96/4/2 95/2/2 99/2/2
f 93/3/2 94/1/2 98/1/2
f 104/4/2 103/2/2 107/2/2
f 100/4/2 99/2/2 103/2/2
f 97/3/2 98/1/2 102/1/2
f 98/1/2 100/4/2 104/4/2
f 106/1/2 108/4/2 112/4/2
f 101/3/2 102/1/2 106/1/2
f 102/1/2 104/4/2 108/4/2
f 103/2/2 101/3/2 105/3/2
f 112/4/2 111/2/2 115/2/2
f 107/2/2 105/3/2 109/3/2
f 108/4/2 107/2/2 111/2/2
f 105/3/2 106/1/2 110/1/2
f 113/3/2 114/1/2 118/1/2
f 109/3/2 110/1/2 114/1/2
f 110/1/2 112/4/2 116/4/2
f 111/2/2 109/3/2 113/3/2
f 118/1/2 120/4/2 124/4/2
f 114/1/2 116/4/2 120/4/2
f 115/2/2 113/3/2 117/3/2
f 116/4/2 115/2/2 119/2/2
f 124/4/2 123/2/2 127/2/2
f 119/2/2 117/3/2 121/3/2
f 120/4/2 119/2/2 123/2/2
f 117/3/2 118/1/2 122/1/2
f 126/1/2 128/4/2 132/4/2
f 121/3/2 122/1/2 126/1/2
f 122/1/2 124/4/2 128/4/2
f 123/2/2 121/3/2 125/3/2
f 130/1/2 132/4/2 136/4/2
f 127/2/2 125/3/2 129/3/2
f 128/4/2 127/2/2 131/2/2
f 125/3/2 126/1/2 130/1/2
f 136/4/2 135/2/2 139/2/2
f 131/2/2 129/3/2 133/3/2
f 132/4/2 131/2/2 135/2/2
f 129/3/2 130/1/2 134/1/2
f 138/1/2 140/4/2 144/4/2
f 133/3/2 134/1/2 138/1/2
f 134/1/2 136/4/2 140/4/2
f 135/2/2 133/3/2 137/3/2
f 143/2/2 141/3/2 145/3/2
f 139/2/2 137/3/2 141/3/2
f 140/4/2 139/2/2 143/2/2
f 137/3/2 138/1/2 142/1/2
f 148/4/2 147/2/2 151/2/2
f 144/4/2 143/2/2 147/2/2
f 141/3/2 142/1/2 146/1/2
f 142/1/2 144/4/2 148/4/2
f 150/1/2 152/4/2 156/4/2
f 145/3/2 146/1/2 150/1/2
f 146/1/2 148/4/2 152/4/2
f 147/2/2 145/3/2 149/3/2
f 156/4/2 155/2/2 159/2/2
f 151/2/2 149/3/2 153/3/2
f 152/4/2 151/2/2 155/2/2
f 149/3/2 150/1/2 154/1/2
f 157/3/2 158/1/2 162/1/2
f 153/3/2 154/1/2 158/1/2
f 154/1/2 156/4/2 160/4/2
f 155/2/2 153/3/2 157/3/2
f 162/1/2 164/4/2 168/4/2
f 158/1/2 160/4/2 164/4/2
f 159/2/2 157/3/2 161/3/2
f 160/4/2 159/2/2 163/2/2
f 168/4/2 167/2/2 171/2/2
f 163/2/2 161/3/2 165/3/2
f 164/4/2 163/2/2 167/2/2
f 161/3/2 162/1/2 166/1/2
f 170/1/2 172/4/2 176/4/2
f 165/3/2 166/1/2 170/1/2
f 166/1/2 168/4/2 172/4/2
f 167/2/2 165/3/2 169/3/2
f 174/1/2 176/4/2 180/4/2
f 171/2/2 169/3/2 173/3/2
f 172/4/2 171/2/2 175/2/2
f 169/3/2 170/1/2 174/1/2
f 180/4/2 179/2/2 183/2/2
f 175/2/2 173/3/2 177/3/2
f 176/4/2 175/2/2 179/2/2
f 173/3/2 174/1/2 178/1/2
f 182/1/2 184/4/2 188/4/2
f 177/3/2 178/1/2 182/1/2
f 178/1/2 180/4/2 184/4/2
f 179/2/2 177/3/2 181/3/2
f 187/2/2 185/3/2 189/3/2
f 183/2/2 181/3/2 185/3/2
f 184/4/2 183/2/2 187/2/2
f 181/3/2 182/1/2 186/1/2
f 192/4/4 191/2/4 195/2/4
f 188/4/2 187/2/2 191/2/2
f 185/3/2 186/1/2 190/1/2
f 186/1/2 188/4/2 192/4/2
f 194/1/3 196/4/3 195/2/3
f 189/3/4 190/1/4 194/1/4
f 192/4/1 196/4/1 194/1/1
f 189/3/1 193/3/1 195/2/1
