# Blender 5.1.2
# www.blender.org
mtllib wall.mtl
o Plane
v -4.000000 0.000000 0.000000
v 4.000000 0.000000 0.000000
v -4.000000 3.000000 0.000000
v 4.000000 3.000000 0.000000
v -4.000000 0.000000 0.000000
v 4.000000 0.000000 0.000000
v -4.000000 3.000000 0.000000
v 4.000000 3.000000 0.000000
v -4.000000 0.000000 0.000000
v 4.000000 0.000000 0.000000
v -4.000000 3.000000 0.000000
v 4.000000 3.000000 0.000000
v -4.000000 0.000000 0.000000
v 4.000000 0.000000 0.000000
v -4.000000 3.000000 0.000000
v 4.000000 3.000000 0.000000
v -4.000000 0.000000 0.000000
v 4.000000 0.000000 0.000000
v -4.000000 3.000000 0.000000
v 4.000000 3.000000 0.000000
v -4.000000 0.000000 0.000000
v 4.000000 0.000000 0.000000
v -4.000000 3.000000 0.000000
v 4.000000 3.000000 0.000000
v -4.000000 0.000000 0.000000
v 4.000000 0.000000 0.000000
v -4.000000 3.000000 0.000000
v 4.000000 3.000000 0.000000
v -4.000000 0.000000 0.000000
v 4.000000 0.000000 0.000000
v -4.000000 3.000000 0.000000
v 4.000000 3.000000 0.000000
v -4.000000 0.000000 0.000000
v 4.000000 0.000000 0.000000
v -4.000000 3.000000 0.000000
v 4.000000 3.000000 0.000000
v -4.000000 0.000000 0.000000
v 4.000000 0.000000 0.000000
v -4.000000 3.000000 0.000000
v 4.000000 3.000000 0.000000
v -4.000000 0.000000 0.000000
v 4.000000 0.000000 0.000000
v -4.000000 3.000000 0.000000
v 4.000000 3.000000 0.000000
v -4.000000 0.000000 0.000000
v 4.000000 0.000000 0.000000
v -4.000000 3.000000 0.000000
v 4.000000 3.000000 0.000000
v -4.000000 0.000000 0.000000
v 4.000000 0.000000 0.000000
v -4.000000 3.000000 0.000000
v 4.000000 3.000000 0.000000
v -4.000000 0.000000 0.000000
v 4.000000 0.000000 0.000000
v -4.000000 3.000000 0.000000
v 4.000000 3.000000 0.000000
v -4.000000 0.000000 0.000000
v 4.000000 0.000000 0.000000
v -4.000000 3.000000 0.000000
v 4.000000 3.000000 0.000000
v -4.000000 0.000000 0.000000
v 4.000000 0.000000 0.000000
v -4.000000 3.000000 0.000000
v 4.000000 3.000000 0.000000
v -4.000000 0.000000 0.000000
v 4.000000 0.000000 0.000000
v -4.000000 3.000000 0.000000
v 4.000000 3.000000 0.000000
v -4.000000 0.000000 0.000000
v 4.000000 0.000000 0.000000
v -4.000000 3.000000 0.000000
v 4.000000 3.000000 0.000000
v -4.000000 0.000000 0.000000
v 4.000000 0.000000 0.000000
v -4.000000 3.000000 0.000000
v 4.000000 3.000000 0.000000
v -4.000000 0.000000 0.000000
v 4.000000 0.000000 0.000000
v -4.000000 3.000000 0.000000
v 4.000000 3.000000 0.000000
v -4.000000 0.000000 0.000000
v 4.000000 0.000000 0.000000
v -4.000000 3.000000 0.000000
v 4.000000 3.000000 0.000000
v -4.000000 0.000000 0.000000
v 4.000000 0.000000 0.000000
v -4.000000 3.000000 0.000000
v 4.000000 3.000000 0.000000
v -4.000000 0.000000 0.000000
v 4.000000 0.000000 0.000000
v -4.000000 3.000000 0.000000
v 4.000000 3.000000 0.000000
v -4.000000 0.000000 0.000000
v 4.000000 0.000000 0.000000
v -4.000000 3.000000 0.000000
v 4.000000 3.000000 0.000000
v -4.000000 0.000000 0.000000
v 4.000000 0.000000 0.000000
v -4.000000 3.000000 0.000000
v 4.000000 3.000000 0.000000
v -4.000000 0.000000 0.000000
v 4.000000 0.000000 0.000000
v -4.000000 3.000000 0.000000
v 4.000000 3.000000 0.000000
v -4.000000 0.000000 0.000000
v 4.000000 0.000000 0.000000
v -4.000000 3.000000 0.000000
v 4.000000 3.000000 0.000000
v -4.000000 0.000000 0.000000
v 4.000000 0.000000 0.000000
v -4.000000 3.000000 0.000000
v 4.000000 3.000000 0.000000
v -4.000000 0.000000 0.000000
v 4.000000 0.000000 0.000000
v -4.000000 3.000000 0.000000
v 4.000000 3.000000 0.000000
v -4.000000 0.000000 0.000000
v 4.000000 0.000000 0.000000
v -4.000000 3.000000 0.000000
v 4.000000 3.000000 0.000000
v -4.000000 0.000000 0.000000
v 4.000000 0.000000 0.000000
v -4.000000 3.000000 0.000000
v 4.000000 3.000000 0.000000
v -4.000000 0.000000 0.000000
v 4.000000 0.000000 0.000000
v -4.000000 3.000000 0.000000
v 4.000000 3.000000 0.000000
v -4.000000 0.000000 0.000000
v 4.000000 0.000000 0.000000
v -4.000000 3.000000 0.000000
v 4.000000 3.000000 0.000000
v -4.000000 0.000000 0.000000
v 4.000000 0.000000 0.000000
v -4.000000 3.000000 0.000000
v 4.000000 3.000000 0.000000
v -4.000000 0.000000 0.000000
v 4.000000 0.000000 0.000000
v -4.000000 3.000000 0.000000
v 4.000000 3.000000 0.000000
v -4.000000 0.000000 0.000000
v 4.000000 0.000000 0.000000
v -4.000000 3.000000 0.000000
v 4.000000 3.000000 0.000000
v -4.000000 0.000000 0.000000
v 4.000000 0.000000 0.000000
v -4.000000 3.000000 0.000000
v 4.000000 3.000000 0.000000
v -4.000000 0.000000 0.000000
v 4.000000 0.000000 0.000000
v -4.000000 3.000000 0.000000
v 4.000000 3.000000 0.000000
v -4.000000 0.000000 0.000000
v 4.000000 0.000000 0.000000
v -4.000000 3.000000 0.000000
v 4.000000 3.000000 0.000000
v -4.000000 0.000000 0.000000
v 4.000000 0.000000 0.000000
v -4.000000 3.000000 0.000000
v 4.000000 3.000000 0.000000
v -4.000000 0.000000 0.000000
v 4.000000 0.000000 0.000000
v -4.000000 3.000000 0.000000
v 4.000000 3.000000 0.000000
v -4.000000 0.000000 0.000000
v 4.000000 0.000000 0.000000
v -4.000000 3.000000 0.000000
v 4.000000 3.000000 0.000000
v -4.000000 0.000000 0.000000
v 4.000000 0.000000 0.000000
v -4.000000 3.000000 0.000000
v 4.000000 3.000000 0.000000
v -4.000000 0.000000 0.000000
v 4.000000 0.000000 0.000000
v -4.000000 3.000000 0.000000
v 4.000000 3.000000 0.000000
v -4.000000 0.000000 0.000000
v 4.000000 0.000000 0.000000
v -4.000000 3.000000 0.000000
v 4.000000 3.000000 0.000000
v -4.000000 0.000000 0.000000
v 4.000000 0.000000 0.000000
v -4.000000 3.000000 0.000000
v 4.000000 3.000000 0.000000
v -4.000000 0.000000 0.000000
v 4.000000 0.000000 0.000000
v -4.000000 3.000000 0.000000
v 4.000000 3.000000 0.000000
v -4.000000 0.000000 0.000000
v 4.000000 0.000000 0.000000
v -4.000000 3.000000 0.000000
v 4.000000 3.000000 0.000000
v 4.000000 0.000000 -0.000000
v -4.000000 0.000000 0.000000
v 4.000000 3.000000 -0.000000
v -4.000000 3.000000 0.000000
vn -0.0000 -0.0000 1.0000
vn -0.0000 1.0000 -0.0000
vn -0.0000 -0.0000 -1.0000
vt 1.002477 0.377477
vt 0.002600 0.377477
vt 0.002600 0.002523
vt 1.002477 0.002523
s 0
f 1/1/1 2/2/1 4/3/1 3/4/1
f 6/2/2 8/3/2 12/3/2 10/2/2
f 1/1/2 2/2/2 6/2/2 5/1/2
f 2/2/2 4/3/2 8/3/2 6/2/2
f 3/4/2 1/1/2 5/1/2 7/4/2
f 4/3/2 3/4/2 7/4/2 8/3/2
f 11/4/2 9/1/2 13/1/2 15/4/2
f 7/4/2 5/1/2 9/1/2 11/4/2
f 8/3/2 7/4/2 11/4/2 12/3/2
f 5/1/2 6/2/2 10/2/2 9/1/2
f 16/3/2 15/4/2 19/4/2 20/3/2
f 12/3/2 11/4/2 15/4/2 16/3/2
f 9/1/2 10/2/2 14/2/2 13/1/2
f 10/2/2 12/3/2 16/3/2 14/2/2
f 18/2/2 20/3/2 24/3/2 22/2/2
f 13/1/2 14/2/2 18/2/2 17/1/2
f 14/2/2 16/3/2 20/3/2 18/2/2
f 15/4/2 13/1/2 17/1/2 19/4/2
f 24/3/2 23/4/2 27/4/2 28/3/2
f 19/4/2 17/1/2 21/1/2 23/4/2
f 20/3/2 19/4/2 23/4/2 24/3/2
f 17/1/2 18/2/2 22/2/2 21/1/2
f 25/1/2 26/2/2 30/2/2 29/1/2
f 21/1/2 22/2/2 26/2/2 25/1/2
f 22/2/2 24/3/2 28/3/2 26/2/2
f 23/4/2 21/1/2 25/1/2 27/4/2
f 30/2/2 32/3/2 36/3/2 34/2/2
f 26/2/2 28/3/2 32/3/2 30/2/2
f 27/4/2 25/1/2 29/1/2 31/4/2
f 28/3/2 27/4/2 31/4/2 32/3/2
f 36/3/2 35/4/2 39/4/2 40/3/2
f 31/4/2 29/1/2 33/1/2 35/4/2
f 32/3/2 31/4/2 35/4/2 36/3/2
f 29/1/2 30/2/2 34/2/2 33/1/2
f 38/2/2 40/3/2 44/3/2 42/2/2
f 33/1/2 34/2/2 38/2/2 37/1/2
f 34/2/2 36/3/2 40/3/2 38/2/2
f 35/4/2 33/1/2 37/1/2 39/4/2
f 42/2/2 44/3/2 48/3/2 46/2/2
f 39/4/2 37/1/2 41/1/2 43/4/2
f 40/3/2 39/4/2 43/4/2 44/3/2
f 37/1/2 38/2/2 42/2/2 41/1/2
f 48/3/2 47/4/2 51/4/2 52/3/2
f 43/4/2 41/1/2 45/1/2 47/4/2
f 44/3/2 43/4/2 47/4/2 48/3/2
f 41/1/2 42/2/2 46/2/2 45/1/2
f 50/2/2 52/3/2 56/3/2 54/2/2
f 45/1/2 46/2/2 50/2/2 49/1/2
f 46/2/2 48/3/2 52/3/2 50/2/2
f 47/4/2 45/1/2 49/1/2 51/4/2
f 55/4/2 53/1/2 57/1/2 59/4/2
f 51/4/2 49/1/2 53/1/2 55/4/2
f 52/3/2 51/4/2 55/4/2 56/3/2
f 49/1/2 50/2/2 54/2/2 53/1/2
f 60/3/2 59/4/2 63/4/2 64/3/2
f 56/3/2 55/4/2 59/4/2 60/3/2
f 53/1/2 54/2/2 58/2/2 57/1/2
f 54/2/2 56/3/2 60/3/2 58/2/2
f 62/2/2 64/3/2 68/3/2 66/2/2
f 57/1/2 58/2/2 62/2/2 61/1/2
f 58/2/2 60/3/2 64/3/2 62/2/2
f 59/4/2 57/1/2 61/1/2 63/4/2
f 68/3/2 67/4/2 71/4/2 72/3/2
f 63/4/2 61/1/2 65/1/2 67/4/2
f 64/3/2 63/4/2 67/4/2 68/3/2
f 61/1/2 62/2/2 66/2/2 65/1/2
f 69/1/2 70/2/2 74/2/2 73/1/2
f 65/1/2 66/2/2 70/2/2 69/1/2
f 66/2/2 68/3/2 72/3/2 70/2/2
f 67/4/2 65/1/2 69/1/2 71/4/2
f 74/2/2 76/3/2 80/3/2 78/2/2
f 70/2/2 72/3/2 76/3/2 74/2/2
f 71/4/2 69/1/2 73/1/2 75/4/2
f 72/3/2 71/4/2 75/4/2 76/3/2
f 80/3/2 79/4/2 83/4/2 84/3/2
f 75/4/2 73/1/2 77/1/2 79/4/2
f 76/3/2 75/4/2 79/4/2 80/3/2
f 73/1/2 74/2/2 78/2/2 77/1/2
f 82/2/2 84/3/2 88/3/2 86/2/2
f 77/1/2 78/2/2 82/2/2 81/1/2
f 78/2/2 80/3/2 84/3/2 82/2/2
f 79/4/2 77/1/2 81/1/2 83/4/2
f 86/2/2 88/3/2 92/3/2 90/2/2
f 83/4/2 81/1/2 85/1/2 87/4/2
f 84/3/2 83/4/2 87/4/2 88/3/2
f 81/1/2 82/2/2 86/2/2 85/1/2
f 92/3/2 91/4/2 95/4/2 96/3/2
f 87/4/2 85/1/2 89/1/2 91/4/2
f 88/3/2 87/4/2 91/4/2 92/3/2
f 85/1/2 86/2/2 90/2/2 89/1/2
f 94/2/2 96/3/2 100/3/2 98/2/2
f 89/1/2 90/2/2 94/2/2 93/1/2
f 90/2/2 92/3/2 96/3/2 94/2/2
f 91/4/2 89/1/2 93/1/2 95/4/2
f 99/4/2 97/1/2 101/1/2 103/4/2
f 95/4/2 93/1/2 97/1/2 99/4/2
f 96/3/2 95/4/2 99/4/2 100/3/2
f 93/1/2 94/2/2 98/2/2 97/1/2
f 104/3/2 103/4/2 107/4/2 108/3/2
f 100/3/2 99/4/2 103/4/2 104/3/2
f 97/1/2 98/2/2 102/2/2 101/1/2
f 98/2/2 100/3/2 104/3/2 102/2/2
f 106/2/2 108/3/2 112/3/2 110/2/2
f 101/1/2 102/2/2 106/2/2 105/1/2
f 102/2/2 104/3/2 108/3/2 106/2/2
f 103/4/2 101/1/2 105/1/2 107/4/2
f 112/3/2 111/4/2 115/4/2 116/3/2
f 107/4/2 105/1/2 109/1/2 111/4/2
f 108/3/2 107/4/2 111/4/2 112/3/2
f 105/1/2 106/2/2 110/2/2 109/1/2
f 113/1/2 114/2/2 118/2/2 117/1/2
f 109/1/2 110/2/2 114/2/2 113/1/2
f 110/2/2 112/3/2 116/3/2 114/2/2
f 111/4/2 109/1/2 113/1/2 115/4/2
f 118/2/2 120/3/2 124/3/2 122/2/2
f 114/2/2 116/3/2 120/3/2 118/2/2
f 115/4/2 113/1/2 117/1/2 119/4/2
f 116/3/2 115/4/2 119/4/2 120/3/2
f 124/3/2 123/4/2 127/4/2 128/3/2
f 119/4/2 117/1/2 121/1/2 123/4/2
f 120/3/2 119/4/2 123/4/2 124/3/2
f 117/1/2 118/2/2 122/2/2 121/1/2
f 126/2/2 128/3/2 132/3/2 130/2/2
f 121/1/2 122/2/2 126/2/2 125/1/2
f 122/2/2 124/3/2 128/3/2 126/2/2
f 123/4/2 121/1/2 125/1/2 127/4/2
f 130/2/2 132/3/2 136/3/2 134/2/2
f 127/4/2 125/1/2 129/1/2 131/4/2
f 128/3/2 127/4/2 131/4/2 132/3/2
f 125/1/2 126/2/2 130/2/2 129/1/2
f 136/3/2 135/4/2 139/4/2 140/3/2
f 131/4/2 129/1/2 133/1/2 135/4/2
f 132/3/2 131/4/2 135/4/2 136/3/2
f 129/1/2 130/2/2 134/2/2 133/1/2
f 138/2/2 140/3/2 144/3/2 142/2/2
f 133/1/2 134/2/2 138/2/2 137/1/2
f 134/2/2 136/3/2 140/3/2 138/2/2
f 135/4/2 133/1/2 137/1/2 139/4/2
f 143/4/2 141/1/2 145/1/2 147/4/2
f 139/4/2 137/1/2 141/1/2 143/4/2
f 140/3/2 139/4/2 143/4/2 144/3/2
f 137/1/2 138/2/2 142/2/2 141/1/2
f 148/3/2 147/4/2 151/4/2 152/3/2
f 144/3/2 143/4/2 147/4/2 148/3/2
f 141/1/2 142/2/2 146/2/2 145/1/2
f 142/2/2 144/3/2 148/3/2 146/2/2
f 150/2/2 152/3/2 156/3/2 154/2/2
f 145/1/2 146/2/2 150/2/2 149/1/2
f 146/2/2 148/3/2 152/3/2 150/2/2
f 147/4/2 145/1/2 149/1/2 151/4/2
f 156/3/2 155/4/2 159/4/2 160/3/2
f 151/4/2 149/1/2 153/1/2 155/4/2
f 152/3/2 151/4/2 155/4/2 156/3/2
f 149/1/2 150/2/2 154/2/2 153/1/2
f 157/1/2 158/2/2 162/2/2 161/1/2
f 153/1/2 154/2/2 158/2/2 157/1/2
f 154/2/2 156/3/2 160/3/2 158/2/2
f 155/4/2 153/1/2 157/1/2 159/4/2
f 162/2/2 164/3/2 168/3/2 166/2/2
f 158/2/2 160/3/2 164/3/2 162/2/2
f 159/4/2 157/1/2 161/1/2 163/4/2
f 160/3/2 159/4/2 163/4/2 164/3/2
f 168/3/2 167/4/2 171/4/2 172/3/2
f 163/4/2 161/1/2 165/1/2 167/4/2
f 164/3/2 163/4/2 167/4/2 168/3/2
f 161/1/2 162/2/2 166/2/2 165/1/2
f 170/2/2 172/3/2 176/3/2 174/2/2
f 165/1/2 166/2/2 170/2/2 169/1/2
f 166/2/2 168/3/2 172/3/2 170/2/2
f 167/4/2 165/1/2 169/1/2 171/4/2
f 174/2/2 176/3/2 180/3/2 178/2/2
f 171/4/2 169/1/2 173/1/2 175/4/2
f 172/3/2 171/4/2 175/4/2 176/3/2
f 169/1/2 170/2/2 174/2/2 173/1/2
f 180/3/2 179/4/2 183/4/2 184/3/2
f 175/4/2 173/1/2 177/1/2 179/4/2
f 176/3/2 175/4/2 179/4/2 180/3/2
f 173/1/2 174/2/2 178/2/2 177/1/2
f 182/2/2 184/3/2 188/3/2 186/2/2
f 177/1/2 178/2/2 182/2/2 181/1/2
f 178/2/2 180/3/2 184/3/2 182/2/2
f 179/4/2 177/1/2 181/1/2 183/4/2
f 187/4/2 185/1/2 189/1/2 191/4/2
f 183/4/2 181/1/2 185/1/2 187/4/2
f 184/3/2 183/4/2 187/4/2 188/3/2
f 181/1/2 182/2/2 186/2/2 185/1/2
f 192/3/2 191/4/2 195/4/2 196/3/2
f 188/3/2 187/4/2 191/4/2 192/3/2
f 185/1/2 186/2/2 190/2/2 189/1/2
f 186/2/2 188/3/2 192/3/2 190/2/2
f 193/1/3 194/2/3 196/3/3 195/4/3
f 189/1/2 190/2/2 194/2/2 193/1/2
f 190/2/1 192/3/1 196/3/1 194/2/1
f 191/4/1 189/1/1 193/1/1 195/4/1
