# Blender 5.1.2
# www.blender.org
mtllib wall.mtl
o Plane
v -4.000000 2.000000 0.400001
v -4.000000 0.000000 0.400001
v -4.000000 2.000000 0.000001
v -4.000000 0.000000 0.000001
v 4.000000 2.000000 0.399999
v 4.000000 0.000000 0.399999
v 4.000000 2.000000 -0.000001
v 4.000000 0.000000 -0.000001
v -3.384615 2.000000 0.000001
v -2.769231 2.000000 0.000001
v -2.153846 2.000000 0.000001
v -1.538462 2.000000 0.000000
v -0.923077 2.000000 0.000000
v -0.307692 2.000000 0.000000
v 0.307692 2.000000 -0.000000
v 0.923077 2.000000 -0.000000
v 1.538462 2.000000 -0.000000
v 2.153846 2.000000 -0.000001
v 2.769231 2.000000 -0.000001
v 3.384615 2.000000 -0.000001
v 3.384615 0.000000 -0.000001
v 2.769231 0.000000 -0.000001
v 2.153846 0.000000 -0.000001
v 1.538462 0.000000 -0.000000
v 0.923077 0.000000 -0.000000
v 0.307692 0.000000 -0.000000
v -0.307692 0.000000 0.000000
v -0.923077 0.000000 0.000000
v -1.538462 0.000000 0.000000
v -2.153846 0.000000 0.000001
v -2.769231 0.000000 0.000001
v -3.384615 0.000000 0.000001
v 3.384615 2.000000 0.399999
v 2.769231 2.000000 0.399999
v 2.153846 2.000000 0.399999
v 1.538462 2.000000 0.400000
v 0.923077 2.000000 0.400000
v 0.307692 2.000000 0.400000
v -0.307692 2.000000 0.400000
v -0.923077 2.000000 0.400000
v -1.538462 2.000000 0.400000
v -2.153846 2.000000 0.400001
v -2.769231 2.000000 0.400001
v -3.384615 2.000000 0.400001
v -3.384615 0.000000 0.400001
v -2.769231 0.000000 0.400001
v -2.153846 0.000000 0.400001
v -1.538462 0.000000 0.400000
v -0.923077 0.000000 0.400000
v -0.307692 0.000000 0.400000
v 0.307692 0.000000 0.400000
v 0.923077 0.000000 0.400000
v 1.538462 0.000000 0.400000
v 2.153846 0.000000 0.399999
v 2.769231 0.000000 0.399999
v 3.384615 0.000000 0.399999
v -4.000000 1.600000 0.000001
v -4.000000 1.200000 0.000001
v -4.000000 0.800000 0.000001
v -4.000000 0.400000 0.000001
v -4.000000 1.600000 0.400001
v -4.000000 1.200000 0.400001
v -4.000000 0.800000 0.400001
v -4.000000 0.400000 0.400001
v 4.000000 1.600000 0.399999
v 4.000000 1.200000 0.399999
v 4.000000 0.800000 0.399999
v 4.000000 0.400000 0.399999
v 4.000000 0.400000 -0.000001
v 4.000000 0.800000 -0.000001
v 4.000000 1.200000 -0.000001
v 4.000000 1.600000 -0.000001
v 3.384615 1.600000 0.399999
v 3.384615 1.200000 0.399999
v 3.384615 0.800000 0.399999
v 3.384615 0.400000 0.399999
v 2.769231 1.600000 0.399999
v 2.769231 1.200000 0.399999
v 2.769231 0.800000 0.399999
v 2.769231 0.400000 0.399999
v 2.153846 1.600000 0.399999
v 2.153846 1.200000 0.399999
v 2.153846 0.800000 0.399999
v 2.153846 0.400000 0.399999
v 1.538462 1.600000 0.400000
v 1.538462 1.200000 0.400000
v 1.538462 0.800000 0.400000
v 1.538462 0.400000 0.400000
v 0.923077 1.600000 0.400000
v 0.923077 1.200000 0.400000
v 0.923077 0.800000 0.400000
v 0.923077 0.400000 0.400000
v 0.307692 1.600000 0.400000
v 0.307692 1.200000 0.400000
v 0.307692 0.800000 0.400000
v 0.307692 0.400000 0.400000
v -0.307692 1.600000 0.400000
v -0.307692 1.200000 0.400000
v -0.307692 0.800000 0.400000
v -0.307692 0.400000 0.400000
v -0.923077 1.600000 0.400000
v -0.923077 1.200000 0.400000
v -0.923077 0.800000 0.400000
v -0.923077 0.400000 0.400000
v -1.538462 1.600000 0.400000
v -1.538462 1.200000 0.400000
v -1.538462 0.800000 0.400000
v -1.538462 0.400000 0.400000
v -2.153846 1.600000 0.400001
v -2.153846 1.200000 0.400001
v -2.153846 0.800000 0.400001
v -2.153846 0.400000 0.400001
v -2.769231 1.600000 0.400001
v -2.769231 1.200000 0.400001
v -2.769231 0.800000 0.400001
v -2.769231 0.400000 0.400001
v -3.384615 1.600000 0.400001
v -3.384615 1.200000 0.400001
v -3.384615 0.800000 0.400001
v -3.384615 0.400000 0.400001
v -3.384615 1.600000 0.000001
v -3.384615 1.200000 0.000001
v -3.384615 0.800000 0.000001
v -3.384615 0.400000 0.000001
v -2.769231 1.600000 0.000001
v -2.769231 1.200000 0.000001
v -2.769231 0.800000 0.000001
v -2.769231 0.400000 0.000001
v -2.153846 1.600000 0.000001
v -2.153846 1.200000 0.000001
v -2.153846 0.800000 0.000001
v -2.153846 0.400000 0.000001
v -1.538462 1.600000 0.000000
v -1.538462 1.200000 0.000000
v -1.538462 0.800000 0.000000
v -1.538462 0.400000 0.000000
v -0.923077 1.600000 0.000000
v -0.923077 1.200000 0.000000
v -0.923077 0.800000 0.000000
v -0.923077 0.400000 0.000000
v -0.307692 1.600000 0.000000
v -0.307692 1.200000 0.000000
v -0.307692 0.800000 0.000000
v -0.307692 0.400000 0.000000
v 0.307692 1.600000 -0.000000
v 0.307692 1.200000 -0.000000
v 0.307692 0.800000 -0.000000
v 0.307692 0.400000 -0.000000
v 0.923077 1.600000 -0.000000
v 0.923077 1.200000 -0.000000
v 0.923077 0.800000 -0.000000
v 0.923077 0.400000 -0.000000
v 1.538462 1.600000 -0.000000
v 1.538462 1.200000 -0.000000
v 1.538462 0.800000 -0.000000
v 1.538462 0.400000 -0.000000
v 2.153846 1.600000 -0.000001
v 2.153846 1.200000 -0.000001
v 2.153846 0.800000 -0.000001
v 2.153846 0.400000 -0.000001
v 2.769231 1.600000 -0.000001
v 2.769231 1.200000 -0.000001
v 2.769231 0.800000 -0.000001
v 2.769231 0.400000 -0.000001
v 3.384615 1.600000 -0.000001
v 3.384615 1.200000 -0.000001
v 3.384615 0.800000 -0.000001
v 3.384615 0.400000 -0.000001
vn -0.0000 1.0000 -0.0000
vn -0.0000 -1.0000 -0.0000
vn -0.0000 -0.0000 -1.0000
vn -0.0000 -0.0000 1.0000
vn 1.0000 -0.0000 -0.0000
vn -1.0000 -0.0000 -0.0000
vt 1.504979 0.249997
vt 1.351140 0.349993
vt 1.351140 0.249997
vt 1.351140 0.249997
vt 1.504979 0.349993
vt 1.351140 0.349993
vt -0.341046 0.750003
vt -0.494876 0.650013
vt -0.341046 0.650013
vt 1.351093 0.250053
vt 1.504924 0.350043
vt 1.351093 0.350043
vt 0.300001 0.500000
vt 0.500000 0.700000
vt 0.300001 0.700000
vt 0.299999 1.300000
vt 0.499999 1.500000
vt 0.499999 1.300000
vt -0.494876 0.250053
vt -0.341046 0.350043
vt -0.494876 0.350043
vt -0.341045 0.250053
vt -0.187215 0.350043
vt -0.187215 0.250053
vt -0.033384 0.350043
vt -0.033384 0.250053
vt 0.120447 0.350043
vt 0.120447 0.250053
vt 0.274278 0.350043
vt 0.274278 0.250053
vt 0.428108 0.350043
vt 0.428108 0.250053
vt 0.581939 0.350043
vt 0.581939 0.250053
vt 0.735770 0.350043
vt 0.735770 0.250053
vt 0.889600 0.350043
vt 0.889600 0.250053
vt 1.043431 0.350043
vt 1.043431 0.250053
vt 1.197262 0.350043
vt 1.197262 0.250053
vt 1.504924 0.750003
vt 1.351093 0.650013
vt 1.504924 0.650013
vt 1.351093 0.750003
vt 1.197262 0.650013
vt 1.197262 0.750003
vt 1.043431 0.650013
vt 1.043431 0.750003
vt 0.889601 0.650013
vt 0.889601 0.750003
vt 0.735770 0.650013
vt 0.735770 0.750003
vt 0.581939 0.650013
vt 0.581939 0.750003
vt 0.428108 0.650013
vt 0.274277 0.750003
vt 0.274277 0.650013
vt 0.120447 0.650013
vt 0.120447 0.750003
vt -0.033384 0.650013
vt -0.033384 0.750003
vt -0.187215 0.650013
vt -0.187215 0.750003
vt -0.494932 0.249997
vt -0.341092 0.349993
vt -0.494932 0.349993
vt -0.341092 0.249997
vt -0.187253 0.349993
vt -0.187253 0.249997
vt -0.033414 0.349993
vt -0.033414 0.249997
vt 0.120426 0.349993
vt 0.120425 0.249997
vt 0.274265 0.349993
vt 0.274265 0.249997
vt 0.428104 0.349993
vt 0.428104 0.249997
vt 0.581943 0.349993
vt 0.581943 0.249997
vt 0.735783 0.349993
vt 0.735783 0.249997
vt 0.889622 0.349993
vt 0.889622 0.249997
vt 1.043461 0.349993
vt 1.043461 0.249997
vt 1.197300 0.349993
vt 1.197300 0.249997
vt -0.341092 0.249997
vt -0.494932 0.249997
vt -0.187253 0.249997
vt -0.341092 0.349993
vt -0.033414 0.249997
vt -0.187253 0.349993
vt 0.120425 0.249997
vt -0.033414 0.349993
vt 0.274265 0.349993
vt 0.120426 0.349993
vt 0.274265 0.249997
vt 0.428104 0.349993
vt 0.581943 0.249997
vt 0.428104 0.249997
vt 0.735783 0.349993
vt 0.581943 0.349993
vt 0.735783 0.249997
vt 0.889622 0.349993
vt 1.043461 0.249997
vt 1.197300 0.249997
vt 1.043461 0.349993
vt 1.197300 0.349993
vt -0.187215 0.350043
vt -0.187215 0.450033
vt -0.341045 0.350043
vt -0.187215 0.550023
vt -0.341045 0.450033
vt -0.341046 0.550023
vt -0.033384 0.350043
vt -0.033384 0.450033
vt -0.033384 0.550023
vt 0.120447 0.550023
vt 0.120447 0.450033
vt 0.274278 0.350043
vt 0.274278 0.550023
vt 0.274278 0.450033
vt 0.428108 0.350043
vt 0.428108 0.450033
vt 0.428108 0.550023
vt 0.581939 0.350043
vt 0.581939 0.250053
vt 0.581939 0.450033
vt 0.581939 0.550023
vt 0.735770 0.350043
vt 0.735770 0.250053
vt 0.735770 0.450033
vt 0.735770 0.550023
vt 0.889600 0.250053
vt 0.889601 0.450033
vt 0.889600 0.350043
vt 0.889601 0.550023
vt 1.043431 0.250053
vt 1.043431 0.450033
vt 1.043431 0.550023
vt 1.197262 0.350043
vt 1.197262 0.250053
vt 1.197262 0.450033
vt 1.197262 0.550023
vt 1.351093 0.350043
vt 1.351093 0.250053
vt 1.351093 0.450033
vt 1.351093 0.550023
vt 1.504924 0.350043
vt 1.504924 0.250053
vt 1.504924 0.450033
vt 1.504924 0.550023
vt 1.197262 0.650013
vt 1.197262 0.550023
vt 1.351093 0.650013
vt 1.351093 0.550023
vt 1.351093 0.450033
vt 1.043431 0.650013
vt 1.043431 0.450033
vt 0.889601 0.650013
vt 0.889601 0.550023
vt 0.889600 0.450033
vt 0.735770 0.650013
vt 0.735770 0.550023
vt 0.581939 0.450033
vt 0.581939 0.550023
vt 0.428108 0.650013
vt 0.428108 0.750003
vt 0.428108 0.450033
vt 0.274277 0.650013
vt 0.274277 0.550023
vt 0.274277 0.450033
vt 0.120447 0.550023
vt 0.120447 0.650013
vt 0.120447 0.450033
vt -0.033384 0.650013
vt -0.033384 0.750003
vt -0.033384 0.550023
vt -0.033384 0.450033
vt -0.187215 0.650013
vt -0.187215 0.750003
vt -0.187215 0.550023
vt -0.187215 0.450033
vt -0.341046 0.650013
vt -0.341046 0.750003
vt -0.341046 0.450033
vt -0.494876 0.650013
vt -0.494876 0.750003
vt -0.494876 0.550023
vt -0.494876 0.450033
vt 0.299999 0.500000
vt 0.499999 0.700000
vt 0.499999 0.500000
vt 0.299999 0.700000
vt 0.499999 0.900000
vt 0.299999 0.900000
vt 0.499999 1.100000
vt 0.299999 1.100000
vt 0.300001 1.300000
vt 0.500000 1.500000
vt 0.300001 1.500000
vt 0.300001 1.100000
vt 0.500000 1.300000
vt 0.300001 0.900000
vt 0.500000 1.100000
vt 0.500000 0.900000
vt -0.494876 0.350043
vt -0.494876 0.450033
vt -0.494876 0.550023
vt 1.504979 0.349993
vt 1.504979 0.249997
vt -0.494876 0.750003
vt 1.504924 0.250053
vt 0.500000 0.500000
vt 0.299999 1.500000
s 0
f 5/1/1 20/2/1 33/3/1
f 45/4/2 4/5/2 32/6/2
f 20/7/3 72/8/3 165/9/3
f 44/10/4 61/11/4 117/12/4
f 6/13/5 69/14/5 68/15/5
f 61/16/6 3/17/6 57/18/6
f 5/19/4 73/20/4 65/21/4
f 33/22/4 77/23/4 73/20/4
f 34/24/4 81/25/4 77/23/4
f 35/26/4 85/27/4 81/25/4
f 36/28/4 89/29/4 85/27/4
f 37/30/4 93/31/4 89/29/4
f 38/32/4 97/33/4 93/31/4
f 39/34/4 101/35/4 97/33/4
f 40/36/4 105/37/4 101/35/4
f 41/38/4 109/39/4 105/37/4
f 42/40/4 113/41/4 109/39/4
f 43/42/4 117/12/4 113/41/4
f 3/43/3 121/44/3 57/45/3
f 9/46/3 125/47/3 121/44/3
f 10/48/3 129/49/3 125/47/3
f 11/50/3 133/51/3 129/49/3
f 12/52/3 137/53/3 133/51/3
f 13/54/3 141/55/3 137/53/3
f 14/56/3 145/57/3 141/55/3
f 145/57/3 16/58/3 149/59/3
f 16/58/3 153/60/3 149/59/3
f 17/61/3 157/62/3 153/60/3
f 18/63/3 161/64/3 157/62/3
f 19/65/3 165/9/3 161/64/3
f 6/66/2 21/67/2 8/68/2
f 56/69/2 22/70/2 21/67/2
f 55/71/2 23/72/2 22/70/2
f 54/73/2 24/74/2 23/72/2
f 53/75/2 25/76/2 24/74/2
f 52/77/2 26/78/2 25/76/2
f 51/79/2 27/80/2 26/78/2
f 50/81/2 28/82/2 27/80/2
f 49/83/2 29/84/2 28/82/2
f 48/85/2 30/86/2 29/84/2
f 47/87/2 31/88/2 30/86/2
f 46/89/2 32/6/2 31/88/2
f 44/90/1 3/68/1 1/91/1
f 43/92/1 9/93/1 44/90/1
f 42/94/1 10/95/1 43/92/1
f 41/96/1 11/97/1 42/94/1
f 41/96/1 13/98/1 12/99/1
f 40/100/1 14/101/1 13/98/1
f 38/102/1 14/101/1 39/103/1
f 38/102/1 16/104/1 15/105/1
f 37/106/1 17/107/1 16/104/1
f 35/108/1 17/107/1 36/85/1
f 34/109/1 18/110/1 35/108/1
f 33/3/1 19/111/1 34/109/1
f 164/112/3 21/22/3 22/24/3
f 163/113/3 168/114/3 164/112/3
f 162/115/3 167/116/3 163/113/3
f 161/64/3 166/117/3 162/115/3
f 160/118/3 22/24/3 23/26/3
f 159/119/3 164/112/3 160/118/3
f 158/120/3 163/113/3 159/119/3
f 157/62/3 162/115/3 158/120/3
f 156/27/3 23/26/3 24/28/3
f 156/27/3 159/119/3 160/118/3
f 154/121/3 159/119/3 155/122/3
f 153/60/3 158/120/3 154/121/3
f 152/123/3 24/28/3 25/30/3
f 152/123/3 155/122/3 156/27/3
f 150/124/3 155/122/3 151/125/3
f 150/124/3 153/60/3 154/121/3
f 148/126/3 25/30/3 26/32/3
f 148/126/3 151/125/3 152/123/3
f 147/127/3 150/124/3 151/125/3
f 146/128/3 149/59/3 150/124/3
f 144/129/3 26/32/3 27/130/3
f 143/131/3 148/126/3 144/129/3
f 142/132/3 147/127/3 143/131/3
f 141/55/3 146/128/3 142/132/3
f 140/133/3 27/130/3 28/134/3
f 139/135/3 144/129/3 140/133/3
f 138/136/3 143/131/3 139/135/3
f 137/53/3 142/132/3 138/136/3
f 29/137/3 140/133/3 28/134/3
f 135/138/3 140/133/3 136/139/3
f 134/140/3 139/135/3 135/138/3
f 133/51/3 138/136/3 134/140/3
f 30/141/3 136/139/3 29/137/3
f 131/142/3 136/139/3 132/39/3
f 130/143/3 135/138/3 131/142/3
f 129/49/3 134/140/3 130/143/3
f 128/144/3 30/141/3 31/145/3
f 127/146/3 132/39/3 128/144/3
f 126/147/3 131/142/3 127/146/3
f 125/47/3 130/143/3 126/147/3
f 124/148/3 31/145/3 32/149/3
f 123/150/3 128/144/3 124/148/3
f 122/151/3 127/146/3 123/150/3
f 121/44/3 126/147/3 122/151/3
f 60/152/3 32/149/3 4/153/3
f 59/154/3 124/148/3 60/152/3
f 58/155/3 123/150/3 59/154/3
f 57/45/3 122/151/3 58/155/3
f 116/156/4 45/46/4 46/48/4
f 115/157/4 120/158/4 116/156/4
f 114/146/4 119/159/4 115/157/4
f 113/41/4 118/160/4 114/146/4
f 112/161/4 46/48/4 47/50/4
f 111/143/4 116/156/4 112/161/4
f 110/162/4 115/157/4 111/143/4
f 109/39/4 114/146/4 110/162/4
f 108/163/4 47/50/4 48/52/4
f 107/164/4 112/161/4 108/163/4
f 106/165/4 111/143/4 107/164/4
f 105/37/4 110/162/4 106/165/4
f 104/166/4 48/52/4 49/54/4
f 104/166/4 107/164/4 108/163/4
f 102/135/4 107/164/4 103/167/4
f 102/135/4 105/37/4 106/165/4
f 100/55/4 49/54/4 50/56/4
f 100/55/4 103/167/4 104/166/4
f 98/168/4 103/167/4 99/169/4
f 97/33/4 102/135/4 98/168/4
f 96/170/4 50/56/4 51/171/4
f 96/170/4 99/169/4 100/55/4
f 94/172/4 99/169/4 95/128/4
f 93/31/4 98/168/4 94/172/4
f 92/173/4 51/171/4 52/58/4
f 91/174/4 96/170/4 92/173/4
f 90/175/4 95/128/4 91/174/4
f 89/29/4 94/172/4 90/175/4
f 53/61/4 92/173/4 52/58/4
f 87/176/4 92/173/4 88/177/4
f 86/178/4 91/174/4 87/176/4
f 85/27/4 90/175/4 86/178/4
f 84/179/4 53/61/4 54/180/4
f 83/181/4 88/177/4 84/179/4
f 82/182/4 87/176/4 83/181/4
f 81/25/4 86/178/4 82/182/4
f 80/183/4 54/180/4 55/184/4
f 79/185/4 84/179/4 80/183/4
f 78/186/4 83/181/4 79/185/4
f 77/23/4 82/182/4 78/186/4
f 76/187/4 55/184/4 56/188/4
f 75/117/4 80/183/4 76/187/4
f 74/189/4 79/185/4 75/117/4
f 73/20/4 78/186/4 74/189/4
f 68/190/4 56/188/4 6/191/4
f 67/192/4 76/187/4 68/190/4
f 66/193/4 75/117/4 67/192/4
f 65/21/4 74/189/4 66/193/4
f 2/194/6 60/195/6 4/196/6
f 64/197/6 59/198/6 60/195/6
f 63/199/6 58/200/6 59/198/6
f 62/201/6 57/18/6 58/200/6
f 65/202/5 7/203/5 5/204/5
f 66/205/5 72/206/5 65/202/5
f 67/207/5 71/208/5 66/205/5
f 68/15/5 70/209/5 67/207/5
f 120/158/4 2/43/4 45/46/4
f 119/159/4 64/45/4 120/158/4
f 118/160/4 63/155/4 119/159/4
f 117/12/4 62/154/4 118/160/4
f 168/114/3 8/19/3 21/22/3
f 167/116/3 69/210/3 168/114/3
f 166/117/3 70/211/3 167/116/3
f 165/9/3 71/212/3 166/117/3
f 5/1/1 7/213/1 20/2/1
f 45/4/2 2/214/2 4/5/2
f 20/7/3 7/215/3 72/8/3
f 44/10/4 1/216/4 61/11/4
f 6/13/5 8/217/5 69/14/5
f 61/16/6 1/218/6 3/17/6
f 5/19/4 33/22/4 73/20/4
f 33/22/4 34/24/4 77/23/4
f 34/24/4 35/26/4 81/25/4
f 35/26/4 36/28/4 85/27/4
f 36/28/4 37/30/4 89/29/4
f 37/30/4 38/32/4 93/31/4
f 38/32/4 39/34/4 97/33/4
f 39/34/4 40/36/4 101/35/4
f 40/36/4 41/38/4 105/37/4
f 41/38/4 42/40/4 109/39/4
f 42/40/4 43/42/4 113/41/4
f 43/42/4 44/10/4 117/12/4
f 3/43/3 9/46/3 121/44/3
f 9/46/3 10/48/3 125/47/3
f 10/48/3 11/50/3 129/49/3
f 11/50/3 12/52/3 133/51/3
f 12/52/3 13/54/3 137/53/3
f 13/54/3 14/56/3 141/55/3
f 14/56/3 15/171/3 145/57/3
f 145/57/3 15/171/3 16/58/3
f 16/58/3 17/61/3 153/60/3
f 17/61/3 18/63/3 157/62/3
f 18/63/3 19/65/3 161/64/3
f 19/65/3 20/7/3 165/9/3
f 6/66/2 56/69/2 21/67/2
f 56/69/2 55/71/2 22/70/2
f 55/71/2 54/73/2 23/72/2
f 54/73/2 53/75/2 24/74/2
f 53/75/2 52/77/2 25/76/2
f 52/77/2 51/79/2 26/78/2
f 51/79/2 50/81/2 27/80/2
f 50/81/2 49/83/2 28/82/2
f 49/83/2 48/85/2 29/84/2
f 48/85/2 47/87/2 30/86/2
f 47/87/2 46/89/2 31/88/2
f 46/89/2 45/4/2 32/6/2
f 44/90/1 9/93/1 3/68/1
f 43/92/1 10/95/1 9/93/1
f 42/94/1 11/97/1 10/95/1
f 41/96/1 12/99/1 11/97/1
f 41/96/1 40/100/1 13/98/1
f 40/100/1 39/103/1 14/101/1
f 38/102/1 15/105/1 14/101/1
f 38/102/1 37/106/1 16/104/1
f 37/106/1 36/85/1 17/107/1
f 35/108/1 18/110/1 17/107/1
f 34/109/1 19/111/1 18/110/1
f 33/3/1 20/2/1 19/111/1
f 164/112/3 168/114/3 21/22/3
f 163/113/3 167/116/3 168/114/3
f 162/115/3 166/117/3 167/116/3
f 161/64/3 165/9/3 166/117/3
f 160/118/3 164/112/3 22/24/3
f 159/119/3 163/113/3 164/112/3
f 158/120/3 162/115/3 163/113/3
f 157/62/3 161/64/3 162/115/3
f 156/27/3 160/118/3 23/26/3
f 156/27/3 155/122/3 159/119/3
f 154/121/3 158/120/3 159/119/3
f 153/60/3 157/62/3 158/120/3
f 152/123/3 156/27/3 24/28/3
f 152/123/3 151/125/3 155/122/3
f 150/124/3 154/121/3 155/122/3
f 150/124/3 149/59/3 153/60/3
f 148/126/3 152/123/3 25/30/3
f 148/126/3 147/127/3 151/125/3
f 147/127/3 146/128/3 150/124/3
f 146/128/3 145/57/3 149/59/3
f 144/129/3 148/126/3 26/32/3
f 143/131/3 147/127/3 148/126/3
f 142/132/3 146/128/3 147/127/3
f 141/55/3 145/57/3 146/128/3
f 140/133/3 144/129/3 27/130/3
f 139/135/3 143/131/3 144/129/3
f 138/136/3 142/132/3 143/131/3
f 137/53/3 141/55/3 142/132/3
f 29/137/3 136/139/3 140/133/3
f 135/138/3 139/135/3 140/133/3
f 134/140/3 138/136/3 139/135/3
f 133/51/3 137/53/3 138/136/3
f 30/141/3 132/39/3 136/139/3
f 131/142/3 135/138/3 136/139/3
f 130/143/3 134/140/3 135/138/3
f 129/49/3 133/51/3 134/140/3
f 128/144/3 132/39/3 30/141/3
f 127/146/3 131/142/3 132/39/3
f 126/147/3 130/143/3 131/142/3
f 125/47/3 129/49/3 130/143/3
f 124/148/3 128/144/3 31/145/3
f 123/150/3 127/146/3 128/144/3
f 122/151/3 126/147/3 127/146/3
f 121/44/3 125/47/3 126/147/3
f 60/152/3 124/148/3 32/149/3
f 59/154/3 123/150/3 124/148/3
f 58/155/3 122/151/3 123/150/3
f 57/45/3 121/44/3 122/151/3
f 116/156/4 120/158/4 45/46/4
f 115/157/4 119/159/4 120/158/4
f 114/146/4 118/160/4 119/159/4
f 113/41/4 117/12/4 118/160/4
f 112/161/4 116/156/4 46/48/4
f 111/143/4 115/157/4 116/156/4
f 110/162/4 114/146/4 115/157/4
f 109/39/4 113/41/4 114/146/4
f 108/163/4 112/161/4 47/50/4
f 107/164/4 111/143/4 112/161/4
f 106/165/4 110/162/4 111/143/4
f 105/37/4 109/39/4 110/162/4
f 104/166/4 108/163/4 48/52/4
f 104/166/4 103/167/4 107/164/4
f 102/135/4 106/165/4 107/164/4
f 102/135/4 101/35/4 105/37/4
f 100/55/4 104/166/4 49/54/4
f 100/55/4 99/169/4 103/167/4
f 98/168/4 102/135/4 103/167/4
f 97/33/4 101/35/4 102/135/4
f 96/170/4 100/55/4 50/56/4
f 96/170/4 95/128/4 99/169/4
f 94/172/4 98/168/4 99/169/4
f 93/31/4 97/33/4 98/168/4
f 92/173/4 96/170/4 51/171/4
f 91/174/4 95/128/4 96/170/4
f 90/175/4 94/172/4 95/128/4
f 89/29/4 93/31/4 94/172/4
f 53/61/4 88/177/4 92/173/4
f 87/176/4 91/174/4 92/173/4
f 86/178/4 90/175/4 91/174/4
f 85/27/4 89/29/4 90/175/4
f 84/179/4 88/177/4 53/61/4
f 83/181/4 87/176/4 88/177/4
f 82/182/4 86/178/4 87/176/4
f 81/25/4 85/27/4 86/178/4
f 80/183/4 84/179/4 54/180/4
f 79/185/4 83/181/4 84/179/4
f 78/186/4 82/182/4 83/181/4
f 77/23/4 81/25/4 82/182/4
f 76/187/4 80/183/4 55/184/4
f 75/117/4 79/185/4 80/183/4
f 74/189/4 78/186/4 79/185/4
f 73/20/4 77/23/4 78/186/4
f 68/190/4 76/187/4 56/188/4
f 67/192/4 75/117/4 76/187/4
f 66/193/4 74/189/4 75/117/4
f 65/21/4 73/20/4 74/189/4
f 2/194/6 64/197/6 60/195/6
f 64/197/6 63/199/6 59/198/6
f 63/199/6 62/201/6 58/200/6
f 62/201/6 61/16/6 57/18/6
f 65/202/5 72/206/5 7/203/5
f 66/205/5 71/208/5 72/206/5
f 67/207/5 70/209/5 71/208/5
f 68/15/5 69/14/5 70/209/5
f 120/158/4 64/45/4 2/43/4
f 119/159/4 63/155/4 64/45/4
f 118/160/4 62/154/4 63/155/4
f 117/12/4 61/11/4 62/154/4
f 168/114/3 69/210/3 8/19/3
f 167/116/3 70/211/3 69/210/3
f 166/117/3 71/212/3 70/211/3
f 165/9/3 72/8/3 71/212/3
