# Blender 5.1.2
# www.blender.org
mtllib wall.mtl
o Plane
v -4.000000 2.000000 0.400001
v -4.000000 0.000000 0.400001
v -4.000000 2.000000 0.000001
v -4.000000 0.000000 0.000001
v 4.000000 2.000000 0.399999
v 4.000000 0.000000 0.399999
v 4.000000 2.000000 -0.000001
v 4.000000 0.000000 -0.000001
vn -0.0000 1.0000 -0.0000
vn -0.0000 -1.0000 -0.0000
vn -0.0000 -0.0000 -1.0000
vn -0.0000 -0.0000 1.0000
vt 1.504979 0.249997
vt -0.494932 0.349993
vt -0.494932 0.249997
vt 1.504979 0.249997
vt -0.494932 0.249997
vt 1.504924 0.750003
vt -0.494876 0.250053
vt 1.504924 0.250053
vt -0.494876 0.750003
vt 1.504979 0.349993
vt 1.504979 0.349993
vt -0.494876 0.750003
vt 1.504924 0.250053
s 0
f 5/1/1 3/2/1 1/3/1
f 2/4/2 8/2/2 6/5/2
f 3/6/3 8/7/3 4/8/3
f 5/7/4 2/6/4 6/9/4
f 5/1/1 7/10/1 3/2/1
f 2/4/2 4/11/2 8/2/2
f 3/6/3 7/12/3 8/7/3
f 5/7/4 1/13/4 2/6/4
