# Blender 5.1.2
# www.blender.org
mtllib water.mtl
o Plane
v -40.000000 0.000000 40.000000
v 40.000000 0.000000 40.000000
v -40.000000 0.000000 -40.000000
v 40.000000 0.000000 -40.000000
v -40.000000 0.000003 -40.000000
v 40.000000 0.000003 -40.000000
v -40.000000 -0.000003 40.000000
v 40.000000 -0.000003 40.000000
v -40.000000 -1.499997 -40.000000
v 40.000000 -1.499997 -40.000000
v -40.000000 -1.500003 40.000000
v 40.000000 -1.500003 40.000000
vn -0.0000 1.0000 -0.0000
vn -0.0000 -1.0000 -0.0000
vn -0.0000 -0.0000 -1.0000
vn -0.0000 -0.0000 1.0000
vn -1.0000 -0.0000 -0.0000
vn 1.0000 -0.0000 -0.0000
vt 20.500000 -19.500000
vt -19.500000 20.500000
vt -19.500000 -19.500000
vt -19.495998 20.496000
vt 20.496000 -19.495998
vt 20.496000 20.495998
vt 0.018763 0.000014
vt 0.000014 0.999986
vt 0.000014 0.000014
vt 0.018763 0.000014
vt 0.018763 0.999986
vt 0.000014 0.999986
vt 0.018763 0.000014
vt 0.018763 0.999986
vt 0.000014 0.000014
vt 0.018763 0.999986
vt 0.000014 0.999986
vt 20.500000 20.500000
vt -19.495998 -19.495996
vt 0.000014 0.000014
s 0
f 2/1/1 3/2/1 1/3/1
f 6/4/2 7/5/2 5/6/2
f 10/4/2 11/5/2 9/6/2
f 12/7/3 7/8/3 8/9/3
f 9/8/4 6/10/4 5/11/4
f 10/12/5 8/13/5 6/14/5
f 7/15/6 9/16/6 5/17/6
f 2/1/1 4/18/1 3/2/1
f 6/4/2 8/19/2 7/5/2
f 10/4/2 12/19/2 11/5/2
f 12/7/3 11/11/3 7/8/3
f 9/8/4 10/9/4 6/10/4
f 10/12/5 12/20/5 8/13/5
f 7/15/6 11/13/6 9/16/6
