# Blender 5.1.2
# www.blender.org
mtllib water.mtl
o Plane
v -80.000000 0.000000 80.000000
v 80.000000 0.000000 80.000000
v -80.000000 0.000000 -80.000000
v 80.000000 0.000000 -80.000000
v -80.000000 0.000003 -80.000000
v 80.000000 0.000003 -80.000000
v -80.000000 -0.000003 80.000000
v 80.000000 -0.000003 80.000000
v -80.000000 -1.499997 -80.000000
v 80.000000 -1.499997 -80.000000
v -80.000000 -1.500003 80.000000
v 80.000000 -1.500003 80.000000
v -80.000000 0.000003 -62.222221
v -80.000000 0.000002 -44.444443
v -80.000000 0.000001 -26.666664
v -80.000000 0.000000 -8.888885
v -80.000000 -0.000000 8.888891
v -80.000000 -0.000001 26.666668
v -80.000000 -0.000002 44.444447
v -80.000000 -0.000003 62.222221
v 80.000000 -0.000003 62.222221
v 80.000000 -0.000002 44.444443
v 80.000000 -0.000001 26.666664
v 80.000000 -0.000000 8.888885
v 80.000000 0.000000 -8.888891
v 80.000000 0.000001 -26.666668
v 80.000000 0.000002 -44.444447
v 80.000000 0.000003 -62.222221
v -80.000000 -1.499997 -62.222221
v -80.000000 -1.499998 -44.444443
v -80.000000 -1.499999 -26.666664
v -80.000000 -1.500000 -8.888885
v -80.000000 -1.500000 8.888891
v -80.000000 -1.500001 26.666668
v -80.000000 -1.500002 44.444447
v -80.000000 -1.500003 62.222221
v 80.000000 -1.500003 62.222221
v 80.000000 -1.500002 44.444443
v 80.000000 -1.500001 26.666664
v 80.000000 -1.500000 8.888885
v 80.000000 -1.500000 -8.888891
v 80.000000 -1.499999 -26.666668
v 80.000000 -1.499998 -44.444447
v 80.000000 -1.499997 -62.222221
v 62.222221 0.000003 -80.000000
v 44.444443 0.000003 -80.000000
v 26.666664 0.000003 -80.000000
v 8.888885 0.000003 -80.000000
v -8.888891 0.000003 -80.000000
v -26.666668 0.000003 -80.000000
v -44.444447 0.000003 -80.000000
v -62.222221 0.000003 -80.000000
v -62.222221 -0.000003 80.000000
v -44.444443 -0.000003 80.000000
v -26.666664 -0.000003 80.000000
v -8.888885 -0.000003 80.000000
v 8.888891 -0.000003 80.000000
v 26.666668 -0.000003 80.000000
v 44.444447 -0.000003 80.000000
v 62.222221 -0.000003 80.000000
v 62.222221 -1.499997 -80.000000
v 44.444443 -1.499997 -80.000000
v 26.666664 -1.499997 -80.000000
v 8.888885 -1.499997 -80.000000
v -8.888891 -1.499997 -80.000000
v -26.666668 -1.499997 -80.000000
v -44.444447 -1.499997 -80.000000
v -62.222221 -1.499997 -80.000000
v -62.222221 -1.500003 80.000000
v -44.444443 -1.500003 80.000000
v -26.666664 -1.500003 80.000000
v -8.888885 -1.500003 80.000000
v 8.888891 -1.500003 80.000000
v 26.666668 -1.500003 80.000000
v 44.444447 -1.500003 80.000000
v 62.222221 -1.500003 80.000000
v 62.222221 -1.499997 -62.222221
v 44.444443 -1.499997 -62.222221
v 26.666664 -1.499997 -62.222221
v 8.888885 -1.499997 -62.222221
v -8.888891 -1.499997 -62.222221
v -26.666668 -1.499997 -62.222221
v -44.444447 -1.499997 -62.222221
v -62.222221 -1.499997 -62.222221
v 62.222221 -1.499998 -44.444447
v 44.444443 -1.499998 -44.444447
v 26.666664 -1.499998 -44.444447
v 8.888885 -1.499998 -44.444447
v -8.888891 -1.499998 -44.444447
v -26.666668 -1.499998 -44.444447
v -44.444447 -1.499998 -44.444447
v -62.222221 -1.499998 -44.444443
v 62.222221 -1.499999 -26.666668
v 44.444443 -1.499999 -26.666668
v 26.666664 -1.499999 -26.666668
v 8.888885 -1.499999 -26.666668
v -8.888891 -1.499999 -26.666668
v -26.666668 -1.499999 -26.666668
v -44.444447 -1.499999 -26.666666
v -62.222221 -1.499999 -26.666664
v 62.222221 -1.500000 -8.888890
v 44.444443 -1.500000 -8.888889
v 26.666664 -1.500000 -8.888888
v 8.888885 -1.500000 -8.888887
v -8.888891 -1.500000 -8.888887
v -26.666668 -1.500000 -8.888887
v -44.444447 -1.500000 -8.888886
v -62.222221 -1.500000 -8.888885
v 62.222221 -1.500000 8.888886
v 44.444443 -1.500000 8.888887
v 26.666664 -1.500000 8.888888
v 8.888885 -1.500000 8.888889
v -8.888891 -1.500000 8.888889
v -26.666668 -1.500000 8.888889
v -44.444447 -1.500000 8.888890
v -62.222221 -1.500000 8.888891
v 62.222221 -1.500001 26.666664
v 44.444443 -1.500001 26.666664
v 26.666664 -1.500001 26.666664
v 8.888885 -1.500001 26.666664
v -8.888891 -1.500001 26.666664
v -26.666668 -1.500001 26.666664
v -44.444447 -1.500001 26.666666
v -62.222221 -1.500001 26.666668
v 62.222221 -1.500002 44.444443
v 44.444443 -1.500002 44.444443
v 26.666664 -1.500002 44.444443
v 8.888885 -1.500002 44.444443
v -8.888891 -1.500002 44.444443
v -26.666668 -1.500002 44.444443
v -44.444447 -1.500002 44.444443
v -62.222221 -1.500002 44.444443
v 62.222221 -1.500003 62.222221
v 44.444443 -1.500003 62.222221
v 26.666664 -1.500003 62.222221
v 8.888885 -1.500003 62.222221
v -8.888891 -1.500003 62.222221
v -26.666668 -1.500003 62.222221
v -44.444447 -1.500003 62.222221
v -62.222221 -1.500003 62.222221
v 62.222221 0.000003 -62.222221
v 44.444443 0.000003 -62.222221
v 26.666664 0.000003 -62.222221
v 8.888885 0.000003 -62.222221
v -8.888891 0.000003 -62.222221
v -26.666668 0.000003 -62.222221
v -44.444447 0.000003 -62.222221
v -62.222221 0.000003 -62.222221
v 62.222221 0.000002 -44.444447
v 44.444443 0.000002 -44.444447
v 26.666664 0.000002 -44.444447
v 8.888885 0.000002 -44.444447
v -8.888891 0.000002 -44.444447
v -26.666668 0.000002 -44.444447
v -44.444447 0.000002 -44.444447
v -62.222221 0.000002 -44.444443
v 62.222221 0.000001 -26.666668
v 44.444443 0.000001 -26.666668
v 26.666664 0.000001 -26.666668
v 8.888885 0.000001 -26.666668
v -8.888891 0.000001 -26.666668
v -26.666668 0.000001 -26.666668
v -44.444447 0.000001 -26.666666
v -62.222221 0.000001 -26.666664
v 62.222221 0.000000 -8.888890
v 44.444443 0.000000 -8.888889
v 26.666664 0.000000 -8.888888
v 8.888885 0.000000 -8.888887
v -8.888891 0.000000 -8.888887
v -26.666668 0.000000 -8.888887
v -44.444447 0.000000 -8.888886
v -62.222221 0.000000 -8.888885
v 62.222221 -0.000000 8.888886
v 44.444443 -0.000000 8.888887
v 26.666664 -0.000000 8.888888
v 8.888885 -0.000000 8.888889
v -8.888891 -0.000000 8.888889
v -26.666668 -0.000000 8.888889
v -44.444447 -0.000000 8.888890
v -62.222221 -0.000000 8.888891
v 62.222221 -0.000001 26.666664
v 44.444443 -0.000001 26.666664
v 26.666664 -0.000001 26.666664
v 8.888885 -0.000001 26.666664
v -8.888891 -0.000001 26.666664
v -26.666668 -0.000001 26.666664
v -44.444447 -0.000001 26.666666
v -62.222221 -0.000001 26.666668
v 62.222221 -0.000002 44.444443
v 44.444443 -0.000002 44.444443
v 26.666664 -0.000002 44.444443
v 8.888885 -0.000002 44.444443
v -8.888891 -0.000002 44.444443
v -26.666668 -0.000002 44.444443
v -44.444447 -0.000002 44.444443
v -62.222221 -0.000002 44.444443
v 62.222221 -0.000003 62.222221
v 44.444443 -0.000003 62.222221
v 26.666664 -0.000003 62.222221
v 8.888885 -0.000003 62.222221
v -8.888891 -0.000003 62.222221
v -26.666668 -0.000003 62.222221
v -44.444447 -0.000003 62.222221
v -62.222221 -0.000003 62.222221
vn -0.0000 1.0000 -0.0000
vn -0.0000 -1.0000 -0.0000
vn -0.0000 -0.0000 -1.0000
vn -0.0000 -0.0000 1.0000
vn -1.0000 -0.0000 -0.0000
vn 1.0000 -0.0000 -0.0000
vt 40.500000 -39.500000
vt -39.500000 40.500000
vt -39.500000 -39.500000
vt -39.491997 -30.604881
vt -30.604887 -39.491997
vt -30.604885 -30.604883
vt -0.462474 1.277756
vt -0.499973 1.499973
vt -0.499973 1.277756
vt -0.499973 -0.277757
vt -0.462474 -0.499973
vt -0.462474 -0.277757
vt -0.499973 -0.277757
vt -0.462474 1.277756
vt -0.499973 1.499973
vt -0.499973 1.277756
vt -0.499973 -0.499973
vt -0.499973 -0.055540
vt -0.462474 -0.055540
vt -0.499973 0.166676
vt -0.462474 0.166676
vt -0.499973 0.388892
vt -0.462474 0.388892
vt -0.499973 0.611108
vt -0.462474 0.611108
vt -0.499973 0.833324
vt -0.462474 0.833324
vt -0.499973 1.055540
vt -0.462474 1.055540
vt -0.462474 1.499973
vt -0.462474 0.611108
vt -0.499973 0.611108
vt -0.462474 0.388892
vt -0.499973 0.166676
vt -0.462474 0.166676
vt -0.462474 -0.055540
vt -39.491997 40.492001
vt -30.604885 31.604893
vt -30.604885 40.492001
vt -39.491997 31.604893
vt -30.604885 22.717779
vt -39.491997 22.717781
vt -30.604885 13.830670
vt -39.491997 13.830671
vt -30.604889 4.943560
vt -39.491997 -3.943549
vt -30.604889 -3.943550
vt -39.491997 -12.830660
vt -30.604885 -12.830661
vt -30.604885 -21.717770
vt -39.491997 -21.717770
vt -30.604885 31.604891
vt -39.491997 31.604891
vt 40.491997 -21.717777
vt 31.604887 -30.604885
vt 40.491997 -30.604887
vt 22.717777 -21.717773
vt 31.604889 -21.717775
vt 13.830667 -21.717773
vt 22.717775 -30.604883
vt 4.943556 -21.717772
vt 13.830667 -30.604887
vt -3.943553 -21.717770
vt 4.943556 -30.604887
vt -12.830664 -21.717770
vt -3.943554 -30.604887
vt -21.717773 -21.717770
vt -12.830663 -30.604883
vt -21.717775 -30.604885
vt 40.491997 -12.830667
vt 22.717777 -12.830666
vt 31.604889 -12.830667
vt 13.830667 -12.830667
vt 4.943556 -12.830665
vt -3.943553 -12.830664
vt -12.830664 -12.830663
vt -21.717773 -12.830662
vt 31.604889 -3.943556
vt 40.491997 -3.943557
vt 22.717777 -3.943556
vt 13.830667 -3.943555
vt 4.943556 -3.943554
vt -3.943553 -3.943553
vt -12.830666 -3.943552
vt -21.717773 -3.943551
vt 31.604889 4.943554
vt 40.491997 4.943553
vt 22.717777 4.943555
vt 4.943556 4.943557
vt 13.830667 4.943556
vt -3.943553 4.943557
vt -12.830666 4.943559
vt -21.717773 4.943559
vt 31.604891 13.830666
vt 40.492001 13.830664
vt 22.717777 13.830665
vt 4.943559 13.830667
vt 13.830670 13.830667
vt -3.943552 13.830667
vt -21.717773 13.830669
vt -12.830663 13.830668
vt 31.604891 22.717775
vt 40.492001 22.717773
vt 22.717781 22.717775
vt 4.943559 22.717775
vt 13.830669 22.717775
vt -3.943552 22.717775
vt -12.830663 22.717777
vt -21.717773 22.717779
vt 31.604889 31.604885
vt 40.492001 31.604885
vt 22.717779 31.604887
vt 13.830669 31.604889
vt 4.943559 31.604889
vt -3.943552 31.604889
vt -12.830663 31.604891
vt -21.717773 31.604891
vt 31.604889 40.491997
vt 40.492001 40.491997
vt 22.717779 40.491997
vt 13.830669 40.491997
vt 4.943559 40.491997
vt -3.943552 40.491997
vt -12.830663 40.492001
vt -21.717773 40.492001
vt 31.604885 -30.604885
vt 40.491997 -30.604889
vt -3.943552 31.604891
vt -12.830663 31.604893
vt -21.717773 31.604893
vt -0.462474 1.277756
vt -0.462474 1.499973
vt -0.462474 1.055540
vt -0.499973 1.055540
vt -0.499973 0.833324
vt -0.499973 0.611108
vt -0.499973 0.388892
vt -0.499973 0.166676
vt -0.499973 -0.055540
vt -0.499973 -0.499973
vt -0.462474 -0.055540
vt -0.462474 0.166676
vt -0.499973 0.388892
vt -0.462474 0.388892
vt -0.499973 0.611108
vt -0.462474 0.611108
vt -0.499973 0.833324
vt -0.462474 0.833324
vt -0.499973 1.055540
vt -0.462474 1.055540
vt 40.492001 -39.491997
vt 31.604889 -39.491997
vt 22.717777 -39.491997
vt 13.830667 -39.491997
vt 4.943556 -39.491997
vt -3.943555 -39.491997
vt -12.830666 -39.491997
vt -21.717777 -39.491997
vt 40.500000 40.500000
vt -39.491997 -39.491993
vt -0.499973 0.388892
vt -0.499973 -0.055540
vt -39.491997 4.943561
s 0
f 2/1/1 3/2/1 1/3/1
f 21/4/2 60/5/2 197/6/2
f 37/4/2 76/5/2 133/6/2
f 69/7/3 7/8/3 53/9/3
f 61/10/4 6/11/4 45/12/4
f 37/13/5 8/11/5 21/12/5
f 29/14/6 5/15/6 13/16/6
f 11/11/6 20/13/6 7/17/6
f 36/12/6 19/18/6 20/13/6
f 35/19/6 18/20/6 19/18/6
f 34/21/6 17/22/6 18/20/6
f 33/23/6 16/24/6 17/22/6
f 32/25/6 15/26/6 16/24/6
f 31/27/6 14/28/6 15/26/6
f 30/29/6 13/16/6 14/28/6
f 10/15/5 28/14/5 6/30/5
f 28/14/5 43/28/5 27/29/5
f 43/28/5 26/27/5 27/29/5
f 42/26/5 25/31/5 26/27/5
f 41/32/5 24/33/5 25/31/5
f 24/33/5 39/34/5 23/35/5
f 39/34/5 22/36/5 23/35/5
f 22/36/5 37/13/5 21/12/5
f 10/37/2 77/38/2 61/39/2
f 44/40/2 85/41/2 77/38/2
f 43/42/2 93/43/2 85/41/2
f 42/44/2 101/45/2 93/43/2
f 101/45/2 40/46/2 109/47/2
f 109/47/2 39/48/2 117/49/2
f 39/48/2 125/50/2 117/49/2
f 38/51/2 133/6/2 125/50/2
f 6/37/2 141/52/2 45/39/2
f 28/53/2 149/41/2 141/52/2
f 27/42/2 157/43/2 149/41/2
f 26/44/2 165/45/2 157/43/2
f 165/45/2 24/46/2 173/47/2
f 173/47/2 23/48/2 181/49/2
f 23/48/2 189/50/2 181/49/2
f 22/51/2 197/6/2 189/50/2
f 19/54/2 204/55/2 20/56/2
f 195/57/2 204/55/2 196/58/2
f 194/59/2 203/60/2 195/57/2
f 193/61/2 202/62/2 194/59/2
f 192/63/2 201/64/2 193/61/2
f 191/65/2 200/66/2 192/63/2
f 190/67/2 199/68/2 191/65/2
f 189/50/2 198/69/2 190/67/2
f 18/70/2 196/58/2 19/54/2
f 187/71/2 196/58/2 188/72/2
f 186/73/2 195/57/2 187/71/2
f 185/74/2 194/59/2 186/73/2
f 184/75/2 193/61/2 185/74/2
f 183/76/2 192/63/2 184/75/2
f 182/77/2 191/65/2 183/76/2
f 181/49/2 190/67/2 182/77/2
f 180/78/2 18/70/2 17/79/2
f 179/80/2 188/72/2 180/78/2
f 178/81/2 187/71/2 179/80/2
f 177/82/2 186/73/2 178/81/2
f 176/83/2 185/74/2 177/82/2
f 175/84/2 184/75/2 176/83/2
f 174/85/2 183/76/2 175/84/2
f 173/47/2 182/77/2 174/85/2
f 172/86/2 17/79/2 16/87/2
f 171/88/2 180/78/2 172/86/2
f 171/88/2 178/81/2 179/80/2
f 169/89/2 178/81/2 170/90/2
f 168/91/2 177/82/2 169/89/2
f 168/91/2 175/84/2 176/83/2
f 167/92/2 174/85/2 175/84/2
f 166/93/2 173/47/2 174/85/2
f 164/94/2 16/87/2 15/95/2
f 163/96/2 172/86/2 164/94/2
f 163/96/2 170/90/2 171/88/2
f 161/97/2 170/90/2 162/98/2
f 160/99/2 169/89/2 161/97/2
f 160/99/2 167/92/2 168/91/2
f 158/100/2 167/92/2 159/101/2
f 157/43/2 166/93/2 158/100/2
f 156/102/2 15/95/2 14/103/2
f 155/104/2 164/94/2 156/102/2
f 155/104/2 162/98/2 163/96/2
f 153/105/2 162/98/2 154/106/2
f 152/107/2 161/97/2 153/105/2
f 151/108/2 160/99/2 152/107/2
f 150/109/2 159/101/2 151/108/2
f 149/41/2 158/100/2 150/109/2
f 148/110/2 14/103/2 13/111/2
f 147/112/2 156/102/2 148/110/2
f 146/113/2 155/104/2 147/112/2
f 145/114/2 154/106/2 146/113/2
f 144/115/2 153/105/2 145/114/2
f 143/116/2 152/107/2 144/115/2
f 142/117/2 151/108/2 143/116/2
f 141/52/2 150/109/2 142/117/2
f 52/118/2 13/111/2 5/119/2
f 51/120/2 148/110/2 52/118/2
f 50/121/2 147/112/2 51/120/2
f 49/122/2 146/113/2 50/121/2
f 48/123/2 145/114/2 49/122/2
f 47/124/2 144/115/2 48/123/2
f 46/125/2 143/116/2 47/124/2
f 45/39/2 142/117/2 46/125/2
f 35/54/2 140/126/2 36/127/2
f 131/57/2 140/126/2 132/58/2
f 130/59/2 139/60/2 131/57/2
f 129/61/2 138/62/2 130/59/2
f 128/63/2 137/64/2 129/61/2
f 127/65/2 136/66/2 128/63/2
f 126/67/2 135/68/2 127/65/2
f 125/50/2 134/69/2 126/67/2
f 34/70/2 132/58/2 35/54/2
f 123/71/2 132/58/2 124/72/2
f 122/73/2 131/57/2 123/71/2
f 121/74/2 130/59/2 122/73/2
f 120/75/2 129/61/2 121/74/2
f 119/76/2 128/63/2 120/75/2
f 118/77/2 127/65/2 119/76/2
f 117/49/2 126/67/2 118/77/2
f 116/78/2 34/70/2 33/79/2
f 115/80/2 124/72/2 116/78/2
f 114/81/2 123/71/2 115/80/2
f 113/82/2 122/73/2 114/81/2
f 112/83/2 121/74/2 113/82/2
f 111/84/2 120/75/2 112/83/2
f 110/85/2 119/76/2 111/84/2
f 109/47/2 118/77/2 110/85/2
f 108/86/2 33/79/2 32/87/2
f 107/88/2 116/78/2 108/86/2
f 107/88/2 114/81/2 115/80/2
f 105/89/2 114/81/2 106/90/2
f 104/91/2 113/82/2 105/89/2
f 104/91/2 111/84/2 112/83/2
f 103/92/2 110/85/2 111/84/2
f 102/93/2 109/47/2 110/85/2
f 100/94/2 32/87/2 31/95/2
f 99/96/2 108/86/2 100/94/2
f 99/96/2 106/90/2 107/88/2
f 97/97/2 106/90/2 98/98/2
f 96/99/2 105/89/2 97/97/2
f 96/99/2 103/92/2 104/91/2
f 94/100/2 103/92/2 95/101/2
f 93/43/2 102/93/2 94/100/2
f 92/102/2 31/95/2 30/103/2
f 91/104/2 100/94/2 92/102/2
f 91/104/2 98/98/2 99/96/2
f 89/105/2 98/98/2 90/106/2
f 88/107/2 97/97/2 89/105/2
f 87/108/2 96/99/2 88/107/2
f 86/109/2 95/101/2 87/108/2
f 85/41/2 94/100/2 86/109/2
f 84/110/2 30/103/2 29/111/2
f 83/112/2 92/102/2 84/110/2
f 82/113/2 91/104/2 83/112/2
f 81/114/2 90/106/2 82/113/2
f 80/128/2 89/105/2 81/114/2
f 79/129/2 88/107/2 80/128/2
f 78/130/2 87/108/2 79/129/2
f 77/38/2 86/109/2 78/130/2
f 68/118/2 29/111/2 9/119/2
f 67/120/2 84/110/2 68/118/2
f 66/121/2 83/112/2 67/120/2
f 65/122/2 82/113/2 66/121/2
f 64/123/2 81/114/2 65/122/2
f 63/124/2 80/128/2 64/123/2
f 62/125/2 79/129/2 63/124/2
f 61/39/2 78/130/2 62/125/2
f 9/8/4 52/131/4 5/132/4
f 68/9/4 51/133/4 52/131/4
f 67/134/4 50/27/4 51/133/4
f 66/135/4 49/31/4 50/27/4
f 65/136/4 48/33/4 49/31/4
f 64/137/4 47/35/4 48/33/4
f 63/138/4 46/36/4 47/35/4
f 62/139/4 45/12/4 46/36/4
f 12/11/3 60/10/3 8/140/3
f 76/12/3 59/18/3 60/10/3
f 75/141/3 58/20/3 59/18/3
f 74/142/3 57/143/3 58/20/3
f 73/144/3 56/145/3 57/143/3
f 72/146/3 55/147/3 56/145/3
f 71/148/3 54/149/3 55/147/3
f 70/150/3 53/9/3 54/149/3
f 140/126/2 11/151/2 36/127/2
f 139/60/2 69/152/2 140/126/2
f 138/62/2 70/153/2 139/60/2
f 137/64/2 71/154/2 138/62/2
f 136/66/2 72/155/2 137/64/2
f 135/68/2 73/156/2 136/66/2
f 134/69/2 74/157/2 135/68/2
f 133/6/2 75/158/2 134/69/2
f 204/55/2 7/151/2 20/56/2
f 203/60/2 53/152/2 204/55/2
f 202/62/2 54/153/2 203/60/2
f 201/64/2 55/154/2 202/62/2
f 200/66/2 56/155/2 201/64/2
f 199/68/2 57/156/2 200/66/2
f 198/69/2 58/157/2 199/68/2
f 197/6/2 59/158/2 198/69/2
f 2/1/1 4/159/1 3/2/1
f 21/4/2 8/160/2 60/5/2
f 37/4/2 12/160/2 76/5/2
f 69/7/3 11/132/3 7/8/3
f 61/10/4 10/140/4 6/11/4
f 37/13/5 12/17/5 8/11/5
f 29/14/6 9/30/6 5/15/6
f 11/11/6 36/12/6 20/13/6
f 36/12/6 35/19/6 19/18/6
f 35/19/6 34/21/6 18/20/6
f 34/21/6 33/23/6 17/22/6
f 33/23/6 32/25/6 16/24/6
f 32/25/6 31/27/6 15/26/6
f 31/27/6 30/29/6 14/28/6
f 30/29/6 29/14/6 13/16/6
f 10/15/5 44/16/5 28/14/5
f 28/14/5 44/16/5 43/28/5
f 43/28/5 42/26/5 26/27/5
f 42/26/5 41/32/5 25/31/5
f 41/32/5 40/161/5 24/33/5
f 24/33/5 40/161/5 39/34/5
f 39/34/5 38/162/5 22/36/5
f 22/36/5 38/162/5 37/13/5
f 10/37/2 44/40/2 77/38/2
f 44/40/2 43/42/2 85/41/2
f 43/42/2 42/44/2 93/43/2
f 42/44/2 41/163/2 101/45/2
f 101/45/2 41/163/2 40/46/2
f 109/47/2 40/46/2 39/48/2
f 39/48/2 38/51/2 125/50/2
f 38/51/2 37/4/2 133/6/2
f 6/37/2 28/53/2 141/52/2
f 28/53/2 27/42/2 149/41/2
f 27/42/2 26/44/2 157/43/2
f 26/44/2 25/163/2 165/45/2
f 165/45/2 25/163/2 24/46/2
f 173/47/2 24/46/2 23/48/2
f 23/48/2 22/51/2 189/50/2
f 22/51/2 21/4/2 197/6/2
f 19/54/2 196/58/2 204/55/2
f 195/57/2 203/60/2 204/55/2
f 194/59/2 202/62/2 203/60/2
f 193/61/2 201/64/2 202/62/2
f 192/63/2 200/66/2 201/64/2
f 191/65/2 199/68/2 200/66/2
f 190/67/2 198/69/2 199/68/2
f 189/50/2 197/6/2 198/69/2
f 18/70/2 188/72/2 196/58/2
f 187/71/2 195/57/2 196/58/2
f 186/73/2 194/59/2 195/57/2
f 185/74/2 193/61/2 194/59/2
f 184/75/2 192/63/2 193/61/2
f 183/76/2 191/65/2 192/63/2
f 182/77/2 190/67/2 191/65/2
f 181/49/2 189/50/2 190/67/2
f 180/78/2 188/72/2 18/70/2
f 179/80/2 187/71/2 188/72/2
f 178/81/2 186/73/2 187/71/2
f 177/82/2 185/74/2 186/73/2
f 176/83/2 184/75/2 185/74/2
f 175/84/2 183/76/2 184/75/2
f 174/85/2 182/77/2 183/76/2
f 173/47/2 181/49/2 182/77/2
f 172/86/2 180/78/2 17/79/2
f 171/88/2 179/80/2 180/78/2
f 171/88/2 170/90/2 178/81/2
f 169/89/2 177/82/2 178/81/2
f 168/91/2 176/83/2 177/82/2
f 168/91/2 167/92/2 175/84/2
f 167/92/2 166/93/2 174/85/2
f 166/93/2 165/45/2 173/47/2
f 164/94/2 172/86/2 16/87/2
f 163/96/2 171/88/2 172/86/2
f 163/96/2 162/98/2 170/90/2
f 161/97/2 169/89/2 170/90/2
f 160/99/2 168/91/2 169/89/2
f 160/99/2 159/101/2 167/92/2
f 158/100/2 166/93/2 167/92/2
f 157/43/2 165/45/2 166/93/2
f 156/102/2 164/94/2 15/95/2
f 155/104/2 163/96/2 164/94/2
f 155/104/2 154/106/2 162/98/2
f 153/105/2 161/97/2 162/98/2
f 152/107/2 160/99/2 161/97/2
f 151/108/2 159/101/2 160/99/2
f 150/109/2 158/100/2 159/101/2
f 149/41/2 157/43/2 158/100/2
f 148/110/2 156/102/2 14/103/2
f 147/112/2 155/104/2 156/102/2
f 146/113/2 154/106/2 155/104/2
f 145/114/2 153/105/2 154/106/2
f 144/115/2 152/107/2 153/105/2
f 143/116/2 151/108/2 152/107/2
f 142/117/2 150/109/2 151/108/2
f 141/52/2 149/41/2 150/109/2
f 52/118/2 148/110/2 13/111/2
f 51/120/2 147/112/2 148/110/2
f 50/121/2 146/113/2 147/112/2
f 49/122/2 145/114/2 146/113/2
f 48/123/2 144/115/2 145/114/2
f 47/124/2 143/116/2 144/115/2
f 46/125/2 142/117/2 143/116/2
f 45/39/2 141/52/2 142/117/2
f 35/54/2 132/58/2 140/126/2
f 131/57/2 139/60/2 140/126/2
f 130/59/2 138/62/2 139/60/2
f 129/61/2 137/64/2 138/62/2
f 128/63/2 136/66/2 137/64/2
f 127/65/2 135/68/2 136/66/2
f 126/67/2 134/69/2 135/68/2
f 125/50/2 133/6/2 134/69/2
f 34/70/2 124/72/2 132/58/2
f 123/71/2 131/57/2 132/58/2
f 122/73/2 130/59/2 131/57/2
f 121/74/2 129/61/2 130/59/2
f 120/75/2 128/63/2 129/61/2
f 119/76/2 127/65/2 128/63/2
f 118/77/2 126/67/2 127/65/2
f 117/49/2 125/50/2 126/67/2
f 116/78/2 124/72/2 34/70/2
f 115/80/2 123/71/2 124/72/2
f 114/81/2 122/73/2 123/71/2
f 113/82/2 121/74/2 122/73/2
f 112/83/2 120/75/2 121/74/2
f 111/84/2 119/76/2 120/75/2
f 110/85/2 118/77/2 119/76/2
f 109/47/2 117/49/2 118/77/2
f 108/86/2 116/78/2 33/79/2
f 107/88/2 115/80/2 116/78/2
f 107/88/2 106/90/2 114/81/2
f 105/89/2 113/82/2 114/81/2
f 104/91/2 112/83/2 113/82/2
f 104/91/2 103/92/2 111/84/2
f 103/92/2 102/93/2 110/85/2
f 102/93/2 101/45/2 109/47/2
f 100/94/2 108/86/2 32/87/2
f 99/96/2 107/88/2 108/86/2
f 99/96/2 98/98/2 106/90/2
f 97/97/2 105/89/2 106/90/2
f 96/99/2 104/91/2 105/89/2
f 96/99/2 95/101/2 103/92/2
f 94/100/2 102/93/2 103/92/2
f 93/43/2 101/45/2 102/93/2
f 92/102/2 100/94/2 31/95/2
f 91/104/2 99/96/2 100/94/2
f 91/104/2 90/106/2 98/98/2
f 89/105/2 97/97/2 98/98/2
f 88/107/2 96/99/2 97/97/2
f 87/108/2 95/101/2 96/99/2
f 86/109/2 94/100/2 95/101/2
f 85/41/2 93/43/2 94/100/2
f 84/110/2 92/102/2 30/103/2
f 83/112/2 91/104/2 92/102/2
f 82/113/2 90/106/2 91/104/2
f 81/114/2 89/105/2 90/106/2
f 80/128/2 88/107/2 89/105/2
f 79/129/2 87/108/2 88/107/2
f 78/130/2 86/109/2 87/108/2
f 77/38/2 85/41/2 86/109/2
f 68/118/2 84/110/2 29/111/2
f 67/120/2 83/112/2 84/110/2
f 66/121/2 82/113/2 83/112/2
f 65/122/2 81/114/2 82/113/2
f 64/123/2 80/128/2 81/114/2
f 63/124/2 79/129/2 80/128/2
f 62/125/2 78/130/2 79/129/2
f 61/39/2 77/38/2 78/130/2
f 9/8/4 68/9/4 52/131/4
f 68/9/4 67/134/4 51/133/4
f 67/134/4 66/135/4 50/27/4
f 66/135/4 65/136/4 49/31/4
f 65/136/4 64/137/4 48/33/4
f 64/137/4 63/138/4 47/35/4
f 63/138/4 62/139/4 46/36/4
f 62/139/4 61/10/4 45/12/4
f 12/11/3 76/12/3 60/10/3
f 76/12/3 75/141/3 59/18/3
f 75/141/3 74/142/3 58/20/3
f 74/142/3 73/144/3 57/143/3
f 73/144/3 72/146/3 56/145/3
f 72/146/3 71/148/3 55/147/3
f 71/148/3 70/150/3 54/149/3
f 70/150/3 69/7/3 53/9/3
f 140/126/2 69/152/2 11/151/2
f 139/60/2 70/153/2 69/152/2
f 138/62/2 71/154/2 70/153/2
f 137/64/2 72/155/2 71/154/2
f 136/66/2 73/156/2 72/155/2
f 135/68/2 74/157/2 73/156/2
f 134/69/2 75/158/2 74/157/2
f 133/6/2 76/5/2 75/158/2
f 204/55/2 53/152/2 7/151/2
f 203/60/2 54/153/2 53/152/2
f 202/62/2 55/154/2 54/153/2
f 201/64/2 56/155/2 55/154/2
f 200/66/2 57/156/2 56/155/2
f 199/68/2 58/157/2 57/156/2
f 198/69/2 59/158/2 58/157/2
f 197/6/2 60/5/2 59/158/2
