# Blender 5.1.2
# www.blender.org
mtllib wood_frame_window.mtl
o Cube
v 0.180000 0.000000 -1.500000
v 0.180000 3.000000 -1.500000
v 0.180000 0.000000 1.500000
v 0.180000 3.000000 1.500000
v -0.020000 0.000000 -1.500000
v -0.020000 3.000000 -1.500000
v -0.020000 0.000000 1.500000
v -0.020000 3.000000 1.500000
v -0.020000 2.850000 1.350000
v -0.020000 0.150000 1.350000
v -0.020000 0.150000 -1.350000
v -0.020000 2.850000 -1.350000
v 0.080000 2.850000 1.350000
v 0.080000 0.150000 1.350000
v 0.080000 0.150000 -1.350000
v 0.080000 2.850000 -1.350000
v 0.180000 0.000000 0.850000
v 0.180000 0.000000 -0.850000
v 0.180000 3.000000 -0.850000
v 0.180000 3.000000 0.850000
v -0.020000 0.000000 -0.850000
v -0.020000 0.000000 0.850000
v -0.020000 3.000000 0.850000
v -0.020000 3.000000 -0.850000
v -0.020000 0.150000 -0.800000
v -0.020000 0.150000 0.800000
v -0.020000 2.850000 0.800000
v -0.020000 2.850000 -0.800000
v 0.080000 0.150000 -0.800000
v 0.080000 0.150000 0.800000
v 0.080000 2.850000 0.800000
v 0.080000 2.850000 -0.800000
v 0.180000 0.000000 -1.000000
v -0.020000 3.000000 -1.000000
v -0.020000 2.850000 -0.935000
v 0.080000 2.850000 -0.935000
v 0.180000 3.000000 -1.000000
v -0.020000 0.000000 -1.000000
v -0.020000 0.150000 -0.935000
v 0.080000 0.150000 -0.935000
v 0.180000 3.000000 1.000000
v -0.020000 0.000000 1.000000
v -0.020000 0.150000 0.935000
v 0.080000 0.150000 0.935000
v 0.180000 0.000000 1.000000
v -0.020000 3.000000 1.000000
v -0.020000 2.850000 0.935000
v 0.080000 2.850000 0.935000
v 0.180000 1.000000 -1.500000
v 0.180000 2.350000 -1.500000
v 0.180000 2.350000 1.500000
v 0.180000 1.000000 1.500000
v -0.020000 2.350000 1.500000
v -0.020000 1.000000 1.500000
v -0.020000 2.350000 -1.500000
v -0.020000 1.000000 -1.500000
v -0.020000 2.300000 1.350000
v -0.020000 1.050000 1.350000
v -0.020000 2.300000 -1.350000
v -0.020000 1.050000 -1.350000
v 0.080000 2.300000 1.350000
v 0.080000 1.050000 1.350000
v 0.080000 2.300000 -1.350000
v 0.080000 1.050000 -1.350000
v 0.080000 2.300000 0.800000
v 0.080000 1.050000 0.800000
v 0.080000 2.300000 -0.800000
v 0.080000 1.050000 -0.800000
v 0.180000 2.350000 -0.850000
v 0.180000 1.000000 -0.850000
v 0.180000 2.350000 0.850000
v 0.180000 1.000000 0.850000
v 0.180000 2.350000 -1.000000
v 0.180000 1.000000 -1.000000
v 0.080000 2.300000 -0.935000
v 0.080000 1.050000 -0.935000
v 0.080000 2.300000 0.935000
v 0.080000 1.050000 0.935000
v 0.180000 2.350000 1.000000
v 0.180000 1.000000 1.000000
v 0.180000 2.500000 -1.500000
v 0.180000 2.500000 1.500000
v -0.020000 2.500000 1.500000
v -0.020000 2.500000 -1.500000
v -0.020000 2.435000 1.350000
v -0.020000 2.435000 -1.350000
v 0.080000 2.435000 1.350000
v 0.080000 2.435000 -1.350000
v 0.080000 2.435000 0.800000
v 0.080000 2.435000 -0.800000
v 0.180000 2.500000 -0.850000
v 0.180000 2.500000 0.850000
v 0.180000 2.500000 -1.000000
v 0.080000 2.435000 -0.935000
v 0.080000 2.435000 0.935000
v 0.180000 2.500000 1.000000
v 0.180000 0.850000 1.500000
v -0.020000 0.850000 1.500000
v -0.020000 0.850000 -1.500000
v -0.020000 0.915000 1.350000
v -0.020000 0.915000 -1.350000
v 0.080000 0.915000 1.350000
v 0.080000 0.915000 -1.350000
v 0.080000 0.915000 0.800000
v 0.080000 0.915000 -0.800000
v 0.180000 0.850000 -0.850000
v 0.180000 0.850000 0.850000
v 0.180000 0.850000 -1.000000
v 0.080000 0.915000 -0.935000
v 0.080000 0.915000 0.935000
v 0.180000 0.850000 1.000000
v 0.180000 0.850000 -1.500000
v -0.020000 0.150000 -0.935000
v -0.020000 0.150000 -0.800000
v -0.020000 2.850000 0.935000
v -0.020000 2.850000 0.800000
v -0.020000 0.915000 0.800000
v -0.020000 0.150000 0.800000
v -0.020000 0.915000 -0.800000
v -0.020000 2.850000 -0.800000
v -0.020000 2.850000 -0.935000
v -0.020000 0.915000 -0.935000
v -0.020000 0.150000 0.935000
v -0.020000 0.915000 0.935000
v -0.020000 2.435000 1.350000
v -0.020000 2.300000 1.350000
v -0.020000 2.435000 -1.350000
v -0.020000 2.300000 -1.350000
v -0.020000 2.435000 0.800000
v -0.020000 2.300000 0.800000
v -0.020000 1.050000 0.800000
v -0.020000 2.435000 -0.800000
v -0.020000 2.300000 -0.800000
v -0.020000 1.050000 -0.800000
v -0.020000 2.435000 -0.935000
v -0.020000 2.300000 -0.935000
v -0.020000 1.050000 -0.935000
v -0.020000 2.435000 0.935000
v -0.020000 2.300000 0.935000
v -0.020000 1.050000 0.935000
vn 1.0000 -0.0000 -0.0000
vn -0.0000 -0.0000 1.0000
vn -1.0000 -0.0000 -0.0000
vn -0.0000 -0.0000 -1.0000
vn -0.0000 -1.0000 -0.0000
vn -0.0000 1.0000 -0.0000
vn 0.4472 0.8944 -0.0000
vn 0.4472 -0.0000 -0.8944
vn 0.4472 -0.8944 -0.0000
vn 0.4472 -0.0000 0.8944
vt 0.000100 0.283377
vt 0.283377 0.000100
vt 0.283377 0.283377
vt 0.066689 0.999974
vt 0.000026 0.716655
vt 0.066689 0.716655
vt 0.000100 0.283377
vt 0.050090 0.050090
vt 0.050090 0.305039
vt 0.066689 0.999974
vt 0.000026 0.716655
vt 0.066689 0.716655
vt 0.066689 0.716655
vt 0.000026 0.999974
vt 0.000026 0.716655
vt 0.066689 0.716655
vt 0.000026 0.999974
vt 0.000026 0.716655
vt 0.037055 0.716658
vt 0.000019 0.999981
vt 0.000019 0.716658
vt 0.716623 0.000100
vt 0.949910 0.050090
vt 0.694961 0.050090
vt 0.283377 0.999900
vt 0.050090 0.949910
vt 0.305039 0.949910
vt 0.999900 0.716623
vt 0.949910 0.949910
vt 0.949910 0.694961
vt 0.999900 0.716623
vt 0.716623 0.999900
vt 0.716623 0.716623
vt 0.037055 0.999981
vt 0.000019 0.716658
vt 0.037055 0.716658
vt 0.000019 0.000019
vt 0.037055 0.283342
vt 0.000019 0.283342
vt 0.037055 0.999981
vt 0.000019 0.716658
vt 0.037055 0.716658
vt 0.037055 0.333340
vt 0.000019 0.283342
vt 0.037055 0.283342
vt 0.037055 0.666660
vt 0.000019 0.333340
vt 0.333367 0.666633
vt 0.333367 0.333367
vt 0.999900 0.333367
vt 0.716623 0.666633
vt 0.716623 0.333367
vt 0.666633 0.999900
vt 0.694961 0.949910
vt 0.716623 0.999900
vt 0.333367 0.999900
vt 0.649970 0.949910
vt 0.333367 0.000100
vt 0.305039 0.050090
vt 0.283377 0.000100
vt 0.666633 0.000100
vt 0.350030 0.050090
vt 0.037055 0.283342
vt 0.000019 0.333340
vt 0.000019 0.283342
vt 0.037055 0.333340
vt 0.066689 0.283345
vt 0.000026 0.333342
vt 0.000026 0.283345
vt 0.066689 0.666658
vt 0.000026 0.666658
vt 0.066689 0.283345
vt 0.000026 0.333342
vt 0.000026 0.283345
vt 0.066689 0.333342
vt 0.000026 0.666658
vt 0.000100 0.716623
vt 0.283377 0.666633
vt 0.283377 0.716623
vt 0.000100 0.666633
vt 0.283377 0.333367
vt 0.000100 0.999900
vt 0.283377 0.999900
vt 0.000100 0.000100
vt 0.000019 0.000019
vt 0.037055 0.000019
vt 0.350030 0.949910
vt 0.000019 0.666660
vt 0.066689 0.666658
vt 0.066689 0.000026
vt 0.000026 0.000026
vt 0.066689 0.000026
vt 0.000026 0.000026
vt 0.037055 0.000019
vt 0.000019 0.000019
vt 0.999900 0.999900
vt 0.999900 0.000100
vt 0.716623 0.283377
vt 0.716623 0.000100
vt 0.000019 0.666660
vt 0.649970 0.050090
vt 0.000100 0.333367
vt 0.666633 0.333367
vt 0.666633 0.283377
vt 0.333367 0.000100
vt 0.283377 0.283377
vt 0.283377 0.000100
vt 0.666633 0.000100
vt 0.333367 0.283377
vt 0.666633 0.333367
vt 0.666633 0.999900
vt 0.716623 0.716623
vt 0.716623 0.999900
vt 0.333367 0.999900
vt 0.666633 0.716623
vt 0.666633 0.666633
vt 0.716623 0.666633
vt 0.333367 0.716623
vt 0.666633 0.283377
vt 0.000019 0.666660
vt 0.037055 0.716658
vt 0.000019 0.716658
vt 0.000019 0.333340
vt 0.037055 0.666660
vt 0.037055 0.333340
vt 0.000019 0.283342
vt 0.037055 0.283342
vt 0.037055 0.666660
vt 0.000019 0.333340
vt 0.333367 0.716623
vt 0.283377 0.999900
vt 0.283377 0.716623
vt 0.666633 0.716623
vt 0.333367 0.999900
vt 0.999900 0.333367
vt 0.949910 0.305039
vt 0.999900 0.283377
vt 0.999900 0.666633
vt 0.949910 0.350030
vt 0.066689 0.333342
vt 0.000026 0.283345
vt 0.066689 0.283345
vt 0.066689 0.666658
vt 0.000026 0.333342
vt 0.000100 0.666633
vt 0.050090 0.694961
vt 0.000100 0.716623
vt 0.000100 0.333367
vt 0.050090 0.649970
vt 0.000026 0.283344
vt 0.066689 0.283344
vt 0.066689 0.666658
vt 0.000026 0.333342
vt 0.716623 0.000100
vt 0.333367 0.283377
vt 0.666633 0.000100
vt 0.000100 0.999900
vt 0.037055 0.999981
vt 0.000019 0.999981
vt 0.333367 0.666633
vt 0.666633 0.666633
vt 0.000019 0.666660
vt 0.949910 0.649970
vt 0.000026 0.666658
vt 0.000026 0.666658
vt 0.333367 0.000100
vt 0.999900 0.000100
vt 0.999900 0.283377
vt 0.000026 0.000026
vt 0.066689 0.000026
vt 0.000026 0.000026
vt 0.066689 0.000026
vt 0.999900 0.000100
vt 0.000100 0.999900
vt 0.000100 0.716623
vt 0.000019 0.000019
vt 0.037055 0.000019
vt 0.283377 0.333367
vt 0.000100 0.666633
vt 0.000100 0.333367
vt 0.999900 0.666633
vt 0.999900 0.716623
vt 0.999900 0.333367
vt 0.999900 0.999900
vt 0.666633 0.999900
vt 0.000100 0.283377
vt 0.000100 0.000100
vt 0.037055 0.333340
vt 0.050090 0.350030
vt 0.999900 0.283377
vt 0.999900 0.666633
vt 0.283377 0.666633
vt 0.000100 0.000100
vt 0.000026 0.999974
vt 0.000026 0.999974
vt 0.066689 0.999974
vt 0.066689 0.999974
vt 0.037055 0.999981
vt 0.999900 0.999900
vt 0.000019 0.999981
vt 0.037055 0.000019
vt 0.000019 0.999981
vt 0.066689 0.333342
s 0
usemtl Planks
f 4/4/2 83/5/2 82/6/2
f 99/7/3 11/8/3 101/9/3
f 6/10/4 81/11/4 84/12/4
f 38/13/5 1/14/5 33/15/5
f 37/16/6 6/17/6 34/18/6
f 35/19/5 16/20/5 36/21/5
f 42/22/3 10/23/3 43/24/3
f 34/25/3 12/26/3 35/27/3
f 83/28/3 9/29/3 85/30/3
f 9/34/4 87/35/4 85/36/4
f 11/37/2 103/38/2 101/39/2
f 10/40/6 44/41/6 43/42/6
f 25/43/6 40/44/6 39/45/6
f 26/46/6 29/47/6 25/43/6
f 68/48/6 131/49/6 66/49/6
f 23/53/3 47/54/3 46/55/3
f 24/56/3 27/57/3 23/53/3
f 21/58/3 39/59/3 38/60/3
f 22/61/3 25/62/3 21/58/3
f 47/63/5 31/64/5 48/65/5
f 28/46/5 31/64/5 27/66/5
f 41/67/6 23/68/6 46/69/6
f 23/68/6 19/70/6 24/71/6
f 42/72/5 17/73/5 45/74/5
f 22/75/5 18/76/5 17/73/5
f 38/60/3 11/8/3 5/84/3
f 39/45/6 15/85/6 11/86/6
f 31/64/6 115/65/6 48/65/6
f 24/56/3 35/27/3 28/87/3
f 28/46/5 36/21/5 32/88/5
f 19/70/6 34/18/6 24/71/6
f 21/89/5 33/15/5 18/76/5
f 7/90/5 45/74/5 3/91/5
f 4/92/6 46/69/6 8/93/6
f 9/94/5 48/65/5 13/95/5
f 46/55/3 9/29/3 8/96/3
f 43/42/6 30/100/6 26/46/6
f 22/61/3 43/24/3 26/101/3
f 66/49/4 130/110/4 65/110/4
f 65/110/4 129/52/4 89/52/4
f 95/98/6 125/99/6 87/99/6
f 66/49/8 71/49/8 72/103/8
f 77/119/2 140/109/2 78/109/2
f 78/109/2 124/106/2 110/106/2
f 59/120/2 88/121/2 86/122/2
f 60/123/2 63/124/2 59/120/2
f 58/125/4 102/126/4 100/127/4
f 57/128/4 62/129/4 58/125/4
f 54/135/3 100/136/3 98/137/3
f 53/138/3 58/139/3 54/135/3
f 56/140/4 112/141/4 99/142/4
f 55/143/4 49/144/4 56/140/4
f 55/145/3 86/146/3 84/147/3
f 56/148/3 59/149/3 55/145/3
f 52/75/2 98/150/2 97/151/2
f 51/152/2 54/153/2 52/75/2
f 84/147/3 12/26/3 6/157/3
f 86/122/2 16/158/2 12/159/2
f 40/44/5 114/47/5 113/44/5
f 109/132/4 137/130/4 76/130/4
f 63/124/4 127/121/4 88/121/4
f 85/36/4 61/162/4 57/128/4
f 30/100/5 123/41/5 118/100/5
f 53/138/3 85/30/3 57/163/3
f 84/12/4 50/164/4 55/143/4
f 82/6/2 53/165/2 51/152/2
f 97/151/2 7/169/2 3/170/2
f 99/142/4 1/171/4 5/172/4
f 98/137/3 10/23/3 7/173/3
f 100/127/4 14/176/4 10/177/4
f 76/130/4 136/133/4 75/133/4
f 63/185/5 136/133/5 128/185/5
f 101/39/2 64/188/2 60/123/2
f 56/148/3 101/9/3 60/189/3
f 115/190/3 129/52/3 138/98/3
f 120/191/3 135/33/3 132/51/3
f 134/48/3 122/132/3 119/192/3
f 133/161/3 137/130/3 134/48/3
f 131/49/3 119/192/3 117/178/3
f 140/109/3 117/178/3 124/106/3
f 139/119/3 131/49/3 140/109/3
f 125/99/3 139/119/3 126/108/3
f 132/51/3 136/133/3 133/161/3
f 138/98/3 130/110/3 139/119/3
f 135/33/3 128/185/3 136/133/3
f 124/106/3 118/180/3 123/186/3
f 119/192/3 113/175/3 114/179/3
f 90/51/2 133/161/2 67/161/2
f 89/52/4 116/50/4 31/50/4
f 67/161/2 134/48/2 68/48/2
f 40/175/4 122/132/4 109/132/4
f 32/191/2 132/51/2 90/51/2
f 30/180/4 117/178/4 104/178/4
f 77/119/5 126/108/5 139/119/5
f 105/192/2 114/179/2 29/179/2
f 110/106/2 123/186/2 44/186/2
f 94/33/4 121/31/4 36/31/4
f 88/32/6 135/33/6 94/33/6
f 48/190/2 138/98/2 95/98/2
f 36/21/6 120/88/6 32/88/6
f 104/178/5 119/192/5 105/192/5
f 87/35/2 126/162/2 61/162/2
f 70/116/10 67/161/10 68/48/10
f 4/4/2 8/194/2 83/5/2
f 99/7/3 5/84/3 11/8/3
f 6/10/4 2/195/4 81/11/4
f 38/13/5 5/196/5 1/14/5
f 37/16/6 2/197/6 6/17/6
f 35/19/5 12/198/5 16/20/5
f 42/22/3 7/173/3 10/23/3
f 34/25/3 6/157/3 12/26/3
f 83/28/3 8/96/3 9/29/3
f 9/34/4 13/200/4 87/35/4
f 11/37/2 15/201/2 103/38/2
f 10/40/6 14/202/6 44/41/6
f 25/43/6 29/47/6 40/44/6
f 26/46/6 30/100/6 29/47/6
f 68/48/6 134/48/6 131/49/6
f 23/53/3 27/57/3 47/54/3
f 24/56/3 28/87/3 27/57/3
f 21/58/3 25/62/3 39/59/3
f 22/61/3 26/101/3 25/62/3
f 47/63/5 27/66/5 31/64/5
f 28/46/5 32/88/5 31/64/5
f 41/67/6 20/203/6 23/68/6
f 23/68/6 20/203/6 19/70/6
f 42/72/5 22/75/5 17/73/5
f 22/75/5 21/89/5 18/76/5
f 38/60/3 39/59/3 11/8/3
f 39/45/6 40/44/6 15/85/6
f 31/64/6 116/64/6 115/65/6
f 24/56/3 34/25/3 35/27/3
f 28/46/5 35/19/5 36/21/5
f 19/70/6 37/16/6 34/18/6
f 21/89/5 38/13/5 33/15/5
f 7/90/5 42/72/5 45/74/5
f 4/92/6 41/67/6 46/69/6
f 9/94/5 47/63/5 48/65/5
f 46/55/3 47/54/3 9/29/3
f 43/42/6 44/41/6 30/100/6
f 22/61/3 42/22/3 43/24/3
f 66/49/4 131/49/4 130/110/4
f 65/110/4 130/110/4 129/52/4
f 95/98/6 138/98/6 125/99/6
f 66/49/8 65/110/8 71/49/8
f 77/119/2 139/119/2 140/109/2
f 78/109/2 140/109/2 124/106/2
f 59/120/2 63/124/2 88/121/2
f 60/123/2 64/188/2 63/124/2
f 58/125/4 62/129/4 102/126/4
f 57/128/4 61/162/4 62/129/4
f 54/135/3 58/139/3 100/136/3
f 53/138/3 57/163/3 58/139/3
f 56/140/4 49/144/4 112/141/4
f 55/143/4 50/164/4 49/144/4
f 55/145/3 59/149/3 86/146/3
f 56/148/3 60/189/3 59/149/3
f 52/75/2 54/153/2 98/150/2
f 51/152/2 53/165/2 54/153/2
f 84/147/3 86/146/3 12/26/3
f 86/122/2 88/121/2 16/158/2
f 40/44/5 29/47/5 114/47/5
f 109/132/4 122/132/4 137/130/4
f 63/124/4 128/124/4 127/121/4
f 85/36/4 87/35/4 61/162/4
f 30/100/5 44/41/5 123/41/5
f 53/138/3 83/28/3 85/30/3
f 84/12/4 81/11/4 50/164/4
f 82/6/2 83/5/2 53/165/2
f 97/151/2 98/150/2 7/169/2
f 99/142/4 112/141/4 1/171/4
f 98/137/3 100/136/3 10/23/3
f 100/127/4 102/126/4 14/176/4
f 76/130/4 137/130/4 136/133/4
f 63/185/5 75/133/5 136/133/5
f 101/39/2 103/38/2 64/188/2
f 56/148/3 99/7/3 101/9/3
f 115/190/3 116/50/3 129/52/3
f 120/191/3 121/31/3 135/33/3
f 134/48/3 137/130/3 122/132/3
f 133/161/3 136/133/3 137/130/3
f 131/49/3 134/48/3 119/192/3
f 140/109/3 131/49/3 117/178/3
f 139/119/3 130/110/3 131/49/3
f 125/99/3 138/98/3 139/119/3
f 132/51/3 135/33/3 136/133/3
f 138/98/3 129/52/3 130/110/3
f 135/33/3 127/32/3 128/185/3
f 124/106/3 117/178/3 118/180/3
f 119/192/3 122/132/3 113/175/3
f 90/51/2 132/51/2 133/161/2
f 89/52/4 129/52/4 116/50/4
f 67/161/2 133/161/2 134/48/2
f 40/175/4 113/175/4 122/132/4
f 32/191/2 120/191/2 132/51/2
f 30/180/4 118/180/4 117/178/4
f 77/119/5 61/108/5 126/108/5
f 105/192/2 119/192/2 114/179/2
f 110/106/2 124/106/2 123/186/2
f 94/33/4 135/33/4 121/31/4
f 88/32/6 127/32/6 135/33/6
f 48/190/2 115/190/2 138/98/2
f 36/21/6 121/21/6 120/88/6
f 104/178/5 117/178/5 119/192/5
f 87/35/2 125/35/2 126/162/2
f 70/116/10 69/160/10 67/161/10
usemtl Panel
f 41/1/1 82/2/1 96/3/1
f 36/31/3 88/32/3 94/33/3
f 31/50/3 90/51/3 89/52/3
f 37/77/1 91/78/1 93/79/1
f 19/80/1 92/81/1 91/78/1
f 2/82/1 93/79/1 81/83/1
f 13/97/3 95/98/3 87/99/3
f 20/102/1 96/3/1 92/81/1
f 72/103/1 111/98/1 107/52/1
f 71/49/1 80/104/1 72/103/1
f 62/105/3 110/106/3 102/107/3
f 61/108/3 78/109/3 62/105/3
f 49/111/1 108/112/1 112/113/1
f 50/114/1 74/115/1 49/111/1
f 70/116/1 107/52/1 106/117/1
f 68/48/7 72/103/7 70/116/7
f 74/115/1 106/117/1 108/112/1
f 73/118/1 70/116/1 74/115/1
f 76/130/3 103/131/3 109/132/3
f 75/133/3 64/134/3 76/130/3
f 80/104/1 97/154/1 111/98/1
f 79/155/1 52/156/1 80/104/1
f 92/81/1 79/155/1 71/49/1
f 81/83/1 73/118/1 50/114/1
f 91/78/1 71/49/1 69/160/1
f 93/79/1 69/160/1 73/118/1
f 89/52/3 67/161/3 65/110/3
f 96/3/1 51/166/1 79/155/1
f 111/98/1 3/167/1 45/168/1
f 109/132/3 15/174/3 40/175/3
f 104/178/3 29/179/3 30/180/3
f 108/112/1 18/181/1 33/182/1
f 106/117/1 17/183/1 18/181/1
f 112/113/1 33/182/1 1/184/1
f 102/107/3 44/186/3 14/187/3
f 107/52/1 45/168/1 17/183/1
f 71/49/9 67/161/9 69/160/9
f 41/1/1 4/193/1 82/2/1
f 36/31/3 16/199/3 88/32/3
f 31/50/3 32/191/3 90/51/3
f 37/77/1 19/80/1 91/78/1
f 19/80/1 20/102/1 92/81/1
f 2/82/1 37/77/1 93/79/1
f 13/97/3 48/190/3 95/98/3
f 20/102/1 41/1/1 96/3/1
f 72/103/1 80/104/1 111/98/1
f 71/49/1 79/155/1 80/104/1
f 62/105/3 78/109/3 110/106/3
f 61/108/3 77/119/3 78/109/3
f 49/111/1 74/115/1 108/112/1
f 50/114/1 73/118/1 74/115/1
f 70/116/1 72/103/1 107/52/1
f 68/48/7 66/49/7 72/103/7
f 74/115/1 70/116/1 106/117/1
f 73/118/1 69/160/1 70/116/1
f 76/130/3 64/134/3 103/131/3
f 75/133/3 63/185/3 64/134/3
f 80/104/1 52/156/1 97/154/1
f 79/155/1 51/166/1 52/156/1
f 92/81/1 96/3/1 79/155/1
f 81/83/1 93/79/1 73/118/1
f 91/78/1 92/81/1 71/49/1
f 93/79/1 91/78/1 69/160/1
f 89/52/3 90/51/3 67/161/3
f 96/3/1 82/2/1 51/166/1
f 111/98/1 97/154/1 3/167/1
f 109/132/3 103/131/3 15/174/3
f 104/178/3 105/192/3 29/179/3
f 108/112/1 106/117/1 18/181/1
f 106/117/1 107/52/1 17/183/1
f 112/113/1 108/112/1 33/182/1
f 102/107/3 110/106/3 44/186/3
f 107/52/1 111/98/1 45/168/1
f 71/49/9 65/110/9 67/161/9
