# Blender 5.1.2
# www.blender.org
mtllib wood_frame_doorway.mtl
o Cube
v 0.180000 0.000000 -1.500000
v 0.180000 3.000000 -1.500000
v 0.180000 0.000000 1.500000
v 0.180000 3.000000 1.500000
v -0.020000 0.000000 -1.500000
v -0.020000 3.000000 -1.500000
v -0.020000 0.000000 1.500000
v -0.020000 3.000000 1.500000
v -0.020000 2.850000 1.350000
v -0.020000 0.150000 1.350000
v -0.020000 0.150000 -1.350000
v -0.020000 2.850000 -1.350000
v 0.080000 2.850000 1.350000
v 0.080000 0.150000 1.350000
v 0.080000 0.150000 -1.350000
v 0.080000 2.850000 -1.350000
v 0.180000 0.000000 0.700000
v 0.180000 0.000000 -0.700000
v 0.180000 3.000000 -0.700000
v 0.180000 3.000000 0.700000
v -0.020000 0.000000 -0.700000
v -0.020000 0.000000 0.700000
v -0.020000 3.000000 0.700000
v -0.020000 3.000000 -0.700000
v -0.020000 0.150000 -0.650000
v -0.020000 0.150000 0.650000
v -0.020000 2.850000 0.650000
v -0.020000 2.850000 -0.650000
v 0.180000 0.150000 -0.650000
v 0.180000 0.150000 0.650000
v 0.080000 2.850000 0.650000
v 0.080000 2.850000 -0.650000
v 0.180000 2.100000 -1.500000
v 0.180000 2.100000 1.500000
v -0.020000 2.100000 1.500000
v -0.020000 2.100000 -1.500000
v -0.020000 2.040000 1.350000
v -0.020000 2.040000 -1.350000
v 0.080000 2.040000 1.350000
v 0.080000 2.040000 -1.350000
v 0.180000 2.040000 0.650000
v 0.180000 2.040000 -0.650000
v 0.180000 2.100000 -0.700000
v 0.180000 2.100000 0.700000
v 0.180000 3.000000 0.860000
v -0.020000 0.000000 0.860000
v -0.020000 0.150000 0.790000
v 0.080000 0.150000 0.790000
v 0.180000 0.000000 0.860000
v -0.020000 3.000000 0.860000
v -0.020000 2.850000 0.790000
v 0.080000 2.850000 0.790000
v 0.080000 2.040000 0.790000
v 0.180000 2.100000 0.860000
v 0.180000 0.000000 -0.860000
v -0.020000 3.000000 -0.860000
v -0.020000 2.850000 -0.790000
v 0.080000 2.850000 -0.790000
v 0.180000 3.000000 -0.860000
v -0.020000 0.000000 -0.860000
v -0.020000 0.150000 -0.790000
v 0.080000 0.150000 -0.790000
v 0.180000 2.100000 -0.860000
v 0.080000 2.040000 -0.790000
v 0.180000 2.235000 -1.500000
v 0.180000 2.235000 1.500000
v -0.020000 2.235000 1.500000
v -0.020000 2.235000 -1.500000
v -0.020000 2.161500 1.350000
v -0.020000 2.161500 -1.350000
v 0.080000 2.161500 1.350000
v 0.080000 2.161500 -1.350000
v 0.080000 2.161500 0.650000
v 0.080000 2.161500 -0.650000
v 0.180000 2.235000 -0.700000
v 0.180000 2.235000 0.700000
v 0.080000 2.161500 0.790000
v 0.180000 2.235000 0.860000
v 0.180000 2.235000 -0.860000
v 0.080000 2.161500 -0.790000
v -0.020000 0.150000 -0.790000
v -0.020000 0.150000 -0.650000
v -0.020000 2.040000 0.650000
v -0.020000 0.150000 0.650000
v -0.020000 2.040000 -0.650000
v -0.020000 2.161500 0.650000
v -0.020000 2.161500 -0.650000
v -0.020000 2.040000 0.790000
v -0.020000 0.150000 0.790000
v -0.020000 2.161500 0.790000
v -0.020000 2.040000 -0.790000
v -0.020000 2.161500 -0.790000
vn 1.0000 -0.0000 -0.0000
vn -0.0000 -0.0000 1.0000
vn -1.0000 -0.0000 -0.0000
vn -0.0000 -0.0000 -1.0000
vn -0.0000 -1.0000 -0.0000
vn -0.0000 1.0000 -0.0000
vn -0.0000 -0.3162 0.9487
vn -0.0000 -0.3162 -0.9487
vt 0.000100 0.266713
vt 0.255049 0.000100
vt 0.255049 0.266713
vt 0.066689 0.999974
vt 0.000026 0.744987
vt 0.066689 0.744987
vt 0.000100 0.699960
vt 0.050090 0.050090
vt 0.050090 0.679964
vt 0.066689 0.999974
vt 0.000026 0.744987
vt 0.066689 0.744987
vt 0.066689 0.733321
vt 0.000026 0.999974
vt 0.000026 0.733321
vt 0.000026 0.733321
vt 0.066689 0.999974
vt 0.000026 0.999974
vt 0.037055 0.999981
vt 0.000019 0.733324
vt 0.037055 0.733324
vt 0.733287 0.000100
vt 0.949910 0.050090
vt 0.709958 0.050090
vt 0.266713 0.999900
vt 0.050090 0.949910
vt 0.290042 0.949910
vt 0.999900 0.744951
vt 0.949910 0.949910
vt 0.949910 0.720456
vt 0.999900 0.733287
vt 0.744951 0.999900
vt 0.744951 0.733287
vt 0.037055 0.999981
vt 0.000019 0.744991
vt 0.037055 0.744991
vt 0.000019 0.000019
vt 0.037055 0.699992
vt 0.000019 0.699992
vt 0.037055 0.999981
vt 0.000019 0.733324
vt 0.037055 0.733324
vt 0.037055 0.333340
vt 0.000019 0.266676
vt 0.037055 0.266676
vt 0.699960 0.666633
vt 0.000100 0.733287
vt 0.000100 0.666633
vt 0.999900 0.266713
vt 0.744951 0.333367
vt 0.744951 0.266713
vt 0.999900 0.333367
vt 0.744951 0.666633
vt 0.666633 0.999900
vt 0.709958 0.949910
vt 0.733286 0.999900
vt 0.333367 0.999900
vt 0.649970 0.949910
vt 0.333367 0.000100
vt 0.290042 0.050090
vt 0.266713 0.000100
vt 0.699960 0.733287
vt 0.037055 0.266676
vt 0.000019 0.333340
vt 0.000019 0.266676
vt 0.037055 0.666660
vt 0.037055 0.333340
vt 0.066689 0.266679
vt 0.000026 0.333342
vt 0.000026 0.266679
vt 0.066689 0.666658
vt 0.000026 0.666658
vt 0.066689 0.266679
vt 0.000026 0.333342
vt 0.000026 0.266679
vt 0.699960 0.266713
vt 0.000100 0.333367
vt 0.000100 0.266713
vt 0.000100 0.733287
vt 0.255049 0.666633
vt 0.255049 0.733287
vt 0.000100 0.666633
vt 0.255049 0.333367
vt 0.699960 0.333367
vt 0.300040 0.733287
vt 0.999900 0.666633
vt 0.037055 0.744991
vt 0.000019 0.744991
vt 0.037055 0.699992
vt 0.000019 0.000019
vt 0.037055 0.000019
vt 0.000100 0.999900
vt 0.999900 0.699960
vt 0.999900 0.000100
vt 0.066689 0.699990
vt 0.000026 0.000026
vt 0.066689 0.000026
vt 0.050090 0.720456
vt 0.000100 0.744951
vt 0.066689 0.699990
vt 0.000026 0.000026
vt 0.066689 0.000026
vt 0.300040 0.266713
vt 0.999900 0.000100
vt 0.999900 0.266713
vt 0.300040 0.333367
vt 0.999900 0.333367
vt 0.699960 0.000100
vt 0.000100 0.000100
vt 0.066689 0.000026
vt 0.000026 0.000026
vt 0.000026 0.000026
vt 0.000019 0.000019
vt 0.037055 0.000019
vt 0.999900 0.999900
vt 0.999900 0.000100
vt 0.744951 0.000100
vt 0.000019 0.666660
vt 0.666633 0.000100
vt 0.649970 0.050090
vt 0.000100 0.333367
vt 0.300040 0.999900
vt 0.999900 0.999900
vt 0.000100 0.999900
vt 0.255049 0.999900
vt 0.000100 0.000100
vt 0.000019 0.000019
vt 0.037055 0.000019
vt 0.999900 0.666633
vt 0.350030 0.949910
vt 0.000019 0.666660
vt 0.066689 0.666658
vt 0.000026 0.666658
vt 0.000100 0.999900
vt 0.037055 0.999981
vt 0.000019 0.999981
vt 0.300040 0.666633
vt 0.000019 0.699992
vt 0.699960 0.999900
vt 0.949910 0.679964
vt 0.000026 0.699990
vt 0.000026 0.699990
vt 0.300040 0.000100
vt 0.000000 0.000000
vt 0.000019 0.333340
vt 0.066689 0.333342
vt 0.000100 0.000100
vt 0.000026 0.999974
vt 0.000026 0.999974
vt 0.066689 0.999974
vt 0.066689 0.733321
vt 0.000019 0.999981
vt 0.999900 0.999900
vt 0.000019 0.999981
vt 0.037055 0.000019
vt 0.000019 0.999981
vt 0.350030 0.050090
vt 0.066689 0.333342
vt 0.066689 0.000026
s 0
usemtl Planks
f 4/4/2 67/5/2 66/6/2
f 36/7/3 11/8/3 38/9/3
f 6/10/4 65/11/4 68/12/4
f 60/13/5 1/14/5 55/15/5
f 56/16/6 2/17/6 6/18/6
f 12/19/5 58/20/5 57/21/5
f 46/22/3 10/23/3 47/24/3
f 56/25/3 12/26/3 57/27/3
f 67/28/3 9/29/3 69/30/3
f 9/34/4 71/35/4 69/36/4
f 11/37/2 40/38/2 38/39/2
f 10/40/6 48/41/6 47/42/6
f 25/43/6 62/44/6 61/45/6
f 85/46/3 81/47/3 82/48/3
f 23/54/3 51/55/3 50/56/3
f 24/57/3 27/58/3 23/54/3
f 21/59/3 61/60/3 60/61/3
f 87/53/3 91/62/3 85/46/3
f 51/63/5 31/64/5 52/65/5
f 28/66/5 31/64/5 27/67/5
f 45/68/6 23/69/6 50/70/6
f 23/69/6 19/71/6 24/72/6
f 46/73/5 17/74/5 49/75/5
f 88/76/3 84/77/3 89/78/3
f 86/50/3 85/46/3 83/84/3
f 90/51/3 83/84/3 88/76/3
f 38/39/2 72/87/2 70/88/2
f 37/89/4 14/90/4 10/91/4
f 35/93/3 10/23/3 7/94/3
f 36/95/4 1/96/4 5/97/4
f 36/7/3 70/98/3 68/99/3
f 34/100/2 7/101/2 3/102/2
f 7/110/5 49/75/5 3/111/5
f 8/112/6 45/68/6 50/70/6
f 51/63/5 13/113/5 9/114/5
f 50/56/3 9/29/3 8/115/3
f 26/66/6 48/41/6 30/118/6
f 22/119/3 47/24/3 26/120/3
f 60/61/3 11/8/3 5/126/3
f 61/45/6 15/127/6 11/128/6
f 24/57/3 57/27/3 28/130/3
f 57/21/5 32/131/5 28/66/5
f 19/71/6 56/16/6 24/72/6
f 21/132/5 55/15/5 18/133/5
f 68/99/3 12/26/3 6/134/3
f 70/88/2 16/135/2 12/136/2
f 69/36/4 39/138/4 37/89/4
f 35/93/3 69/30/3 37/140/3
f 68/12/4 33/141/4 36/95/4
f 66/6/2 35/142/2 34/100/2
f 30/144/4 83/144/4 41/144/4
f 48/41/5 84/118/5 30/118/5
f 62/44/5 82/145/5 81/44/5
f 42/144/5 83/144/5 85/144/5
f 42/144/2 82/144/2 29/144/2
f 30/144/1 44/106/1 17/107/1
f 29/144/1 43/137/1 42/144/1
f 18/133/7 82/145/7 21/132/7
f 22/146/8 30/144/8 17/74/8
f 4/4/2 8/148/2 67/5/2
f 36/7/3 5/126/3 11/8/3
f 6/10/4 2/149/4 65/11/4
f 60/13/5 5/150/5 1/14/5
f 56/16/6 59/151/6 2/17/6
f 12/19/5 16/152/5 58/20/5
f 46/22/3 7/94/3 10/23/3
f 56/25/3 6/134/3 12/26/3
f 67/28/3 8/115/3 9/29/3
f 9/34/4 13/154/4 71/35/4
f 11/37/2 15/155/2 40/38/2
f 10/40/6 14/156/6 48/41/6
f 25/43/6 29/145/6 62/44/6
f 85/46/3 91/62/3 81/47/3
f 23/54/3 27/58/3 51/55/3
f 24/57/3 28/130/3 27/58/3
f 21/59/3 25/157/3 61/60/3
f 87/53/3 92/33/3 91/62/3
f 51/63/5 27/67/5 31/64/5
f 28/66/5 32/131/5 31/64/5
f 45/68/6 20/158/6 23/69/6
f 23/69/6 20/158/6 19/71/6
f 46/73/5 22/146/5 17/74/5
f 88/76/3 83/84/3 84/77/3
f 86/50/3 87/53/3 85/46/3
f 90/51/3 86/50/3 83/84/3
f 38/39/2 40/38/2 72/87/2
f 37/89/4 39/138/4 14/90/4
f 35/93/3 37/140/3 10/23/3
f 36/95/4 33/141/4 1/96/4
f 36/7/3 38/9/3 70/98/3
f 34/100/2 35/142/2 7/101/2
f 7/110/5 46/73/5 49/75/5
f 8/112/6 4/159/6 45/68/6
f 51/63/5 52/65/5 13/113/5
f 50/56/3 51/55/3 9/29/3
f 26/66/6 47/42/6 48/41/6
f 22/119/3 46/22/3 47/24/3
f 60/61/3 61/60/3 11/8/3
f 61/45/6 62/44/6 15/127/6
f 24/57/3 56/25/3 57/27/3
f 57/21/5 58/20/5 32/131/5
f 19/71/6 59/151/6 56/16/6
f 21/132/5 60/13/5 55/15/5
f 68/99/3 70/98/3 12/26/3
f 70/88/2 72/87/2 16/135/2
f 69/36/4 71/35/4 39/138/4
f 35/93/3 67/28/3 69/30/3
f 68/12/4 65/11/4 33/141/4
f 66/6/2 67/5/2 35/142/2
f 30/144/4 84/144/4 83/144/4
f 48/41/5 89/41/5 84/118/5
f 62/44/5 29/145/5 82/145/5
f 42/144/5 41/144/5 83/144/5
f 42/144/2 85/144/2 82/144/2
f 30/144/1 41/144/1 44/106/1
f 29/144/1 18/86/1 43/137/1
f 18/133/7 29/144/7 82/145/7
f 22/146/8 84/144/8 30/144/8
usemtl Panel
f 45/1/1 66/2/1 78/3/1
f 58/31/3 72/32/3 80/33/3
f 52/49/3 73/50/3 77/51/3
f 31/52/3 74/53/3 73/50/3
f 59/79/1 75/80/1 79/81/1
f 19/82/1 76/83/1 75/80/1
f 63/85/1 18/86/1 55/31/1
f 74/53/6 86/50/6 73/50/6
f 64/62/3 15/92/3 62/47/3
f 54/103/1 3/104/1 49/105/1
f 44/106/1 49/105/1 17/107/1
f 39/108/3 48/78/3 14/109/3
f 13/116/3 77/51/3 71/117/3
f 20/121/1 78/3/1 76/83/1
f 77/51/2 88/76/2 53/76/2
f 33/122/1 55/31/1 1/123/1
f 2/124/1 79/81/1 65/125/1
f 32/129/3 80/33/3 74/53/3
f 80/33/6 87/53/6 74/53/6
f 65/125/1 63/85/1 33/122/1
f 76/83/1 54/103/1 44/106/1
f 71/117/3 53/76/3 39/108/3
f 75/80/1 44/106/1 43/137/1
f 79/81/1 43/137/1 63/85/1
f 64/62/4 92/33/4 80/33/4
f 53/76/2 89/78/2 48/78/2
f 80/33/3 40/139/3 64/62/3
f 78/3/1 34/143/1 54/103/1
f 62/47/4 91/62/4 64/62/4
f 73/50/6 90/51/6 77/51/6
f 43/137/1 41/144/1 42/144/1
f 45/1/1 4/147/1 66/2/1
f 58/31/3 16/153/3 72/32/3
f 52/49/3 31/52/3 73/50/3
f 31/52/3 32/129/3 74/53/3
f 59/79/1 19/82/1 75/80/1
f 19/82/1 20/121/1 76/83/1
f 63/85/1 43/137/1 18/86/1
f 74/53/6 87/53/6 86/50/6
f 64/62/3 40/139/3 15/92/3
f 54/103/1 34/143/1 3/104/1
f 44/106/1 54/103/1 49/105/1
f 39/108/3 53/76/3 48/78/3
f 13/116/3 52/49/3 77/51/3
f 20/121/1 45/1/1 78/3/1
f 77/51/2 90/51/2 88/76/2
f 33/122/1 63/85/1 55/31/1
f 2/124/1 59/79/1 79/81/1
f 32/129/3 58/31/3 80/33/3
f 80/33/6 92/33/6 87/53/6
f 65/125/1 79/81/1 63/85/1
f 76/83/1 78/3/1 54/103/1
f 71/117/3 77/51/3 53/76/3
f 75/80/1 76/83/1 44/106/1
f 79/81/1 75/80/1 43/137/1
f 64/62/4 91/62/4 92/33/4
f 53/76/2 88/76/2 89/78/2
f 80/33/3 72/32/3 40/139/3
f 78/3/1 66/2/1 34/143/1
f 62/47/4 81/47/4 91/62/4
f 73/50/6 86/50/6 90/51/6
f 43/137/1 44/106/1 41/144/1
