# Blender 5.1.2
# www.blender.org
mtllib coin.mtl
o Cylinder
v -0.000000 0.200000 -0.020000
v -0.000000 0.200000 0.020000
v 0.076537 0.184776 -0.020000
v 0.076537 0.184776 0.020000
v 0.141421 0.141421 -0.020000
v 0.141421 0.141421 0.020000
v 0.184776 0.076537 -0.020000
v 0.184776 0.076537 0.020000
v 0.200000 -0.000000 -0.020000
v 0.200000 -0.000000 0.020000
v 0.184776 -0.076537 -0.020000
v 0.184776 -0.076537 0.020000
v 0.141421 -0.141421 -0.020000
v 0.141421 -0.141421 0.020000
v 0.076537 -0.184776 -0.020000
v 0.076537 -0.184776 0.020000
v -0.000000 -0.200000 -0.020000
v -0.000000 -0.200000 0.020000
v -0.076537 -0.184776 -0.020000
v -0.076537 -0.184776 0.020000
v -0.141421 -0.141421 -0.020000
v -0.141421 -0.141421 0.020000
v -0.184776 -0.076537 -0.020000
v -0.184776 -0.076537 0.020000
v -0.200000 -0.000000 -0.020000
v -0.200000 -0.000000 0.020000
v -0.184776 0.076537 -0.020000
v -0.184776 0.076537 0.020000
v -0.141421 0.141421 -0.020000
v -0.141421 0.141421 0.020000
v -0.076537 0.184776 -0.020000
v -0.076537 0.184776 0.020000
vn 0.1951 0.9808 -0.0000
vn 0.5556 0.8315 -0.0000
vn 0.8315 0.5556 -0.0000
vn 0.9808 0.1951 -0.0000
vn 0.9808 -0.1951 -0.0000
vn 0.8315 -0.5556 -0.0000
vn 0.5556 -0.8315 -0.0000
vn 0.1951 -0.9808 -0.0000
vn -0.1951 -0.9808 -0.0000
vn -0.5556 -0.8315 -0.0000
vn -0.8315 -0.5556 -0.0000
vn -0.9808 -0.1951 -0.0000
vn -0.9808 0.1951 -0.0000
vn -0.8315 0.5556 -0.0000
vn -0.0000 -0.0000 1.0000
vn -0.5556 0.8315 -0.0000
vn -0.1951 0.9808 -0.0000
vn -0.0000 -0.0000 -1.0000
vt 0.566785 0.909577
vt 0.760915 0.922148
vt 0.584096 0.999902
vt 0.708466 0.845109
vt 0.894209 0.779774
vt 0.815204 0.728068
vt 0.965640 0.596422
vt 0.872565 0.577605
vt 0.962925 0.398673
vt 0.869388 0.416101
vt 0.886104 0.216573
vt 0.805979 0.267476
vt 0.747864 0.076778
vt 0.693106 0.153730
vt 0.567021 0.000550
vt 0.546294 0.092884
vt 0.369604 0.000098
vt 0.387804 0.095117
vt 0.181021 0.079608
vt 0.242629 0.162123
vt 0.052814 0.237735
vt 0.136297 0.281445
vt 0.000098 0.419718
vt 0.087266 0.430446
vt 0.007206 0.608837
vt 0.099191 0.589387
vt 0.082043 0.793719
vt 0.164345 0.738925
vt 0.223642 0.925379
vt 0.146447 0.146447
vt 0.853553 0.146447
vt 0.853553 0.853553
vt 0.413351 0.912121
vt 0.393469 0.999902
vt 0.691342 0.038060
vt 0.038060 0.308658
vt 0.308658 0.961940
vt 0.272358 0.852816
vt 0.691342 0.961940
vt 0.500000 1.000000
vt 0.308658 0.961940
vt 0.146447 0.853553
vt 0.038060 0.691342
vt 0.000000 0.500000
vt 0.038060 0.308658
vt 0.308658 0.038060
vt 0.500000 -0.000000
vt 0.691342 0.038060
vt 0.961940 0.308658
vt 1.000000 0.500000
vt 0.961940 0.691342
vt 0.500000 1.000000
vt 0.691342 0.961940
vt 0.853553 0.853553
vt 0.961940 0.691342
vt 1.000000 0.500000
vt 0.961940 0.308658
vt 0.853553 0.146447
vt 0.500000 0.000000
vt 0.308658 0.038060
vt 0.146447 0.146447
vt 0.000000 0.500000
vt 0.038060 0.691342
vt 0.146447 0.853553
s 0
f 2/1/1 3/2/1 1/3/1
f 4/4/2 5/5/2 3/2/2
f 6/6/3 7/7/3 5/5/3
f 8/8/4 9/9/4 7/7/4
f 10/10/5 11/11/5 9/9/5
f 12/12/6 13/13/6 11/11/6
f 14/14/7 15/15/7 13/13/7
f 16/16/8 17/17/8 15/15/8
f 18/18/9 19/19/9 17/17/9
f 20/20/10 21/21/10 19/19/10
f 22/22/11 23/23/11 21/21/11
f 24/24/12 25/25/12 23/23/12
f 26/26/13 27/27/13 25/25/13
f 28/28/14 29/29/14 27/27/14
f 22/30/15 14/31/15 6/32/15
f 29/29/16 32/33/16 31/34/16
f 31/34/17 2/1/17 1/3/17
f 15/35/18 23/36/18 31/37/18
f 2/1/1 4/4/1 3/2/1
f 4/4/2 6/6/2 5/5/2
f 6/6/3 8/8/3 7/7/3
f 8/8/4 10/10/4 9/9/4
f 10/10/5 12/12/5 11/11/5
f 12/12/6 14/14/6 13/13/6
f 14/14/7 16/16/7 15/15/7
f 16/16/8 18/18/8 17/17/8
f 18/18/9 20/20/9 19/19/9
f 20/20/10 22/22/10 21/21/10
f 22/22/11 24/24/11 23/23/11
f 24/24/12 26/26/12 25/25/12
f 26/26/13 28/28/13 27/27/13
f 28/28/14 30/38/14 29/29/14
f 6/32/15 4/39/15 2/40/15
f 2/40/15 32/41/15 30/42/15
f 30/42/15 28/43/15 26/44/15
f 26/44/15 24/45/15 22/30/15
f 22/30/15 20/46/15 18/47/15
f 18/47/15 16/48/15 14/31/15
f 14/31/15 12/49/15 10/50/15
f 10/50/15 8/51/15 6/32/15
f 6/32/15 2/40/15 30/42/15
f 30/42/15 26/44/15 22/30/15
f 22/30/15 18/47/15 14/31/15
f 14/31/15 10/50/15 6/32/15
f 6/32/15 30/42/15 22/30/15
f 29/29/16 30/38/16 32/33/16
f 31/34/17 32/33/17 2/1/17
f 31/37/18 1/52/18 3/53/18
f 3/53/18 5/54/18 7/55/18
f 7/55/18 9/56/18 11/57/18
f 11/57/18 13/58/18 15/35/18
f 15/35/18 17/59/18 19/60/18
f 19/60/18 21/61/18 23/36/18
f 23/36/18 25/62/18 27/63/18
f 27/63/18 29/64/18 31/37/18
f 31/37/18 3/53/18 7/55/18
f 7/55/18 11/57/18 15/35/18
f 15/35/18 19/60/18 23/36/18
f 23/36/18 27/63/18 31/37/18
f 31/37/18 7/55/18 15/35/18
