# Blender 5.1.2
# www.blender.org
mtllib landmine.mtl
o Cylinder
v 0.000000 -0.000000 -0.200000
v 0.000000 0.100000 -0.200000
v 0.100000 -0.000000 -0.173205
v 0.100000 0.100000 -0.173205
v 0.173205 -0.000000 -0.100000
v 0.173205 0.100000 -0.100000
v 0.200000 -0.000000 0.000000
v 0.200000 0.100000 0.000000
v 0.173205 -0.000000 0.100000
v 0.173205 0.100000 0.100000
v 0.100000 -0.000000 0.173205
v 0.100000 0.100000 0.173205
v 0.000000 -0.000000 0.200000
v 0.000000 0.100000 0.200000
v -0.100000 -0.000000 0.173205
v -0.100000 0.100000 0.173205
v -0.173205 -0.000000 0.100000
v -0.173205 0.100000 0.100000
v -0.200000 -0.000000 0.000000
v -0.200000 0.100000 0.000000
v -0.173205 -0.000000 -0.100000
v -0.173205 0.100000 -0.100000
v -0.100000 -0.000000 -0.173205
v -0.100000 0.100000 -0.173205
v 0.050000 0.100000 -0.086602
v 0.000000 0.100000 -0.100000
v 0.086603 0.100000 -0.050000
v 0.100000 0.100000 0.000000
v 0.086603 0.100000 0.050000
v 0.050000 0.100000 0.086603
v 0.000000 0.100000 0.100000
v -0.050000 0.100000 0.086603
v -0.086603 0.100000 0.050000
v -0.100000 0.100000 0.000000
v -0.086603 0.100000 -0.050000
v -0.050000 0.100000 -0.086602
v 0.050000 0.140000 -0.086602
v 0.000000 0.140000 -0.100000
v 0.086603 0.140000 -0.050000
v 0.100000 0.140000 0.000000
v 0.086603 0.140000 0.050000
v 0.050000 0.140000 0.086603
v 0.000000 0.140000 0.100000
v -0.050000 0.140000 0.086603
v -0.086603 0.140000 0.050000
v -0.100000 0.140000 0.000000
v -0.086603 0.140000 -0.050000
v -0.050000 0.140000 -0.086602
vn 0.2588 -0.0000 -0.9659
vn 0.7071 -0.0000 -0.7071
vn 0.9659 -0.0000 -0.2588
vn 0.9659 -0.0000 0.2588
vn 0.7071 -0.0000 0.7071
vn 0.2588 -0.0000 0.9659
vn -0.2588 -0.0000 0.9659
vn -0.7071 -0.0000 0.7071
vn -0.9659 -0.0000 0.2588
vn -0.9659 -0.0000 -0.2588
vn -0.0000 1.0000 -0.0000
vn -0.7071 -0.0000 -0.7071
vn -0.2588 -0.0000 -0.9659
vn -0.0000 -1.0000 -0.0000
vt 0.500000 0.527632
vt 0.750000 0.277631
vt 0.500000 0.277631
vt 0.750000 0.527632
vt 0.933012 0.277631
vt 0.750000 0.527632
vt 0.750000 0.277631
vt 0.250000 0.277631
vt 0.250000 0.527632
vt 0.066987 0.277631
vt 0.250000 0.277631
vt 0.066987 0.527632
vt 0.066988 0.250000
vt 0.250000 0.500000
vt 0.000000 0.500000
vt 0.066988 0.527632
vt 0.066988 0.277631
vt 0.250000 0.527632
vt 1.000000 0.500000
vt 0.250000 0.066987
vt 0.250000 0.933012
vt 0.625000 0.627631
vt 0.625000 0.527632
vt 0.375000 0.283494
vt 0.283494 0.375000
vt 0.500000 0.000000
vt 0.750000 0.066987
vt 0.500000 0.250000
vt 0.933012 0.250000
vt 0.625000 0.283494
vt 0.750000 0.500000
vt 0.716506 0.375000
vt 0.500000 0.750000
vt 0.500000 1.000000
vt 0.750000 0.933012
vt 0.625000 0.716506
vt 0.933012 0.750000
vt 0.066988 0.750000
vt 0.375000 0.716506
vt 0.716506 0.625000
vt 0.283494 0.625000
vt 0.283494 0.527632
vt 0.375000 0.627631
vt 0.375000 0.527632
vt 0.283494 0.627631
vt 0.375000 0.527632
vt 0.500000 0.627631
vt 0.716506 0.627631
vt 0.716506 0.527632
vt 0.375000 0.627631
vt 0.283494 0.527632
vt 0.933012 0.527632
vt 0.283494 0.627631
s 0
f 2/1/1 3/2/1 1/3/1
f 4/4/2 5/5/2 3/2/2
f 6/6/3 7/3/3 5/7/3
f 8/1/4 9/8/4 7/3/4
f 10/9/5 11/10/5 9/8/5
f 12/4/6 13/3/6 11/2/6
f 14/1/7 15/11/7 13/3/7
f 16/12/8 17/8/8 15/10/8
f 18/9/9 19/3/9 17/8/9
f 20/1/10 21/7/10 19/3/10
f 18/13/11 34/14/11 20/15/11
f 22/16/12 23/11/12 21/17/12
f 24/18/13 1/3/13 23/11/13
f 7/19/14 15/20/14 23/21/14
f 26/1/1 37/22/1 25/23/1
f 18/13/11 32/24/11 33/25/11
f 14/26/11 32/24/11 16/20/11
f 12/27/11 31/28/11 14/26/11
f 10/29/11 30/30/11 12/27/11
f 10/29/11 28/31/11 29/32/11
f 24/21/11 26/33/11 2/34/11
f 4/35/11 26/33/11 25/36/11
f 6/37/11 28/31/11 8/19/11
f 22/38/11 36/39/11 24/21/11
f 6/37/11 25/36/11 27/40/11
f 22/38/11 34/14/11 35/41/11
f 47/41/11 43/28/11 39/40/11
f 32/42/8 45/43/8 33/44/8
f 29/44/5 42/45/5 30/42/5
f 36/46/13 38/47/13 26/1/13
f 25/23/2 39/48/2 27/49/2
f 33/44/9 46/47/9 34/1/9
f 30/23/6 43/47/6 31/1/6
f 27/23/3 40/47/3 28/1/3
f 34/1/10 47/22/10 35/23/10
f 31/1/7 44/50/7 32/46/7
f 28/1/4 41/43/4 29/44/4
f 35/51/12 48/50/12 36/46/12
f 2/1/1 4/4/1 3/2/1
f 4/4/2 6/52/2 5/5/2
f 6/6/3 8/1/3 7/3/3
f 8/1/4 10/9/4 9/8/4
f 10/9/5 12/12/5 11/10/5
f 12/4/6 14/1/6 13/3/6
f 14/1/7 16/18/7 15/11/7
f 16/12/8 18/9/8 17/8/8
f 18/9/9 20/1/9 19/3/9
f 20/1/10 22/6/10 21/7/10
f 18/13/11 33/25/11 34/14/11
f 22/16/12 24/18/12 23/11/12
f 24/18/13 2/1/13 1/3/13
f 23/21/14 1/34/14 3/35/14
f 3/35/14 5/37/14 7/19/14
f 7/19/14 9/29/14 11/27/14
f 11/27/14 13/26/14 15/20/14
f 15/20/14 17/13/14 19/15/14
f 19/15/14 21/38/14 23/21/14
f 23/21/14 3/35/14 7/19/14
f 7/19/14 11/27/14 15/20/14
f 15/20/14 19/15/14 23/21/14
f 26/1/1 38/47/1 37/22/1
f 18/13/11 16/20/11 32/24/11
f 14/26/11 31/28/11 32/24/11
f 12/27/11 30/30/11 31/28/11
f 10/29/11 29/32/11 30/30/11
f 10/29/11 8/19/11 28/31/11
f 24/21/11 36/39/11 26/33/11
f 4/35/11 2/34/11 26/33/11
f 6/37/11 27/40/11 28/31/11
f 22/38/11 35/41/11 36/39/11
f 6/37/11 4/35/11 25/36/11
f 22/38/11 20/15/11 34/14/11
f 39/40/11 37/36/11 38/33/11
f 38/33/11 48/39/11 47/41/11
f 47/41/11 46/14/11 45/25/11
f 45/25/11 44/24/11 43/28/11
f 43/28/11 42/30/11 41/32/11
f 41/32/11 40/31/11 39/40/11
f 39/40/11 38/33/11 47/41/11
f 47/41/11 45/25/11 43/28/11
f 43/28/11 41/32/11 39/40/11
f 32/42/8 44/45/8 45/43/8
f 29/44/5 41/43/5 42/45/5
f 36/46/13 48/50/13 38/47/13
f 25/23/2 37/22/2 39/48/2
f 33/44/9 45/43/9 46/47/9
f 30/23/6 42/22/6 43/47/6
f 27/23/3 39/22/3 40/47/3
f 34/1/10 46/47/10 47/22/10
f 31/1/7 43/47/7 44/50/7
f 28/1/4 40/47/4 41/43/4
f 35/51/12 47/53/12 48/50/12
