# Blender 5.1.2
# www.blender.org
mtllib pistol.mtl
o Cube
v -0.016250 -0.187500 0.022750
v -0.016250 -0.025000 0.042250
v -0.016250 -0.025000 -0.022750
v 0.016250 -0.025000 -0.022750
v 0.016250 -0.025000 0.042250
v 0.016250 -0.025000 0.204750
v -0.016250 -0.025000 0.204750
v -0.016250 -0.025000 -0.087750
v 0.016250 -0.025000 -0.087750
v -0.008125 -0.005500 0.042250
v -0.008125 -0.005500 -0.022750
v 0.008125 -0.005500 -0.022750
v 0.008125 -0.005500 0.042250
v 0.008125 -0.005500 0.204750
v -0.008125 -0.005500 0.204750
v -0.008125 -0.005500 -0.087750
v 0.008125 -0.005500 -0.087750
v 0.011375 -0.052625 0.204750
v -0.011375 -0.052625 0.204750
v 0.011375 -0.029875 0.204750
v -0.011375 -0.029875 0.204750
v 0.011375 -0.052625 0.214750
v -0.011375 -0.052625 0.214750
v 0.011375 -0.029875 0.214750
v -0.011375 -0.029875 0.214750
v 0.016250 -0.025000 0.082875
v 0.016250 -0.025000 0.123500
v 0.016250 -0.025000 0.164125
v -0.016250 -0.025000 0.164125
v -0.016250 -0.025000 0.123500
v -0.016250 -0.025000 0.082875
v 0.008125 -0.005500 0.082875
v 0.008125 -0.005500 0.123500
v 0.008125 -0.005500 0.164125
v -0.008125 -0.005500 0.164125
v -0.008125 -0.005500 0.123500
v -0.008125 -0.005500 0.082875
v -0.016250 -0.025000 0.062563
v -0.008125 -0.005500 0.062563
v 0.016250 -0.025000 0.062563
v 0.008125 -0.005500 0.062563
v -0.011375 -0.057500 0.065609
v -0.011375 -0.057500 0.079828
v 0.011375 -0.057500 0.079828
v 0.011375 -0.057500 0.065609
v -0.011375 -0.097500 0.065609
v -0.011375 -0.097500 0.079828
v 0.011375 -0.097500 0.079828
v 0.011375 -0.097500 0.065609
v -0.011375 -0.070833 0.071828
v -0.011375 -0.084167 0.071828
v 0.011375 -0.084167 0.071828
v 0.011375 -0.070833 0.071828
v 0.011375 -0.084167 0.057609
v 0.011375 -0.070833 0.057609
v -0.011375 -0.070833 0.057609
v -0.011375 -0.084167 0.057609
v -0.011250 -0.057500 0.042250
v -0.016250 -0.052500 0.042250
v -0.016250 -0.057500 0.037250
v -0.016250 -0.062445 0.041508
v -0.011250 -0.182555 -0.041508
v -0.016250 -0.187500 -0.037222
v -0.016250 -0.052500 -0.016971
v -0.011250 -0.057500 -0.022750
v 0.016250 -0.182500 0.018444
v 0.011250 -0.187500 0.022750
v 0.016250 -0.052500 0.037944
v 0.011250 -0.057500 0.042250
v 0.011250 -0.187500 -0.037223
v 0.011250 -0.182555 -0.041508
v 0.016250 -0.182500 -0.036444
v 0.011250 -0.057500 -0.022750
v 0.016250 -0.052500 -0.016944
v 0.011250 -0.057500 0.204750
v 0.016250 -0.052500 0.204750
v 0.012714 -0.053964 0.204750
v -0.016250 -0.052500 0.204750
v -0.011250 -0.057500 0.204750
v -0.012714 -0.053964 0.204750
v -0.011250 -0.057500 -0.082750
v -0.016250 -0.052500 -0.087750
v 0.011250 -0.057500 -0.082750
v 0.016250 -0.052500 -0.087750
v 0.011250 -0.057500 0.164125
v 0.016250 -0.052500 0.164125
v 0.011250 -0.057500 0.123500
v 0.016250 -0.052500 0.123500
v 0.011250 -0.057500 0.082875
v 0.016250 -0.052500 0.082875
v -0.011250 -0.057500 0.082875
v -0.016250 -0.052500 0.082875
v -0.011250 -0.057500 0.123500
v -0.016250 -0.052500 0.123500
v -0.016250 -0.052500 0.164125
v -0.011250 -0.057500 0.164125
v 0.016250 -0.052500 0.062563
v 0.011250 -0.057500 0.062563
v -0.016250 -0.052500 0.062563
v -0.011250 -0.057500 0.062563
v 0.005417 -0.025000 0.204750
v -0.005417 -0.025000 0.204750
v -0.005417 -0.025000 -0.087750
v 0.005417 -0.025000 -0.087750
v -0.002708 -0.005500 -0.022750
v 0.002708 -0.005500 -0.022750
v 0.002708 -0.005500 0.042250
v -0.002708 -0.005500 0.042250
v 0.002708 -0.005500 0.204750
v -0.002708 -0.005500 0.204750
v -0.002708 -0.005500 -0.087750
v 0.002708 -0.005500 -0.087750
v 0.003792 -0.052625 0.204750
v -0.003792 -0.052625 0.204750
v 0.003792 -0.029875 0.204750
v -0.003792 -0.029875 0.204750
v 0.003792 -0.052625 0.214750
v -0.003792 -0.052625 0.214750
v 0.003792 -0.029875 0.214750
v -0.003792 -0.029875 0.214750
v -0.002708 -0.005500 0.082875
v 0.002708 -0.005500 0.082875
v -0.002708 -0.005500 0.123500
v 0.002708 -0.005500 0.123500
v -0.002708 -0.005500 0.164125
v 0.002708 -0.005500 0.164125
v -0.002708 -0.005500 0.062563
v 0.002708 -0.005500 0.062563
v 0.002083 -0.187500 -0.037223
v -0.007083 -0.187500 -0.037223
v -0.003750 -0.182555 -0.041508
v 0.003750 -0.182555 -0.041508
v -0.005417 -0.052500 -0.087750
v 0.005417 -0.052500 -0.087750
v 0.003750 -0.057500 -0.082750
v -0.003750 -0.057500 -0.082750
v -0.007083 -0.187500 0.022750
v 0.002083 -0.187500 0.022750
v -0.003750 -0.057500 -0.022750
v 0.003750 -0.057500 -0.022750
v -0.016250 -0.025000 -0.055250
v 0.016250 -0.025000 -0.055250
v -0.008125 -0.005500 -0.055250
v 0.008125 -0.005500 -0.055250
v -0.016250 -0.052500 -0.052361
v -0.011250 -0.057500 -0.052750
v 0.016250 -0.052500 -0.052347
v 0.011250 -0.057500 -0.052750
v 0.003750 -0.057500 -0.052750
v -0.003750 -0.057500 -0.052750
v -0.002708 -0.005500 -0.055250
v 0.002708 -0.005500 -0.055250
v 0.002708 -0.000500 -0.087750
v 0.008125 -0.000500 -0.087750
v -0.008125 -0.000500 -0.055250
v -0.008125 -0.000500 -0.087750
v -0.002708 -0.000500 -0.087750
v -0.002708 -0.000500 -0.055250
v 0.002708 -0.000500 -0.055250
v 0.008125 -0.000500 -0.055250
v 0.002708 -0.000500 0.204750
v -0.002708 -0.000500 0.204750
v -0.002708 -0.000500 0.164125
v 0.002708 -0.000500 0.164125
v -0.000000 -0.021000 0.215000
v -0.000000 -0.021000 0.385000
v 0.014142 -0.026858 0.215000
v 0.014142 -0.026858 0.385000
v 0.020000 -0.041000 0.215000
v 0.020000 -0.041000 0.385000
v 0.014142 -0.055142 0.215000
v 0.014142 -0.055142 0.385000
v -0.000000 -0.061000 0.215000
v -0.000000 -0.061000 0.385000
v -0.014142 -0.055142 0.215000
v -0.014142 -0.055142 0.385000
v -0.020000 -0.041000 0.215000
v -0.020000 -0.041000 0.385000
v -0.014142 -0.026858 0.215000
v -0.014142 -0.026858 0.385000
v 0.014142 -0.026858 0.395000
v -0.000000 -0.021000 0.395000
v 0.020000 -0.041000 0.395000
v 0.014142 -0.055142 0.395000
v -0.000000 -0.061000 0.395000
v -0.014142 -0.055142 0.395000
v -0.020000 -0.041000 0.395000
v -0.014142 -0.026858 0.395000
v 0.014142 -0.029686 0.386000
v -0.000000 -0.025000 0.386000
v 0.020000 -0.041000 0.386000
v 0.014142 -0.052314 0.386000
v -0.000000 -0.057000 0.386000
v -0.014142 -0.052314 0.386000
v -0.020000 -0.041000 0.386000
v -0.014142 -0.029686 0.386000
v 0.014142 -0.029686 0.394000
v -0.000000 -0.025000 0.394000
v 0.020000 -0.041000 0.394000
v 0.014142 -0.052314 0.394000
v -0.000000 -0.057000 0.394000
v -0.014142 -0.052314 0.394000
v -0.020000 -0.041000 0.394000
v -0.014142 -0.029686 0.394000
v 0.014142 -0.026858 0.410000
v -0.000000 -0.021000 0.410000
v 0.020000 -0.041000 0.410000
v 0.014142 -0.055142 0.410000
v -0.000000 -0.061000 0.410000
v -0.014142 -0.055142 0.410000
v -0.020000 -0.041000 0.410000
v -0.014142 -0.026858 0.410000
vn -0.0000 -0.0000 -1.0000
vn 0.9231 0.3846 -0.0000
vn -0.0000 1.0000 -0.0000
vn -0.0000 -0.0000 1.0000
vn -0.9231 0.3846 -0.0000
vn -1.0000 -0.0000 -0.0000
vn 1.0000 -0.0000 -0.0000
vn -0.0000 -1.0000 -0.0000
vn -0.0000 0.5145 0.8575
vn -0.0000 -0.5145 -0.8575
vn -0.0000 0.5145 -0.8575
vn -0.0000 -0.5145 0.8575
vn -0.6039 0.5201 0.6039
vn 0.6114 -0.5182 -0.5980
vn -0.7052 0.1052 -0.7012
vn -0.0000 -0.6549 -0.7557
vn 0.7071 0.1049 -0.6993
vn 0.7071 -0.7071 -0.0000
vn 0.7071 -0.1049 0.6993
vn -0.7071 -0.7071 -0.0000
vn -0.0000 -0.7071 -0.7071
vn -0.0000 -0.1483 0.9889
vn -0.0000 0.1483 -0.9889
vn 0.3827 0.9239 -0.0000
vn 0.9239 0.3827 -0.0000
vn 0.9239 -0.3827 -0.0000
vn 0.3827 -0.9239 -0.0000
vn -0.3827 -0.9239 -0.0000
vn -0.9239 -0.3827 -0.0000
vn -0.8880 -0.4598 -0.0000
vn -0.9239 0.3827 -0.0000
vn -0.3827 0.9239 -0.0000
vn 0.1000 0.2413 -0.9653
vn -0.1098 0.3313 -0.9371
vn 0.1098 0.3313 0.9371
vn -0.1000 0.2413 0.9653
vn 0.6269 -0.2597 0.7345
vn -0.8880 0.4598 -0.0000
vn -0.6269 -0.2597 -0.7345
vn 0.3145 -0.9492 -0.0000
vn 0.8880 0.4598 -0.0000
vn -0.3145 -0.9492 -0.0000
vn -0.3145 0.9492 -0.0000
vn 0.3145 0.9492 -0.0000
vn 0.8880 -0.4598 -0.0000
vn 0.6269 0.2597 -0.7345
vn 0.1000 -0.2413 0.9653
vn 0.1098 -0.3313 -0.9371
vn -0.6269 0.2597 0.7345
vn -0.1000 -0.2413 -0.9653
vn -0.1098 -0.3313 0.9371
vn -0.5773 -0.5774 0.5773
vn -0.7051 0.1052 -0.7012
vn -0.0000 -0.6550 -0.7557
vn -0.0001 1.0000 -0.0000
vn -0.6269 -0.2597 0.7345
vn 0.1098 0.3313 -0.9371
vn -0.1000 0.2413 -0.9653
vn 0.1000 0.2413 0.9653
vn -0.1098 0.3313 0.9371
vn -0.6269 0.2597 -0.7345
vn 0.1098 -0.3313 0.9371
vn 0.6269 -0.2597 -0.7345
vn 0.1000 -0.2413 -0.9653
vn 0.6269 0.2597 0.7345
vn -0.1098 -0.3313 -0.9371
vn -0.1000 -0.2413 0.9653
vt 0.935786 1.355232
vt 0.892257 1.668643
vt 0.979316 1.668643
vt 2.335786 1.355232
vt 2.009316 1.668643
vt 2.009316 1.355232
vt 4.425188 1.355232
vt 3.902838 1.668643
vt 3.902838 1.355232
vt 0.892257 3.380486
vt 0.979316 2.335786
vt 0.979316 3.380486
vt 0.892257 0.376971
vt 0.979316 -0.275967
vt 0.979316 0.376971
vt 0.892257 1.749004
vt -0.275967 1.355232
vt 0.376971 1.668643
vt 0.376971 1.355232
vt 3.380486 1.355232
vt 2.335786 1.668643
vt 3.380486 1.668643
vt 1.109903 1.355232
vt 1.153433 1.668643
vt 1.066374 1.668643
vt -0.275967 0.911234
vt -0.436691 1.276880
vt -0.275967 1.276880
vt 0.840022 1.276880
vt 0.961904 1.276880
vt 1.205668 0.911234
vt 1.083786 1.276880
vt 1.083786 0.911234
vt 0.840022 -0.275967
vt 0.961904 -0.436691
vt 0.961904 -0.275967
vt -0.436691 0.911234
vt 1.205668 -0.275967
vt 1.083786 -0.436691
vt 1.083786 -0.275967
vt 1.682847 1.355232
vt 1.029909 1.355232
vt 1.682847 1.668643
vt 1.029909 1.668643
vt 0.892257 2.009316
vt 0.979316 1.682847
vt 0.979316 2.009316
vt 0.892257 1.029909
vt 0.979316 1.029909
vt 0.376971 1.355232
vt -0.275967 1.668643
vt 1.029909 1.355232
vt 0.376971 1.668643
vt 1.029909 1.668643
vt 0.892257 2.335786
vt 0.840022 0.404286
vt 1.205668 0.189989
vt 1.205668 0.404287
vt 1.205668 1.960346
vt 0.840022 1.731817
vt 0.840022 1.960346
vt 1.860396 0.404287
vt 1.960346 0.189989
vt 2.088925 0.404287
vt 1.860396 0.404286
vt 1.731817 0.189989
vt 0.840022 0.189989
vt 1.205668 0.832882
vt 0.840022 0.618584
vt 0.840022 0.832882
vt 1.960346 0.832882
vt 1.860396 0.618584
vt 1.731817 0.832882
vt 2.088925 0.618584
vt 1.205668 0.618584
vt 0.842031 0.832882
vt 0.761669 0.832882
vt 0.761669 0.753409
vt 3.613108 -1.256521
vt 3.681977 -1.177048
vt 3.600582 -1.176159
vt 1.203658 0.832882
vt 1.284020 0.913244
vt 1.227196 0.889706
vt 0.761669 0.913244
vt 0.818494 0.889706
vt 3.380486 0.832882
vt 3.613091 -1.256521
vt 3.287609 0.913244
vt 0.908999 -1.256521
vt 0.842031 -1.177048
vt 0.962574 -1.177048
vt 3.287171 0.913244
vt 1.203658 3.613108
vt 1.284020 2.718402
vt 1.203658 2.649196
vt 2.335786 0.832882
vt 2.718402 -1.176159
vt 2.404992 0.913244
vt 1.203658 2.335786
vt 1.284020 2.009316
vt 1.203658 2.009316
vt 0.842031 -0.275967
vt 0.761669 0.376971
vt 0.842031 0.376971
vt 1.109903 4.425188
vt 1.203658 4.344826
vt 1.083116 4.344826
vt 0.761669 3.856398
vt 0.842031 4.344826
vt 0.842031 3.862657
vt 1.284020 3.856180
vt 1.203658 3.380486
vt 1.203658 3.862657
vt 1.203658 0.376971
vt 1.284020 -0.275967
vt 1.203658 -0.275967
vt 1.203658 1.029909
vt 1.284020 0.376971
vt 1.203658 1.682847
vt 1.284020 1.029909
vt 0.842031 1.682847
vt 0.761669 2.009316
vt 0.842031 2.009316
vt 0.842031 1.029909
vt 0.761669 1.682847
vt 0.761669 1.029909
vt 1.284020 1.682847
vt 0.761669 2.335786
vt 0.842031 2.335786
vt 2.347706 0.753409
vt 2.416147 0.832882
vt 2.335786 0.913244
vt 1.056329 3.613102
vt 1.056329 2.649196
vt 1.083116 0.832882
vt 1.203658 -1.177048
vt 1.083116 -1.177048
vt 4.425188 0.913244
vt 3.856398 0.913244
vt 0.962574 4.344826
vt 0.962574 3.862657
vt 2.009316 0.913244
vt 0.961904 0.911234
vt -0.275967 0.913244
vt 0.376971 0.913244
vt 1.205668 1.276880
vt 0.376971 0.913244
vt 0.840022 0.911234
vt 0.935786 0.913244
vt 1.029909 0.913244
vt 1.682847 0.913244
vt 1.205668 1.731817
vt 1.029909 0.913244
vt 1.109903 0.913244
vt 1.284020 1.355232
vt 1.083116 3.862657
vt 0.962574 0.832882
vt 0.761669 3.613091
vt 0.908999 2.649196
vt 0.761669 2.649196
vt 0.908999 3.613096
vt 0.935786 4.425188
vt 0.761669 4.425188
vt 1.203658 -1.256521
vt 1.056329 -1.256521
vt 1.066374 2.335786
vt 1.153433 2.009316
vt 1.153433 2.335786
vt 1.066374 2.009316
vt 1.153433 1.029909
vt 1.066374 0.376971
vt 1.153433 0.376971
vt 1.066374 1.029909
vt 1.153433 1.682847
vt 1.066374 1.682847
vt 0.840022 -0.436691
vt 1.205668 -0.436691
vt 0.761669 1.355232
vt 4.425188 1.749004
vt 4.425188 1.668643
vt 1.066374 3.902838
vt 0.979316 4.425188
vt 0.979316 3.902838
vt 1.066374 -0.275967
vt 1.153433 -0.275967
vt 0.376971 1.749004
vt 1.066374 3.380486
vt 1.153433 3.380486
vt 0.892257 3.902838
vt 0.962574 3.380486
vt 1.083116 3.380486
vt 3.856180 0.913244
vt 0.842031 3.380486
vt 1.284020 4.425188
vt 0.761669 3.287609
vt 1.153433 3.902838
vt 1.066374 4.425188
vt 0.892257 4.425188
vt 1.066374 1.749004
vt 1.153433 1.749004
vt 0.979316 1.749004
vt 3.902838 1.749004
vt -0.275967 1.749004
vt 1.022845 -3.173004
vt 1.250142 -0.440709
vt 1.022845 -0.440709
vt -3.173004 1.325372
vt -0.440709 1.098075
vt -0.440709 1.325372
vt -3.173004 1.098075
vt -0.440709 0.870778
vt 1.250142 -3.173004
vt 0.795547 -0.440709
vt -3.173004 0.870778
vt -3.189076 0.916237
vt -3.189076 1.098075
vt 0.795547 -3.173004
vt 1.250142 0.870778
vt 0.795547 0.870778
vt 0.795547 1.325372
vt 1.022845 -3.333727
vt 1.250142 -3.574812
vt 1.250142 -3.333727
vt 1.250142 1.325372
vt 1.022845 1.355232
vt 1.022845 1.419521
vt 0.795547 1.325372
vt 0.795547 1.279913
vt 1.250142 1.325372
vt 1.250142 1.279913
vt -3.333727 1.098075
vt -3.317655 1.279913
vt -3.317655 1.098075
vt -3.317655 0.916237
vt -3.333727 0.870778
vt 1.250142 -3.189076
vt 1.022845 -3.317655
vt 1.022845 -3.189076
vt -3.189076 1.279913
vt 0.795547 -3.189076
vt 0.795547 -3.317655
vt 1.250142 -3.317655
vt -3.333727 1.325372
vt 1.022845 0.840918
vt 1.022845 0.776629
vt 1.022845 0.840918
vt 1.250142 0.916237
vt 0.795547 0.916237
vt 0.701399 1.098075
vt 1.344291 1.098075
vt 0.795547 -3.574812
vt 1.022845 -3.574812
vt -3.574812 1.098075
vt -3.574812 1.325372
vt 0.795547 -3.333727
vt -3.574812 0.870778
vt 0.892257 -0.275967
vt 0.892257 1.682847
vt 2.088925 0.404286
vt 0.761669 -1.256521
vt 1.284020 3.600582
vt 2.649196 -1.256521
vt 1.284020 2.404992
vt 0.761669 -0.275967
vt 1.284020 3.287171
vt 1.153433 4.425188
s 0
f 103/1/1 16/2/1 111/3/1
f 5/4/2 41/5/2 40/6/2
f 9/7/2 144/8/2 142/9/2
f 11/10/3 108/11/3 105/12/3
f 35/13/3 110/14/3 125/15/3
f 151/3/4 155/16/4 143/2/4
f 7/17/5 35/18/5 29/19/5
f 4/20/2 13/21/2 5/4/2
f 3/20/5 143/8/5 141/9/5
f 2/4/5 11/22/5 3/20/5
f 101/23/4 14/24/4 109/25/4
f 19/26/6 25/27/6 21/28/6
f 102/1/4 21/29/4 116/30/4
f 22/31/4 119/32/4 117/33/4
f 21/34/3 120/35/3 116/36/3
f 20/28/7 22/37/7 18/26/7
f 18/38/8 117/39/8 113/40/8
f 31/41/5 39/5/5 38/6/5
f 30/42/5 37/43/5 31/41/5
f 29/19/5 36/44/5 30/42/5
f 39/45/3 121/46/3 127/47/3
f 121/46/3 36/48/3 123/49/3
f 123/49/3 35/13/3 125/15/3
f 28/50/2 14/51/2 6/17/2
f 27/52/2 34/53/2 28/50/2
f 26/41/2 33/54/2 27/52/2
f 10/55/3 127/47/3 108/11/3
f 38/6/5 10/21/5 2/4/5
f 40/6/2 32/43/2 26/41/2
f 51/56/9 48/57/9 52/58/9
f 49/59/8 47/60/8 46/61/8
f 52/62/7 49/63/7 54/64/7
f 51/65/6 46/63/6 47/66/6
f 57/56/10 49/57/10 46/67/10
f 45/68/11 56/69/11 42/70/11
f 56/69/1 54/58/1 57/56/1
f 42/71/6 50/72/6 43/73/6
f 56/74/6 51/65/6 50/72/6
f 45/71/7 53/72/7 55/74/7
f 53/72/7 54/64/7 55/74/7
f 43/70/12 53/75/12 44/68/12
f 50/69/4 52/58/4 53/75/4
f 58/76/13 60/77/13 61/78/13
f 70/79/14 71/80/14 72/81/14
f 75/82/4 76/83/4 77/84/4
f 78/85/4 79/76/4 80/86/4
f 65/87/15 63/88/15 64/89/15
f 130/90/16 62/91/16 131/92/16
f 72/81/17 73/87/17 74/93/17
f 70/94/18 66/95/18 67/96/18
f 69/97/19 66/98/19 68/99/19
f 69/100/18 97/101/18 98/102/18
f 79/103/20 95/104/20 96/105/20
f 134/106/21 83/107/21 135/108/21
f 145/109/20 81/110/20 146/111/20
f 147/112/18 73/113/18 148/114/18
f 85/115/18 76/116/18 75/117/18
f 87/118/18 86/119/18 85/115/18
f 89/120/18 88/121/18 87/118/18
f 91/122/20 99/123/20 100/124/20
f 93/125/20 92/126/20 91/122/20
f 96/105/20 94/127/20 93/125/20
f 98/102/18 90/128/18 89/120/18
f 100/124/20 59/129/20 58/130/20
f 69/82/22 61/78/22 137/90/22
f 61/131/6 64/89/6 63/88/6
f 69/100/8 100/124/8 58/130/8
f 60/132/6 2/4/6 3/20/6
f 59/133/6 38/6/6 2/4/6
f 129/134/8 67/96/8 138/135/8
f 140/136/23 71/137/23 132/138/23
f 141/9/6 82/139/6 145/140/6
f 146/111/8 136/141/8 150/142/8
f 74/93/7 66/98/7 72/81/7
f 74/93/7 5/4/7 68/99/7
f 5/4/7 97/143/7 68/99/7
f 142/9/7 84/139/7 9/7/7
f 79/76/4 77/84/4 114/144/4
f 28/50/7 76/145/7 86/146/7
f 96/105/8 75/117/8 79/103/8
f 76/83/4 20/147/4 18/31/4
f 95/148/6 7/17/6 29/19/6
f 78/85/4 19/149/4 21/29/4
f 82/85/1 103/1/1 133/150/1
f 27/52/7 86/146/7 88/151/7
f 93/125/8 85/115/8 96/105/8
f 26/41/7 88/151/7 90/152/7
f 91/122/8 87/118/8 93/125/8
f 40/6/7 90/152/7 97/143/7
f 98/102/3 44/153/3 45/59/3
f 91/122/8 44/153/8 89/120/8
f 100/124/3 43/60/3 91/122/3
f 92/152/6 30/42/6 31/41/6
f 99/143/6 31/41/6 38/6/6
f 94/154/6 29/19/6 30/42/6
f 98/102/8 42/61/8 100/124/8
f 134/155/1 9/156/1 84/83/1
f 133/150/1 104/23/1 134/155/1
f 149/157/8 83/107/8 148/114/8
f 150/142/8 135/108/8 149/157/8
f 65/76/23 131/92/23 62/91/23
f 139/158/23 132/138/23 131/92/23
f 63/159/8 137/160/8 1/161/8
f 130/162/8 138/135/8 137/160/8
f 133/163/21 81/110/21 82/164/21
f 134/106/21 136/141/21 133/163/21
f 70/165/16 132/138/16 71/137/16
f 129/166/16 131/92/16 132/138/16
f 107/167/3 41/168/3 13/169/3
f 108/11/3 128/170/3 107/167/3
f 33/171/3 126/172/3 34/173/3
f 123/49/3 126/172/3 124/174/3
f 32/175/3 124/174/3 33/171/3
f 122/176/3 123/49/3 124/174/3
f 128/170/3 32/175/3 41/168/3
f 128/170/3 121/46/3 122/176/3
f 114/36/8 23/177/8 19/34/8
f 113/40/8 118/35/8 114/36/8
f 115/40/3 24/178/3 20/38/3
f 116/36/3 119/39/3 115/40/3
f 118/144/4 25/29/4 23/149/4
f 117/33/4 120/30/4 118/144/4
f 101/23/4 20/147/4 6/156/4
f 101/23/4 116/30/4 115/32/4
f 102/1/4 15/2/4 7/179/4
f 101/23/4 110/3/4 102/1/4
f 152/8/6 153/180/6 112/181/6
f 152/182/3 111/183/3 151/184/3
f 34/173/3 109/185/3 14/186/3
f 110/51/6 163/187/6 125/18/6
f 106/188/3 13/169/3 12/189/3
f 106/188/3 108/11/3 107/167/3
f 104/23/1 17/24/1 9/156/1
f 103/1/1 112/25/1 104/23/1
f 106/188/3 151/184/3 105/12/3
f 105/12/3 143/190/3 11/10/3
f 139/191/8 149/157/8 140/192/8
f 140/192/8 148/114/8 73/113/8
f 4/20/7 147/193/7 142/9/7
f 65/194/8 150/142/8 139/191/8
f 3/20/6 145/140/6 64/89/6
f 147/112/18 83/107/18 84/195/18
f 145/109/20 65/194/20 64/196/20
f 141/9/5 16/181/5 8/7/5
f 12/189/3 152/182/3 106/188/3
f 142/9/2 12/22/2 4/20/2
f 160/197/3 153/198/3 159/182/3
f 158/184/3 156/199/3 155/190/3
f 144/24/4 159/200/4 152/25/4
f 112/25/1 154/201/1 17/24/1
f 16/2/1 157/202/1 111/3/1
f 17/181/7 160/203/7 144/8/7
f 111/181/7 158/203/7 151/8/7
f 143/8/6 156/180/6 16/181/6
f 164/172/3 162/14/3 161/185/3
f 125/3/1 164/200/1 126/25/1
f 126/18/7 161/204/7 109/51/7
f 109/25/4 162/202/4 110/3/4
f 166/205/24 167/206/24 165/207/24
f 168/208/25 169/209/25 167/210/25
f 170/211/26 171/212/26 169/209/26
f 172/213/27 173/207/27 171/206/27
f 174/205/28 175/214/28 173/207/28
f 176/215/29 177/209/29 175/212/29
f 178/211/30 194/216/30 195/217/30
f 178/211/31 179/210/31 177/209/31
f 180/218/32 165/207/32 179/214/32
f 171/219/1 175/220/1 179/221/1
f 182/222/24 205/223/24 181/224/24
f 181/225/33 198/226/33 182/227/33
f 188/228/34 198/226/34 204/229/34
f 168/230/35 190/226/35 189/231/35
f 180/221/36 190/226/36 166/227/36
f 170/211/37 192/216/37 172/215/37
f 187/232/38 204/233/38 203/234/38
f 187/232/39 202/235/39 186/236/39
f 192/237/40 201/238/40 193/239/40
f 196/240/38 203/234/38 204/233/38
f 189/240/41 199/234/41 191/217/41
f 194/241/42 201/238/42 202/242/42
f 190/239/43 204/242/43 198/238/43
f 190/239/44 197/243/44 189/237/44
f 191/217/45 200/235/45 192/216/45
f 195/217/30 202/235/30 203/234/30
f 183/232/46 197/233/46 181/244/46
f 172/219/47 193/245/47 174/246/47
f 183/232/45 200/235/45 199/234/45
f 184/219/48 201/247/48 200/248/48
f 170/211/41 189/240/41 191/217/41
f 178/211/49 196/240/49 180/208/49
f 186/220/50 201/247/50 185/246/50
f 176/220/51 193/245/51 194/249/51
f 211/250/4 209/246/4 207/251/4
f 182/222/32 212/252/32 206/253/32
f 186/236/29 211/254/29 187/232/29
f 184/224/27 209/253/27 185/222/27
f 183/232/25 205/255/25 207/254/25
f 187/232/31 212/255/31 188/244/31
f 186/256/28 209/253/28 210/252/28
f 184/236/26 207/254/26 208/257/26
f 103/1/1 8/179/1 16/2/1
f 5/4/2 13/21/2 41/5/2
f 9/7/2 17/181/2 144/8/2
f 11/10/3 10/55/3 108/11/3
f 35/13/3 15/258/3 110/14/3
f 151/3/4 158/202/4 155/16/4
f 7/17/5 15/51/5 35/18/5
f 4/20/2 12/22/2 13/21/2
f 3/20/5 11/22/5 143/8/5
f 2/4/5 10/21/5 11/22/5
f 101/23/4 6/156/4 14/24/4
f 19/26/6 23/37/6 25/27/6
f 102/1/4 7/179/4 21/29/4
f 22/31/4 24/147/4 119/32/4
f 21/34/3 25/177/3 120/35/3
f 20/28/7 24/27/7 22/37/7
f 18/38/8 22/178/8 117/39/8
f 31/41/5 37/43/5 39/5/5
f 30/42/5 36/44/5 37/43/5
f 29/19/5 35/18/5 36/44/5
f 39/45/3 37/259/3 121/46/3
f 121/46/3 37/259/3 36/48/3
f 123/49/3 36/48/3 35/13/3
f 28/50/2 34/53/2 14/51/2
f 27/52/2 33/54/2 34/53/2
f 26/41/2 32/43/2 33/54/2
f 10/55/3 39/45/3 127/47/3
f 38/6/5 39/5/5 10/21/5
f 40/6/2 41/5/2 32/43/2
f 51/56/9 47/67/9 48/57/9
f 49/59/8 48/153/8 47/60/8
f 52/62/7 48/66/7 49/63/7
f 51/65/6 57/260/6 46/63/6
f 57/56/10 54/58/10 49/57/10
f 45/68/11 55/75/11 56/69/11
f 56/69/1 55/75/1 54/58/1
f 42/71/6 56/74/6 50/72/6
f 56/74/6 57/260/6 51/65/6
f 45/71/7 44/73/7 53/72/7
f 53/72/7 52/62/7 54/64/7
f 43/70/12 50/69/12 53/75/12
f 50/69/4 51/56/4 52/58/4
f 58/76/52 59/85/52 60/77/52
f 65/87/53 62/80/53 63/88/53
f 130/90/54 63/261/54 62/91/54
f 72/81/17 71/80/17 73/87/17
f 70/94/18 72/262/18 66/95/18
f 69/97/19 67/263/19 66/98/19
f 69/100/18 68/264/18 97/101/18
f 79/103/20 78/265/20 95/104/20
f 134/106/21 84/195/21 83/107/21
f 145/109/20 82/164/20 81/110/20
f 147/112/18 74/266/18 73/113/18
f 85/115/18 86/119/18 76/116/18
f 87/118/18 88/121/18 86/119/18
f 89/120/18 90/128/18 88/121/18
f 91/122/20 92/126/20 99/123/20
f 93/125/20 94/127/20 92/126/20
f 96/105/20 95/104/20 94/127/20
f 98/102/18 97/101/18 90/128/18
f 100/124/20 99/123/20 59/129/20
f 138/166/22 67/165/22 69/82/22
f 69/82/22 58/76/22 61/78/22
f 61/78/22 1/261/22 137/90/22
f 137/90/22 138/166/22 69/82/22
f 63/88/6 1/263/6 61/131/6
f 61/131/6 60/132/6 64/89/6
f 69/100/8 98/102/8 100/124/8
f 3/20/6 64/89/6 60/132/6
f 60/132/6 59/133/6 2/4/6
f 59/133/6 99/143/6 38/6/6
f 129/134/8 70/94/8 67/96/8
f 140/136/23 73/82/23 71/137/23
f 141/9/6 8/7/6 82/139/6
f 146/111/8 81/110/8 136/141/8
f 74/93/7 68/99/7 66/98/7
f 74/93/7 4/20/7 5/4/7
f 5/4/7 40/6/7 97/143/7
f 142/9/7 147/193/7 84/139/7
f 19/149/4 80/86/4 79/76/4
f 79/76/4 75/82/4 77/84/4
f 77/84/4 18/31/4 113/33/4
f 114/144/4 19/149/4 79/76/4
f 77/84/4 113/33/4 114/144/4
f 28/50/7 6/17/7 76/145/7
f 96/105/8 85/115/8 75/117/8
f 18/31/4 77/84/4 76/83/4
f 76/83/4 6/156/4 20/147/4
f 95/148/6 78/145/6 7/17/6
f 21/29/4 7/179/4 78/85/4
f 78/85/4 80/86/4 19/149/4
f 82/85/1 8/179/1 103/1/1
f 27/52/7 28/50/7 86/146/7
f 93/125/8 87/118/8 85/115/8
f 26/41/7 27/52/7 88/151/7
f 91/122/8 89/120/8 87/118/8
f 40/6/7 26/41/7 90/152/7
f 98/102/55 89/120/55 44/153/55
f 91/122/8 43/60/8 44/153/8
f 100/124/3 42/61/3 43/60/3
f 92/152/6 94/154/6 30/42/6
f 99/143/6 92/152/6 31/41/6
f 94/154/6 95/148/6 29/19/6
f 98/102/8 45/59/8 42/61/8
f 134/155/1 104/23/1 9/156/1
f 133/150/1 103/1/1 104/23/1
f 149/157/8 135/108/8 83/107/8
f 150/142/8 136/141/8 135/108/8
f 65/76/23 139/158/23 131/92/23
f 139/158/23 140/136/23 132/138/23
f 63/159/8 130/162/8 137/160/8
f 130/162/8 129/134/8 138/135/8
f 133/163/21 136/141/21 81/110/21
f 134/106/21 135/108/21 136/141/21
f 70/165/16 129/166/16 132/138/16
f 129/166/16 130/90/16 131/92/16
f 107/167/3 128/170/3 41/168/3
f 108/11/3 127/47/3 128/170/3
f 33/171/3 124/174/3 126/172/3
f 123/49/3 125/15/3 126/172/3
f 32/175/3 122/176/3 124/174/3
f 122/176/3 121/46/3 123/49/3
f 128/170/3 122/176/3 32/175/3
f 128/170/3 127/47/3 121/46/3
f 114/36/8 118/35/8 23/177/8
f 113/40/8 117/39/8 118/35/8
f 115/40/3 119/39/3 24/178/3
f 116/36/3 120/35/3 119/39/3
f 118/144/4 120/30/4 25/29/4
f 117/33/4 119/32/4 120/30/4
f 101/23/4 115/32/4 20/147/4
f 101/23/4 102/1/4 116/30/4
f 102/1/4 110/3/4 15/2/4
f 101/23/4 109/25/4 110/3/4
f 152/8/6 159/203/6 153/180/6
f 152/182/3 112/198/3 111/183/3
f 34/173/3 126/172/3 109/185/3
f 110/51/6 162/204/6 163/187/6
f 106/188/3 107/167/3 13/169/3
f 106/188/3 105/12/3 108/11/3
f 104/23/1 112/25/1 17/24/1
f 103/1/1 111/3/1 112/25/1
f 106/188/3 152/182/3 151/184/3
f 105/12/3 151/184/3 143/190/3
f 139/191/8 150/142/8 149/157/8
f 140/192/8 149/157/8 148/114/8
f 4/20/7 74/93/7 147/193/7
f 65/194/8 146/111/8 150/142/8
f 3/20/6 141/9/6 145/140/6
f 147/112/18 148/114/18 83/107/18
f 145/109/20 146/111/20 65/194/20
f 141/9/5 143/8/5 16/181/5
f 12/189/3 144/197/3 152/182/3
f 142/9/2 144/8/2 12/22/2
f 160/197/3 154/267/3 153/198/3
f 158/184/3 157/183/3 156/199/3
f 144/24/4 160/201/4 159/200/4
f 112/25/1 153/200/1 154/201/1
f 16/2/1 156/16/1 157/202/1
f 17/181/7 154/180/7 160/203/7
f 111/181/7 157/180/7 158/203/7
f 143/8/6 155/203/6 156/180/6
f 164/172/3 163/15/3 162/14/3
f 125/3/1 163/202/1 164/200/1
f 126/18/7 164/187/7 161/204/7
f 109/25/4 161/200/4 162/202/4
f 166/205/24 168/213/24 167/206/24
f 168/208/25 170/211/25 169/209/25
f 170/211/26 172/215/26 171/212/26
f 172/213/27 174/205/27 173/207/27
f 174/205/28 176/218/28 175/214/28
f 176/215/29 178/211/29 177/209/29
f 178/211/56 176/215/56 194/216/56
f 178/211/31 180/208/31 179/210/31
f 180/218/32 166/205/32 165/207/32
f 179/221/1 165/227/1 167/230/1
f 167/230/1 169/251/1 171/219/1
f 171/219/1 173/246/1 175/220/1
f 175/220/1 177/250/1 179/221/1
f 179/221/1 167/230/1 171/219/1
f 182/222/24 206/253/24 205/223/24
f 181/225/57 197/231/57 198/226/57
f 188/228/58 182/227/58 198/226/58
f 168/230/59 166/227/59 190/226/59
f 180/221/60 196/229/60 190/226/60
f 170/211/45 191/217/45 192/216/45
f 187/232/61 188/244/61 204/233/61
f 187/232/30 203/234/30 202/235/30
f 192/237/40 200/243/40 201/238/40
f 196/240/38 195/217/38 203/234/38
f 189/240/41 197/233/41 199/234/41
f 194/241/42 193/239/42 201/238/42
f 190/239/43 196/241/43 204/242/43
f 190/239/44 198/238/44 197/243/44
f 191/217/45 199/234/45 200/235/45
f 195/217/30 194/216/30 202/235/30
f 183/232/41 199/234/41 197/233/41
f 172/219/62 192/248/62 193/245/62
f 183/232/63 184/236/63 200/235/63
f 184/219/64 185/246/64 201/247/64
f 170/211/65 168/208/65 189/240/65
f 178/211/38 195/217/38 196/240/38
f 186/220/66 202/249/66 201/247/66
f 176/220/67 174/246/67 193/245/67
f 207/251/4 205/230/4 206/227/4
f 206/227/4 212/221/4 211/250/4
f 211/250/4 210/220/4 209/246/4
f 209/246/4 208/219/4 207/251/4
f 207/251/4 206/227/4 211/250/4
f 182/222/32 188/256/32 212/252/32
f 186/236/29 210/257/29 211/254/29
f 184/224/27 208/223/27 209/253/27
f 183/232/25 181/244/25 205/255/25
f 187/232/31 211/254/31 212/255/31
f 186/256/28 185/222/28 209/253/28
f 184/236/26 183/232/26 207/254/26
