# Blender 5.1.2
# www.blender.org
mtllib rocket_launcher.mtl
o Cylinder
v 0.000000 -0.080000 0.450000
v 0.000000 -0.080000 0.350000
v -0.070711 -0.109289 0.450000
v -0.070711 -0.109289 0.350000
v -0.100000 -0.180000 0.450000
v -0.100000 -0.180000 0.350000
v -0.070711 -0.250711 0.450000
v -0.070711 -0.250711 0.350000
v 0.000000 -0.280000 0.450000
v 0.000000 -0.280000 0.350000
v 0.070711 -0.250711 0.450000
v 0.070711 -0.250711 0.350000
v 0.100000 -0.180000 0.450000
v 0.100000 -0.180000 0.350000
v 0.070711 -0.109289 0.450000
v 0.070711 -0.109289 0.350000
v -0.045962 -0.134038 0.350000
v 0.000000 -0.115000 0.350000
v -0.065000 -0.180000 0.350000
v -0.045962 -0.225962 0.350000
v 0.000000 -0.245000 0.350000
v 0.045962 -0.225962 0.350000
v 0.065000 -0.180000 0.350000
v 0.045962 -0.134038 0.350000
v -0.045962 -0.134038 -0.050000
v -0.000000 -0.115000 -0.050000
v -0.065000 -0.180000 -0.050000
v -0.045962 -0.225962 -0.050000
v -0.000000 -0.245000 -0.050000
v 0.045962 -0.225962 -0.050000
v 0.065000 -0.180000 -0.050000
v 0.045962 -0.134038 -0.050000
v -0.045962 -0.134038 -0.450000
v -0.000000 -0.115000 -0.450000
v -0.065000 -0.180000 -0.450000
v -0.045962 -0.225962 -0.450000
v -0.000000 -0.245000 -0.450000
v 0.045962 -0.225962 -0.450000
v 0.065000 -0.180000 -0.450000
v 0.045962 -0.134038 -0.450000
v 0.035355 -0.265355 0.450000
v 0.035355 -0.265355 0.350000
v 0.022981 -0.235481 0.350000
v 0.022981 -0.235481 -0.050000
v 0.022981 -0.235481 -0.450000
v -0.035355 -0.265355 0.450000
v -0.035355 -0.265355 0.350000
v -0.022981 -0.235481 0.350000
v -0.022981 -0.235481 -0.050000
v -0.022981 -0.235481 -0.450000
v -0.000000 -0.115000 -0.020000
v -0.045962 -0.134038 -0.020000
v 0.045962 -0.134038 -0.020000
v 0.045962 -0.225962 -0.020000
v 0.065000 -0.180000 -0.020000
v -0.045962 -0.225962 -0.020000
v -0.000000 -0.245000 -0.020000
v -0.065000 -0.180000 -0.020000
v 0.022981 -0.235481 -0.020000
v -0.022981 -0.235481 -0.020000
v 0.022981 -0.335481 -0.050000
v -0.000000 -0.345000 -0.050000
v 0.022981 -0.335481 -0.020000
v -0.022981 -0.335481 -0.050000
v -0.022981 -0.335481 -0.020000
v -0.000000 -0.345000 -0.020000
v -0.035355 -0.094645 0.450000
v -0.035355 -0.094645 0.350000
v -0.022981 -0.124519 0.350000
v -0.022981 -0.124519 -0.050000
v -0.022981 -0.124519 -0.450000
v -0.022981 -0.124519 -0.020000
v 0.035355 -0.094645 0.450000
v 0.035355 -0.094645 0.350000
v 0.022981 -0.124519 0.350000
v 0.022981 -0.124519 -0.050000
v 0.022981 -0.124519 -0.450000
v 0.022981 -0.124519 -0.020000
v 0.000000 -0.080000 0.400000
v -0.070711 -0.109289 0.400000
v -0.100000 -0.180000 0.400000
v -0.070711 -0.250711 0.400000
v 0.000000 -0.280000 0.400000
v 0.070711 -0.250711 0.400000
v 0.100000 -0.180000 0.400000
v 0.070711 -0.109289 0.400000
v 0.035355 -0.265355 0.400000
v -0.035355 -0.265355 0.400000
v -0.035355 -0.094645 0.400000
v 0.035355 -0.094645 0.400000
v 0.035355 -0.064645 0.450000
v 0.000000 -0.050000 0.450000
v -0.035355 -0.064645 0.450000
v -0.035355 -0.064645 0.400000
v 0.035355 -0.064645 0.400000
v 0.000000 -0.050000 0.400000
v 0.017678 -0.014645 0.450000
v 0.000000 -0.000000 0.450000
v -0.017678 -0.014645 0.450000
v -0.017678 -0.014645 0.400000
v 0.017678 -0.014645 0.400000
v 0.000000 -0.000000 0.400000
vn -0.3827 0.9239 -0.0000
vn -0.9239 0.3827 -0.0000
vn -0.9239 -0.3827 -0.0000
vn -0.3827 -0.9239 -0.0000
vn 0.3827 -0.9239 -0.0000
vn 0.9239 -0.3827 -0.0000
vn -0.0000 -0.0000 -1.0000
vn 0.9239 0.3827 -0.0000
vn 0.3827 0.9239 -0.0000
vn -0.0000 -0.0000 1.0000
vn 1.0000 -0.0000 -0.0000
vn -1.0000 -0.0000 -0.0000
vn -0.9428 0.3333 -0.0000
vn -0.6380 0.7701 -0.0000
vn 0.6380 0.7701 -0.0000
vn 0.9428 0.3333 -0.0000
vt 2.003812 3.441176
vt 2.318081 3.885621
vt 2.003812 3.885622
vt 3.441176 2.318082
vt 3.885621 1.689542
vt 3.885621 2.318081
vt 3.441176 1.689542
vt 3.885621 1.061003
vt 1.689542 3.885622
vt 2.003812 3.885621
vt 1.375273 3.441176
vt 1.061003 3.885621
vt 1.375273 3.885621
vt 2.003812 0.930829
vt 2.098093 1.280992
vt 1.893818 1.196378
vt 1.375273 3.885622
vt 1.689542 3.441176
vt 1.689542 3.885621
vt 2.578431 1.689542
vt 1.375273 0.930829
vt 1.375273 2.448257
vt 1.689542 0.152287
vt 1.893818 -0.114379
vt 1.893818 0.152287
vt 1.061003 2.318082
vt 1.111765 1.689542
vt 1.280992 2.098093
vt 2.318081 2.318082
vt 2.267320 1.689542
vt 1.689542 1.111765
vt 1.485267 1.196378
vt 1.375273 2.448256
vt 1.485267 2.182706
vt 2.003811 2.448256
vt 1.689542 2.267320
vt 1.893818 2.182706
vt 2.318081 1.061003
vt 0.800654 1.689542
vt 1.280992 1.280992
vt -0.114379 1.689542
vt -3.669935 2.098092
vt -0.114379 2.098093
vt 1.280992 0.152287
vt 1.485267 -0.114379
vt 1.485267 0.152287
vt 0.152288 1.689542
vt -0.114379 1.280992
vt 1.893818 0.152288
vt 2.098093 -0.114379
vt 0.152287 2.098093
vt 0.152287 1.280992
vt 1.485267 2.182705
vt 1.485267 1.196377
vt 2.267320 1.689541
vt 1.689542 -0.114379
vt 1.485267 -3.669935
vt 1.485268 -0.114379
vt -3.669935 1.689541
vt -3.669935 1.280991
vt 1.689542 -3.669935
vt 1.893817 -3.669935
vt 1.280992 -0.114379
vt 1.485267 -3.669935
vt 1.893818 -3.669935
vt 1.280992 -3.669935
vt 1.061003 1.061003
vt 1.689542 0.800654
vt 2.318081 3.441176
vt 1.893818 3.441176
vt 1.485267 3.441176
vt 1.280992 3.441176
vt 3.441176 1.280992
vt 1.485268 0.152287
vt 3.441176 2.098093
vt 2.098093 3.441176
vt 2.098093 0.152287
vt 2.098093 -3.669935
vt 2.098093 2.098093
vt 1.689542 2.578431
vt 1.061003 4.330065
vt 1.375273 4.330065
vt 2.003812 4.330065
vt 2.318081 4.330065
vt 1.689542 4.330065
vt 1.689542 2.578432
vt 4.330065 1.689542
vt 4.330065 2.318082
vt 4.330065 1.061003
vt 2.003812 2.448257
vt 3.441176 1.061003
vt 1.061003 3.441176
vt 2.098093 2.098092
vt 1.893818 2.182705
vt 1.689542 2.267319
vt 1.280992 2.098092
vt 1.111765 1.689541
vt 1.280992 1.280991
vt 1.689542 1.111764
vt 1.893818 1.196377
vt 2.098093 1.280991
s 0
f 68/1/1 80/2/1 89/3/1
f 4/4/2 81/5/2 80/6/2
f 6/7/3 82/8/3 81/5/3
f 47/1/4 83/9/4 88/10/4
f 42/11/5 84/12/5 87/13/5
f 84/8/6 14/7/6 85/5/6
f 47/14/7 20/15/7 48/16/7
f 85/5/8 16/4/8 86/6/8
f 90/17/9 2/18/9 79/19/9
f 5/20/10 41/21/10 73/22/10
f 51/23/1 70/24/1 72/25/1
f 16/26/7 23/27/7 24/28/7
f 4/29/7 19/30/7 6/20/7
f 42/21/7 21/31/7 43/32/7
f 74/33/7 24/28/7 75/34/7
f 68/35/7 18/36/7 69/37/7
f 6/20/7 20/15/7 8/38/7
f 14/39/7 22/40/7 23/27/7
f 31/41/8 40/42/8 32/43/8
f 53/44/9 76/45/9 78/46/9
f 55/47/6 30/48/6 31/41/6
f 60/49/4 28/50/4 49/24/4
f 52/51/2 27/41/2 58/47/2
f 55/47/8 32/43/8 53/51/8
f 57/23/10 65/49/10 66/23/10
f 58/47/3 28/48/3 56/52/3
f 77/53/7 45/54/7 35/55/7
f 29/56/5 45/57/5 44/58/5
f 28/48/3 35/59/3 36/60/3
f 70/24/1 34/61/1 71/62/1
f 32/63/9 77/64/9 76/45/9
f 30/48/6 39/59/6 31/41/6
f 28/50/4 50/65/4 49/24/4
f 25/43/2 35/59/2 27/41/2
f 44/58/5 38/66/5 30/63/5
f 54/44/5 44/58/5 30/63/5
f 42/21/7 22/40/7 12/67/7
f 10/18/5 87/13/5 83/9/5
f 49/24/4 37/61/4 29/56/4
f 29/56/7 64/24/7 49/24/7
f 47/14/7 21/31/7 10/68/7
f 8/69/4 88/10/4 82/2/4
f 48/70/4 57/23/4 21/18/4
f 43/71/5 54/44/5 22/72/5
f 19/7/3 56/52/3 20/73/3
f 21/18/5 59/74/5 43/71/5
f 23/7/8 53/51/8 24/75/8
f 17/75/2 58/47/2 19/7/2
f 20/76/4 60/49/4 48/70/4
f 22/73/6 55/47/6 23/7/6
f 24/72/9 78/46/9 75/71/9
f 18/18/1 72/25/1 69/70/1
f 66/23/5 61/58/5 63/74/5
f 65/49/4 62/56/4 66/23/4
f 59/74/11 61/58/11 44/58/11
f 49/24/12 65/49/12 60/49/12
f 57/23/10 63/74/10 59/74/10
f 29/56/7 61/58/7 62/56/7
f 69/70/1 52/77/1 17/76/1
f 70/24/1 33/78/1 25/50/1
f 68/35/7 17/79/7 4/29/7
f 72/25/1 25/50/1 52/77/1
f 2/18/1 89/3/1 79/19/1
f 75/71/9 51/23/9 18/18/9
f 76/45/9 34/61/9 26/56/9
f 78/46/9 26/56/9 51/23/9
f 74/33/7 18/36/7 2/80/7
f 86/12/9 74/11/9 90/17/9
f 15/81/9 90/17/9 73/82/9
f 67/83/12 94/3/12 89/3/12
f 82/2/4 46/83/4 7/84/4
f 83/9/5 41/82/5 9/85/5
f 1/86/10 91/22/10 92/86/10
f 13/87/8 86/6/8 15/88/8
f 84/8/6 13/87/6 11/89/6
f 87/13/5 11/81/5 41/82/5
f 88/10/4 9/85/4 46/83/4
f 81/5/3 7/89/3 5/87/3
f 80/6/2 5/87/2 3/88/2
f 89/3/1 3/84/1 67/83/1
f 93/83/13 100/3/13 94/3/13
f 96/19/7 101/17/7 95/17/7
f 90/17/11 91/82/11 73/82/11
f 79/19/7 94/3/7 96/19/7
f 1/86/10 93/90/10 67/90/10
f 79/19/7 95/17/7 90/17/7
f 102/19/14 99/83/14 98/85/14
f 101/17/15 98/85/15 97/82/15
f 92/86/10 97/22/10 98/86/10
f 96/19/7 100/3/7 102/19/7
f 91/82/16 101/17/16 97/82/16
f 92/86/10 99/90/10 93/90/10
f 68/1/1 4/69/1 80/2/1
f 4/4/2 6/7/2 81/5/2
f 6/7/3 8/91/3 82/8/3
f 47/1/4 10/18/4 83/9/4
f 42/11/5 12/92/5 84/12/5
f 84/8/6 12/91/6 14/7/6
f 47/14/7 8/38/7 20/15/7
f 85/5/8 14/7/8 16/4/8
f 90/17/9 74/11/9 2/18/9
f 73/22/10 1/86/10 67/90/10
f 67/90/10 3/29/10 5/20/10
f 5/20/10 7/38/10 46/14/10
f 46/14/10 9/68/10 41/21/10
f 41/21/10 11/67/10 13/39/10
f 13/39/10 15/26/10 73/22/10
f 73/22/10 67/90/10 5/20/10
f 5/20/10 46/14/10 41/21/10
f 41/21/10 13/39/10 73/22/10
f 51/23/1 26/56/1 70/24/1
f 16/26/7 14/39/7 23/27/7
f 4/29/7 17/79/7 19/30/7
f 42/21/7 10/68/7 21/31/7
f 74/33/7 16/26/7 24/28/7
f 68/35/7 2/80/7 18/36/7
f 6/20/7 19/30/7 20/15/7
f 14/39/7 12/67/7 22/40/7
f 31/41/8 39/59/8 40/42/8
f 53/44/9 32/63/9 76/45/9
f 55/47/6 54/52/6 30/48/6
f 60/49/4 56/77/4 28/50/4
f 52/51/2 25/43/2 27/41/2
f 55/47/8 31/41/8 32/43/8
f 57/23/10 60/49/10 65/49/10
f 58/47/3 27/41/3 28/48/3
f 35/55/7 33/93/7 71/94/7
f 71/94/7 34/95/7 77/53/7
f 77/53/7 40/96/7 39/97/7
f 39/97/7 38/98/7 45/54/7
f 45/54/7 37/99/7 50/100/7
f 50/100/7 36/101/7 35/55/7
f 35/55/7 71/94/7 77/53/7
f 77/53/7 39/97/7 45/54/7
f 45/54/7 50/100/7 35/55/7
f 29/56/5 37/61/5 45/57/5
f 28/48/3 27/41/3 35/59/3
f 70/24/1 26/56/1 34/61/1
f 32/63/9 40/66/9 77/64/9
f 30/48/6 38/60/6 39/59/6
f 28/50/4 36/78/4 50/65/4
f 25/43/2 33/42/2 35/59/2
f 44/58/5 45/57/5 38/66/5
f 54/44/5 59/74/5 44/58/5
f 42/21/7 43/32/7 22/40/7
f 10/18/5 42/11/5 87/13/5
f 49/24/4 50/65/4 37/61/4
f 29/56/7 62/56/7 64/24/7
f 47/14/7 48/16/7 21/31/7
f 8/69/4 47/1/4 88/10/4
f 48/70/4 60/49/4 57/23/4
f 43/71/5 59/74/5 54/44/5
f 19/7/3 58/47/3 56/52/3
f 21/18/5 57/23/5 59/74/5
f 23/7/8 55/47/8 53/51/8
f 17/75/2 52/51/2 58/47/2
f 20/76/4 56/77/4 60/49/4
f 22/73/6 54/52/6 55/47/6
f 24/72/9 53/44/9 78/46/9
f 18/18/1 51/23/1 72/25/1
f 66/23/5 62/56/5 61/58/5
f 65/49/4 64/24/4 62/56/4
f 59/74/11 63/74/11 61/58/11
f 49/24/12 64/24/12 65/49/12
f 57/23/10 66/23/10 63/74/10
f 29/56/7 44/58/7 61/58/7
f 69/70/1 72/25/1 52/77/1
f 70/24/1 71/62/1 33/78/1
f 68/35/7 69/37/7 17/79/7
f 72/25/1 70/24/1 25/50/1
f 2/18/1 68/1/1 89/3/1
f 75/71/9 78/46/9 51/23/9
f 76/45/9 77/64/9 34/61/9
f 78/46/9 76/45/9 26/56/9
f 74/33/7 75/34/7 18/36/7
f 86/12/9 16/92/9 74/11/9
f 15/81/9 86/12/9 90/17/9
f 67/83/12 93/83/12 94/3/12
f 82/2/4 88/10/4 46/83/4
f 83/9/5 87/13/5 41/82/5
f 1/86/10 73/22/10 91/22/10
f 13/87/8 85/5/8 86/6/8
f 84/8/6 85/5/6 13/87/6
f 87/13/5 84/12/5 11/81/5
f 88/10/4 83/9/4 9/85/4
f 81/5/3 82/8/3 7/89/3
f 80/6/2 81/5/2 5/87/2
f 89/3/1 80/2/1 3/84/1
f 93/83/13 99/83/13 100/3/13
f 96/19/7 102/19/7 101/17/7
f 90/17/11 95/17/11 91/82/11
f 79/19/7 89/3/7 94/3/7
f 1/86/10 92/86/10 93/90/10
f 79/19/7 96/19/7 95/17/7
f 102/19/14 100/3/14 99/83/14
f 101/17/15 102/19/15 98/85/15
f 92/86/10 91/22/10 97/22/10
f 96/19/7 94/3/7 100/3/7
f 91/82/16 95/17/16 101/17/16
f 92/86/10 98/86/10 99/90/10
