# Blender 5.1.2
# www.blender.org
mtllib rocket.mtl
o Cube
v -0.100000 -0.100000 0.100000
v -0.100000 0.100000 0.100000
v -0.100000 -0.100000 -0.100000
v -0.100000 0.100000 -0.100000
v 0.100000 -0.100000 0.100000
v 0.100000 0.100000 0.100000
v 0.100000 -0.100000 -0.100000
v 0.100000 0.100000 -0.100000
v -0.300000 -0.050000 -0.050000
v -0.300000 -0.050000 0.050000
v -0.300000 0.050000 0.050000
v -0.300000 0.050000 -0.050000
v -0.450000 -0.050000 -0.050000
v -0.450000 -0.050000 0.050000
v -0.450000 0.050000 0.050000
v -0.450000 0.050000 -0.050000
v -0.525000 -0.075000 -0.075000
v -0.525000 -0.075000 0.075000
v -0.525000 0.075000 0.075000
v -0.525000 0.075000 -0.075000
v -0.100000 -0.100000 -0.033333
v -0.100000 -0.100000 0.033333
v -0.100000 0.100000 0.033333
v -0.100000 0.100000 -0.033333
v 0.100000 -0.100000 0.033333
v 0.100000 -0.100000 -0.033333
v 0.100000 0.100000 -0.033333
v 0.100000 0.100000 0.033333
v -0.300000 -0.050000 -0.016667
v -0.300000 -0.050000 0.016667
v -0.300000 0.050000 0.016667
v -0.300000 0.050000 -0.016667
v -0.450000 -0.050000 -0.016667
v -0.450000 -0.050000 0.016667
v -0.450000 0.050000 0.016667
v -0.450000 0.050000 -0.016667
v -0.525000 -0.075000 -0.025000
v -0.525000 -0.075000 0.025000
v -0.525000 0.075000 0.025000
v -0.525000 0.075000 -0.025000
v -0.100000 -0.033333 0.100000
v -0.100000 0.033333 0.100000
v -0.100000 0.033333 -0.100000
v -0.100000 -0.033333 -0.100000
v 0.100000 0.033333 -0.100000
v 0.100000 -0.033333 -0.100000
v 0.100000 0.033333 0.100000
v 0.100000 -0.033333 0.100000
v -0.300000 -0.016667 0.050000
v -0.300000 0.016667 0.050000
v -0.300000 0.016667 -0.050000
v -0.300000 -0.016667 -0.050000
v -0.450000 -0.016667 0.050000
v -0.450000 0.016667 0.050000
v -0.450000 0.016667 -0.050000
v -0.450000 -0.016667 -0.050000
v -0.525000 -0.025000 0.075000
v -0.525000 0.025000 0.075000
v -0.525000 0.025000 -0.075000
v -0.525000 -0.025000 -0.075000
v -0.475000 0.025000 0.025000
v -0.475000 -0.025000 0.025000
v -0.475000 0.025000 -0.025000
v -0.475000 -0.025000 -0.025000
v 0.100000 0.033333 -0.033333
v 0.100000 -0.033333 -0.033333
v 0.100000 0.033333 0.033333
v 0.100000 -0.033333 0.033333
v -0.480236 0.109293 0.016667
v -0.480236 0.109293 -0.016667
v -0.505236 0.134293 0.025000
v -0.505236 0.134293 -0.025000
v -0.480236 -0.016667 0.109293
v -0.480236 0.016667 0.109293
v -0.505236 -0.025000 0.134293
v -0.505236 0.025000 0.134293
v -0.480236 -0.109293 -0.016667
v -0.480236 -0.109293 0.016667
v -0.505236 -0.134293 -0.025000
v -0.505236 -0.134293 0.025000
v -0.480236 0.016667 -0.109293
v -0.480236 -0.016667 -0.109293
v -0.505236 0.025000 -0.134293
v -0.505236 -0.025000 -0.134293
vn -0.2425 0.9701 -0.0000
vn -0.0000 -0.0000 -1.0000
vn 1.0000 -0.0000 -0.0000
vn -0.0000 -0.0000 1.0000
vn -0.0000 -1.0000 -0.0000
vn -0.0000 1.0000 -0.0000
vn -0.2425 -0.9701 -0.0000
vn -0.2425 -0.0000 -0.9701
vn -0.2425 -0.0000 0.9701
vn 0.3162 0.9487 -0.0000
vn -0.5774 -0.5774 0.5773
vn 0.3162 -0.9487 -0.0000
vn 0.3162 -0.0000 -0.9487
vn 0.3162 -0.0000 0.9487
vn 0.1324 -0.0675 0.9889
vn -0.5774 -0.5774 -0.5774
vn -0.7071 -0.7071 -0.0000
vn -0.9487 0.3162 -0.0000
vn -0.7071 0.7071 -0.0000
vn -1.0000 -0.0000 -0.0000
vn -0.7071 -0.0000 -0.7071
vn 0.2417 -0.9670 -0.0806
vn 0.2417 0.9670 0.0806
vn -0.7071 -0.0000 0.7071
vn 0.7071 0.7071 -0.0000
vn 0.2417 -0.0806 0.9670
vn 0.8909 0.4543 -0.0000
vn 0.1324 0.0675 -0.9889
vn 0.7071 -0.0000 0.7071
vn -0.9487 -0.0000 0.3162
vn 0.1324 0.9889 0.0675
vn 0.8909 -0.0000 0.4543
vn 0.7071 -0.7071 -0.0000
vn -0.9487 -0.3162 -0.0000
vn 0.8909 -0.4543 -0.0000
vn 0.2417 0.0806 -0.9670
vn 0.7071 -0.0000 -0.7071
vn -0.9487 -0.0000 -0.3162
vn 0.1324 -0.9889 -0.0675
vn 0.8909 -0.0000 -0.4543
vn 0.2417 0.0806 0.9670
vn -0.5774 0.5774 -0.5774
vn 0.1324 -0.9889 0.0675
vn 0.1324 0.9889 -0.0675
vn -0.5774 0.5774 0.5773
vn 0.1324 0.0675 0.9889
vn 0.2417 -0.0806 -0.9670
vn 0.2417 0.9670 -0.0806
vn 0.1324 -0.0675 -0.9889
vn 0.2417 -0.9670 0.0806
vt 1.407961 0.926667
vt -1.152039 1.140000
vt -1.152039 0.713333
vt 1.407961 1.780000
vt 3.967961 0.926667
vt 2.261294 1.780000
vt 2.261294 0.926667
vt 3.967961 1.780000
vt 3.967961 0.073333
vt 1.407961 -0.780000
vt 1.407961 0.073333
vt 3.967961 -0.780000
vt -1.152039 -0.140000
vt -3.072039 0.286667
vt -1.152039 0.286667
vt -3.072039 1.140000
vt -4.032039 0.820000
vt -3.072039 0.713333
vt 3.007961 1.460000
vt 3.647961 0.820000
vt 3.007961 0.820000
vt -3.072039 -0.140000
vt -4.032039 0.180000
vt -4.032039 1.460000
vt -4.032039 -0.460000
vt -3.459057 -0.898947
vt 1.727961 0.820000
vt 2.367961 1.460000
vt 2.367961 0.820000
vt 3.007961 2.218946
vt 3.114628 0.926667
vt 3.114628 1.780000
vt 3.114628 0.073333
vt 2.261294 -0.780000
vt 3.114628 -0.780000
vt 2.261294 0.073333
vt 2.367961 0.180000
vt 3.007961 -0.460000
vt 2.367961 -0.460000
vt 3.007961 0.180000
vt 1.727961 0.180000
vt 1.727961 -0.460000
vt -3.779057 -1.218947
vt -3.459057 1.898947
vt -3.779057 2.218946
vt 3.647961 0.180000
vt 3.647961 -0.460000
vt 2.901294 1.898947
vt 2.367961 2.218946
vt 2.474628 1.898947
vt 2.901294 1.140000
vt 2.474628 1.140000
vt 1.289015 0.713333
vt 0.969014 0.180000
vt 1.289015 0.286667
vt 0.969014 0.820000
vt 2.047961 0.713333
vt 2.047961 0.286667
vt 2.474628 -0.898947
vt 3.007961 -1.218947
vt 2.901294 -0.898947
vt 2.367961 -1.218947
vt 2.474628 -0.140000
vt 2.901294 -0.140000
vt 4.086908 0.286667
vt 4.406908 0.820000
vt 4.086908 0.713333
vt 4.406908 0.180000
vt 3.327961 0.286667
vt 3.327961 0.713333
vt 3.647961 1.460000
vt 1.727961 1.460000
s 0
f 24/1/1 12/2/1 32/3/1
f 4/4/2 45/5/2 43/1/2
f 28/6/3 47/1/3 67/7/3
f 6/8/4 42/1/4 47/5/4
f 25/9/5 1/10/5 22/11/5
f 23/11/6 6/12/6 28/9/6
f 9/13/2 56/14/2 52/15/2
f 22/11/7 10/13/7 30/15/7
f 44/11/8 9/13/8 52/15/8
f 42/1/9 11/2/9 50/3/9
f 16/16/10 40/17/10 36/18/10
f 11/2/4 54/18/4 50/3/4
f 12/2/6 36/18/6 32/3/6
f 10/13/5 34/14/5 30/15/5
f 40/19/11 59/20/11 63/21/11
f 14/22/12 38/23/12 34/14/12
f 13/22/13 60/23/13 56/14/13
f 15/16/14 58/17/14 54/18/14
f 13/16/12 37/17/12 17/24/12
f 38/25/15 78/26/15 34/22/15
f 58/27/16 39/28/16 61/29/16
f 39/28/17 63/21/17 61/29/17
f 29/3/5 13/16/5 9/2/5
f 30/15/5 33/18/5 29/3/5
f 31/15/6 15/22/6 11/13/6
f 32/3/6 35/14/6 31/15/6
f 15/22/10 39/23/10 19/25/10
f 39/28/18 72/30/18 40/19/18
f 21/1/7 9/2/7 3/4/7
f 22/11/7 29/3/7 21/1/7
f 4/4/6 27/5/6 8/8/6
f 24/1/6 28/9/6 27/5/6
f 7/8/5 21/1/5 3/4/5
f 26/5/5 22/11/5 21/1/5
f 8/8/3 65/31/3 45/5/3
f 27/32/3 67/7/3 65/31/3
f 23/11/1 11/13/1 2/10/1
f 24/1/1 31/15/1 23/11/1
f 66/33/3 25/34/3 26/35/3
f 65/31/3 68/36/3 66/33/3
f 46/9/3 26/35/3 7/12/3
f 45/5/3 66/33/3 46/9/3
f 62/37/19 37/38/19 38/39/19
f 61/29/20 64/40/20 62/37/20
f 57/41/20 38/39/20 18/42/20
f 58/27/21 62/37/21 57/41/21
f 14/22/14 57/23/14 18/25/14
f 57/25/22 73/26/22 75/43/22
f 16/16/13 59/17/13 20/24/13
f 59/24/23 81/44/23 83/45/23
f 37/38/20 60/46/20 17/47/20
f 63/21/24 60/46/24 64/40/24
f 49/15/4 14/22/4 10/13/4
f 50/3/4 53/14/4 49/15/4
f 41/11/9 10/13/9 1/10/9
f 42/1/9 49/15/9 41/11/9
f 43/1/8 12/2/8 4/4/8
f 44/11/8 51/3/8 43/1/8
f 51/3/2 16/16/2 12/2/2
f 52/15/2 55/18/2 51/3/2
f 48/9/4 1/10/4 5/12/4
f 47/5/4 41/11/4 48/9/4
f 68/36/3 5/10/3 25/34/3
f 67/7/3 48/11/3 68/36/3
f 44/11/2 7/12/2 3/10/2
f 43/1/2 46/9/2 44/11/2
f 70/48/25 71/49/25 69/50/25
f 39/24/26 69/44/26 71/45/26
f 36/51/27 69/50/27 35/52/27
f 40/24/28 70/44/28 36/16/28
f 74/53/29 75/54/29 73/55/29
f 57/41/30 76/56/30 58/27/30
f 58/25/31 74/26/31 54/22/31
f 54/57/32 73/55/32 53/58/32
f 78/59/33 79/60/33 77/61/33
f 37/38/34 80/62/34 38/39/34
f 34/63/35 77/61/35 33/64/35
f 37/25/36 77/26/36 79/43/36
f 82/65/37 83/66/37 81/67/37
f 59/20/38 84/68/38 60/46/38
f 60/24/39 82/44/39 56/16/39
f 56/69/40 81/67/40 55/70/40
f 24/1/1 4/4/1 12/2/1
f 4/4/2 8/8/2 45/5/2
f 28/6/3 6/4/3 47/1/3
f 6/8/4 2/4/4 42/1/4
f 25/9/5 5/12/5 1/10/5
f 23/11/6 2/10/6 6/12/6
f 9/13/2 13/22/2 56/14/2
f 22/11/7 1/10/7 10/13/7
f 44/11/8 3/10/8 9/13/8
f 42/1/9 2/4/9 11/2/9
f 16/16/10 20/24/10 40/17/10
f 11/2/4 15/16/4 54/18/4
f 12/2/6 16/16/6 36/18/6
f 10/13/5 14/22/5 34/14/5
f 40/19/20 20/71/20 59/20/20
f 14/22/12 18/25/12 38/23/12
f 13/22/13 17/25/13 60/23/13
f 15/16/14 19/24/14 58/17/14
f 13/16/12 33/18/12 37/17/12
f 38/25/41 80/43/41 78/26/41
f 58/27/20 19/72/20 39/28/20
f 39/28/17 40/19/17 63/21/17
f 29/3/5 33/18/5 13/16/5
f 30/15/5 34/14/5 33/18/5
f 31/15/6 35/14/6 15/22/6
f 32/3/6 36/18/6 35/14/6
f 15/22/10 35/14/10 39/23/10
f 39/28/18 71/49/18 72/30/18
f 21/1/7 29/3/7 9/2/7
f 22/11/7 30/15/7 29/3/7
f 4/4/6 24/1/6 27/5/6
f 24/1/6 23/11/6 28/9/6
f 7/8/5 26/5/5 21/1/5
f 26/5/5 25/9/5 22/11/5
f 8/8/3 27/32/3 65/31/3
f 27/32/3 28/6/3 67/7/3
f 23/11/1 31/15/1 11/13/1
f 24/1/1 32/3/1 31/15/1
f 66/33/3 68/36/3 25/34/3
f 65/31/3 67/7/3 68/36/3
f 46/9/3 66/33/3 26/35/3
f 45/5/3 65/31/3 66/33/3
f 62/37/19 64/40/19 37/38/19
f 61/29/20 63/21/20 64/40/20
f 57/41/42 62/37/42 38/39/42
f 58/27/21 61/29/21 62/37/21
f 14/22/14 53/14/14 57/23/14
f 57/25/43 53/22/43 73/26/43
f 16/16/13 55/18/13 59/17/13
f 59/24/44 55/16/44 81/44/44
f 37/38/45 64/40/45 60/46/45
f 63/21/24 59/20/24 60/46/24
f 49/15/4 53/14/4 14/22/4
f 50/3/4 54/18/4 53/14/4
f 41/11/9 49/15/9 10/13/9
f 42/1/9 50/3/9 49/15/9
f 43/1/8 51/3/8 12/2/8
f 44/11/8 52/15/8 51/3/8
f 51/3/2 55/18/2 16/16/2
f 52/15/2 56/14/2 55/18/2
f 48/9/4 41/11/4 1/10/4
f 47/5/4 42/1/4 41/11/4
f 68/36/3 48/11/3 5/10/3
f 67/7/3 47/1/3 48/11/3
f 44/11/2 46/9/2 7/12/2
f 43/1/2 45/5/2 46/9/2
f 70/48/25 72/30/25 71/49/25
f 39/24/46 35/16/46 69/44/46
f 36/51/27 70/48/27 69/50/27
f 40/24/47 72/45/47 70/44/47
f 74/53/29 76/56/29 75/54/29
f 57/41/30 75/54/30 76/56/30
f 58/25/48 76/43/48 74/26/48
f 54/57/32 74/53/32 73/55/32
f 78/59/33 80/62/33 79/60/33
f 37/38/34 79/60/34 80/62/34
f 34/63/35 78/59/35 77/61/35
f 37/25/49 33/22/49 77/26/49
f 82/65/37 84/68/37 83/66/37
f 59/20/38 83/66/38 84/68/38
f 60/24/50 84/45/50 82/44/50
f 56/69/40 82/65/40 81/67/40
