# Blender 5.1.2
# www.blender.org
mtllib shooter.mtl
o Cube
v -0.017745 -0.294625 0.021125
v -0.027463 -0.125625 0.042250
v -0.017745 -0.294625 -0.063375
v -0.027463 -0.125625 -0.042250
v 0.017745 -0.294625 0.021125
v 0.027463 -0.125625 0.042250
v 0.017745 -0.294625 -0.063375
v 0.027463 -0.125625 -0.042250
v -0.016478 -0.020000 0.042250
v -0.016478 -0.020000 -0.042250
v 0.016478 -0.020000 -0.042250
v 0.016478 -0.020000 0.042250
v 0.027463 -0.105625 0.359125
v -0.027463 -0.105625 0.359125
v 0.016478 -0.020000 0.359125
v -0.016478 -0.020000 0.359125
v -0.027463 -0.072812 -0.042250
v 0.027463 -0.072812 -0.042250
v 0.027463 -0.072812 0.042250
v -0.027463 -0.072812 0.042250
v 0.027463 -0.072812 0.359125
v -0.027463 -0.072812 0.359125
v 0.005915 -0.294625 -0.063375
v -0.005915 -0.294625 -0.063375
v -0.014083 -0.125625 -0.042250
v 0.014083 -0.125625 -0.042250
v -0.005915 -0.294625 0.021125
v 0.005915 -0.294625 0.021125
v 0.014083 -0.125625 0.042250
v -0.014083 -0.125625 0.042250
v -0.009154 -0.020000 -0.042250
v 0.009154 -0.020000 -0.042250
v 0.009154 -0.020000 0.042250
v -0.009154 -0.020000 0.042250
v 0.009154 -0.105625 0.359125
v -0.009154 -0.105625 0.359125
v 0.009154 -0.020000 0.359125
v -0.009154 -0.020000 0.359125
v 0.009154 -0.072812 0.359125
v -0.009154 -0.072812 0.359125
v 0.009154 -0.125625 -0.202375
v 0.027463 -0.125625 -0.202375
v 0.009154 -0.020000 -0.126750
v 0.016478 -0.020000 -0.126750
v -0.027463 -0.072812 -0.202375
v -0.016478 -0.020000 -0.126750
v 0.027463 -0.072812 -0.202375
v -0.027463 -0.125625 -0.202375
v 0.009154 -0.072812 -0.202375
v -0.009154 -0.125625 -0.202375
v -0.009154 -0.020000 -0.126750
v -0.009154 -0.072812 -0.202375
v 0.027463 -0.099219 -0.042250
v 0.027463 -0.099219 0.042250
v 0.027463 -0.099219 0.359125
v -0.027463 -0.099219 -0.042250
v -0.027463 -0.099219 0.042250
v -0.027463 -0.099219 0.359125
v -0.009154 -0.099219 0.359125
v 0.009154 -0.099219 0.359125
v 0.027463 -0.099219 -0.202375
v -0.027463 -0.099219 -0.202375
v 0.009154 -0.099219 -0.202375
v -0.009154 -0.099219 -0.202375
v 0.014083 -0.072812 0.485875
v -0.014083 -0.072812 0.485875
v -0.014083 -0.099219 0.485875
v 0.014083 -0.099219 0.485875
v -0.017745 -0.146750 0.039609
v -0.017745 -0.146750 -0.044891
v 0.017745 -0.146750 -0.044891
v 0.017745 -0.146750 0.039609
v 0.005915 -0.146750 0.039609
v -0.005915 -0.146750 0.039609
v -0.005915 -0.146750 -0.044891
v 0.005915 -0.146750 -0.044891
v 0.014083 -0.115625 0.279906
v 0.014083 -0.125625 0.200687
v 0.014083 -0.125625 0.121469
v -0.014083 -0.115625 0.279906
v -0.014083 -0.125625 0.200687
v -0.014083 -0.125625 0.121469
v 0.027463 -0.072812 0.279906
v 0.027463 -0.072812 0.200687
v 0.027463 -0.072812 0.121469
v -0.027463 -0.072812 0.279906
v -0.027463 -0.072812 0.200687
v -0.027463 -0.072812 0.121469
v -0.016478 -0.020000 0.121469
v -0.016478 -0.020000 0.200687
v -0.016478 -0.020000 0.279906
v -0.027463 -0.115625 0.279906
v -0.027463 -0.125625 0.200687
v -0.027463 -0.125625 0.121469
v 0.027463 -0.125625 0.121469
v 0.027463 -0.125625 0.200687
v 0.027463 -0.115625 0.279906
v 0.016478 -0.020000 0.279906
v 0.016478 -0.020000 0.200687
v 0.016478 -0.020000 0.121469
v 0.009154 -0.020000 0.121469
v 0.009154 -0.020000 0.200687
v 0.009154 -0.020000 0.279906
v -0.009154 -0.020000 0.121469
v -0.009154 -0.020000 0.200687
v -0.009154 -0.020000 0.279906
v 0.027463 -0.099219 0.121469
v 0.027463 -0.099219 0.200687
v 0.027463 -0.099219 0.279906
v -0.027463 -0.099219 0.121469
v -0.027463 -0.099219 0.200687
v -0.027463 -0.099219 0.279906
v 0.014083 -0.375625 0.121469
v 0.014083 -0.375625 0.200687
v -0.014083 -0.375625 0.121469
v -0.014083 -0.375625 0.200687
v -0.025485 -0.046406 -0.042250
v -0.025485 -0.046406 0.042250
v -0.025485 -0.046406 0.359125
v 0.025485 -0.046406 -0.042250
v 0.025485 -0.046406 0.042250
v 0.025485 -0.046406 0.359125
v -0.009154 -0.046406 0.359125
v 0.009154 -0.046406 0.359125
v -0.025485 -0.046406 -0.179562
v 0.025485 -0.046406 -0.179562
v 0.009154 -0.046406 -0.179562
v -0.009154 -0.046406 -0.179562
v 0.025485 -0.046406 0.279906
v 0.025485 -0.046406 0.200687
v 0.025485 -0.046406 0.121469
v -0.025485 -0.046406 0.121469
v -0.025485 -0.046406 0.200687
v -0.025485 -0.046406 0.279906
v -0.009154 -0.125625 -0.222375
v 0.009154 -0.125625 -0.222375
v -0.009154 -0.072812 -0.222375
v 0.009154 -0.072812 -0.222375
v 0.009154 -0.099219 -0.222375
v -0.009154 -0.099219 -0.222375
v -0.009154 -0.165625 -0.372375
v 0.009154 -0.165625 -0.372375
v -0.009154 -0.072812 -0.372375
v 0.009154 -0.072812 -0.372375
v 0.009154 -0.099219 -0.372375
v -0.009154 -0.099219 -0.372375
v 0.019154 -0.099219 -0.222375
v 0.019154 -0.072812 -0.222375
v 0.019154 -0.125625 -0.222375
v 0.019154 -0.165625 -0.372375
v 0.019154 -0.099219 -0.372375
v 0.019154 -0.072812 -0.372375
v -0.019154 -0.099219 -0.222375
v -0.019154 -0.072812 -0.222375
v -0.019154 -0.125625 -0.222375
v -0.019154 -0.099219 -0.372375
v -0.019154 -0.072812 -0.372375
v -0.019154 -0.165625 -0.372375
v -0.014083 -0.125625 0.081859
v -0.027463 -0.072812 0.081859
v -0.027463 -0.125625 0.081859
v 0.016478 -0.020000 0.081859
v 0.014083 -0.125625 0.081859
v 0.027463 -0.125625 0.081859
v -0.016478 -0.020000 0.081859
v 0.027463 -0.072812 0.081859
v -0.027463 -0.099219 0.081859
v 0.027463 -0.099219 0.081859
v -0.009154 -0.020000 0.081859
v 0.009154 -0.020000 0.081859
v -0.025485 -0.046406 0.081859
v 0.025485 -0.046406 0.081859
v 0.027463 -0.125625 0.053143
v -0.016478 -0.020000 0.053143
v -0.025485 -0.046406 0.053143
v 0.025485 -0.046406 0.053143
v -0.014083 -0.125625 0.053143
v -0.027463 -0.072812 0.053143
v -0.027463 -0.125625 0.053143
v 0.016478 -0.020000 0.053143
v 0.014083 -0.125625 0.053143
v 0.027463 -0.072812 0.053143
v -0.027463 -0.099219 0.053143
v 0.027463 -0.099219 0.053143
v -0.009154 -0.020000 0.053143
v 0.009154 -0.020000 0.053143
v -0.014083 -0.145625 0.053143
v -0.014083 -0.145625 0.071859
v 0.014083 -0.145625 0.053143
v 0.014083 -0.145625 0.071859
v -0.014083 -0.165625 0.053143
v -0.014083 -0.165625 0.071859
v 0.014083 -0.165625 0.053143
v 0.014083 -0.165625 0.071859
v -0.014083 -0.175625 0.056143
v -0.014083 -0.175625 0.084859
v 0.014083 -0.175625 0.056143
v 0.014083 -0.175625 0.084859
v 0.027463 -0.125625 -0.122312
v 0.011619 -0.125625 -0.122312
v -0.009154 -0.020000 -0.084500
v 0.009154 -0.020000 -0.084500
v -0.011619 -0.125625 -0.122312
v -0.027463 -0.125625 -0.122312
v -0.027463 -0.072812 -0.122312
v 0.027463 -0.072812 -0.122312
v 0.016478 -0.020000 -0.084500
v -0.016478 -0.020000 -0.084500
v 0.027463 -0.099219 -0.122312
v -0.027463 -0.099219 -0.122312
v -0.025485 -0.046406 -0.110906
v 0.025485 -0.046406 -0.110906
v 0.009154 -0.010000 -0.084500
v 0.009154 -0.010000 -0.126750
v 0.016478 -0.010000 -0.126750
v -0.016478 -0.010000 -0.126750
v -0.009154 -0.010000 -0.126750
v -0.016478 -0.010000 -0.084500
v -0.009154 -0.010000 -0.084500
v 0.016478 -0.010000 -0.084500
v 0.010879 -0.125625 -0.146331
v -0.027463 -0.072812 -0.146331
v 0.027463 -0.072812 -0.146331
v -0.016478 -0.020000 -0.097175
v 0.027463 -0.099219 -0.146331
v -0.027463 -0.099219 -0.146331
v -0.025485 -0.046406 -0.131503
v 0.025485 -0.046406 -0.131503
v 0.027463 -0.125625 -0.146331
v -0.010879 -0.125625 -0.146331
v -0.027463 -0.125625 -0.146331
v 0.016478 -0.020000 -0.097175
v 0.009154 -0.010000 -0.097175
v -0.016478 -0.010000 -0.097175
v -0.009154 -0.010000 -0.097175
v 0.016478 -0.010000 -0.097175
v 0.009154 -0.005000 -0.097175
v 0.009154 0.000000 -0.126750
v 0.016478 0.000000 -0.126750
v -0.016478 0.000000 -0.126750
v -0.009154 0.000000 -0.126750
v -0.016478 0.000000 -0.097175
v -0.009154 -0.005000 -0.097175
v -0.009154 -0.005000 -0.084500
v 0.016478 0.000000 -0.097175
v 0.016478 0.000000 -0.084500
v -0.016478 0.000000 -0.084500
v 0.009154 -0.005000 -0.084500
v 0.016478 -0.020000 0.319516
v -0.027463 -0.110625 0.319516
v -0.027463 -0.072812 0.319516
v 0.027463 -0.072812 0.319516
v -0.011619 -0.110625 0.319516
v -0.016478 -0.020000 0.319516
v 0.011619 -0.110625 0.319516
v 0.009154 -0.020000 0.319516
v -0.009154 -0.020000 0.319516
v 0.027463 -0.110625 0.319516
v 0.027463 -0.099219 0.319516
v -0.027463 -0.099219 0.319516
v 0.025485 -0.046406 0.319516
v -0.025485 -0.046406 0.319516
v 0.009154 -0.010000 0.359125
v -0.009154 -0.010000 0.359125
v 0.009154 -0.010000 0.319516
v -0.009154 -0.010000 0.319516
v 0.001831 -0.010000 0.343281
v -0.001831 -0.010000 0.343281
v 0.001831 -0.010000 0.335359
v -0.001831 -0.010000 0.335359
v 0.001831 0.000000 0.343281
v -0.001831 0.000000 0.343281
v 0.001831 0.000000 0.335359
v -0.001831 0.000000 0.335359
v -0.023079 -0.033203 -0.042250
v -0.023079 -0.033203 0.042250
v -0.023079 -0.033203 0.359125
v -0.010070 -0.033203 0.359125
v 0.010070 -0.033203 0.359125
v -0.023079 -0.033203 -0.163156
v 0.010070 -0.033203 -0.163156
v -0.010070 -0.033203 -0.163156
v -0.023079 -0.033203 0.121469
v -0.023079 -0.033203 0.200687
v -0.023079 -0.033203 0.279906
v 0.023079 -0.033203 -0.042250
v 0.023079 -0.033203 0.042250
v 0.023079 -0.033203 0.359125
v 0.023079 -0.033203 -0.163156
v 0.023079 -0.033203 0.279906
v 0.023079 -0.033203 0.200687
v 0.023079 -0.033203 0.121469
v 0.023079 -0.033203 0.081859
v -0.023079 -0.033203 0.081859
v -0.023079 -0.033203 0.053143
v 0.023079 -0.033203 0.053143
v 0.023079 -0.033203 -0.097703
v -0.023079 -0.033203 -0.097703
v 0.023079 -0.033203 -0.114339
v -0.023079 -0.033203 -0.114339
v 0.023079 -0.033203 0.319516
v -0.023079 -0.033203 0.319516
vn -0.9085 -0.4179 -0.0000
vn -0.0000 0.1240 -0.9923
vn 0.9085 -0.4179 -0.0000
vn -0.0000 -0.1240 0.9923
vn -0.0000 -1.0000 -0.0000
vn -0.0000 1.0000 -0.0000
vn 0.8944 0.4472 -0.0000
vn -0.8944 0.4472 -0.0000
vn 0.9972 0.0747 -0.0000
vn -0.0000 -0.0000 1.0000
vn -1.0000 -0.0000 -0.0000
vn 1.0000 -0.0000 -0.0000
vn -0.0000 -0.0000 -1.0000
vn -0.9992 -0.0000 -0.0389
vn -0.0000 -0.9921 0.1252
vn -0.0000 0.9401 -0.3409
vn 0.9992 -0.0000 -0.0389
vn 0.9838 0.1793 -0.0000
vn -0.9972 0.0747 -0.0000
vn -0.0000 0.6537 -0.7567
vn -0.0000 -0.9662 0.2577
vn -0.0000 -0.4472 0.8944
vn -0.0000 0.7926 0.6097
vn -0.0000 -0.2873 -0.9578
vn -0.5584 0.8179 0.1383
vn 0.5639 0.8259 -0.0000
vn -0.5639 0.8259 -0.0000
vn -0.9838 0.1793 -0.0000
vn -0.0000 0.7791 -0.6270
vn 0.5584 0.8179 0.1383
vt 0.652457 -0.092113
vt 1.415493 0.104799
vt 1.440107 -0.092113
vt 0.682482 0.104799
vt 0.716614 -0.092113
vt 0.606343 -0.092113
vt 0.419933 0.104799
vt 0.385801 -0.092113
vt 0.496072 -0.092113
vt 0.716614 1.612405
vt 0.606343 0.824756
vt 0.606343 1.612405
vt 0.449798 2.385664
vt 0.636536 2.908064
vt 0.652618 2.385664
vt 0.397616 1.415493
vt 0.465879 0.627843
vt 0.465879 1.415493
vt 1.415493 0.966290
vt 0.627843 1.089360
vt 0.627843 0.966290
vt 1.415493 1.089360
vt -0.110578 0.843220
vt 0.258633 0.597080
vt 0.258633 0.843220
vt 0.645069 0.966290
vt 0.704799 1.089360
vt 0.636536 1.089360
vt -0.848999 0.843220
vt -0.110578 0.597080
vt -0.110578 0.104799
vt 0.258633 0.350940
vt 0.258633 0.104799
vt -1.587420 0.198012
vt -0.848999 0.350940
vt -0.848999 0.104799
vt 0.397616 -0.848999
vt 0.465879 -0.110578
vt 0.397616 -0.110578
vt 0.807194 0.350940
vt 0.636536 0.597080
vt 0.636536 0.350940
vt 0.807194 -0.110578
vt 0.682482 0.258633
vt 0.807194 0.258633
vt 0.627843 0.350940
vt 1.415493 0.597080
vt 1.415493 0.350940
vt 0.627843 0.597080
vt 2.385664 0.597080
vt 2.695422 0.843220
vt 2.247447 0.843220
vt 0.807194 2.908064
vt 0.807194 2.385664
vt 0.465879 1.089360
vt 0.636536 1.182574
vt 0.465879 0.350940
vt 0.295222 0.597080
vt 0.295222 0.350940
vt -2.325841 0.350940
vt -3.507315 0.597080
vt -2.325841 0.597080
vt 0.807194 -1.587420
vt 0.682482 -0.848999
vt 0.807194 -0.848999
vt -0.848999 0.966290
vt -0.110578 1.089360
vt -0.110578 0.966290
vt -1.587420 0.597080
vt -0.848999 0.597080
vt 0.457346 0.966290
vt 0.397616 1.089360
vt 0.336077 0.966290
vt 0.636536 1.415493
vt 0.704799 0.627843
vt 0.704799 1.415493
vt 0.636536 0.627843
vt 0.295222 2.908064
vt 0.465879 2.908064
vt 2.908064 0.350940
vt 2.385664 0.350940
vt 0.496072 1.612405
vt 0.385801 0.824756
vt 0.385801 1.612405
vt 0.496072 0.824756
vt 0.457346 2.542495
vt 0.397616 2.203142
vt 0.465879 2.203142
vt 0.465879 0.597080
vt 0.807194 0.597080
vt 2.908064 0.104799
vt 3.094490 0.350940
vt 0.645069 2.542495
vt 0.704799 2.203142
vt 0.766339 2.542495
vt 0.636536 2.203142
vt 2.087456 0.966290
vt 2.203142 1.089360
vt 2.542495 0.966290
vt 0.704799 1.182574
vt 2.385664 0.104799
vt 1.927465 1.182574
vt 1.927465 1.089360
vt 2.908064 0.597080
vt 0.465879 3.094490
vt 0.636536 0.104799
vt 0.807194 0.104799
vt 0.295222 0.104799
vt 0.465879 0.104799
vt 0.636536 0.291225
vt 0.465879 0.291225
vt 0.295222 0.291225
vt 0.627843 0.104799
vt 0.419933 -0.848999
vt 0.295222 -0.110578
vt 0.419933 -0.110578
vt 0.807194 0.291225
vt 0.682482 -0.110578
vt 0.419933 0.258633
vt 0.682482 0.350940
vt 0.419933 0.597080
vt 0.419933 0.350940
vt 0.636536 -2.325841
vt 0.419933 -3.507315
vt 0.465879 -2.325841
vt -3.507315 0.350940
vt 0.682482 -3.507315
vt 0.606343 -1.470500
vt 0.496072 -1.470500
vt 0.385801 -1.470500
vt 0.716614 -1.470500
vt 0.824756 -1.470500
vt 1.612405 -1.470500
vt -1.956631 0.597080
vt -1.956631 0.350940
vt 0.636536 -0.110578
vt 0.704799 0.258633
vt 0.636536 0.258633
vt -2.325841 0.291225
vt -1.956631 0.244618
vt 0.682482 -2.225524
vt -2.325841 1.089360
vt -1.956631 1.182574
vt -1.956631 1.089360
vt 0.419933 -1.587420
vt 0.295222 -0.848999
vt 0.704799 -1.956631
vt 0.636536 -1.956631
vt 0.295222 0.258633
vt 0.442906 -1.956631
vt 0.659509 -1.956631
vt -0.110578 0.350940
vt 0.295222 -2.325841
vt 0.295222 -1.956631
vt -1.587420 0.966290
vt -0.848999 1.089360
vt 0.258633 1.089360
vt 0.258633 0.966290
vt -2.325841 0.966290
vt -1.956631 0.966290
vt 0.807194 -2.325841
vt 0.807194 -1.956631
vt 0.397616 -1.587420
vt 0.465879 -0.848999
vt 0.397616 -2.325841
vt 0.465879 -1.956631
vt 0.397616 -1.956631
vt 0.465879 0.258633
vt 0.397616 0.258633
vt -2.325841 0.843220
vt -1.956631 0.843220
vt -1.587420 0.843220
vt 0.682482 -1.587420
vt 0.636536 -0.848999
vt 0.704799 -0.110578
vt 0.636536 -1.587420
vt 0.704799 -0.848999
vt 0.465879 -1.587420
vt -1.587420 0.350940
vt -0.110578 -2.225524
vt -0.848999 -2.225524
vt 0.419933 -2.225524
vt -1.956631 0.843220
vt 0.258633 0.843220
vt -0.848999 0.843220
vt 2.695422 0.843220
vt 0.636536 0.843220
vt 0.788763 0.843220
vt 0.313653 0.843220
vt 0.465879 0.843220
vt -0.110578 0.843220
vt 1.415493 0.843220
vt 0.627843 0.843220
vt 0.729749 0.350940
vt 0.636536 4.492684
vt 0.729749 3.094490
vt 0.636536 3.094490
vt 3.094490 0.597080
vt 3.094490 0.104799
vt 0.465879 -0.268053
vt 0.636536 -0.268053
vt 0.372666 0.350940
vt 0.372666 4.492684
vt 0.465879 4.492684
vt 4.492684 0.597080
vt 4.492684 0.350940
vt 0.729749 0.597080
vt 0.729749 4.492684
vt 0.729749 -0.268053
vt 4.492684 -0.268053
vt 0.372666 0.597080
vt 0.372666 0.104799
vt 0.372666 3.094490
vt 0.526310 0.843220
vt 0.526310 0.966290
vt 0.526310 0.843220
vt 0.526310 0.597080
vt 0.526310 0.350940
vt 0.526310 0.104799
vt 0.636536 0.526310
vt 0.465879 0.526310
vt 0.397616 0.526310
vt 0.526310 1.089360
vt 0.295222 0.526310
vt 0.419933 0.526310
vt 0.704799 0.526310
vt 0.419933 -0.081627
vt 0.682482 0.526310
vt 0.807194 0.526310
vt 0.682482 0.627843
vt 0.807194 0.627843
vt 0.419933 0.627843
vt 0.295222 0.627843
vt 0.397616 0.627843
vt 0.627843 0.843220
vt 0.351846 -0.081627
vt 0.526310 -0.268053
vt 0.526310 -0.081627
vt 0.682482 -0.081627
vt 0.419933 0.351846
vt 0.682482 0.230669
vt 0.682482 0.351846
vt 0.682482 -0.268053
vt 0.351846 -0.268053
vt 0.419933 -0.268053
vt 0.419933 0.498347
vt 0.682482 0.498347
vt 0.498347 -0.361265
vt 0.230669 -0.361265
vt 0.419933 -0.361265
vt 1.415493 0.843220
vt 1.932388 0.966290
vt 2.055458 0.843220
vt 2.161779 0.597080
vt 2.161779 0.104799
vt 0.397616 1.809317
vt 2.161779 0.350940
vt 0.636536 1.809317
vt 1.809317 1.089360
vt 0.419933 1.415493
vt 0.295222 2.161779
vt 0.442906 2.161779
vt 0.465879 1.809317
vt 0.682482 1.415493
vt 0.807194 2.161779
vt 0.807194 1.415493
vt 2.055458 0.843220
vt 0.659509 2.161779
vt 0.636536 1.927465
vt 0.465879 1.927465
vt 0.397616 1.182574
vt 0.465879 1.275787
vt 0.465879 1.182574
vt 1.809317 1.182574
vt 1.927465 1.275787
vt 2.203142 1.182574
vt 0.636536 1.229180
vt 0.704799 1.275787
vt 2.247447 0.843220
vt 0.295222 2.385664
vt 0.704799 1.927465
vt 0.397616 1.927465
vt 0.704799 1.809317
vt 0.465879 1.229180
vt 1.809317 1.275787
vt 1.927465 1.229180
vt 2.203142 1.275787
vt 0.397616 1.275787
vt -1.587420 0.843220
vt -1.587420 1.089360
vt 0.295222 -1.587420
vt 0.704799 -1.587420
vt 0.568273 -2.104315
vt -2.325841 1.182574
vt -2.178157 1.182574
vt -2.104315 1.275787
vt -2.104315 1.182574
vt 0.568273 -2.178157
vt 0.534142 -2.104315
vt 0.534142 -2.178157
vt 0.568273 1.182574
vt 0.534142 1.275787
vt 0.534142 1.182574
vt 0.568273 1.275787
vt -2.178157 1.275787
vt -2.325841 0.843220
vt 0.465879 2.695422
vt 0.636536 2.695422
vt 0.788763 2.695422
vt 0.336077 2.542495
vt 0.766339 0.966290
vt 0.716614 0.824756
vt 0.682482 0.597080
vt 0.704799 -2.325841
vt 0.729749 0.104799
vt 0.372666 -0.268053
vt 0.419933 0.230669
vt 0.682482 -0.361265
vt 0.295222 1.415493
vt 0.636536 1.275787
vt 0.313653 2.695422
s 0
f 69/1/1 4/2/1 70/3/1
f 26/4/2 71/5/2 76/6/2
f 8/2/3 72/1/3 71/3/3
f 30/7/4 69/8/4 74/9/4
f 7/10/5 28/11/5 23/12/5
f 230/13/5 41/14/5 221/15/5
f 10/16/6 34/17/6 31/18/6
f 286/19/7 12/20/7 287/21/7
f 276/21/8 10/22/8 275/19/8
f 131/23/9 166/24/9 172/25/9
f 279/26/10 15/27/10 37/28/10
f 130/29/9 85/30/9 131/23/9
f 94/31/11 167/32/11 161/33/11
f 92/34/11 111/35/11 93/36/11
f 90/37/6 104/38/6 89/39/6
f 55/40/10 39/41/10 60/42/10
f 95/43/5 163/44/5 164/45/5
f 57/46/11 17/47/11 56/48/11
f 53/48/12 19/49/12 54/46/12
f 223/50/9 126/51/9 228/52/9
f 221/15/5 42/53/5 229/54/5
f 51/55/13 214/56/13 43/28/13
f 59/57/10 22/58/10 58/59/10
f 59/60/14 66/61/14 40/62/14
f 97/63/15 78/64/15 96/65/15
f 284/66/8 89/67/8 283/68/8
f 85/30/12 168/32/12 166/24/12
f 83/69/12 108/35/12 84/70/12
f 278/71/10 16/72/10 277/73/10
f 279/26/10 38/55/10 278/71/10
f 32/74/6 12/75/6 11/76/6
f 31/18/6 33/77/6 32/74/6
f 230/13/5 48/78/5 50/79/5
f 222/50/11 62/80/11 226/81/11
f 24/82/5 1/83/5 3/84/5
f 23/12/5 27/85/5 24/82/5
f 72/5/4 29/4/4 73/6/4
f 29/4/4 74/9/4 73/6/4
f 70/8/2 25/7/2 75/9/2
f 25/7/2 76/6/2 75/9/2
f 282/86/16 46/87/16 51/88/16
f 62/59/13 52/89/13 64/57/13
f 63/42/13 47/90/13 61/40/13
f 41/91/12 139/92/12 63/80/12
f 281/93/16 44/94/16 289/95/16
f 282/86/16 43/96/16 281/93/16
f 300/97/8 46/98/8 280/99/8
f 43/28/13 215/100/13 44/27/13
f 229/101/12 61/80/12 225/81/12
f 44/98/12 236/102/12 232/103/12
f 225/81/12 47/104/12 223/50/12
f 49/14/6 137/105/6 52/79/6
f 41/106/13 61/40/13 42/107/13
f 48/108/13 64/57/13 50/109/13
f 226/81/11 48/91/11 231/101/11
f 35/110/10 59/57/10 36/111/10
f 36/111/10 58/59/10 14/112/10
f 8/2/12 54/46/12 6/113/12
f 2/113/11 56/48/11 4/2/11
f 81/114/5 94/115/5 82/116/5
f 13/117/10 60/42/10 35/110/10
f 79/118/5 159/119/5 163/44/5
f 68/120/10 66/121/10 67/122/10
f 60/123/5 67/124/5 59/125/5
f 39/62/17 68/126/17 60/60/17
f 40/125/6 65/127/6 39/123/6
f 75/9/2 23/128/2 24/129/2
f 70/8/2 24/129/2 3/130/2
f 73/6/4 27/129/4 28/128/4
f 72/5/4 28/128/4 5/131/4
f 74/9/4 1/130/4 27/129/4
f 71/3/12 5/132/12 7/133/12
f 76/6/2 7/131/2 23/128/2
f 1/132/11 70/3/11 3/133/11
f 58/60/11 251/134/11 260/135/11
f 101/136/6 162/137/6 170/138/6
f 259/135/12 13/139/12 258/140/12
f 81/7/10 114/141/10 78/4/10
f 38/142/11 266/143/11 257/144/11
f 80/145/15 93/146/15 81/114/15
f 37/123/6 249/147/6 256/148/6
f 82/116/5 161/149/5 159/119/5
f 35/123/15 253/150/15 255/151/15
f 84/70/12 107/152/12 85/30/12
f 253/150/15 14/153/15 250/154/15
f 285/155/8 90/156/8 284/66/8
f 21/62/12 259/135/12 252/134/12
f 283/68/8 165/157/8 294/158/8
f 277/159/8 254/144/8 302/160/8
f 96/65/5 79/118/5 95/43/5
f 13/161/15 255/151/15 258/162/15
f 91/163/6 105/164/6 90/37/6
f 16/165/6 257/166/6 254/167/6
f 89/39/6 169/168/6 165/169/6
f 14/139/11 260/135/11 250/140/11
f 93/36/11 110/152/11 94/31/11
f 122/170/9 252/134/9 261/171/9
f 129/172/9 84/70/9 130/29/9
f 77/173/15 81/114/15 78/64/15
f 102/174/6 100/175/6 101/136/6
f 103/176/6 99/177/6 102/174/6
f 104/38/6 170/138/6 169/168/6
f 105/164/6 101/136/6 104/38/6
f 106/178/6 102/174/6 105/164/6
f 107/152/12 164/33/12 168/32/12
f 108/35/12 95/31/12 107/152/12
f 108/35/12 97/34/12 96/36/12
f 110/152/11 160/24/11 167/32/11
f 111/35/11 88/30/11 110/152/11
f 112/179/11 87/70/11 111/35/11
f 114/64/5 115/116/5 113/118/5
f 78/36/12 113/180/12 79/31/12
f 82/31/11 116/181/11 81/36/11
f 79/4/13 115/182/13 82/7/13
f 290/155/18 130/29/18 291/66/18
f 288/159/18 261/171/18 301/160/18
f 22/62/19 262/183/19 251/134/19
f 88/30/19 171/184/19 160/24/19
f 86/69/19 133/185/19 87/70/19
f 222/50/19 125/186/19 45/104/19
f 52/89/20 127/187/20 49/41/20
f 49/41/20 126/188/20 47/90/20
f 52/89/20 125/189/20 128/190/20
f 39/41/10 123/190/10 40/89/10
f 40/89/10 119/189/10 22/58/10
f 87/70/19 132/191/19 88/30/19
f 228/52/18 289/99/18 299/97/18
f 291/66/18 131/23/18 292/68/18
f 39/41/10 122/188/10 124/187/10
f 292/68/18 172/25/18 293/158/18
f 20/49/19 117/192/19 17/47/19
f 18/47/9 121/193/9 19/49/9
f 136/106/10 147/194/10 139/42/10
f 142/195/21 149/196/21 136/197/21
f 50/79/5 136/197/5 41/14/5
f 63/80/12 138/198/12 49/104/12
f 64/80/11 135/199/11 50/91/11
f 52/104/11 140/92/11 64/80/11
f 146/57/13 144/41/13 145/42/13
f 141/200/13 145/42/13 142/201/13
f 135/105/21 142/195/21 136/197/21
f 141/200/13 156/202/13 146/57/13
f 135/105/21 158/203/21 141/204/21
f 138/197/6 143/204/6 137/105/6
f 147/92/12 152/205/12 148/198/12
f 149/199/12 151/206/12 147/92/12
f 139/42/10 148/207/10 138/41/10
f 138/197/6 152/208/6 144/195/6
f 145/42/13 150/209/13 142/201/13
f 144/41/13 151/194/13 145/42/13
f 155/199/11 156/206/11 158/210/11
f 154/198/11 156/206/11 153/92/11
f 146/57/13 157/211/13 143/89/13
f 140/57/10 155/212/10 135/109/10
f 137/89/10 153/202/10 140/57/10
f 143/204/6 154/213/6 137/105/6
f 293/158/18 176/214/18 296/215/18
f 160/24/19 175/216/19 178/217/19
f 167/32/11 178/217/11 183/218/11
f 168/32/12 173/219/12 184/218/12
f 169/168/6 186/220/6 185/221/6
f 165/169/6 185/221/6 174/222/6
f 294/158/8 174/223/8 295/215/8
f 159/119/5 179/224/5 177/225/5
f 170/138/6 180/226/6 186/220/6
f 181/4/13 187/227/13 177/7/13
f 166/24/12 184/218/12 182/217/12
f 164/45/5 181/228/5 173/229/5
f 161/33/11 183/218/11 179/219/11
f 172/25/9 182/217/9 176/214/9
f 176/214/9 19/49/9 121/193/9
f 179/219/11 57/46/11 2/113/11
f 173/229/5 29/230/5 6/231/5
f 182/217/12 54/46/12 19/49/12
f 181/228/5 30/232/5 29/230/5
f 186/220/6 12/75/6 33/77/6
f 177/225/5 2/233/5 30/232/5
f 295/215/8 9/20/8 276/21/8
f 174/222/6 34/17/6 9/234/6
f 185/221/6 33/77/6 34/17/6
f 184/218/12 6/113/12 54/46/12
f 183/218/11 20/49/11 57/46/11
f 178/217/19 118/235/19 20/49/19
f 296/215/18 121/193/18 287/21/18
f 190/236/12 193/237/12 189/238/12
f 177/219/11 188/236/11 159/33/11
f 159/7/22 190/239/22 163/4/22
f 181/219/12 190/236/12 189/238/12
f 192/240/23 198/241/23 194/242/23
f 188/227/10 194/243/10 190/239/10
f 187/238/11 192/244/11 188/236/11
f 189/239/13 191/245/13 187/227/13
f 198/241/5 195/246/5 197/247/5
f 192/244/11 195/248/11 196/249/11
f 193/243/24 195/250/24 191/245/24
f 194/244/12 197/248/12 193/237/12
f 120/251/18 297/252/18 286/19/18
f 17/47/19 211/253/19 205/254/19
f 56/48/11 204/255/11 4/2/11
f 53/48/12 206/254/12 18/47/12
f 31/18/6 208/256/6 10/16/6
f 8/2/12 209/257/12 53/48/12
f 11/76/6 202/258/6 32/74/6
f 275/19/8 208/259/8 298/252/8
f 17/47/11 210/257/11 56/48/11
f 25/260/5 204/261/5 203/262/5
f 32/74/6 201/263/6 31/18/6
f 26/264/5 199/265/5 8/266/5
f 18/47/9 212/267/9 120/251/9
f 25/260/5 200/268/5 26/264/5
f 233/269/6 217/88/6 235/270/6
f 216/271/13 241/272/13 217/273/13
f 218/274/11 242/275/11 234/102/11
f 208/259/11 234/102/11 224/103/11
f 202/28/10 219/273/10 201/55/10
f 207/27/10 213/56/10 202/28/10
f 201/55/10 218/271/10 208/72/10
f 46/72/13 217/273/13 51/55/13
f 224/103/11 216/276/11 46/98/11
f 220/100/10 248/277/10 213/56/10
f 214/56/13 239/278/13 215/100/13
f 235/273/13 237/277/13 233/56/13
f 212/267/18 299/97/18 297/252/18
f 205/254/19 227/279/19 222/50/19
f 210/257/11 231/101/11 204/255/11
f 209/257/12 223/50/12 206/254/12
f 232/103/12 220/274/12 207/259/12
f 199/255/12 225/81/12 209/257/12
f 298/252/8 224/103/8 300/97/8
f 205/254/11 226/81/11 210/257/11
f 203/262/5 231/280/5 230/13/5
f 200/268/5 229/54/5 199/265/5
f 206/254/9 228/52/9 212/267/9
f 203/262/5 221/15/5 200/268/5
f 245/281/25 238/96/25 237/269/25
f 242/282/6 241/88/6 240/87/6
f 244/263/26 242/282/26 247/256/26
f 246/283/27 237/269/27 248/258/27
f 248/258/6 243/270/6 244/263/6
f 213/56/10 244/284/10 219/273/10
f 236/102/12 246/285/12 220/274/12
f 217/276/12 243/286/12 235/102/12
f 214/276/11 237/286/11 238/287/11
f 218/271/10 244/284/10 247/288/10
f 215/276/12 245/275/12 236/102/12
f 234/102/11 240/287/11 216/276/11
f 251/134/19 134/289/19 86/69/19
f 301/160/18 129/172/18 290/155/18
f 261/171/9 83/69/9 129/172/9
f 250/140/11 112/179/11 92/34/11
f 254/167/6 106/178/6 91/163/6
f 258/162/15 77/173/15 97/63/15
f 302/160/8 91/290/8 285/155/8
f 252/134/12 109/179/12 83/69/12
f 80/145/15 250/154/15 92/291/15
f 255/151/15 80/145/15 77/173/15
f 256/148/6 98/292/6 103/176/6
f 257/166/6 103/176/6 106/178/6
f 109/179/12 258/140/12 97/34/12
f 260/135/11 86/69/11 112/179/11
f 266/166/6 269/293/6 265/148/6
f 37/28/10 264/273/10 38/55/10
f 256/144/12 263/294/12 37/142/12
f 257/55/13 265/56/13 256/28/13
f 268/295/11 274/296/11 270/297/11
f 265/148/6 267/298/6 263/123/6
f 264/125/6 270/299/6 266/166/6
f 263/123/6 268/300/6 264/125/6
f 272/300/6 273/293/6 274/299/6
f 267/301/10 272/302/10 268/303/10
f 270/303/13 273/304/13 269/301/13
f 269/297/12 271/305/12 267/295/12
f 262/183/28 285/155/28 134/289/28
f 249/144/7 290/155/7 98/290/7
f 211/253/28 300/97/28 227/279/28
f 297/252/7 232/103/7 207/259/7
f 117/192/28 298/252/28 211/253/28
f 286/19/7 207/259/7 11/22/7
f 180/223/7 287/21/7 12/20/7
f 175/216/28 276/21/28 118/235/28
f 171/184/28 295/215/28 175/216/28
f 162/157/7 296/215/7 180/223/7
f 100/67/7 293/158/7 162/157/7
f 99/156/7 292/68/7 100/67/7
f 299/97/7 44/98/7 232/103/7
f 15/142/7 301/160/7 249/144/7
f 98/290/7 291/66/7 99/156/7
f 119/306/28 302/160/28 262/183/28
f 132/191/28 294/158/28 171/184/28
f 134/289/28 284/66/28 133/185/28
f 227/279/28 280/99/28 125/186/28
f 128/307/29 281/93/29 127/308/29
f 127/308/29 289/95/29 126/309/29
f 128/307/29 280/310/29 282/86/29
f 123/190/10 279/26/10 278/71/10
f 123/190/10 277/73/10 119/189/10
f 133/185/28 283/68/28 132/191/28
f 124/187/10 288/311/10 279/26/10
f 118/235/28 275/19/28 117/192/28
f 120/251/18 287/21/18 121/193/18
f 69/1/1 2/113/1 4/2/1
f 26/4/2 8/107/2 71/5/2
f 8/2/3 6/113/3 72/1/3
f 30/7/4 2/108/4 69/8/4
f 7/10/5 5/312/5 28/11/5
f 230/13/5 50/79/5 41/14/5
f 10/16/6 9/234/6 34/17/6
f 286/19/7 11/22/7 12/20/7
f 276/21/8 9/20/8 10/22/8
f 131/23/9 85/30/9 166/24/9
f 279/26/10 288/311/10 15/27/10
f 130/29/9 84/70/9 85/30/9
f 94/31/11 110/152/11 167/32/11
f 92/34/11 112/179/11 111/35/11
f 90/37/6 105/164/6 104/38/6
f 55/40/10 21/90/10 39/41/10
f 95/43/5 79/118/5 163/44/5
f 57/46/11 20/49/11 17/47/11
f 53/48/12 18/47/12 19/49/12
f 223/50/9 47/104/9 126/51/9
f 221/15/5 41/14/5 42/53/5
f 51/55/13 217/273/13 214/56/13
f 59/57/10 40/89/10 22/58/10
f 59/60/14 67/126/14 66/61/14
f 97/63/15 77/173/15 78/64/15
f 284/66/8 90/156/8 89/67/8
f 85/30/12 107/152/12 168/32/12
f 83/69/12 109/179/12 108/35/12
f 278/71/10 38/55/10 16/72/10
f 279/26/10 37/28/10 38/55/10
f 32/74/6 33/77/6 12/75/6
f 31/18/6 34/17/6 33/77/6
f 230/13/5 231/280/5 48/78/5
f 222/50/11 45/104/11 62/80/11
f 24/82/5 27/85/5 1/83/5
f 23/12/5 28/11/5 27/85/5
f 72/5/4 6/107/4 29/4/4
f 29/4/4 30/7/4 74/9/4
f 70/8/2 4/108/2 25/7/2
f 25/7/2 26/4/2 76/6/2
f 282/86/16 280/310/16 46/87/16
f 62/59/13 45/58/13 52/89/13
f 63/42/13 49/41/13 47/90/13
f 41/91/12 136/199/12 139/92/12
f 281/93/16 43/96/16 44/94/16
f 282/86/16 51/88/16 43/96/16
f 300/97/8 224/103/8 46/98/8
f 43/28/13 214/56/13 215/100/13
f 229/101/12 42/91/12 61/80/12
f 44/98/12 215/276/12 236/102/12
f 225/81/12 61/80/12 47/104/12
f 49/14/6 138/197/6 137/105/6
f 41/106/13 63/42/13 61/40/13
f 48/108/13 62/59/13 64/57/13
f 226/81/11 62/80/11 48/91/11
f 35/110/10 60/42/10 59/57/10
f 36/111/10 59/57/10 58/59/10
f 8/2/12 53/48/12 54/46/12
f 2/113/11 57/46/11 56/48/11
f 81/114/5 93/146/5 94/115/5
f 13/117/10 55/40/10 60/42/10
f 79/118/5 82/116/5 159/119/5
f 68/120/10 65/313/10 66/121/10
f 60/123/5 68/127/5 67/124/5
f 39/62/17 65/61/17 68/126/17
f 40/125/6 66/124/6 65/127/6
f 75/9/2 76/6/2 23/128/2
f 70/8/2 75/9/2 24/129/2
f 73/6/4 74/9/4 27/129/4
f 72/5/4 73/6/4 28/128/4
f 74/9/4 69/8/4 1/130/4
f 71/3/12 72/1/12 5/132/12
f 76/6/2 71/5/2 7/131/2
f 1/132/11 69/1/11 70/3/11
f 58/60/11 22/62/11 251/134/11
f 101/136/6 100/175/6 162/137/6
f 259/135/12 55/60/12 13/139/12
f 81/7/10 116/182/10 114/141/10
f 38/142/11 264/294/11 266/143/11
f 80/145/15 92/291/15 93/146/15
f 37/123/6 15/314/6 249/147/6
f 82/116/5 94/115/5 161/149/5
f 35/123/15 36/125/15 253/150/15
f 84/70/12 108/35/12 107/152/12
f 253/150/15 36/125/15 14/153/15
f 285/155/8 91/290/8 90/156/8
f 21/62/12 55/60/12 259/135/12
f 283/68/8 89/67/8 165/157/8
f 277/159/8 16/142/8 254/144/8
f 96/65/5 78/64/5 79/118/5
f 13/161/15 35/123/15 255/151/15
f 91/163/6 106/178/6 105/164/6
f 16/165/6 38/125/6 257/166/6
f 89/39/6 104/38/6 169/168/6
f 14/139/11 58/60/11 260/135/11
f 93/36/11 111/35/11 110/152/11
f 122/170/9 21/62/9 252/134/9
f 129/172/9 83/69/9 84/70/9
f 77/173/15 80/145/15 81/114/15
f 102/174/6 99/177/6 100/175/6
f 103/176/6 98/292/6 99/177/6
f 104/38/6 101/136/6 170/138/6
f 105/164/6 102/174/6 101/136/6
f 106/178/6 103/176/6 102/174/6
f 107/152/12 95/31/12 164/33/12
f 108/35/12 96/36/12 95/31/12
f 108/35/12 109/179/12 97/34/12
f 110/152/11 88/30/11 160/24/11
f 111/35/11 87/70/11 88/30/11
f 112/179/11 86/69/11 87/70/11
f 114/64/5 116/114/5 115/116/5
f 78/36/12 114/181/12 113/180/12
f 82/31/11 115/180/11 116/181/11
f 79/4/13 113/141/13 115/182/13
f 290/155/18 129/172/18 130/29/18
f 288/159/18 122/170/18 261/171/18
f 22/62/19 119/306/19 262/183/19
f 88/30/19 132/191/19 171/184/19
f 86/69/19 134/289/19 133/185/19
f 222/50/19 227/279/19 125/186/19
f 52/89/20 128/190/20 127/187/20
f 49/41/20 127/187/20 126/188/20
f 52/89/20 45/58/20 125/189/20
f 39/41/10 124/187/10 123/190/10
f 40/89/10 123/190/10 119/189/10
f 87/70/19 133/185/19 132/191/19
f 228/52/18 126/51/18 289/99/18
f 291/66/18 130/29/18 131/23/18
f 39/41/10 21/90/10 122/188/10
f 292/68/18 131/23/18 172/25/18
f 20/49/19 118/235/19 117/192/19
f 18/47/9 120/251/9 121/193/9
f 136/106/10 149/315/10 147/194/10
f 142/195/21 150/208/21 149/196/21
f 50/79/5 135/105/5 136/197/5
f 63/80/12 139/92/12 138/198/12
f 64/80/11 140/92/11 135/199/11
f 52/104/11 137/198/11 140/92/11
f 146/57/13 143/89/13 144/41/13
f 141/200/13 146/57/13 145/42/13
f 135/105/21 141/204/21 142/195/21
f 141/200/13 158/316/13 156/202/13
f 135/105/21 155/213/21 158/203/21
f 138/197/6 144/195/6 143/204/6
f 147/92/12 151/206/12 152/205/12
f 149/199/12 150/210/12 151/206/12
f 139/42/10 147/194/10 148/207/10
f 138/197/6 148/196/6 152/208/6
f 145/42/13 151/194/13 150/209/13
f 144/41/13 152/207/13 151/194/13
f 155/199/11 153/92/11 156/206/11
f 154/198/11 157/205/11 156/206/11
f 146/57/13 156/202/13 157/211/13
f 140/57/10 153/202/10 155/212/10
f 137/89/10 154/211/10 153/202/10
f 143/204/6 157/203/6 154/213/6
f 293/158/18 172/25/18 176/214/18
f 160/24/19 171/184/19 175/216/19
f 167/32/11 160/24/11 178/217/11
f 168/32/12 164/33/12 173/219/12
f 169/168/6 170/138/6 186/220/6
f 165/169/6 169/168/6 185/221/6
f 294/158/8 165/157/8 174/223/8
f 159/119/5 161/149/5 179/224/5
f 170/138/6 162/137/6 180/226/6
f 181/4/13 189/239/13 187/227/13
f 166/24/12 168/32/12 184/218/12
f 164/45/5 163/44/5 181/228/5
f 161/33/11 167/32/11 183/218/11
f 172/25/9 166/24/9 182/217/9
f 176/214/9 182/217/9 19/49/9
f 179/219/11 183/218/11 57/46/11
f 173/229/5 181/228/5 29/230/5
f 182/217/12 184/218/12 54/46/12
f 181/228/5 177/225/5 30/232/5
f 186/220/6 180/226/6 12/75/6
f 177/225/5 179/224/5 2/233/5
f 295/215/8 174/223/8 9/20/8
f 174/222/6 185/221/6 34/17/6
f 185/221/6 186/220/6 33/77/6
f 184/218/12 173/219/12 6/113/12
f 183/218/11 178/217/11 20/49/11
f 178/217/19 175/216/19 118/235/19
f 296/215/18 176/214/18 121/193/18
f 190/236/12 194/244/12 193/237/12
f 177/219/11 187/238/11 188/236/11
f 159/7/22 188/227/22 190/239/22
f 181/219/12 163/33/12 190/236/12
f 192/240/23 196/317/23 198/241/23
f 188/227/10 192/245/10 194/243/10
f 187/238/11 191/237/11 192/244/11
f 189/239/13 193/243/13 191/245/13
f 198/241/5 196/317/5 195/246/5
f 192/244/11 191/237/11 195/248/11
f 193/243/24 197/318/24 195/250/24
f 194/244/12 198/249/12 197/248/12
f 120/251/18 212/267/18 297/252/18
f 17/47/19 117/192/19 211/253/19
f 56/48/11 210/257/11 204/255/11
f 53/48/12 209/257/12 206/254/12
f 31/18/6 201/263/6 208/256/6
f 8/2/12 199/255/12 209/257/12
f 11/76/6 207/283/6 202/258/6
f 275/19/8 10/22/8 208/259/8
f 17/47/11 205/254/11 210/257/11
f 25/260/5 4/319/5 204/261/5
f 32/74/6 202/258/6 201/263/6
f 26/264/5 200/268/5 199/265/5
f 18/47/9 206/254/9 212/267/9
f 25/260/5 203/262/5 200/268/5
f 233/269/6 214/96/6 217/88/6
f 216/271/13 240/288/13 241/272/13
f 218/274/11 247/285/11 242/275/11
f 208/259/11 218/274/11 234/102/11
f 202/28/10 213/56/10 219/273/10
f 207/27/10 220/100/10 213/56/10
f 201/55/10 219/273/10 218/271/10
f 46/72/13 216/271/13 217/273/13
f 224/103/11 234/102/11 216/276/11
f 220/100/10 246/278/10 248/277/10
f 214/56/13 238/320/13 239/278/13
f 235/273/13 243/284/13 237/277/13
f 212/267/18 228/52/18 299/97/18
f 205/254/19 211/253/19 227/279/19
f 210/257/11 226/81/11 231/101/11
f 209/257/12 225/81/12 223/50/12
f 232/103/12 236/102/12 220/274/12
f 199/255/12 229/101/12 225/81/12
f 298/252/8 208/259/8 224/103/8
f 205/254/11 222/50/11 226/81/11
f 203/262/5 204/261/5 231/280/5
f 200/268/5 221/15/5 229/54/5
f 206/254/9 223/50/9 228/52/9
f 203/262/5 230/13/5 221/15/5
f 245/281/6 239/94/6 238/96/6
f 242/282/30 243/270/30 241/88/30
f 244/263/26 243/270/26 242/282/26
f 246/283/27 245/281/27 237/269/27
f 248/258/6 237/269/6 243/270/6
f 213/56/10 248/277/10 244/284/10
f 236/102/12 245/275/12 246/285/12
f 217/276/12 241/287/12 243/286/12
f 214/276/11 233/102/11 237/286/11
f 218/271/10 219/273/10 244/284/10
f 215/276/12 239/287/12 245/275/12
f 234/102/11 242/275/11 240/287/11
f 251/134/19 262/183/19 134/289/19
f 301/160/18 261/171/18 129/172/18
f 261/171/9 252/134/9 83/69/9
f 250/140/11 260/135/11 112/179/11
f 254/167/6 257/166/6 106/178/6
f 258/162/15 255/151/15 77/173/15
f 302/160/8 254/144/8 91/290/8
f 252/134/12 259/135/12 109/179/12
f 80/145/15 253/150/15 250/154/15
f 255/151/15 253/150/15 80/145/15
f 256/148/6 249/147/6 98/292/6
f 257/166/6 256/148/6 103/176/6
f 109/179/12 259/135/12 258/140/12
f 260/135/11 251/134/11 86/69/11
f 266/166/6 270/299/6 269/293/6
f 37/28/10 263/56/10 264/273/10
f 256/144/12 265/143/12 263/294/12
f 257/55/13 266/273/13 265/56/13
f 268/295/11 272/305/11 274/296/11
f 265/148/6 269/293/6 267/298/6
f 264/125/6 268/300/6 270/299/6
f 263/123/6 267/298/6 268/300/6
f 272/300/6 271/298/6 273/293/6
f 267/301/10 271/304/10 272/302/10
f 270/303/13 274/302/13 273/304/13
f 269/297/12 273/296/12 271/305/12
f 262/183/28 302/160/28 285/155/28
f 249/144/7 301/160/7 290/155/7
f 211/253/28 298/252/28 300/97/28
f 297/252/7 299/97/7 232/103/7
f 117/192/28 275/19/28 298/252/28
f 286/19/7 297/252/7 207/259/7
f 180/223/7 296/215/7 287/21/7
f 175/216/28 295/215/28 276/21/28
f 171/184/28 294/158/28 295/215/28
f 162/157/7 293/158/7 296/215/7
f 100/67/7 292/68/7 293/158/7
f 99/156/7 291/66/7 292/68/7
f 299/97/7 289/99/7 44/98/7
f 15/142/7 288/159/7 301/160/7
f 98/290/7 290/155/7 291/66/7
f 119/306/28 277/159/28 302/160/28
f 132/191/28 283/68/28 294/158/28
f 134/289/28 285/155/28 284/66/28
f 227/279/28 300/97/28 280/99/28
f 128/307/29 282/86/29 281/93/29
f 127/308/29 281/93/29 289/95/29
f 128/307/29 125/321/29 280/310/29
f 123/190/10 124/187/10 279/26/10
f 123/190/10 278/71/10 277/73/10
f 133/185/28 284/66/28 283/68/28
f 124/187/10 122/188/10 288/311/10
f 118/235/28 276/21/28 275/19/28
f 120/251/18 286/19/18 287/21/18
