# Blender 5.1.2
# www.blender.org
mtllib shotgun.mtl
o Cube
v 0.028000 -0.007000 0.115500
v 0.028000 -0.007000 0.567000
v 0.047799 -0.015201 0.115500
v 0.047799 -0.015201 0.567000
v 0.056000 -0.035000 0.115500
v 0.056000 -0.035000 0.567000
v 0.047799 -0.054799 0.115500
v 0.047799 -0.054799 0.567000
v 0.028000 -0.063000 0.115500
v 0.028000 -0.063000 0.567000
v 0.008201 -0.054799 0.115500
v 0.008201 -0.054799 0.567000
v -0.000000 -0.035000 0.115500
v -0.000000 -0.035000 0.567000
v 0.008201 -0.015201 0.115500
v 0.008201 -0.015201 0.567000
v -0.028000 -0.007000 0.115500
v -0.028000 -0.007000 0.567000
v -0.008201 -0.015201 0.115500
v -0.008201 -0.015201 0.567000
v -0.000000 -0.035000 0.115500
v -0.000000 -0.035000 0.567000
v -0.008201 -0.054799 0.115500
v -0.008201 -0.054799 0.567000
v -0.028000 -0.063000 0.115500
v -0.028000 -0.063000 0.567000
v -0.047799 -0.054799 0.115500
v -0.047799 -0.054799 0.567000
v -0.056000 -0.035000 0.115500
v -0.056000 -0.035000 0.567000
v -0.047799 -0.015201 0.115500
v -0.047799 -0.015201 0.567000
v -0.017500 -0.070000 -0.042000
v -0.017500 -0.035000 -0.042000
v 0.017500 -0.070000 -0.042000
v 0.017500 -0.035000 -0.042000
v 0.037899 -0.025101 0.567000
v 0.028000 -0.021000 0.567000
v 0.042000 -0.035000 0.567000
v 0.037899 -0.044899 0.567000
v 0.028000 -0.049000 0.567000
v 0.018101 -0.044899 0.567000
v 0.014000 -0.035000 0.567000
v 0.018101 -0.025101 0.567000
v 0.037899 -0.025100 0.129500
v 0.028000 -0.021000 0.129500
v 0.042000 -0.035000 0.129500
v 0.037899 -0.044899 0.129500
v 0.028000 -0.049000 0.129500
v 0.018101 -0.044899 0.129500
v 0.014000 -0.035000 0.129500
v 0.018101 -0.025100 0.129500
v -0.018101 -0.025101 0.567000
v -0.028000 -0.021000 0.567000
v -0.014000 -0.035000 0.567000
v -0.018101 -0.044899 0.567000
v -0.028000 -0.049000 0.567000
v -0.037899 -0.044899 0.567000
v -0.042000 -0.035000 0.567000
v -0.037899 -0.025101 0.567000
v -0.018101 -0.025101 0.129500
v -0.028000 -0.021000 0.129500
v -0.014000 -0.035000 0.129500
v -0.018101 -0.044899 0.129500
v -0.028000 -0.049000 0.129500
v -0.037899 -0.044899 0.129500
v -0.042000 -0.035000 0.129500
v -0.037899 -0.025101 0.129500
v -0.052500 -0.070000 0.036750
v -0.052500 -0.017500 0.036750
v 0.052500 -0.070000 0.036750
v 0.052500 -0.017500 0.036750
v 0.017500 -0.070000 -0.022312
v -0.017500 -0.070000 -0.022312
v 0.026250 -0.070000 0.017063
v -0.026250 -0.070000 0.017063
v 0.017500 -0.140000 -0.022312
v -0.017500 -0.140000 -0.022312
v 0.026250 -0.140000 0.017063
v -0.026250 -0.140000 0.017063
v -0.017500 -0.035000 -0.085750
v -0.017500 -0.070000 -0.085750
v 0.017500 -0.070000 -0.085750
v 0.017500 -0.035000 -0.085750
v -0.035000 -0.035000 -0.225750
v -0.035000 -0.098000 -0.225750
v 0.035000 -0.098000 -0.225750
v 0.035000 -0.035000 -0.225750
v -0.063000 -0.063000 0.115500
v -0.068472 -0.070000 0.108625
v -0.067502 -0.067950 0.113486
v -0.063000 -0.007000 0.115500
v -0.068473 -0.001527 0.108628
v -0.067502 -0.002498 0.113487
v 0.063000 -0.063000 0.115500
v 0.068472 -0.070000 0.108625
v 0.067502 -0.067950 0.113486
v 0.063000 -0.007000 0.115500
v 0.068473 -0.001527 0.108628
v 0.067502 -0.002498 0.113487
vn 0.3827 0.9239 -0.0000
vn 0.9239 0.3827 -0.0000
vn 0.9239 -0.3827 -0.0000
vn 0.3827 -0.9239 -0.0000
vn -0.3827 -0.9239 -0.0000
vn -0.9239 -0.3827 -0.0000
vn -0.0000 -0.0000 1.0000
vn -0.9239 0.3827 -0.0000
vn -0.3827 0.9239 -0.0000
vn -0.0000 -0.0000 -1.0000
vn -0.9138 -0.0000 -0.4061
vn -0.0000 -1.0000 -0.0000
vn -0.0000 0.9762 -0.2169
vn 0.9138 -0.0000 -0.4061
vn -0.9762 -0.0000 -0.2169
vn 0.9762 -0.0000 -0.2169
vn 0.9923 -0.0000 0.1240
vn -0.0000 1.0000 -0.0000
vn -1.0000 -0.0000 -0.0000
vn 1.0000 -0.0000 -0.0000
vn -0.0000 -0.9806 0.1961
vn -0.9923 -0.0000 0.1240
vn -0.4083 -0.0000 0.9129
vn -0.9807 -0.0000 0.1957
vn 0.4081 -0.0000 0.9129
vn 0.9806 -0.0000 0.1958
vn -0.0000 -0.9214 0.3886
vn -0.0000 -0.3768 0.9263
vn -0.0000 0.9806 0.1958
vn -0.0000 0.4081 0.9129
vn -0.4081 -0.0000 0.9129
vn -0.9806 -0.0000 0.1958
vn 0.4083 -0.0000 0.9129
vn 0.9807 -0.0000 0.1957
vt 0.156969 -3.410630
vt 0.356769 1.145664
vt 0.156969 1.145664
vt -3.410630 0.163794
vt 1.145664 -0.036007
vt 1.145664 0.163794
vt -3.410630 -0.036007
vt 1.145664 -0.235807
vt 0.356769 -3.410630
vt -0.042831 1.145664
vt -3.410630 -0.235807
vt 0.356769 -0.235807
vt 0.156969 -0.177287
vt 0.156969 -0.318568
vt -0.042831 -3.410630
vt -0.042831 -0.235807
vt -0.042831 0.163794
vt -0.408152 -3.410630
vt -0.208352 1.145664
vt -0.408152 1.145664
vt -0.208352 -3.410630
vt -0.607953 1.145664
vt -0.208352 -0.235807
vt -0.408152 -0.177287
vt -0.408152 -0.318568
vt -0.607953 -3.410630
vt -0.607953 -0.235807
vt -0.607953 0.163794
vt 1.940364 -0.389208
vt 2.735066 -0.036007
vt 2.735066 -0.389208
vt -0.302192 2.735066
vt 0.051009 3.176567
vt 0.051009 2.735066
vt -3.410630 0.063893
vt 1.004381 -0.036005
vt 1.004381 0.063895
vt 0.015688 -0.036007
vt 0.057069 0.063893
vt 0.439529 -0.036007
vt 0.256869 0.063893
vt 0.298249 -0.036007
vt 0.057069 -0.135907
vt 0.156969 0.105274
vt 0.156969 0.246554
vt 0.356769 0.163794
vt 0.256869 -0.135907
vt -0.125592 -0.036007
vt 0.015688 -0.036005
vt 0.156969 -0.177285
vt 0.298249 -0.036005
vt 0.057069 -3.410630
vt 0.156969 1.004381
vt 0.057069 1.004381
vt 1.004381 -0.135905
vt -3.410630 -0.135907
vt 0.256869 1.004381
vt 0.256869 -3.410630
vt -0.308252 1.004381
vt -0.308252 -3.410630
vt -0.549433 -0.036007
vt -0.508053 0.063893
vt -0.125592 -0.036007
vt -0.308252 0.063893
vt -0.266872 -0.036007
vt -0.508053 -0.135907
vt -0.408152 0.105274
vt -0.408152 0.246554
vt -0.208352 0.163794
vt -0.308252 -0.135907
vt -0.690713 -0.036007
vt -0.508053 -3.410630
vt -0.408152 1.004381
vt 1.004381 -0.036007
vt 1.004381 0.063893
vt -0.508053 1.004381
vt 1.004381 -0.135907
vt 0.404210 1.940364
vt -0.302192 2.536391
vt 2.536391 -0.389208
vt 2.139040 -1.095609
vt 2.139040 -0.389208
vt -0.655393 1.940364
vt 0.139309 2.139040
vt 0.051009 2.536391
vt -0.390492 2.139040
vt 0.051009 -0.389208
vt -0.302192 -1.095609
vt -0.302192 -0.389208
vt -0.390492 -0.389208
vt 0.139309 -1.095609
vt 0.139309 -0.389208
vt 2.536391 -1.095609
vt 3.176567 -0.389208
vt 4.589370 -0.036007
vt 3.176567 -0.036007
vt -0.302192 3.176567
vt -0.478793 -0.036007
vt 0.227609 -0.671768
vt -0.478793 -0.671768
vt -0.478793 4.589370
vt 0.227609 4.589370
vt 4.589370 -0.671768
vt -0.761354 -0.318568
vt -0.806790 0.291990
vt -0.806788 -0.368518
vt 1.165983 -0.368518
vt 1.215010 0.301784
vt 1.215042 -0.389208
vt 0.510170 -0.318568
vt 0.555606 0.291990
vt 0.510170 0.246554
vt 1.165974 0.291990
vt -0.816576 1.215042
vt 0.555604 1.165983
vt -0.806788 1.165983
vt 0.555604 -0.368518
vt -0.816583 1.215010
vt 0.555606 1.165974
vt 0.565400 1.215010
vt 1.940364 0.140594
vt 0.565392 1.215042
vt 0.256869 0.063895
vt 0.156969 0.105275
vt 0.057069 0.063895
vt 0.057069 -0.135905
vt 0.256869 -0.135905
vt 0.051009 -1.095609
vt -0.390492 -1.095609
vt 0.227609 -0.036007
vt -0.761354 0.246554
vt -0.806790 1.165974
s 0
f 2/1/1 3/2/1 1/3/1
f 4/4/2 5/5/2 3/6/2
f 6/7/3 7/8/3 5/5/3
f 8/9/4 9/3/4 7/2/4
f 10/1/5 11/10/5 9/3/5
f 12/11/6 13/5/6 11/8/6
f 8/12/7 41/13/7 10/14/7
f 14/7/8 15/6/8 13/5/8
f 16/15/9 1/3/9 15/10/9
f 7/12/10 11/16/10 15/17/10
f 18/18/1 19/19/1 17/20/1
f 20/4/2 21/5/2 19/6/2
f 22/7/3 23/8/3 21/5/3
f 24/21/4 25/20/4 23/19/4
f 26/18/5 27/22/5 25/20/5
f 28/11/6 29/5/6 27/8/6
f 24/23/7 57/24/7 26/25/7
f 30/7/8 31/6/8 29/5/8
f 32/26/9 17/20/9 31/22/9
f 23/23/10 27/27/10 31/28/10
f 69/29/11 34/30/11 33/31/11
f 33/32/12 83/33/12 35/34/12
f 44/35/3 51/36/3 52/37/3
f 16/17/7 43/38/7 44/39/7
f 6/40/7 37/41/7 39/42/7
f 12/16/7 41/13/7 42/43/7
f 16/17/7 38/44/7 2/45/7
f 4/46/7 38/44/7 37/41/7
f 6/40/7 40/47/7 8/12/7
f 12/16/7 43/38/7 14/48/7
f 51/49/7 49/50/7 47/51/7
f 42/52/1 49/53/1 50/54/1
f 39/7/8 48/55/8 40/56/8
f 38/1/5 45/57/5 37/58/5
f 44/52/4 46/53/4 38/1/4
f 42/56/2 51/36/2 43/7/2
f 40/58/9 49/53/9 41/1/9
f 37/35/6 47/36/6 39/7/6
f 54/18/5 61/59/5 53/60/5
f 32/28/7 59/61/7 60/62/7
f 22/63/7 53/64/7 55/65/7
f 28/27/7 57/24/7 58/66/7
f 32/28/7 54/67/7 18/68/7
f 20/69/7 54/67/7 53/64/7
f 22/63/7 56/70/7 24/23/7
f 28/27/7 59/61/7 30/71/7
f 67/61/7 65/24/7 63/65/7
f 60/72/4 62/73/4 54/18/4
f 58/56/2 67/74/2 59/7/2
f 56/60/9 65/73/9 57/18/9
f 53/35/6 63/74/6 55/7/6
f 59/7/3 68/75/3 60/35/3
f 57/18/1 66/76/1 58/72/1
f 55/7/8 64/77/8 56/56/8
f 34/32/13 72/78/13 36/34/13
f 35/34/12 74/79/12 33/32/12
f 36/30/14 71/29/14 35/31/14
f 74/80/15 80/81/15 76/82/15
f 69/83/12 75/84/12 71/78/12
f 71/78/12 73/85/12 35/34/12
f 69/83/12 74/79/12 76/86/12
f 77/85/12 80/86/12 78/79/12
f 73/87/10 78/88/10 74/89/10
f 76/90/7 79/91/7 75/92/7
f 75/82/16 77/93/16 73/80/16
f 83/94/17 88/95/17 84/96/17
f 36/34/18 81/97/18 34/32/18
f 34/30/19 82/94/19 33/31/19
f 35/31/20 84/96/20 36/30/20
f 85/98/10 87/99/10 86/100/10
f 83/33/21 86/101/21 87/102/21
f 84/33/18 85/101/18 81/97/18
f 82/94/22 85/95/22 86/103/22
f 89/104/23 94/105/23 91/106/23
f 91/107/24 93/108/24 90/109/24
f 95/110/25 100/111/25 98/112/25
f 97/107/26 99/108/26 100/113/26
f 90/114/27 97/115/27 91/116/27
f 97/117/28 89/104/28 91/106/28
f 93/118/29 100/119/29 99/120/29
f 94/105/30 98/112/30 100/111/30
f 90/109/15 70/121/15 69/29/15
f 98/112/7 89/104/7 95/110/7
f 69/83/12 96/122/12 90/114/12
f 70/83/13 99/120/13 72/78/13
f 72/121/16 96/109/16 71/29/16
f 2/1/1 4/9/1 3/2/1
f 4/4/2 6/7/2 5/5/2
f 6/7/3 8/11/3 7/8/3
f 8/9/4 10/1/4 9/3/4
f 10/1/5 12/15/5 11/10/5
f 12/11/6 14/7/6 13/5/6
f 8/12/7 40/47/7 41/13/7
f 14/7/8 16/4/8 15/6/8
f 16/15/9 2/1/9 1/3/9
f 15/17/10 1/45/10 3/46/10
f 3/46/10 5/40/10 7/12/10
f 7/12/10 9/14/10 11/16/10
f 11/16/10 13/48/10 15/17/10
f 15/17/10 3/46/10 7/12/10
f 18/18/1 20/21/1 19/19/1
f 20/4/2 22/7/2 21/5/2
f 22/7/3 24/11/3 23/8/3
f 24/21/4 26/18/4 25/20/4
f 26/18/5 28/26/5 27/22/5
f 28/11/6 30/7/6 29/5/6
f 24/23/7 56/70/7 57/24/7
f 30/7/8 32/4/8 31/6/8
f 32/26/9 18/18/9 17/20/9
f 31/28/10 17/68/10 19/69/10
f 19/69/10 21/63/10 23/23/10
f 23/23/10 25/25/10 27/27/10
f 27/27/10 29/71/10 31/28/10
f 31/28/10 19/69/10 23/23/10
f 69/29/11 70/121/11 34/30/11
f 33/32/12 82/97/12 83/33/12
f 44/35/3 43/7/3 51/36/3
f 16/17/7 14/48/7 43/38/7
f 6/40/7 4/46/7 37/41/7
f 12/16/7 10/14/7 41/13/7
f 16/17/7 44/39/7 38/44/7
f 4/46/7 2/45/7 38/44/7
f 6/40/7 39/42/7 40/47/7
f 12/16/7 42/43/7 43/38/7
f 47/51/7 45/123/7 46/124/7
f 46/124/7 52/125/7 51/49/7
f 51/49/7 50/126/7 49/50/7
f 49/50/7 48/127/7 47/51/7
f 47/51/7 46/124/7 51/49/7
f 42/52/1 41/1/1 49/53/1
f 39/7/8 47/36/8 48/55/8
f 38/1/5 46/53/5 45/57/5
f 44/52/4 52/54/4 46/53/4
f 42/56/2 50/55/2 51/36/2
f 40/58/9 48/57/9 49/53/9
f 37/35/6 45/37/6 47/36/6
f 54/18/5 62/73/5 61/59/5
f 32/28/7 30/71/7 59/61/7
f 22/63/7 20/69/7 53/64/7
f 28/27/7 26/25/7 57/24/7
f 32/28/7 60/62/7 54/67/7
f 20/69/7 18/68/7 54/67/7
f 22/63/7 55/65/7 56/70/7
f 28/27/7 58/66/7 59/61/7
f 63/65/7 61/64/7 62/67/7
f 62/67/7 68/62/7 67/61/7
f 67/61/7 66/66/7 65/24/7
f 65/24/7 64/70/7 63/65/7
f 63/65/7 62/67/7 67/61/7
f 60/72/4 68/76/4 62/73/4
f 58/56/2 66/77/2 67/74/2
f 56/60/9 64/59/9 65/73/9
f 53/35/6 61/75/6 63/74/6
f 59/7/3 67/74/3 68/75/3
f 57/18/1 65/73/1 66/76/1
f 55/7/8 63/74/8 64/77/8
f 34/32/13 70/83/13 72/78/13
f 35/34/12 73/85/12 74/79/12
f 36/30/14 72/121/14 71/29/14
f 74/80/15 78/93/15 80/81/15
f 69/83/12 76/86/12 75/84/12
f 71/78/12 75/84/12 73/85/12
f 69/83/12 33/32/12 74/79/12
f 77/85/12 79/84/12 80/86/12
f 73/87/10 77/128/10 78/88/10
f 76/90/7 80/129/7 79/91/7
f 75/82/16 79/81/16 77/93/16
f 83/94/17 87/103/17 88/95/17
f 36/34/18 84/33/18 81/97/18
f 34/30/19 81/96/19 82/94/19
f 35/31/20 83/94/20 84/96/20
f 85/98/10 88/130/10 87/99/10
f 83/33/21 82/97/21 86/101/21
f 84/33/18 88/102/18 85/101/18
f 82/94/22 81/96/22 85/95/22
f 89/104/31 92/131/31 94/105/31
f 91/107/32 94/113/32 93/108/32
f 95/110/33 97/117/33 100/111/33
f 97/107/34 96/109/34 99/108/34
f 90/114/27 96/122/27 97/115/27
f 97/117/28 95/110/28 89/104/28
f 93/118/29 94/132/29 100/119/29
f 94/105/30 92/131/30 98/112/30
f 90/109/15 93/108/15 70/121/15
f 98/112/7 92/131/7 89/104/7
f 69/83/12 71/78/12 96/122/12
f 70/83/13 93/118/13 99/120/13
f 72/121/16 99/108/16 96/109/16
