# Blender 5.1.2
# www.blender.org
mtllib sniper.mtl
o Cube
v 0.020000 -0.240000 -0.078000
v 0.020000 -0.080000 -0.038000
v 0.020000 -0.240000 0.002000
v 0.020000 -0.080000 0.042000
v -0.020000 -0.240000 -0.078000
v -0.020000 -0.080000 -0.038000
v -0.020000 -0.240000 0.002000
v -0.020000 -0.080000 0.042000
v 0.020000 0.000000 -0.038000
v 0.010000 0.000000 0.042000
v -0.010000 0.000000 0.042000
v -0.020000 0.000000 -0.038000
v 0.010000 0.000000 0.402000
v -0.010000 0.000000 0.402000
v -0.020000 -0.080000 -0.198000
v 0.020000 -0.080000 -0.198000
v -0.020000 0.000000 -0.118000
v 0.020000 0.000000 -0.118000
v 0.020000 -0.040000 -0.038000
v 0.020000 -0.040000 0.042000
v -0.020000 -0.040000 -0.038000
v -0.020000 -0.040000 0.042000
v 0.020000 -0.040000 -0.198000
v -0.020000 -0.040000 -0.198000
v 0.020000 -0.068000 0.522000
v 0.008000 -0.080000 0.522000
v 0.020000 -0.080000 0.510000
v -0.008000 -0.080000 0.522000
v -0.020000 -0.068000 0.522000
v -0.020000 -0.080000 0.510000
v 0.008000 -0.040000 0.522000
v 0.020000 -0.052000 0.522000
v 0.020000 -0.040000 0.510000
v 0.020000 -0.036205 0.510616
v -0.020000 -0.052000 0.522000
v -0.008000 -0.040000 0.522000
v -0.020000 -0.036205 0.510616
v -0.020000 -0.040000 0.510000
v 0.008000 -0.080000 0.842000
v 0.020000 -0.068000 0.842000
v -0.020000 -0.068000 0.842000
v -0.008000 -0.080000 0.842000
v 0.020000 -0.052000 0.842000
v 0.008000 -0.040000 0.842000
v -0.008000 -0.040000 0.842000
v -0.020000 -0.052000 0.842000
v -0.020000 -0.080000 -0.238000
v 0.020000 -0.080000 -0.238000
v 0.020000 -0.040000 -0.238000
v -0.020000 -0.040000 -0.238000
v -0.020000 -0.144000 -0.398000
v 0.020000 -0.144000 -0.398000
v 0.020000 -0.040000 -0.398000
v -0.020000 -0.040000 -0.398000
vn 1.0000 -0.0000 -0.0000
vn -0.0000 -0.2425 0.9701
vn -1.0000 -0.0000 -0.0000
vn -0.0000 0.2425 -0.9701
vn -0.0000 -1.0000 -0.0000
vn 0.9631 0.2408 0.1204
vn -0.0000 1.0000 -0.0000
vn -0.0000 0.8944 -0.4472
vn 0.5773 -0.5774 0.5773
vn -0.5773 -0.5774 0.5773
vn 0.7025 -0.1140 0.7025
vn -0.5773 0.5774 0.5773
vn -0.7071 0.7071 -0.0000
vn 0.7071 0.7071 -0.0000
vn 0.7071 -0.7071 -0.0000
vn -0.7071 -0.7071 -0.0000
vn -0.0000 0.9487 0.3162
vn 0.9998 0.0034 -0.0211
vn -0.9655 0.2604 -0.0021
vn -0.0000 -0.0000 1.0000
vn -0.0000 -0.0000 -1.0000
vn -0.0000 -0.9285 0.3714
vn -0.9631 0.2408 0.1204
vn 0.5773 0.5774 0.5773
vn -0.7025 -0.1140 0.7025
vn 0.9701 0.2425 -0.0000
vn 0.9639 0.2662 -0.0000
vn -0.9701 0.2425 -0.0000
vt 1.998388 1.237097
vt 1.740323 0.204839
vt 2.256452 0.204839
vt 1.882258 1.237097
vt 1.624194 0.204839
vt 1.882258 0.204839
vt 1.624194 1.237097
vt 1.624194 1.740323
vt 1.882258 2.256452
vt 1.882258 1.740323
vt 1.482259 1.495162
vt 1.998388 1.753226
vt 1.482259 1.753226
vt 1.817742 1.482259
vt 1.624194 1.998388
vt 1.688710 1.482259
vt 1.882258 1.998388
vt 1.624194 2.514517
vt 1.998388 1.495162
vt 1.817742 -0.840322
vt 1.624194 3.030646
vt 1.882258 2.514517
vt 1.882258 3.030646
vt 2.514517 1.753226
vt 3.030646 1.495162
vt 3.030646 1.237097
vt 3.288710 1.495162
vt 1.482259 1.237097
vt -1.614516 1.314517
vt -1.614516 1.237097
vt -1.537097 1.237097
vt -1.614516 1.495162
vt -1.537097 1.495162
vt -1.541070 1.519644
vt -1.614516 1.417742
vt 1.624194 -3.679032
vt 1.701614 -1.614516
vt 1.624194 -1.614516
vt 1.882259 -1.614516
vt 1.804840 -3.679032
vt 1.882259 -3.679032
vt -3.679032 1.314517
vt -3.679032 1.237097
vt 1.701614 -3.679032
vt 1.882258 1.482259
vt 1.804840 -1.614516
vt 1.624194 -1.537097
vt -3.679032 1.417742
vt 1.882259 -1.541070
vt 1.688710 -0.840322
vt -0.840322 1.753226
vt 1.882259 1.314517
vt 1.804840 1.495162
vt 1.624194 1.417742
vt 3.288710 1.237097
vt 4.320968 1.495162
vt 4.320968 0.824194
vt 1.882258 3.288710
vt 1.624194 3.288710
vt 1.624194 0.824194
vt 1.882258 1.495162
vt 1.882258 0.824194
vt 1.882258 4.320968
vt 1.624194 4.320968
vt 1.624194 1.237097
vt 1.624194 2.256452
vt 1.624194 1.482259
vt 1.882259 -1.537097
vt 1.624194 -1.541070
vt 1.624194 1.314517
vt 1.701614 1.237097
vt 1.804840 1.237097
vt 1.882259 1.417742
vt 1.701614 1.495162
vt 1.624194 1.495162
s 0
f 2/1/1 3/2/1 1/3/1
f 4/4/2 7/5/2 3/6/2
f 7/2/3 6/1/3 5/3/3
f 6/7/4 1/6/4 5/5/4
f 7/8/5 1/9/5 3/10/5
f 20/11/6 9/12/6 10/13/6
f 10/14/7 12/15/7 11/16/7
f 9/17/7 17/18/7 12/15/7
f 22/11/3 12/12/3 21/19/3
f 11/16/7 13/20/7 10/14/7
f 24/21/8 18/22/8 23/23/8
f 6/15/5 16/23/5 2/17/5
f 21/19/3 17/24/3 24/25/3
f 2/1/1 23/25/1 19/19/1
f 19/19/1 18/24/1 9/12/1
f 21/19/3 15/26/3 6/1/3
f 16/26/1 49/27/1 23/25/1
f 8/28/3 21/19/3 6/1/3
f 2/1/1 20/11/1 4/28/1
f 25/29/9 26/30/9 27/31/9
f 28/30/10 29/29/10 30/31/10
f 31/32/11 33/33/11 34/34/11
f 36/32/12 38/33/12 35/35/12
f 46/36/13 36/37/13 35/38/13
f 32/39/14 44/40/14 43/41/14
f 26/30/15 40/42/15 39/43/15
f 29/29/16 42/43/16 41/42/16
f 28/37/5 39/40/5 42/44/5
f 4/45/5 26/46/5 30/47/5
f 32/35/1 40/42/1 25/29/1
f 20/11/1 32/35/1 27/31/1
f 8/28/3 29/29/3 38/33/3
f 29/29/3 46/48/3 35/35/3
f 36/37/17 34/49/17 14/50/17
f 36/37/7 44/40/7 31/46/7
f 10/13/18 34/34/18 33/33/18
f 22/11/19 37/34/19 14/51/19
f 40/52/20 44/53/20 46/54/20
f 47/55/3 54/56/3 51/57/3
f 24/25/3 47/55/3 15/26/3
f 15/21/5 48/58/5 16/23/5
f 23/23/7 50/59/7 24/21/7
f 51/60/21 53/61/21 52/62/21
f 47/59/22 52/63/22 48/58/22
f 50/59/7 53/63/7 54/64/7
f 48/55/1 53/56/1 49/27/1
f 2/1/1 4/28/1 3/2/1
f 4/4/2 8/65/2 7/5/2
f 7/2/3 8/28/3 6/1/3
f 6/7/4 2/4/4 1/6/4
f 7/8/5 5/66/5 1/9/5
f 20/11/1 19/19/1 9/12/1
f 10/14/7 9/17/7 12/15/7
f 9/17/7 18/22/7 17/18/7
f 22/11/23 11/13/23 12/12/23
f 11/16/7 14/50/7 13/20/7
f 24/21/8 17/18/8 18/22/8
f 6/15/5 15/21/5 16/23/5
f 21/19/3 12/12/3 17/24/3
f 2/1/1 16/26/1 23/25/1
f 19/19/1 23/25/1 18/24/1
f 21/19/3 24/25/3 15/26/3
f 16/26/1 48/55/1 49/27/1
f 8/28/3 22/11/3 21/19/3
f 2/1/1 19/19/1 20/11/1
f 31/32/24 32/35/24 33/33/24
f 36/32/25 37/34/25 38/33/25
f 46/36/13 45/44/13 36/37/13
f 32/39/14 31/46/14 44/40/14
f 26/30/15 25/29/15 40/42/15
f 29/29/16 28/30/16 42/43/16
f 28/37/5 26/46/5 39/40/5
f 30/47/5 8/67/5 4/45/5
f 4/45/5 27/68/5 26/46/5
f 26/46/5 28/37/5 30/47/5
f 32/35/1 43/48/1 40/42/1
f 27/31/1 4/28/1 20/11/1
f 20/11/1 33/33/1 32/35/1
f 32/35/1 25/29/1 27/31/1
f 38/33/3 22/11/3 8/28/3
f 8/28/3 30/31/3 29/29/3
f 29/29/3 35/35/3 38/33/3
f 29/29/3 41/42/3 46/48/3
f 14/50/17 37/69/17 36/37/17
f 36/37/17 31/46/17 34/49/17
f 34/49/17 13/20/17 14/50/17
f 36/37/7 45/44/7 44/40/7
f 33/33/26 20/11/26 10/13/26
f 10/13/27 13/51/27 34/34/27
f 14/51/28 11/13/28 22/11/28
f 22/11/3 38/33/3 37/34/3
f 46/54/20 41/70/20 42/71/20
f 42/71/20 39/72/20 40/52/20
f 40/52/20 43/73/20 44/53/20
f 44/53/20 45/74/20 46/54/20
f 46/54/20 42/71/20 40/52/20
f 47/55/3 50/27/3 54/56/3
f 24/25/3 50/27/3 47/55/3
f 15/21/5 47/59/5 48/58/5
f 23/23/7 49/58/7 50/59/7
f 51/60/21 54/75/21 53/61/21
f 47/59/22 51/64/22 52/63/22
f 50/59/7 49/58/7 53/63/7
f 48/55/1 52/57/1 53/56/1
