# Blender 5.1.2
# www.blender.org
mtllib head.mtl
o Cube
v -0.105000 -0.130000 0.105000
v -0.105000 -0.105000 0.130000
v -0.130000 -0.105000 0.105000
v -0.105000 0.105000 0.130000
v -0.105000 0.130000 0.105000
v -0.130000 0.105000 0.105000
v -0.105000 -0.130000 -0.105000
v -0.130000 -0.105000 -0.105000
v -0.105000 -0.105000 -0.130000
v -0.105000 0.130000 -0.105000
v -0.105000 0.105000 -0.130000
v -0.130000 0.105000 -0.105000
v 0.105000 -0.130000 0.105000
v 0.130000 -0.105000 0.105000
v 0.105000 -0.105000 0.130000
v 0.105000 0.130000 0.105000
v 0.105000 0.105000 0.130000
v 0.130000 0.105000 0.105000
v 0.105000 -0.130000 -0.105000
v 0.105000 -0.105000 -0.130000
v 0.130000 -0.105000 -0.105000
v 0.105000 0.130000 -0.105000
v 0.130000 0.105000 -0.105000
v 0.105000 0.105000 -0.130000
vn -0.5774 -0.5774 0.5774
vn -0.5774 0.5774 0.5774
vn -0.5774 -0.5774 -0.5774
vn -0.5774 0.5774 -0.5774
vn 0.5774 -0.5774 0.5774
vn 0.5774 0.5774 0.5774
vn 0.5774 -0.5774 -0.5774
vn 0.5774 0.5774 -0.5774
vn -0.7071 -0.7071 -0.0000
vn -0.7071 -0.0000 0.7071
vn -0.7071 0.7071 -0.0000
vn -0.7071 -0.0000 -0.7071
vn -0.0000 -0.7071 -0.7071
vn -0.0000 0.7071 -0.7071
vn 0.7071 -0.0000 -0.7071
vn 0.7071 -0.7071 -0.0000
vn 0.7071 0.7071 -0.0000
vn 0.7071 -0.0000 0.7071
vn -0.0000 -0.7071 0.7071
vn -0.0000 0.7071 0.7071
vn -0.0000 -1.0000 -0.0000
vn -1.0000 -0.0000 -0.0000
vn -0.0000 -0.0000 1.0000
vn -0.0000 1.0000 -0.0000
vn -0.0000 -0.0000 -1.0000
vn 1.0000 -0.0000 -0.0000
vt 0.096154 0.096154
vt 0.096154 0.000000
vt 0.000000 0.096154
vt 0.096154 0.903846
vt 0.000000 0.903846
vt 0.096154 1.000000
vt 0.903846 0.096154
vt 1.000000 0.096154
vt 0.903846 0.000000
vt 0.903846 0.903846
vt 0.903846 1.000000
vt 1.000000 0.903846
s 0
f 1/1/1 2/2/1 3/3/1
f 4/2/2 5/1/2 6/3/2
f 7/4/3 8/5/3 9/6/3
f 10/4/4 11/6/4 12/5/4
f 13/7/5 14/8/5 15/9/5
f 16/7/6 17/9/6 18/8/6
f 19/10/7 20/11/7 21/12/7
f 22/10/8 23/12/8 24/11/8
f 1/1/9 8/5/9 7/4/9
f 4/4/10 3/3/10 2/1/10
f 10/4/11 6/3/11 5/1/11
f 9/1/12 12/5/12 11/4/12
f 7/4/13 20/11/13 19/10/13
f 22/10/14 11/6/14 10/4/14
f 21/8/15 24/10/15 23/12/15
f 19/10/16 14/8/16 13/7/16
f 16/7/17 23/12/17 22/10/17
f 15/7/18 18/12/18 17/10/18
f 13/7/19 2/2/19 1/1/19
f 5/1/20 17/9/20 16/7/20
f 19/10/21 1/1/21 7/4/21
f 6/4/22 8/7/22 3/1/22
f 17/10/23 2/1/23 15/7/23
f 10/4/24 16/7/24 22/10/24
f 11/4/25 20/7/25 9/1/25
f 23/10/26 14/1/26 21/7/26
f 1/1/9 3/3/9 8/5/9
f 4/4/10 6/5/10 3/3/10
f 10/4/11 12/5/11 6/3/11
f 9/1/12 8/3/12 12/5/12
f 7/4/13 9/6/13 20/11/13
f 22/10/14 24/11/14 11/6/14
f 21/8/15 20/7/15 24/10/15
f 19/10/16 21/12/16 14/8/16
f 16/7/17 18/8/17 23/12/17
f 15/7/18 14/8/18 18/12/18
f 13/7/19 15/9/19 2/2/19
f 5/1/20 4/2/20 17/9/20
f 19/10/21 13/7/21 1/1/21
f 6/4/22 12/10/22 8/7/22
f 17/10/23 4/4/23 2/1/23
f 10/4/24 5/1/24 16/7/24
f 11/4/25 24/10/25 20/7/25
f 23/10/26 18/4/26 14/1/26
