# Blender 5.1.2
# www.blender.org
mtllib lower_leg.mtl
o Cube
v 0.075000 -0.240000 0.075000
v 0.075000 0.000000 0.075000
v -0.075000 -0.240000 0.075000
v -0.075000 0.000000 0.075000
v 0.075000 -0.240000 -0.075000
v 0.075000 0.000000 -0.075000
v -0.075000 -0.240000 -0.075000
v -0.075000 0.000000 -0.075000
v -0.075000 -0.300000 0.075000
v 0.075000 -0.300000 0.075000
v -0.075000 -0.300000 -0.075000
v 0.075000 -0.300000 -0.075000
v -0.075000 -0.240000 0.255000
v 0.075000 -0.240000 0.255000
v -0.075000 -0.300000 0.255000
v 0.075000 -0.300000 0.255000
vn -0.0000 -0.0000 1.0000
vn -1.0000 -0.0000 -0.0000
vn -0.0000 -0.0000 -1.0000
vn 1.0000 -0.0000 -0.0000
vn -0.0000 1.0000 -0.0000
vn -0.0000 -1.0000 -0.0000
vt 0.272727 0.500000
vt 0.727273 -0.227273
vt 0.272727 -0.227273
vt 0.727273 0.500000
vt 0.272727 0.727273
vt -0.272727 0.272727
vt 0.272727 0.272727
vt 0.727273 0.272727
vt 0.727273 0.727273
vt 0.727273 -0.409091
vt 0.272727 -0.409091
vt -0.272727 -0.227273
vt -0.272727 0.727273
vt -0.272727 -0.409091
s 0
f 2/1/1 3/2/1 1/3/1
f 4/1/2 7/2/2 3/3/2
f 8/4/3 5/3/3 7/2/3
f 6/4/4 1/3/4 5/2/4
f 3/5/5 14/6/5 1/7/5
f 4/5/5 6/8/5 8/9/5
f 11/9/6 10/7/6 9/5/6
f 5/3/3 11/10/3 7/2/3
f 1/3/4 12/10/4 5/2/4
f 7/2/2 9/11/2 3/3/2
f 13/2/1 16/11/1 14/3/1
f 9/11/2 13/12/2 3/3/2
f 10/7/6 15/13/6 9/5/6
f 1/3/4 16/14/4 10/11/4
f 2/1/1 4/4/1 3/2/1
f 4/1/2 8/4/2 7/2/2
f 8/4/3 6/1/3 5/3/3
f 6/4/4 2/1/4 1/3/4
f 3/5/5 13/13/5 14/6/5
f 4/5/5 2/7/5 6/8/5
f 11/9/6 12/8/6 10/7/6
f 5/3/3 12/11/3 11/10/3
f 1/3/4 10/11/4 12/10/4
f 7/2/2 11/10/2 9/11/2
f 13/2/1 15/10/1 16/11/1
f 9/11/2 15/14/2 13/12/2
f 10/7/6 16/6/6 15/13/6
f 1/3/4 14/12/4 16/14/4
