# Blender 5.1.2
# www.blender.org
mtllib torso.mtl
o Cube
v 0.187500 -0.138951 0.121875
v 0.187500 0.387299 0.121875
v -0.187500 -0.138951 0.121875
v -0.187500 0.387299 0.121875
v 0.187500 -0.138951 -0.121875
v 0.187500 0.387299 -0.121875
v -0.187500 -0.138951 -0.121875
v -0.187500 0.387299 -0.121875
v 0.056250 0.436049 0.036562
v -0.056250 0.436049 0.036562
v -0.056250 0.436049 -0.036562
v 0.056250 0.436049 -0.036562
v 0.056250 0.511049 0.036562
v -0.056250 0.511049 0.036562
v -0.056250 0.511049 -0.036562
v 0.056250 0.511049 -0.036562
v 0.187500 0.074174 0.121875
v -0.187500 0.074174 0.121875
v -0.187500 0.074174 -0.121875
v 0.187500 0.074174 -0.121875
v 0.187500 0.230737 0.121875
v -0.187500 0.230737 0.121875
v -0.187500 0.230737 -0.121875
v 0.187500 0.230737 -0.121875
v -0.187500 -0.138951 -0.040625
v -0.187500 -0.138951 0.040625
v -0.187500 0.387299 0.040625
v -0.187500 0.387299 -0.040625
v 0.187500 -0.138951 0.040625
v 0.187500 -0.138951 -0.040625
v 0.187500 0.387299 -0.040625
v 0.187500 0.387299 0.040625
v -0.056250 0.436049 0.012187
v -0.056250 0.436049 -0.012187
v 0.056250 0.436049 -0.012188
v 0.056250 0.436049 0.012187
v -0.056250 0.511049 0.012187
v -0.056250 0.511049 -0.012187
v 0.056250 0.511049 -0.012188
v 0.056250 0.511049 0.012187
v 0.187500 0.074174 -0.040625
v 0.187500 0.074174 0.040625
v -0.187500 0.074174 0.040625
v -0.187500 0.074174 -0.040625
v 0.187500 0.230737 -0.040625
v 0.187500 0.230737 0.040625
v -0.187500 0.230737 0.040625
v -0.187500 0.230737 -0.040625
v 0.337500 0.387299 -0.040625
v 0.337500 0.387299 0.040625
v 0.337500 0.230737 -0.040625
v 0.337500 0.230737 0.040625
v -0.337500 0.387299 0.040625
v -0.337500 0.387299 -0.040625
v -0.337500 0.230737 0.040625
v -0.337500 0.230737 -0.040625
vn -0.0000 -0.0000 1.0000
vn -1.0000 -0.0000 -0.0000
vn -0.0000 -0.0000 -1.0000
vn 1.0000 -0.0000 -0.0000
vn -0.0000 -1.0000 -0.0000
vn -0.0000 0.8682 -0.4961
vn -0.0000 0.8682 0.4961
vn 0.3482 0.9374 -0.0000
vn -0.3482 0.9374 -0.0000
vn -0.0000 1.0000 -0.0000
vt 0.777778 0.686866
vt 0.222222 0.454921
vt 0.777778 0.454921
vt 0.592593 0.686866
vt 0.592593 0.454921
vt 0.222222 0.686866
vt 0.222222 0.454921
vt 0.407407 0.686866
vt 0.407407 0.454921
vt 0.222222 0.777778
vt 0.777778 0.592593
vt 0.222222 0.592593
vt 0.777778 0.777778
vt 0.416667 0.583333
vt 0.583333 0.583333
vt 0.583333 0.759088
vt 0.527778 0.870199
vt 0.527778 0.759088
vt 0.222222 0.222222
vt 0.583333 0.416667
vt 0.416667 0.416667
vt 0.583333 0.527778
vt 0.222222 0.407407
vt 0.416667 0.472222
vt 0.583333 0.472222
vt 0.416667 0.759088
vt 0.472222 0.870199
vt 0.472222 0.759088
vt 0.583333 0.870199
vt 0.416667 0.870199
vt 0.407407 0.222977
vt 0.222222 -0.092764
vt 0.407407 -0.092764
vt 0.222222 0.222977
vt 0.777778 -0.092764
vt 0.222222 -0.092764
vt 0.592593 0.222977
vt 0.592593 -0.092764
vt 0.777778 0.222977
vt 0.222222 0.222977
vt 0.407407 0.222977
vt 0.407407 0.454921
vt 0.407407 -0.092764
vt 0.416667 0.527778
vt 0.777778 0.407407
vt 0.777778 0.222222
vt 1.000000 0.686866
vt 0.000000 0.407407
vt 0.592593 0.686866
vt 0.592593 0.454921
vt 1.000000 0.407407
vt 1.000000 0.454921
vt 1.000000 0.592593
vt 0.407407 0.686866
vt 0.407407 0.454921
vt 0.000000 0.686866
vt 0.222222 0.686866
vt 0.000000 0.592593
vt 0.000000 0.454921
vt 0.407407 0.686866
s 0
f 2/1/1 22/2/1 21/3/1
f 28/4/2 23/3/2 48/5/2
f 8/6/3 24/3/3 23/7/3
f 32/8/4 21/2/4 46/9/4
f 7/10/5 30/11/5 25/12/5
f 6/13/6 11/14/6 12/15/6
f 12/16/4 39/17/4 35/18/4
f 4/19/7 9/20/7 10/21/7
f 31/11/8 12/15/8 35/22/8
f 27/23/9 10/21/9 33/24/9
f 14/21/10 40/25/10 37/24/10
f 10/26/2 37/27/2 33/28/2
f 11/26/3 16/29/3 12/16/3
f 9/16/1 14/30/1 10/26/1
f 42/31/4 1/32/4 29/33/4
f 19/34/3 5/35/3 7/36/3
f 44/37/2 7/35/2 25/38/2
f 17/39/1 3/32/1 1/35/1
f 46/9/4 17/40/4 42/31/4
f 23/7/3 20/39/3 19/34/3
f 48/5/2 19/39/2 44/37/2
f 21/3/1 18/40/1 17/39/1
f 22/7/2 43/41/2 18/34/2
f 47/42/2 44/37/2 43/41/2
f 24/3/4 41/37/4 20/39/4
f 45/5/4 42/31/4 41/37/4
f 18/34/2 26/43/2 3/36/2
f 43/41/2 25/38/2 26/43/2
f 20/39/4 30/38/4 5/35/4
f 41/37/4 29/33/4 30/38/4
f 34/18/2 15/29/2 11/16/2
f 33/28/2 38/17/2 34/18/2
f 38/44/10 16/15/10 15/14/10
f 37/24/10 39/22/10 38/44/10
f 28/12/9 11/14/9 8/10/9
f 28/12/9 33/24/9 34/44/9
f 32/45/8 9/20/8 2/46/8
f 32/45/8 35/22/8 36/25/8
f 36/28/4 13/30/4 9/26/4
f 35/18/4 40/27/4 36/28/4
f 3/19/5 29/45/5 1/46/5
f 25/12/5 29/45/5 26/23/5
f 6/1/4 45/5/4 24/3/4
f 46/3/1 50/47/1 32/1/1
f 4/6/2 47/42/2 22/7/2
f 28/12/10 53/48/10 27/23/10
f 49/49/4 52/9/4 51/50/4
f 45/11/5 52/51/5 46/45/5
f 31/1/3 51/52/3 45/3/3
f 32/45/10 49/53/10 31/11/10
f 53/54/2 56/5/2 55/55/2
f 48/2/3 54/56/3 28/57/3
f 47/23/5 56/58/5 48/12/5
f 27/6/1 55/59/1 47/7/1
f 2/1/1 4/57/1 22/2/1
f 28/4/2 8/1/2 23/3/2
f 8/6/3 6/1/3 24/3/3
f 32/8/4 2/57/4 21/2/4
f 7/10/5 5/13/5 30/11/5
f 6/13/6 8/10/6 11/14/6
f 12/16/4 16/29/4 39/17/4
f 4/19/7 2/46/7 9/20/7
f 31/11/8 6/13/8 12/15/8
f 27/23/9 4/19/9 10/21/9
f 14/21/10 13/20/10 40/25/10
f 10/26/2 14/30/2 37/27/2
f 11/26/3 15/30/3 16/29/3
f 9/16/1 13/29/1 14/30/1
f 42/31/4 17/40/4 1/32/4
f 19/34/3 20/39/3 5/35/3
f 44/37/2 19/39/2 7/35/2
f 17/39/1 18/40/1 3/32/1
f 46/9/4 21/2/4 17/40/4
f 23/7/3 24/3/3 20/39/3
f 48/5/2 23/3/2 19/39/2
f 21/3/1 22/2/1 18/40/1
f 22/7/2 47/42/2 43/41/2
f 47/42/2 48/5/2 44/37/2
f 24/3/4 45/5/4 41/37/4
f 45/5/4 46/9/4 42/31/4
f 18/34/2 43/41/2 26/43/2
f 43/41/2 44/37/2 25/38/2
f 20/39/4 41/37/4 30/38/4
f 41/37/4 42/31/4 29/33/4
f 34/18/2 38/17/2 15/29/2
f 33/28/2 37/27/2 38/17/2
f 38/44/10 39/22/10 16/15/10
f 37/24/10 40/25/10 39/22/10
f 28/12/9 34/44/9 11/14/9
f 28/12/9 27/23/9 33/24/9
f 32/45/8 36/25/8 9/20/8
f 32/45/8 31/11/8 35/22/8
f 36/28/4 40/27/4 13/30/4
f 35/18/4 39/17/4 40/27/4
f 3/19/5 26/23/5 29/45/5
f 25/12/5 30/11/5 29/45/5
f 6/1/4 31/4/4 45/5/4
f 46/3/1 52/52/1 50/47/1
f 4/6/2 27/60/2 47/42/2
f 28/12/10 54/58/10 53/48/10
f 49/49/4 50/8/4 52/9/4
f 45/11/5 51/53/5 52/51/5
f 31/1/3 49/47/3 51/52/3
f 32/45/10 50/51/10 49/53/10
f 53/54/2 54/4/2 56/5/2
f 48/2/3 56/59/3 54/56/3
f 47/23/5 55/48/5 56/58/5
f 27/6/1 53/56/1 55/59/1
